<?xml version="1.0" encoding="UTF-8"?><svg id="Layer_1" xmlns="http://www.w3.org/2000/svg" width="100" height="100" viewBox="0 0 100 100"><defs><style>.cls-1{fill:#fff;}.cls-2{fill:#c3002f;}.cls-3{fill:#dd0031;}</style></defs><polygon class="cls-3" points="50 .5 50 .5 50 .5 3.92 16.93 10.94 77.87 50 99.5 50 99.5 50 99.5 89.06 77.87 96.08 16.93 50 .5"/><polygon class="cls-2" points="50 .5 50 11.49 50 11.44 50 61.58 50 61.58 50 99.5 50 99.5 89.06 77.87 96.08 16.93 50 .5"/><path class="cls-1" d="m50,11.44l-28.81,64.6h10.74l5.79-14.45h24.45l5.79,14.45h10.74L50,11.44h0Zm8.42,41.23h-16.83l8.41-20.25,8.42,20.25Z"/></svg>