<?xml version="1.0" encoding="UTF-8"?><svg id="Layer_1" xmlns="http://www.w3.org/2000/svg" width="100" height="100" viewBox="0 0 100 100"><defs><style>.cls-1{fill:#fff;}.cls-2{fill:#a179dc;}.cls-3{fill:#390091;}.cls-4{fill:#280068;}</style></defs><path class="cls-2" d="m94.04,29.61c0-1.66-.36-3.14-1.08-4.4-.71-1.24-1.77-2.28-3.19-3.1-11.73-6.76-23.46-13.5-35.19-20.27-3.16-1.82-6.22-1.76-9.36.09-4.67,2.75-28.04,16.14-35,20.17-2.87,1.66-4.26,4.2-4.26,7.5,0,13.6,0,27.2,0,40.79,0,1.63.34,3.07,1.03,4.31.71,1.28,1.78,2.35,3.23,3.19,6.96,4.03,30.34,17.42,35,20.17,3.14,1.85,6.2,1.92,9.36.09,11.72-6.77,23.46-13.51,35.19-20.27,1.45-.84,2.53-1.91,3.23-3.19.69-1.24,1.03-2.69,1.03-4.31,0,0,0-27.19,0-40.79"/><path class="cls-4" d="m50.13,49.87L6.99,74.71c.71,1.28,1.78,2.35,3.23,3.19,6.96,4.03,30.34,17.42,35,20.17,3.14,1.85,6.2,1.92,9.36.09,11.72-6.77,23.46-13.51,35.19-20.27,1.45-.84,2.53-1.91,3.23-3.19l-42.88-24.84Z"/><path class="cls-3" d="m94.04,29.61c0-1.66-.36-3.14-1.08-4.4l-42.83,24.66,42.88,24.84c.69-1.24,1.03-2.69,1.03-4.31,0,0,0-27.19,0-40.79"/><g><path class="cls-1" d="m75.54,40.58v4.64h4.64v-4.64h2.32v4.64h4.64v2.32h-4.64v4.64h4.64v2.32h-4.64v4.64h-2.32v-4.64h-4.64v4.64h-2.32v-4.64h-4.64v-2.32h4.64v-4.64h-4.64v-2.32h4.64v-4.64h2.32Zm4.64,6.97h-4.64v4.64h4.64v-4.64Z"/><path class="cls-1" d="m50.23,17.26c12.11,0,22.69,6.58,28.35,16.36l-.06-.09-14.25,8.21c-2.81-4.75-7.95-7.96-13.86-8.03h-.19c-9,0-16.3,7.3-16.3,16.3,0,2.84.74,5.63,2.15,8.09,2.81,4.91,8.09,8.21,14.15,8.21s11.41-3.35,14.21-8.31l-.07.12,14.23,8.24c-5.6,9.69-16.03,16.25-28,16.38h-.36c-12.15,0-22.76-6.62-28.41-16.45-2.76-4.8-4.34-10.36-4.34-16.29,0-18.08,14.66-32.74,32.74-32.74h0Z"/></g></svg>