<?xml version="1.0" encoding="UTF-8"?><svg id="Layer_1" xmlns="http://www.w3.org/2000/svg" width="100" height="100" viewBox="0 0 100 100"><defs><style>.cls-1{fill:#ebebeb;}.cls-2{fill:#fff;}.cls-3{fill:#f16529;}.cls-4{fill:#e44d26;}</style></defs><path d="m21.46.5h4.45v4.41h4.1V.5h4.45v13.34h-4.45v-4.45h-4.06v4.45h-4.49m18.87-8.89h-3.93V.5h12.32v4.45h-3.94v8.89h-4.45M50.68.5h4.66l2.86,4.7,2.86-4.7h4.66v13.34h-4.45v-6.61l-3.11,4.8-3.11-4.8v6.61h-4.37M67.92.5h4.45v8.93h6.3v4.41h-10.75"/><path class="cls-4" d="m21.31,91.57L14.92,19.95h70.15l-6.38,71.58-28.75,7.97"/><path class="cls-3" d="m50,93.41V25.83h28.68l-5.47,61.1"/><path class="cls-1" d="m27.96,34.59h22.04v8.78h-12.41l.81,8.99h11.6v8.76h-19.65m.39,4.41h8.82l.62,7.02,9.82,2.63v9.17l-18.02-5.03"/><path class="cls-2" d="m71.97,34.59h-22v8.78h21.19m-.79,8.99h-20.4v8.78h10.83l-1.02,11.41-9.8,2.63v9.13l17.98-4.99"/></svg>