<?xml version="1.0" encoding="UTF-8"?>
<svg id="Layer_2" data-name="Layer 2" xmlns="http://www.w3.org/2000/svg" viewBox="0 0 107.8 107.8">
  <defs>
    <style>
      .cls-1 {
        fill: #fff;
      }
    </style>
  </defs>
  <g id="Layer_1-2" data-name="Layer 1">
    <g id="Component_3" data-name="Component 3">
      <g id="Component_3-2" data-name="Component 3">
        <path id="Path_8485" data-name="Path 8485" class="cls-1" d="m53.9,25.34c-15.78,0-28.58,12.79-28.58,28.58s12.79,28.58,28.58,28.58,28.58-12.79,28.58-28.58h0c0-15.78-12.79-28.58-28.58-28.58Z"/>
        <circle id="Ellipse_31" data-name="Ellipse 31" class="cls-1" cx="86.12" cy="23.67" r="13.02"/>
        <path id="Path_8486" data-name="Path 8486" class="cls-1" d="m102.95,31.6l-.47-1.03-.73.85c-1.83,2.08-4.15,3.68-6.75,4.65l-.73.26.29.73c9.34,22.47-1.3,48.26-23.77,57.6-22.47,9.34-48.26-1.3-57.6-23.77-9.34-22.47,1.3-48.26,23.77-57.6,11.52-4.79,24.54-4.47,35.81.88l.69.33.3-.73c1.1-2.55,2.8-4.79,4.97-6.52l.88-.73-1.01-.52C70.97,2.04,62.49-.02,53.89,0,24.12,0,0,24.14,0,53.91s24.14,53.9,53.91,53.89,53.9-24.14,53.89-53.91c0-7.72-1.66-15.34-4.86-22.36v.07Z"/>
      </g>
    </g>
  </g>
</svg>