<?xml version="1.0" encoding="UTF-8"?><svg id="Layer_1" xmlns="http://www.w3.org/2000/svg" width="100" height="100" viewBox="0 0 100 100"><defs><style>.cls-1{fill:#f58219;}.cls-2{fill:#4e7896;}</style></defs><path class="cls-2" d="m37.08,77.04s-3.8,2.31,2.65,2.98c7.75.99,11.9.83,20.5-.83,0,0,2.31,1.48,5.46,2.65-19.34,8.26-43.81-.49-28.6-4.79h0Zm-2.48-10.75s-4.13,3.14,2.31,3.8c8.43.83,15.07.99,26.45-1.32,0,0,1.48,1.65,3.97,2.48-23.31,6.94-49.43.66-32.73-4.96h0Zm45.63,18.84s2.81,2.31-3.14,4.13c-11.08,3.31-46.45,4.3-56.37,0-3.47-1.48,3.14-3.66,5.29-3.97,2.15-.49,3.31-.49,3.31-.49-3.8-2.65-25.29,5.46-10.91,7.75,39.51,6.45,72.07-2.81,61.82-7.44v.02Zm-41.33-30.09s-18.02,4.3-6.45,5.79c4.96.66,14.71.49,23.8-.17,7.44-.66,14.88-1.98,14.88-1.98,0,0-2.65,1.16-4.46,2.31-18.35,4.79-53.56,2.65-43.47-2.31,8.6-4.13,15.7-3.66,15.7-3.66v.02Zm32.24,18.02c18.51-9.59,9.92-18.84,3.97-17.69-1.48.33-2.15.66-2.15.66,0,0,.49-.99,1.65-1.32,11.74-4.13,20.99,12.4-3.8,18.84,0,0,.17-.17.33-.49h0Zm-30.41,26.11c17.85,1.16,45.13-.66,45.79-9.09,0,0-1.32,3.31-14.71,5.79-15.21,2.81-34.05,2.48-45.13.66,0,0,2.31,1.98,14.05,2.65h0Z"/><path class="cls-1" d="m59.89.5s10.25,10.42-9.75,26.12c-16.03,12.73-3.66,20,0,28.27-9.42-8.43-16.2-15.87-11.57-22.81,6.78-10.25,25.46-15.21,21.32-31.57h0Zm-5.29,47.44c4.79,5.46-1.32,10.42-1.32,10.42,0,0,12.23-6.28,6.61-14.05-5.12-7.44-9.09-11.08,12.4-23.47,0,0-33.89,8.43-17.69,27.11h0Z"/></svg>