<svg id="Unofficial_JavaScript_logo_2" xmlns="http://www.w3.org/2000/svg" width="111" height="111" viewBox="0 0 111 111">
  <defs>
    <style>
      .cls-1 {
        fill: #f7df1e;
      }
    </style>
  </defs>
  <rect id="Rectangle_6896" data-name="Rectangle 6896" class="cls-1" width="111" height="111" rx="13"/>
  <path id="Path_13506" data-name="Path 13506" d="M217.344,327.15c2.538,4.144,5.84,7.19,11.68,7.19,4.906,0,8.04-2.452,8.04-5.84,0-4.06-3.22-5.5-8.62-7.86l-2.96-1.27c-8.544-3.64-14.22-8.2-14.22-17.84,0-8.88,6.766-15.64,17.34-15.64,7.528,0,12.94,2.62,16.84,9.48l-9.22,5.92c-2.03-3.64-4.22-5.074-7.62-5.074-3.468,0-5.666,2.2-5.666,5.074,0,3.552,2.2,4.99,7.28,7.19l2.96,1.268c10.06,4.314,15.74,8.712,15.74,18.6,0,10.66-8.374,16.5-19.62,16.5-11,0-18.1-5.24-21.576-12.108Zm-41.826,1.026c1.86,3.3,3.552,6.09,7.62,6.09,3.89,0,6.344-1.522,6.344-7.44v-40.26h11.84v40.42c0,12.26-7.188,17.84-17.68,17.84-9.48,0-14.97-4.906-17.762-10.815Z" transform="translate(-147.704 -243.712)"/>
</svg>
