<?xml version="1.0" encoding="UTF-8"?><svg id="Layer_1" xmlns="http://www.w3.org/2000/svg" width="100" height="100" viewBox="0 0 100 100"><defs><style>.cls-1{fill:#0868ac;}</style></defs><path class="cls-1" d="m6.79,24.71c-8.77,12.6-7.67,28.99-.98,42.37.16.32.33.64.49.95.11.2.2.41.31.6.06.12.13.23.2.35.11.21.23.42.35.62.21.37.42.73.64,1.1.12.2.24.4.36.6.24.39.49.78.74,1.16.11.16.21.33.32.49.35.52.71,1.04,1.07,1.55,0,.01.02.03.03.04.06.08.12.16.18.24.32.44.65.87.98,1.3.12.16.25.31.37.47.3.37.6.74.91,1.11.11.14.23.28.35.41.41.49.83.97,1.26,1.44,0,0,.02.02.03.03.02.02.03.03.05.05.42.46.85.9,1.28,1.35.13.14.27.28.41.41.34.34.68.67,1.02,1,.14.13.28.27.42.4.46.43.93.86,1.4,1.28,0,0,.01.01.02.02.08.07.16.14.24.21.42.36.84.72,1.27,1.08.17.14.35.28.53.42.35.28.7.56,1.06.83.19.14.38.29.57.43.39.29.79.58,1.19.85.15.11.29.21.43.31.04.03.08.06.12.08.38.26.77.51,1.16.77.17.11.33.23.5.33.6.38,1.2.75,1.81,1.11.17.1.33.19.5.28.45.26.9.51,1.36.76.25.13.5.26.75.39.32.17.64.34.97.51.07.04.15.07.22.11.13.06.27.13.4.19.51.24,1.02.48,1.54.71.11.05.22.1.33.15.59.26,1.19.51,1.8.75.15.06.29.12.44.17.56.22,1.13.43,1.7.63.07.03.14.05.21.07.63.22,1.26.42,1.89.62.15.04.3.09.46.14.65.2,1.29.43,1.95.55,42.39,7.73,54.7-25.47,54.7-25.47-10.34,13.47-28.7,17.03-46.09,13.07-.66-.15-1.3-.35-1.94-.54-.16-.05-.32-.1-.48-.15-.63-.19-1.25-.4-1.87-.61-.08-.03-.17-.06-.26-.09-.55-.2-1.1-.4-1.65-.61-.15-.06-.31-.12-.46-.18-.6-.24-1.19-.48-1.78-.74-.12-.05-.24-.11-.36-.16-.5-.23-1-.46-1.5-.7-.14-.07-.29-.14-.43-.21-.39-.19-.78-.39-1.16-.59-.26-.14-.52-.26-.78-.41-.47-.25-.93-.51-1.39-.78-.16-.09-.31-.17-.47-.26-.61-.36-1.21-.73-1.81-1.11-.17-.11-.33-.22-.49-.33-.43-.28-.86-.56-1.29-.86-.14-.1-.28-.2-.42-.29-.41-.29-.82-.58-1.22-.88-.18-.14-.36-.27-.54-.41-.37-.28-.74-.57-1.1-.86-.16-.13-.33-.26-.49-.39-.46-.38-.92-.76-1.37-1.16-.05-.04-.1-.08-.15-.13-.49-.43-.97-.87-1.44-1.31-.14-.13-.27-.26-.41-.39-.35-.33-.7-.67-1.03-1.01-.14-.14-.27-.27-.41-.41-.43-.44-.85-.89-1.27-1.34-.02-.02-.04-.04-.06-.07-.44-.48-.87-.97-1.29-1.47-.11-.14-.22-.27-.34-.4-.31-.38-.62-.76-.93-1.15-.11-.14-.23-.28-.34-.42-.36-.47-.72-.95-1.07-1.42-9.66-13.17-13.13-31.34-5.41-46.26"/><path class="cls-1" d="m34,14.1c-6.34,9.12-5.99,21.33-1.05,30.98.83,1.62,1.76,3.19,2.8,4.68.95,1.36,2,2.98,3.26,4.07.46.5.93.99,1.42,1.48.12.13.25.25.37.37.47.46.96.91,1.45,1.35.02.02.04.04.06.05,0,0,.01,0,.01.01.55.48,1.12.95,1.7,1.4.13.1.26.2.39.3.58.44,1.17.88,1.78,1.3.02.01.03.03.05.04.27.18.54.36.81.53.13.08.25.17.38.25.43.28.87.55,1.32.81.06.04.12.07.19.11.38.22.77.44,1.16.65.14.08.27.14.41.22.27.14.54.28.81.42.04.02.08.04.12.06.56.27,1.12.54,1.7.79.12.05.25.1.37.15.46.2.92.39,1.39.56.2.07.4.15.6.22.42.16.85.3,1.28.44.19.06.38.13.58.18.61.19,1.21.43,1.85.53,32.73,5.42,40.28-19.78,40.28-19.78-6.81,9.81-20,14.49-34.08,10.84-.63-.16-1.24-.34-1.85-.54-.19-.06-.37-.12-.56-.18-.44-.14-.87-.29-1.3-.45-.2-.07-.39-.14-.59-.22-.47-.18-.93-.37-1.4-.56-.13-.05-.25-.1-.38-.16-.58-.25-1.15-.52-1.71-.79-.29-.14-.57-.29-.86-.44-.16-.08-.33-.17-.49-.25-.36-.2-.73-.4-1.08-.61-.08-.05-.17-.1-.26-.15-.44-.26-.88-.53-1.31-.8-.13-.08-.26-.18-.4-.26-.28-.18-.57-.37-.85-.56-.6-.42-1.19-.85-1.77-1.29-.13-.11-.27-.21-.4-.31-6.16-4.86-11.05-11.51-13.37-19.05-2.43-7.82-1.91-16.59,2.31-23.71"/><path class="cls-1" d="m56.88,6.17c-3.74,5.5-4.1,12.33-1.51,18.4,2.73,6.45,8.34,11.5,14.88,13.9.27.1.54.19.81.28.12.04.24.08.36.11.39.12.77.26,1.17.34,18.07,3.49,22.97-9.27,24.28-11.15-4.29,6.18-11.51,7.67-20.36,5.52-.7-.17-1.47-.42-2.14-.66-.86-.31-1.72-.66-2.54-1.06-1.57-.76-3.07-1.67-4.46-2.72-7.92-6.01-12.84-17.48-7.67-26.82"/></svg>