<?xml version="1.0" encoding="UTF-8"?><svg id="Layer_1" xmlns="http://www.w3.org/2000/svg" width="100" height="100" xmlns:xlink="http://www.w3.org/1999/xlink" viewBox="0 0 100 100"><defs><style>.cls-1{fill:url(#linear-gradient);}.cls-2{fill:#0078d4;}.cls-3{fill:url(#linear-gradient-3);}.cls-4{fill:url(#linear-gradient-2);}</style><linearGradient id="linear-gradient" x1="-1107.18" y1="-175.75" x2="-1126.66" y2="-233.31" gradientTransform="translate(1774.19 -264.37) scale(1.56 -1.56)" gradientUnits="userSpaceOnUse"><stop offset="0" stop-color="#114a8b"/><stop offset="1" stop-color="#0669bc"/></linearGradient><linearGradient id="linear-gradient-2" x1="-1101.07" y1="-202.57" x2="-1105.58" y2="-204.1" gradientTransform="translate(1774.19 -264.37) scale(1.56 -1.56)" gradientUnits="userSpaceOnUse"><stop offset="0" stop-color="#000" stop-opacity=".3"/><stop offset=".07" stop-color="#000" stop-opacity=".2"/><stop offset=".32" stop-color="#000" stop-opacity=".1"/><stop offset=".62" stop-color="#000" stop-opacity=".05"/><stop offset="1" stop-color="#000" stop-opacity="0"/></linearGradient><linearGradient id="linear-gradient-3" x1="-1103.42" y1="-174.02" x2="-1082.03" y2="-231" gradientTransform="translate(1774.19 -264.37) scale(1.56 -1.56)" gradientUnits="userSpaceOnUse"><stop offset="0" stop-color="#3ccbf4"/><stop offset="1" stop-color="#2892df"/></linearGradient></defs><path class="cls-1" d="m33.57,3.31h29.33l-30.48,90.21c-.65,1.87-2.45,3.17-4.4,3.17H5.18c-2.59,0-4.68-2.09-4.68-4.68,0-.5.07-1.01.22-1.51L29.1,6.48c.65-1.87,2.45-3.17,4.47-3.17h0Z"/><path class="cls-2" d="m76.16,63.83H29.68c-1.15,0-2.16.94-2.16,2.16,0,.58.22,1.15.72,1.59l29.83,27.81c.86.79,2.02,1.3,3.17,1.3h26.3l-11.38-32.86Z"/><path class="cls-4" d="m33.57,3.31c-2.02,0-3.82,1.3-4.47,3.24L.79,90.42c-.86,2.45.36,5.12,2.81,5.98.5.22,1.08.29,1.59.29h23.42c1.8-.29,3.24-1.59,3.82-3.24l5.62-16.64,20.17,18.81c.86.72,1.87,1.08,3.03,1.08h26.23l-11.53-32.86h-33.5L62.97,3.38h-29.4v-.07Z"/><path class="cls-3" d="m71.04,6.48c-.65-1.87-2.45-3.17-4.4-3.17h-32.71c2.02,0,3.75,1.3,4.4,3.17l28.32,84.01c.79,2.45-.5,5.12-2.95,5.91-.5.14-1.01.22-1.51.22h32.64c2.59,0,4.68-2.09,4.68-4.68,0-.5-.07-1.01-.22-1.51L71.04,6.48Z"/></svg>