<?xml version="1.0" encoding="UTF-8"?><svg id="Layer_1" xmlns="http://www.w3.org/2000/svg" width="100" height="100" xmlns:xlink="http://www.w3.org/1999/xlink" viewBox="0 0 100 100"><defs><style>.cls-1{fill:url(#linear-gradient);}.cls-2{fill:#231f1f;}.cls-3{fill:url(#linear-gradient-2);}.cls-4{fill:url(#radial-gradient);}</style><linearGradient id="linear-gradient" x1="-11085.47" y1="-5010.94" x2="-10981.43" y2="-5072.41" gradientTransform="translate(465.6 249.59) scale(.04)" gradientUnits="userSpaceOnUse"><stop offset="0" stop-color="#909ca9"/><stop offset="1" stop-color="#ededee"/></linearGradient><linearGradient id="linear-gradient-2" x1="-11083.14" y1="-6169.54" x2="-10999.43" y2="-6169.54" gradientTransform="translate(465.6 249.59) scale(.04)" gradientUnits="userSpaceOnUse"><stop offset="0" stop-color="#939fab"/><stop offset="1" stop-color="#dcdee1"/></linearGradient><radialGradient id="radial-gradient" cx="-3040.71" cy="-8874.79" fx="-3040.71" fy="-8874.79" r="111.14" gradientTransform="translate(47.92 -634.65) rotate(-171.46) scale(.04 .07) skewX(-.19)" gradientUnits="userSpaceOnUse"><stop offset="0" stop-color="#ee352c"/><stop offset="1" stop-color="#a91d22"/></radialGradient></defs><g><path class="cls-1" d="m67.62,35.47l-10.93,3.57-9.51,4.2-2.66.7c-.68.64-1.39,1.3-2.16,1.96-.84.73-1.63,1.39-2.23,1.87-.67.53-1.66,1.52-2.17,2.15-.75.94-1.35,1.94-1.6,2.71-.45,1.39-.23,2.79.64,4.09,1.12,1.65,3.36,3.34,5.97,4.49,1.33.59,3.57,1.34,5.26,1.76,2.8.71,8.22,1.48,11.21,1.6.6.02,1.41.02,1.45,0,.07-.04.53-.93,1.07-2.02,1.83-3.74,3.16-7.26,3.88-10.26.43-1.82.77-4.24.99-7.11.06-.8.08-3.49.03-4.4-.07-1.49-.21-2.69-.41-3.88-.03-.17-.04-.33-.02-.34.03-.02.13-.06,1.48-.45l-.27-.64h0s0,0,0,0h0Zm-2.5,1.46c.1,0,.36,2.54.43,4.14.02.34,0,.56,0,.56-.07,0-1.4-.78-2.35-1.38-.83-.52-2.4-1.56-2.64-1.76-.08-.06-.07-.07.6-.3,1.15-.39,3.88-1.26,3.97-1.26Zm-5.57,1.83c.07,0,.26.11.72.39,1.7,1.07,4.02,2.36,5.01,2.79.31.13.34.08-.36.56-1.5,1.02-3.38,2.03-5.68,3.05-.4.18-.74.32-.75.32-.02,0,.03-.21.1-.45.55-2.06.87-4.14.88-5.81q0-.83.08-.85s0,0,0,0h0Zm-1.15.44s.02,1.9-.05,2.4c-.15,1.21-.38,2.33-.76,3.59-.09.31-.17.56-.19.58-.03.04-1.17-1.07-1.54-1.5-.64-.74-1.15-1.49-1.52-2.21-.19-.37-.49-1.1-.46-1.12.13-.09,4.49-1.78,4.52-1.74h0Zm-5.4,2.12s.02,0,.02,0c.02.02.07.15.12.3.26.72.86,1.78,1.37,2.45.56.74,1.3,1.54,1.91,2.06.2.17.38.32.4.35.05.05.07.04-1.28.55-1.56.59-3.26,1.19-5.21,1.82-.47.15-.93.3-1.4.45-.07.02-.05-.02.17-.36.97-1.51,2.44-4.48,3.26-6.58.14-.36.28-.73.31-.81.03-.12.07-.16.18-.21.06-.02.12-.03.14-.03h0Zm-1.65.69s-.4.9-.81,1.71c-.8,1.56-1.68,3.1-2.85,4.97-.2.32-.39.62-.41.65-.04.06-.06.04-.19-.21-.28-.55-.51-1.26-.64-1.92-.12-.64-.1-1.77.04-2.46.11-.51.1-.5.35-.63,1.06-.54,4.48-2.14,4.51-2.11h0Zm14.26.58v.35c0,1.84-.2,4.37-.49,6.21-.05.32-.09.59-.1.59,0,0-.24-.07-.52-.15-1.24-.39-2.59-.96-3.8-1.63-.8-.44-1.97-1.16-1.93-1.19,0,0,.36-.19.76-.4,1.62-.84,3.17-1.75,4.52-2.65.5-.34,1.26-.88,1.43-1.03l.13-.1h0Zm-20.49,2.45s.02.07-.02.36c-.03.21-.07.61-.09.88-.07,1.21.13,2.1.73,3.32.17.34.3.62.29.63-.06.05-5.53,1.65-7.25,2.12-.51.14-.96.26-.99.27-.06.02-.07,0-.04-.13.19-1.21,1.12-2.8,2.4-4.14.86-.89,1.55-1.41,2.72-2.08.84-.48,2.14-1.2,2.24-1.23,0,0,0,0,.02,0h0Zm12.89,2.31s.21.1.45.24c1.77,1.02,4.23,1.98,6.33,2.46l.19.04-.26.15c-1.1.61-4.71,2.12-8.4,3.5-.54.2-1.07.4-1.17.44-.1.04-.19.07-.19.06s.15-.3.34-.65c1.03-1.93,2.07-4.29,2.6-5.93.07-.16.11-.3.12-.31h0Zm-1.31.43s-.06.18-.14.38c-.72,1.74-1.66,3.64-2.87,5.78-.31.55-.56.98-.57.98s-.26-.15-.55-.33c-1.75-1.07-3.31-2.4-4.32-3.68l-.15-.18.75-.21c2.69-.74,4.98-1.53,7.26-2.5.32-.13.59-.24.6-.24Zm8.16,2.85s0,0,0,0c0,.19-.41,1.89-.76,3.12-.29,1.03-.54,1.84-.99,3.27-.2.63-.37,1.15-.38,1.15s-.06,0-.11-.02c-2.45-.45-4.65-1.07-6.72-1.89-.58-.23-1.4-.6-1.45-.64-.02-.02.48-.25,1.11-.52,3.76-1.64,7.66-3.51,9-4.31.16-.1.28-.15.31-.15h0Zm-18.85.64s-1.03,1.53-2.5,3.59c-.51.72-1.11,1.56-1.33,1.88-.22.31-.56.81-.75,1.11l-.35.54-.37-.31c-.44-.36-1.2-1.14-1.54-1.57-.71-.88-1.19-1.82-1.38-2.67-.09-.4-.09-.6,0-.62.12-.03,2.33-.55,4.4-1.03,1.15-.26,2.48-.58,2.96-.69.48-.12.87-.21.88-.21h0Zm1.06.4l.26.3c1.19,1.33,2.4,2.31,3.88,3.17.26.15.46.28.45.29-.06.04-5.11,1.83-7.45,2.64-1.31.46-2.4.83-2.4.83s-.08-.05-.17-.11l-.15-.11.24-.35c.78-1.12,1.75-2.36,3.88-4.92l1.46-1.76h0Zm6.59,4.72s.37.12.82.29c1.07.4,1.93.66,3.07.95,1.4.36,3.44.7,4.64.8.18.02.28.03.25.06-.06.03-1.27.44-2.17.72-1.42.45-5.76,1.73-9.3,2.74-.65.19-1.21.35-1.25.36-.08.02-.36-.06-.36-.09,0-.02.2-.27.44-.55,1.19-1.42,2.37-3.01,3.36-4.51.27-.41.5-.75.5-.76h0Zm-1.45.04s-.58.95-1.6,2.57c-.44.69-.93,1.46-1.1,1.74-.17.26-.41.68-.55.91l-.24.42-.12-.03c-.3-.08-2.39-.82-2.94-1.04-.69-.27-1.4-.6-1.93-.88-.66-.36-1.49-.88-1.42-.9.02,0,1.15-.31,2.51-.69,3.62-.98,5.63-1.55,6.94-1.97.24-.07.45-.13.45-.12h0Zm10.29,2.41h0c.03.08-1.31,3.8-1.79,4.97-.11.26-.15.33-.21.32-.14,0-2.08-.28-3.26-.45-2.06-.31-5.51-.92-6.38-1.12l-.2-.04,1.23-.28c2.64-.59,3.92-.92,5.21-1.31,1.63-.5,3.24-1.12,4.87-1.88.26-.12.47-.21.53-.21h0Z"/><path class="cls-3" d="m56.35,9.98c-.18-.02-3.12,1.03-5.01,1.8-2.55,1.04-4.54,2.03-5.76,2.89-.45.32-1.02.89-1.12,1.12-.03.08-.05.18-.05.28l1.11,1.05,2.64.84,6.27,1.12,7.17,1.23.07-.62s-.04,0-.07,0l-.94-.15-.19-.34c-.98-1.72-2.05-3.85-2.68-5.29-.49-1.12-.95-2.4-1.21-3.33-.14-.56-.16-.59-.25-.6h0s0,0,0,0h0Zm-.13.42h0s.04.24.07.51c.14,1.16.4,2.27.8,3.48.31.91.31.86-.05.75-.84-.23-4.62-.88-7.35-1.26-.44-.06-.81-.12-.81-.12-.03-.03,1.98-1.08,2.86-1.5,1.13-.52,4.24-1.82,4.47-1.86Zm-7.97,3.7l.32.11c1.75.6,6.16,1.44,8.59,1.64.27.02.5.05.51.05,0,0-.22.13-.52.27-1.17.59-2.46,1.31-3.36,1.86-.26.17-.5.3-.54.3s-.21-.03-.39-.06l-.33-.05-.83-.81c-1.45-1.41-2.59-2.5-3.03-2.92l-.43-.39Zm-.33.26l1.17,1.45c.64.8,1.28,1.59,1.42,1.76.14.17.26.31.25.32-.03.02-1.69-.3-2.56-.5-.9-.21-1.27-.31-1.83-.48l-.45-.15v-.12c0-.55.71-1.38,1.9-2.22,0,0,.11-.07.11-.07Zm9.9,1.98s.07.07.17.3c.28.62,1.16,2.29,1.37,2.61.07.11.18.12-.98-.07-2.8-.45-3.7-.6-3.7-.62,0,0,.08-.07.19-.12.87-.48,1.74-1.09,2.52-1.74.19-.16.36-.31.4-.33,0-.02.02-.02.03-.02Z"/><path class="cls-4" d="m44.52,15.67s-.18.29,0,.72c.11.26.42.59.78.92,0,0,3.68,3.59,4.12,4.1,2.03,2.35,2.92,4.66,3,7.85.05,2.05-.34,3.85-1.31,5.94-1.72,3.75-5.35,7.89-10.94,12.49l.82-.27c.53-.4,1.25-.82,2.93-1.74,3.89-2.13,8.27-4.09,13.64-6.11,7.73-2.91,20.45-6.31,27.69-7.42l.75-.12-.12-.18c-.66-1.02-1.12-1.66-1.66-2.34-1.59-1.97-3.51-3.56-5.87-4.88-3.24-1.81-7.43-3.22-12.73-4.27-1-.2-3.2-.58-4.98-.85-3.78-.59-6.23-.99-8.92-1.45-.97-.17-2.41-.41-3.37-.62-.5-.11-1.45-.33-2.19-.59-.59-.23-1.45-.46-1.64-1.17h0Zm2.13,2.07s.14.04.31.1c.31.11.72.23,1.2.36.36.1.73.2,1.09.29.5.12.91.24.92.24.06.06.89,2.73,1.17,3.75.11.39.19.72.18.72,0,0-.1-.13-.21-.32-.97-1.7-2.5-3.43-4.26-4.82-.23-.17-.4-.31-.4-.32Zm4.07,1.12s.22.02.45.07c1.4.31,3.93.79,5.54,1.07.27.04.49.09.49.11s-.1.07-.22.14c-.27.14-1.37.79-1.74,1.04-.92.61-1.74,1.27-2.34,1.87-.24.24-.45.44-.45.44,0,0-.05-.14-.09-.31-.3-1.15-.92-2.85-1.48-4.05-.09-.19-.17-.36-.17-.38,0,.02,0,0,0,0h0Zm7.16,1.36s.13.3.3.92c.31,1.2.45,2.54.4,3.78-.02.35-.03.67-.05.71l-.02.08-.43-.14c-.88-.28-2.32-.7-3.55-1.05-.7-.19-1.27-.36-1.27-.38,0-.05,1.02-1.07,1.46-1.46.83-.74,3.1-2.49,3.17-2.46h0Zm.57.08s3.42.56,4.97.86c1.15.22,2.82.57,2.92.61.05.02-.12.12-.68.36-2.18.98-3.8,1.87-5.41,2.94-.42.28-.78.51-.79.51s-.02-.24-.02-.53c0-1.57-.31-3.16-.89-4.5-.06-.13-.11-.26-.1-.26Zm8.78,1.74s-.08.69-.18,1.09c-.3,1.23-1.1,3.06-2.08,4.78-.17.31-.33.55-.35.56-.02,0-.24-.12-.5-.26-.96-.56-2.05-1.09-3.24-1.59-.33-.14-.62-.26-.63-.27-.06-.05,2.6-1.81,4.01-2.65,1.12-.68,2.93-1.69,2.97-1.65Zm.63.1c.07,0,1.58.41,2.36.64,1.94.58,4.17,1.4,5.63,2.06l.6.27-.42.1c-3.55.82-6.59,1.76-9.53,2.95-.24.1-.45.18-.47.18s.07-.19.17-.42c.88-1.88,1.45-3.83,1.59-5.5,0-.16.03-.28.06-.28h0Zm-14.97,3.44s1.17.25,1.79.42c.94.26,2.94.93,2.94.98,0,0-.22.2-.49.43-1.08.9-2.12,1.85-3.37,3.06-.37.36-.69.64-.7.64s-.02-.05-.02-.12c.19-1.39.15-3.17-.12-4.98-.02-.23-.05-.43-.04-.44Zm24.14.02s-.53.88-.88,1.36c-.5.71-1.22,1.65-2.87,3.72-.87,1.09-1.84,2.32-2.16,2.74-.33.41-.6.76-.61.76s-.12-.15-.23-.33c-.93-1.39-2.03-2.6-3.35-3.69-.25-.21-.52-.43-.61-.5-.09-.07-.17-.13-.17-.14,0-.02,1.4-.63,2.47-1.06,1.87-.76,4.41-1.67,6.32-2.26,1-.31,2.07-.62,2.08-.6h0Zm.64.17s.23.09.47.23c2.01,1.15,3.97,2.63,5.53,4.15.44.43,1.52,1.55,1.5,1.56,0,0-.38.03-.83.07-3.48.26-7.93,1-12.21,2.03-.29.07-.55.12-.56.12s.31-.32.71-.71c2.51-2.42,3.66-3.95,5.02-6.68.19-.4.36-.75.37-.78t0,0h0Zm-18.4,1.88c.12.02,1.19.53,2,.93.74.37,1.86.97,1.92,1.02,0,0-.39.21-.88.45-1.55.78-2.88,1.51-4.27,2.36-.4.24-.73.44-.74.44-.03,0-.02-.03.2-.44.74-1.36,1.34-2.97,1.68-4.55.03-.12.07-.21.09-.21h0Zm-1.07.2s-.26,1.04-.43,1.59c-.34,1.05-.91,2.36-1.46,3.36-.13.23-.33.57-.44.76l-.21.33-.46-.45c-.54-.52-.98-.84-1.54-1.13-.22-.12-.4-.21-.4-.23,0-.07,1.41-1.35,2.5-2.27.78-.67,2.41-1.98,2.44-1.96h0Zm6.57,2.7l.4.26c.93.6,2.02,1.4,2.85,2.11.47.39,1.38,1.21,1.56,1.4l.1.11-.67.19c-3.78,1.05-6.71,1.98-10.12,3.24-.38.14-.7.26-.73.26-.05,0-.09.04.76-.74,2.18-2.01,4.12-4.22,5.55-6.38l.29-.45h0Zm-1.73.43s-1.12,1.61-1.79,2.51c-.81,1.07-2.25,2.88-3.24,4.05-.41.49-.77.89-.78.9-.02,0-.03-.12-.03-.31,0-1-.26-2.07-.7-2.97-.19-.38-.22-.47-.18-.51.16-.14,2.56-1.51,4.08-2.33,1.02-.55,2.63-1.36,2.65-1.34h0Zm-10.45,2.56s.21.1.43.21c.53.29,1,.61,1.42.96.02.02-.2.19-.48.4-.79.56-1.98,1.46-2.67,2.02-.73.58-.75.59-.67.47.55-.83.82-1.31,1.11-1.91.26-.54.51-1.17.69-1.73.07-.24.15-.42.17-.42h0Zm2.79,2.18s.09.07.31.4c.47.7.83,1.64.93,2.4l.02.17-1.13.44c-2.02.78-3.89,1.56-5.16,2.14-.36.17-.98.46-1.38.66-.4.21-.74.36-.74.36s.26-.2.57-.43c2.47-1.79,4.61-3.76,6.21-5.73.17-.21.33-.4.35-.4h.02s0,0,0,0Zm-1.28.31s-.91,1.1-1.55,1.75c-1.59,1.63-3.17,2.9-5.13,4.14-.25.16-.47.3-.5.31-.06.03.02-.05.88-.98.55-.59.96-1.08,1.43-1.69.31-.4.37-.46.83-.79,1.21-.88,4.02-2.78,4.05-2.74Z"/></g><path class="cls-2" d="m18.3,70.26c-.15,0-.3.01-.46.01-3.08.16-5.16,1.52-6.37,4.17-1.04,2.39-.93,5.52.01,7.93,1.09,2.35,2.85,3.59,5.79,4.06.62.1,1.04.44,2.24,1.85l1.48,1.74h2.69l-1.79-1.8c-.99-.99-1.79-1.85-1.79-1.92s.38-.24.84-.38c1.51-.46,2.76-1.62,3.64-3.41.71-1.43.81-1.88.91-3.66.27-5.31-2.53-8.63-7.19-8.59h0Zm2.36,13.88c-1.31.63-3.21.76-4.44.3-1.28-.47-2.52-1.8-3.08-3.31-.62-1.65-.53-4.69.18-6.05,1.14-2.18,2.65-3.18,4.85-3.18,3.27,0,5.13,2,5.37,5.76.19,3.14-.86,5.5-2.87,6.47h0Zm46.41-9.35c-1.13,0-1.99.46-2.57,1.35l-.46.71v-1.85h-1.95v11.1h1.95v-3.55c0-3.24.04-3.62.49-4.51.62-1.22,1.7-1.82,2.74-1.53l.7.2v-1.92h-.9Zm-11.46-.1c-.38,0-.79.05-1.19.14-2.61.68-4.08,3.18-3.99,5.75,0,2.15.42,3.23,1.46,4.36,2.13,1.75,4.05,1.89,6.65.95.44-.19.93-.41.93-.41v-1.75l-.93.48c-2.1.91-3.68.91-4.95-.16-.81-.82-1.16-1.81-1.33-2.94h7.86v-1.5c0-3.05-1.84-4.98-4.51-4.93h0,0Zm-3.18,4.87s.29-1.9,1.37-2.65c.52-.37,1.11-.54,1.7-.54s1.17.19,1.65.56c.99.76,1.15,2.62,1.15,2.62h-5.86s0,.01,0,.01h0Zm-47.02-2c-2.11-1.28-3.05-2.2-2.94-3.29.33-3.01,4.05-2.6,6.11-1.46v-2.03s-1.13-.49-2.76-.52c-2.51-.04-4.13.78-4.89,2.46-1.12,2.47-.13,4.33,3.44,6.41,2,1.17,2.89,2.18,2.89,3.28,0,2.28-2.75,3.08-5.59,1.65-.58-.29-1.08-.53-1.1-.53-.1.65-.05,2.19-.05,2.19,0,0,.87.37,2.18.62,3.24.65,6.19-.87,6.47-3.34.24-2.32-.6-3.53-3.77-5.43,0,0,0,0,0,0Zm78.92-2.89c-.38,0-.78.05-1.21.14-2.61.68-4.08,3.18-3.98,5.75,0,2.15.42,3.22,1.46,4.34,2.13,1.75,4.05,1.89,6.66.95.44-.19.92-.4.92-.4v-1.75l-.92.48c-2.11.91-3.69.91-4.95-.17-.81-.82-1.17-1.8-1.33-2.94h7.85v-1.5c0-3.04-1.84-4.96-4.51-4.91h0s0,0,0,0Zm-3.18,4.87s.29-1.9,1.37-2.66c.52-.37,1.11-.54,1.69-.54s1.17.19,1.65.56c.99.76,1.15,2.63,1.15,2.63h-5.86s0,.01,0,.01Zm-35.75-1.95c-2.11-1.28-3.05-2.2-2.94-3.29.33-3.02,4.05-2.6,6.11-1.46v-2.03s-1.13-.49-2.76-.52c-2.51-.04-4.13.78-4.89,2.46-1.11,2.47-.11,4.33,3.44,6.41,2,1.16,2.89,2.16,2.89,3.27,0,2.28-2.75,3.09-5.58,1.65-.58-.29-1.07-.53-1.1-.53-.1.65-.05,2.19-.05,2.19,0,0,.86.35,2.16.62,3.24.65,6.2-.87,6.47-3.34.24-2.31-.6-3.52-3.76-5.42h0s0,0,0,0Zm50.39-2.81c-1.13,0-2,.46-2.57,1.36l-.46.71v-1.85h-1.95v11.09h1.95v-3.55c0-3.24.04-3.62.49-4.51.62-1.22,1.7-1.82,2.74-1.53l.7.2v-1.93h-.9,0Zm-65.9,2.75v-7.07h-1.97v15.65h8.27v-1.85h-6.3v-6.74h0Zm45.48,2.2l-1.62,4.22-1.56-4.24-1.58-4.7h-2.01c1.3,3.7,2.72,7.46,4.15,11.11.62.01,1.24,0,1.86,0l2.19-5.5,2.23-5.61h-1.92s-.85,2.23-1.74,4.72h0s0,0,0,0Zm-40.94-13.54c.32,0,.58-.1.8-.32.21-.22.33-.47.33-.78s-.11-.58-.33-.78c-.22-.2-.47-.31-.78-.31s-.58.1-.8.32c-.22.22-.32.48-.32.78s.1.58.32.78c.2.2.47.3.78.3h0s0,0,0,0Zm-.7-1.8c.19-.19.42-.28.71-.28.28,0,.51.09.7.28.19.19.29.42.29.7s-.1.52-.29.71c-.19.19-.42.28-.7.28s-.51-.09-.7-.28c-.19-.19-.29-.43-.29-.71s.09-.51.28-.7Zm.47.8h.13c.09,0,.18.09.25.25l.15.34h.24l-.19-.38c-.08-.15-.15-.24-.24-.27.11-.03.2-.06.26-.14.06-.07.09-.15.09-.25,0-.12-.04-.2-.11-.27-.09-.07-.23-.11-.41-.11h-.4v1.42h.2v-.6h.02s0,0,0,0Zm0-.66h.18c.13,0,.22.03.27.06.05.04.06.09.06.18,0,.16-.1.24-.29.24h-.22v-.48h0Zm-32.48.53c0-.49-.01-.86-.03-1.08h.01c.05.26.11.45.16.57l1.89,4.22h.32l1.89-4.26c.05-.12.1-.29.16-.53h.01c-.04.42-.05.79-.05,1.08v3.72h.65v-5.53h-.81l-1.74,3.85c-.06.15-.15.38-.27.68h-.03c-.04-.15-.13-.38-.25-.66l-1.7-3.89h-.86v5.53h.62v-3.71s.01,0,.01,0Zm6.43.01h.56v3.45h-.56v-3.45Zm.28-1.26c.12,0,.21-.04.29-.12.08-.08.13-.17.13-.29s-.04-.22-.13-.29c-.08-.08-.18-.12-.29-.12s-.21.04-.29.12c-.08.08-.13.18-.13.29,0,.13.04.21.13.29.09.08.18.12.29.12,0,0,0,0,0,0Zm4.26,4.79v-.61c-.31.23-.63.34-.97.34-.41,0-.74-.14-.98-.41-.24-.26-.37-.63-.37-1.09s.13-.86.39-1.15c.25-.28.58-.42.99-.42.33,0,.65.1.94.31v-.65c-.27-.14-.57-.2-.91-.2-.63,0-1.13.2-1.5.6-.37.39-.55.93-.55,1.57,0,.57.16,1.05.51,1.42.36.38.81.57,1.37.57.43-.01.78-.1,1.09-.28Zm1.6-1.84c0-.45.1-.82.29-1.07.18-.23.39-.34.65-.34.21,0,.37.04.48.13v-.66c-.09-.04-.21-.05-.38-.05-.23,0-.43.08-.61.22-.19.15-.34.38-.43.67h-.01v-.81h-.63v3.95h.63v-2.03h.01Zm3.64,2.11c.6,0,1.07-.19,1.43-.57.35-.38.53-.89.53-1.52s-.16-1.14-.49-1.51c-.33-.37-.78-.54-1.38-.54s-1.07.18-1.43.52c-.38.38-.58.91-.58,1.59,0,.6.16,1.09.51,1.46.35.38.82.57,1.42.57h0s0,0,0,0Zm-.9-3.22c.24-.25.56-.38.95-.38s.71.13.94.38c.23.27.34.64.34,1.15s-.1.86-.32,1.12c-.21.27-.53.41-.95.41s-.72-.14-.96-.41c-.24-.27-.35-.63-.35-1.12-.02-.48.1-.87.35-1.15Zm5.64,2.87c.24-.21.37-.48.37-.81,0-.29-.1-.53-.29-.72-.15-.15-.39-.29-.74-.43-.31-.13-.49-.24-.6-.33-.1-.1-.16-.23-.16-.41,0-.16.06-.29.19-.39.13-.1.29-.15.51-.15.34,0,.63.09.9.28v-.63c-.26-.13-.53-.19-.85-.19-.41,0-.75.11-1,.33-.27.22-.39.49-.39.82,0,.29.09.53.25.71.14.15.38.31.71.44.32.14.53.27.65.37.11.1.16.23.16.38,0,.37-.25.56-.75.56-.38,0-.72-.12-1.03-.38v.68c.28.17.61.24.97.24.47-.02.84-.14,1.09-.37h0Zm3.02-3.8c-.6,0-1.07.18-1.43.52-.38.38-.58.91-.58,1.59,0,.6.16,1.09.51,1.46.36.38.82.57,1.42.57s1.07-.19,1.43-.57c.36-.38.53-.89.53-1.52s-.17-1.14-.49-1.51c-.34-.37-.8-.54-1.38-.54h0s0,0,0,0Zm1.23,2.08c0,.48-.1.86-.32,1.12-.21.27-.53.41-.95.41s-.72-.14-.96-.41c-.24-.27-.35-.63-.35-1.12,0-.51.13-.9.38-1.16.24-.25.56-.38.95-.38s.71.13.94.38c.2.28.32.66.32,1.16h0,0Zm1.71,1.98h.63v-3.42h.93v-.53h-.93v-.61c0-.55.21-.83.66-.83.15,0,.3.04.42.1v-.57c-.11-.05-.27-.06-.46-.06-.34,0-.62.1-.85.32-.27.25-.41.58-.41,1.03v.65h-.67v.53h.67v3.41h0Zm2.6-1.08c0,.77.34,1.17,1.04,1.17.25,0,.44-.04.6-.13v-.54c-.12.09-.25.13-.41.13-.21,0-.37-.05-.45-.17-.09-.11-.14-.3-.14-.57v-2.23h1v-.53h-1v-1.16c-.22.08-.43.14-.63.2v.96h-.68v.53h.68v2.34h0Zm67.97,7.28c-.21-.2-.47-.3-.78-.3s-.58.1-.8.32c-.21.21-.32.48-.32.78s.1.58.32.78c.22.2.48.31.8.31s.58-.1.8-.32c.21-.22.33-.47.33-.78-.01-.32-.13-.58-.34-.79h0Zm-.1,1.5c-.19.19-.42.28-.7.28s-.51-.09-.7-.28c-.19-.19-.29-.43-.29-.71s.09-.51.28-.7c.19-.19.42-.28.71-.28.28,0,.51.09.7.28.19.19.29.42.29.7,0,.29-.09.52-.29.71Zm-.57-.65c.11-.03.2-.08.27-.14.06-.07.09-.15.09-.26,0-.11-.04-.2-.11-.27-.09-.07-.23-.11-.41-.11h-.4v1.42h.2v-.6h.13c.09,0,.17.09.25.25l.15.34h.24l-.19-.38c-.07-.17-.14-.24-.22-.27h0s0,0,0,0Zm-.14-.13h-.22v-.48h.18c.13,0,.21.02.27.06.05.04.06.09.06.18,0,.16-.1.24-.29.24h0s0,0,0,0Zm-35.33-11.04h.18v-1.42h.47v-.18h-1.12v.18h.47v1.42h0Zm1.07-1.07c0-.14,0-.25-.01-.32.01.08.04.13.05.16l.54,1.22h.09l.55-1.23s.03-.09.05-.15c-.01.13-.01.23-.01.3v1.07h.19v-1.59h-.23l-.49,1.1s-.05.12-.08.2h-.01c-.01-.05-.04-.1-.07-.19l-.49-1.12h-.26v1.6h.18v-1.07h.01s0,0,0,0Z"/></svg>