<?xml version="1.0" encoding="UTF-8"?><svg id="Layer_1" xmlns="http://www.w3.org/2000/svg" width="100" height="100" viewBox="0 0 100 100"><defs><style>.cls-1{fill:#009639;}.cls-2{fill:#fff;}</style></defs><path class="cls-1" d="m7.13,74.75c.45.78,1.1,1.42,1.88,1.86l38.44,22.19h0c1.58.93,3.53.93,5.11,0l38.44-22.19c1.59-.9,2.57-2.59,2.55-4.42V27.81h0c.01-1.83-.96-3.52-2.55-4.42L52.55,1.2h0c-1.58-.93-3.53-.93-5.1,0h0S9.01,23.39,9.01,23.39c-1.59.9-2.57,2.59-2.56,4.42h0v44.38c0,.9.22,1.78.67,2.56"/><path class="cls-2" d="m37.69,66.9c0,2.73-2.21,4.94-4.94,4.94s-4.94-2.21-4.94-4.94h0s0-33.93,0-33.93c.18-2.84,2.63-5,5.47-4.81.05,0,.09,0,.14.01,2.58-.03,5.04,1.07,6.74,3.01l1.49,1.79,20.65,24.71v-24.57h0c0-2.73,2.21-4.94,4.94-4.95,2.73,0,4.94,2.21,4.95,4.94h0s0,0,0,0v33.93c-.19,2.84-2.64,5-5.48,4.81-.05,0-.09,0-.14-.01-2.58.03-5.04-1.07-6.74-3.01l-22.14-26.5v24.57h0Z"/></svg>