<?xml version="1.0" encoding="UTF-8"?><svg id="Layer_1" xmlns="http://www.w3.org/2000/svg" width="100" height="100" viewBox="0 0 100 100"><defs><style>.cls-1{fill:#fff;}.cls-2{fill:#231f20;}.cls-3{fill:#417ba2;}</style></defs><g><path class="cls-2" d="m73.76,72.56c.63-5.25.44-6.01,4.35-5.16l.96.09c3.01.14,6.93-.48,9.24-1.55,4.97-2.3,7.91-6.15,3.02-5.14-11.18,2.3-11.94-1.48-11.94-1.48,11.8-17.51,16.73-39.74,12.48-45.18-11.61-14.84-31.72-7.82-32.05-7.64l-.11.02c-2.21-.46-4.68-.74-7.45-.78-5.05-.08-8.89,1.32-11.84,3.53,0,0-35.86-14.78-34.23,18.58.35,7.09,10.17,53.69,21.88,39.62,4.28-5.15,8.41-9.5,8.41-9.5,2.05,1.37,4.48,2.06,7.09,1.81l.2-.17c-.06.67-.03,1.34.08,2-3.02,3.37-2.13,3.97-8.16,5.2-6.1,1.26-2.52,3.5-.18,4.08,2.84.71,9.4,1.71,13.83-4.49l-.18.71c1.18.95,1.1,6.8,1.27,10.99s.45,8.09,1.3,10.4c.85,2.3,1.86,8.23,9.79,6.53,6.62-1.42,11.69-3.46,12.15-22.46"/><path class="cls-2" d="m58.87,99.5c-5.24,0-8.87-2.99-10.8-8.93l-.21-.62c-1.02-2.74-1.36-6.65-1.56-11.68l-.07-2.33c-.01-.5-.03-1.09-.05-1.7-3.4,1.49-7.4,1.76-11.66.69-1.91-.48-3.88-1.44-5.11-2.92-3.4,2.82-6.63,2.4-8.4,1.81C8.33,69.6,2.2,31.31,2.04,28.06c-.52-10.51,2.33-18.03,8.47-22.36,9.56-6.75,23.96-2.89,29.36-1.06,3.58-2.11,7.77-3.13,12.45-3.06,2.47.04,4.84.25,7.07.64,5.85-1.92,24.4-5.16,35.75,9.35,5.94,7.6-.09,29.6-9.62,45.8,1.18-.03,2.8-.2,4.98-.65,5.43-1.12,6.94,2.07,7.27,3.08,1.68,5.1-5.46,8.87-7.7,9.9-3.31,1.54-8,2.08-11.18,1.94l-.82-.07c-.02.17-.04.35-.06.52l-.11.97h-.06c-.53,19.22-5.84,23.99-15.42,26.05-1.25.27-2.43.4-3.54.4Zm-7.1-35.63c2.38,1.9,2.58,5.37,2.76,11.84l.07,2.23c.08,2.11.28,7.05,1.05,9.12.1.27.21.59.32.94.86,2.64,1.22,3.72,4.7,2.98,4.91-1.05,8.46-1.81,8.86-18.5l4.38.1-4.28-.51.11-.95c.36-3.1.64-5.55,2.86-7.13,1.38-.99,2.94-1.13,4.3-1.01-1.12-1.14-1.47-2.31-1.58-2.85l-.35-1.71.97-1.44c11.75-17.43,14.94-37.27,12.64-40.29-9.22-11.79-25.27-6.98-27.06-6.4l-.3.16-1.45.28-.92-.15c-2.04-.42-4.28-.66-6.67-.69-3.76-.06-6.77.82-9.28,2.7l-1.89,1.42-2.19-.89c-4.3-1.76-16.93-5.3-23.55-.61-3.65,2.58-5.32,7.68-4.95,15.15.47,9.38,8.44,37.29,13.31,38.3,0-.02.45-.2,1.23-1.14,4.32-5.19,8.42-9.52,8.6-9.7l2.41-2.53,2.91,1.93c1.01.67,2.09,1.06,3.23,1.14l6.6-5.61-.7,9.94c-.03.31-.02.63.04.94l.34,1.97-1.34,1.49s-.02.03-.04.04l3.23,1.49,1.63-2.04Zm-16.59,7.4h0Z"/></g><path class="cls-3" d="m91.36,60.78c-11.18,2.3-11.94-1.48-11.94-1.48,11.8-17.51,16.73-39.74,12.48-45.18-11.61-14.84-31.72-7.82-32.05-7.64l-.11.02c-2.21-.46-4.68-.74-7.45-.78-5.05-.08-8.89,1.32-11.84,3.53,0,0-35.86-14.78-34.23,18.58.35,7.1,10.17,53.69,21.88,39.62,4.28-5.15,8.41-9.5,8.41-9.5,2.05,1.37,4.51,2.06,7.09,1.81l.2-.17c-.06.64-.03,1.26.08,2-3.02,3.37-2.13,3.97-8.16,5.2-6.1,1.26-2.52,3.5-.18,4.08,2.84.71,9.4,1.71,13.83-4.49l-.18.71c1.18.95,2.02,6.16,1.87,10.88s-.23,7.96.7,10.5c.93,2.53,1.86,8.23,9.79,6.53,6.62-1.42,10.06-5.1,10.53-11.23.34-4.36,1.11-3.72,1.15-7.61l.61-1.85c.71-5.92.11-7.82,4.19-6.93l.96.09c3.01.14,6.93-.48,9.24-1.55,4.97-2.3,7.91-6.15,3.02-5.14h.08Z"/><g><g><path class="cls-1" d="m59.42,96.9c-6.67,0-8.78-5.28-9.64-7.44-1.26-3.16-1.54-15-1.25-25.33.02-.75.64-1.35,1.38-1.35.01,0,.02,0,.04,0,.76.02,1.37.66,1.34,1.42-.32,11.5.13,21.92,1.06,24.22,1.43,3.58,3.59,6.71,9.73,5.39,5.92-1.27,8.02-3.4,9-9.12l2.44-19.33c.1-.76.84-1.29,1.55-1.2.76.1,1.3.79,1.2,1.55l-2.45,19.39c-1.17,6.85-4.2,9.92-11.16,11.42-1.19.25-2.27.37-3.25.37Zm-35.78-25.56c-.65,0-1.24-.12-1.75-.29-10.42-3.51-16.85-38.86-17.05-43.28-.47-9.49,1.98-16.21,7.29-19.97,10.48-7.43,28.1-.37,28.85-.06.71.29,1.05,1.1.76,1.81s-1.1,1.05-1.81.76c-.17-.07-16.96-6.79-26.2-.24-4.48,3.18-6.54,9.09-6.12,17.58.33,7.34,7.55,38.23,15.17,40.79.51.17,2.04.69,4.26-1.98,4.26-5.09,8.17-9.21,8.21-9.25.52-.56,1.41-.58,1.96-.05.55.53.58,1.4.05,1.96-.04.04-3.89,4.09-8.09,9.11-2.01,2.42-3.94,3.13-5.52,3.13Zm55.7-10.76c-.27,0-.54-.08-.77-.24-.63-.43-.8-1.29-.37-1.92,11.92-17.64,16.11-38.97,12.53-43.55-10.51-13.45-28.63-7.85-30.29-7.3-.07.04-.15.07-.23.09-.67.2-1.44-.11-1.73-.75-.28-.64-.04-1.39.56-1.75,1.83-1.1,22.28-6.83,33.87,8,5.11,6.53-1.16,30.15-12.42,46.81-.27.4-.7.61-1.15.61Z"/><path class="cls-1" d="m79.94,68.74c-2.06,0-3.9-.29-5.01-.95-1.17-.7-1.39-1.65-1.42-2.16-.3-5.31,2.54-6.37,4.11-6.82-.2-.29-.46-.62-.73-.96-.89-1.11-2.1-2.63-3.04-4.9-.16-.4-.58-1.13-1.13-2.11-2.88-5.17-8.88-15.93-5-21.47,1.78-2.55,5.3-3.57,10.46-3.04-1.65-4.79-9.04-19.07-26.01-19.35-5.2-.14-9.43,1.5-12.62,4.72-7.15,7.21-6.91,20.34-6.9,20.47.02.76-.58,1.4-1.35,1.42-.92,0-1.4-.59-1.42-1.35-.02-.59-.29-14.42,7.69-22.48,3.74-3.78,8.65-5.63,14.64-5.55,21.26.35,28.84,20.55,29.09,23.26.14,1.52-1.03,1.81-1.16,1.84h-.5c-3.49-.55-7.99-.72-9.66,1.66-2.88,4.12,2.75,14.22,5.15,18.54.62,1.11,1.08,1.96,1.27,2.41.79,1.91,1.81,3.19,2.64,4.23.74.92,1.37,1.71,1.61,2.66.12.19,1.66,2.29,10.33.5,2.28-.47,3.64-.05,4.07,1.23.82,2.48-3.71,5.35-6.22,6.53-2.24,1.04-5.81,1.7-8.91,1.7Zm-.76-7.51c-.23.09-.43.14-.57.18-1.29.36-2.51.7-2.32,4.06.81.86,7.66.79,11.4-.94,1.85-.86,3.15-1.82,3.92-2.54-.01,0-.03,0-.04,0-5.69,1.18-9.72,1.02-11.98-.48-.15-.1-.28-.19-.4-.29Zm13.69.65h0Z"/></g><g><path class="cls-1" d="m39.6,72.67c-1.41,0-2.88-.19-4.41-.57-.44-.11-4.3-1.15-4.25-3.61.05-2.26,3.27-2.92,4.48-3.17,4.25-.87,4.53-1.22,5.85-2.91.41-.52.89-1.13,1.55-1.87,0,0,0,0,0,0,2.22-2.47,4.31-1.61,5.2-1.24,1.4.58,2.57,1.98,3.05,3.66.43,1.51.22,2.97-.59,4.1-2.63,3.69-6.41,5.6-10.88,5.6Zm-5.59-4.05c.4.27,1.09.61,1.85.8,3.7.92,8.85.99,12.37-3.96.42-.58.29-1.34.18-1.73-.24-.84-.83-1.61-1.44-1.86-.75-.31-1.16-.48-2.07.53l-1.03-.92,1.03.92c-.62.69-1.06,1.25-1.44,1.73-1.69,2.15-2.46,2.88-7.47,3.91-1.04.21-1.63.43-1.97.58Z"/><path class="cls-1" d="m43.66,62.8c-.67,0-1.26-.49-1.37-1.18-.03-.19-.05-.37-.06-.56-3.25-.09-6.39-1.49-8.77-3.98-3.04-3.18-4.43-7.58-3.8-12.07.67-4.85.42-9.12.29-11.42-.04-.64-.07-1.11-.06-1.41.01-2.23,6.54-5.08,10.32-5.47,4.69-.49,7.8,1.61,8.73,5.9,2.5,11.43.21,16.5-1.46,20.2-.31.68-.6,1.33-.84,1.97l-.22.59c-.86,2.33-1.61,4.33-1.38,5.82.12.76-.4,1.46-1.16,1.58-.07.01-.14.02-.21.02Zm-10.99-30.21c0,.23.03.51.05.84.14,2.39.41,6.84-.31,11.96-.51,3.65.6,7.21,3.05,9.77,1.93,2.01,4.47,3.13,7.07,3.13.3-1.22.77-2.5,1.28-3.87l.22-.59c.26-.71.58-1.41.92-2.15,1.6-3.54,3.58-7.94,1.28-18.48-.44-2.04-1.5-3.23-3.24-3.63-3.8-.88-9.17,1.99-10.32,3.01Z"/></g></g><g><g><path class="cls-1" d="m40.28,32c-.06.45.83,1.66,1.99,1.82s2.16-.78,2.22-1.23-.83-.95-2-1.12-2.16.07-2.22.53h0Z"/><path class="cls-1" d="m42.53,34.3c-.11,0-.21,0-.32-.02-.73-.1-1.47-.56-1.98-1.23-.14-.19-.35-.52-.41-.85l-.04-.04.03-.23c.02-.16.1-.39.36-.59.46-.35,1.37-.48,2.38-.34,1.23.18,2.51.77,2.39,1.64-.05.34-.33.74-.76,1.07-.5.38-1.08.58-1.66.58Zm-1.79-2.22c.06.3.73,1.17,1.59,1.29.89.12,1.65-.63,1.7-.84-.05-.08-.59-.45-1.6-.6-.94-.14-1.54.04-1.69.15Z"/></g><g><path class="cls-1" d="m75.71,31.08c.06.45-.83,1.66-1.99,1.82s-2.16-.78-2.22-1.23.83-.95,2-1.11,2.16.07,2.22.53h0Z"/><path class="cls-1" d="m73.46,33.15c-1.15,0-2.12-.92-2.2-1.45-.1-.69,1.03-1.21,2.19-1.37.72-.1,1.45-.06,1.93.14v-.04s.06.06.06.06c.27.13.46.31.49.56l.09.68-.19-.19c-.08.19-.2.36-.27.45-.17.23-.83,1.01-1.82,1.15-.1.01-.19.02-.29.02Zm.74-2.42c-.21,0-.43.01-.68.05-1.22.17-1.83.65-1.8.85.04.31.94,1.17,1.96,1.04.65-.09,1.21-.56,1.52-.97.22-.3.29-.52.27-.6v-.02c-.06-.16-.52-.36-1.28-.36Z"/></g></g><path class="cls-1" d="m77.38,57.18c-.27,0-.53-.08-.77-.23-.63-.43-.81-1.29-.38-1.92,2.71-4.04,2.21-8.17,1.73-12.17-.21-1.72-.42-3.49-.36-5.2.05-1.75.28-3.2.49-4.6.25-1.65.49-3.2.39-5.04-.04-.76.54-1.42,1.31-1.46.75-.02,1.42.54,1.46,1.31.12,2.13-.16,3.9-.42,5.61-.2,1.32-.41,2.68-.46,4.26-.05,1.5.14,3.09.35,4.78.51,4.29,1.1,9.15-2.18,14.04-.27.4-.7.62-1.15.62Z"/></svg>