<svg xmlns="http://www.w3.org/2000/svg" width="118.099" height="105.155" viewBox="0 0 118.099 105.155">
  <path id="_100x100__react_native" data-name="(100x100)_react native" d="M118.6,58.514c0-7.826-9.806-15.245-24.825-19.838,3.459-15.317,1.921-27.485-4.855-31.386a10.5,10.5,0,0,0-5.392-1.348V11.31a5.622,5.622,0,0,1,2.744.62c3.269,1.873,4.7,9.03,3.591,18.228a71.915,71.915,0,0,1-1.229,7.086A115.639,115.639,0,0,0,73.351,34.62a116.965,116.965,0,0,0-10.02-12.037c7.849-7.3,15.21-11.285,20.22-11.285V5.93c-6.621,0-15.281,4.712-24.049,12.9C50.722,10.69,42.061,6.013,35.44,6.013v5.368c4.986,0,12.371,3.972,20.22,11.213a113.535,113.535,0,0,0-9.949,12.013,113.527,113.527,0,0,0-15.317,2.648q-.823-3.615-1.253-6.979c-1.133-9.2.262-16.355,3.519-18.252a5.285,5.285,0,0,1,2.768-.62V6.037a10.824,10.824,0,0,0-5.44,1.348c-6.764,3.9-8.279,16.057-4.784,31.314C10.246,43.328.5,50.712.5,58.514s9.806,15.245,24.825,19.838c-3.459,15.317-1.921,27.485,4.855,31.386a10.523,10.523,0,0,0,5.416,1.348c6.621,0,15.281-4.712,24.049-12.9C68.413,106.326,77.073,111,83.694,111a10.824,10.824,0,0,0,5.44-1.348c6.764-3.9,8.279-16.057,4.784-31.314C108.841,73.747,118.6,66.327,118.6,58.526h0ZM87.261,42.457c-.883,3.1-1.992,6.311-3.245,9.508-.99-1.921-2.016-3.853-3.149-5.774-1.109-1.921-2.278-3.805-3.459-5.631,3.412.513,6.7,1.133,9.865,1.909h0ZM76.226,68.093c-1.873,3.245-3.805,6.322-5.8,9.2-3.591.31-7.229.477-10.879.477s-7.277-.167-10.832-.453c-1.992-2.863-3.949-5.917-5.821-9.15-1.837-3.149-3.5-6.358-5-9.579,1.491-3.233,3.173-6.454,4.986-9.6,1.873-3.245,3.805-6.322,5.8-9.2,3.591-.31,7.229-.477,10.879-.477s7.277.167,10.832.453c1.992,2.863,3.949,5.917,5.821,9.15,1.837,3.149,3.5,6.358,5,9.579-1.515,3.233-3.173,6.454-4.986,9.6ZM84,64.967a100.962,100.962,0,0,1,3.316,9.579c-3.161.775-6.478,1.42-9.913,1.921,1.181-1.849,2.35-3.758,3.459-5.7,1.109-1.921,2.147-3.877,3.125-5.8h0ZM59.6,90.651A100.2,100.2,0,0,1,52.9,82.945c2.171.1,4.378.167,6.621.167s4.5-.048,6.692-.167A96.764,96.764,0,0,1,59.6,90.651ZM41.691,76.467c-3.412-.513-6.716-1.133-9.877-1.909.883-3.1,1.992-6.311,3.245-9.508.99,1.921,2.016,3.853,3.149,5.774s2.29,3.805,3.471,5.631ZM59.478,26.377a100.2,100.2,0,0,1,6.692,7.706c-2.171-.1-4.378-.167-6.621-.167s-4.5.048-6.692.167A92.718,92.718,0,0,1,59.478,26.377ZM41.667,40.548c-1.181,1.849-2.35,3.758-3.459,5.7-1.109,1.921-2.147,3.853-3.137,5.774a100.96,100.96,0,0,1-3.316-9.579c3.161-.74,6.478-1.4,9.925-1.909ZM19.873,70.681C11.356,67.043,5.844,62.271,5.844,58.5s5.511-8.565,14.029-12.18c2.064-.883,4.33-1.682,6.668-2.434a115.487,115.487,0,0,0,5.416,14.661,114.362,114.362,0,0,0-5.344,14.589,71.585,71.585,0,0,1-6.74-2.457h0Zm12.955,34.4c-3.269-1.873-4.7-9.03-3.591-18.228a71.91,71.91,0,0,1,1.229-7.086A115.637,115.637,0,0,0,45.747,82.4a116.965,116.965,0,0,0,10.02,12.037c-7.849,7.3-15.21,11.285-20.22,11.285a5.475,5.475,0,0,1-2.708-.644Zm57.1-18.335c1.133,9.2-.262,16.343-3.519,18.252a5.284,5.284,0,0,1-2.768.62c-4.986,0-12.371-3.972-20.22-11.213A113.535,113.535,0,0,0,73.375,82.4a113.527,113.527,0,0,0,15.317-2.648,68.164,68.164,0,0,1,1.253,7.014h0ZM99.2,70.693c-2.064.883-4.33,1.682-6.668,2.434a115.49,115.49,0,0,0-5.416-14.661,114.365,114.365,0,0,0,5.344-14.589q3.579,1.109,6.764,2.457c8.517,3.638,14.029,8.41,14.029,12.18-.024,3.782-5.535,8.577-14.064,12.18h0ZM59.537,69.512a11,11,0,1,0-11-11A11,11,0,0,0,59.537,69.512Z" transform="translate(-0.5 -5.93)" fill="#fff"/>
</svg>
