<svg xmlns="http://www.w3.org/2000/svg" width="124.654" height="111" viewBox="0 0 124.654 111">
  <defs>
    <style>
      .cls-1 {
        fill: #61dafb;
      }
    </style>
  </defs>
  <g id="react-native-1" transform="translate(477.6 -181)">
    <path id="Path_13520" data-name="Path 13520" class="cls-1" d="M-352.946,236.515c0-8.259-10.344-16.087-26.2-20.938,3.657-16.163,2.033-29.016-5.131-33.134a11.126,11.126,0,0,0-5.69-1.421v5.667a5.876,5.876,0,0,1,2.894.657c3.453,1.98,4.957,9.528,3.786,19.238-.28,2.388-.733,4.9-1.292,7.473a124.1,124.1,0,0,0-16.132-2.773,123.906,123.906,0,0,0-10.571-12.7c8.282-7.7,16.057-11.916,21.346-11.916V181c-6.989,0-16.132,4.98-25.381,13.616-9.264-8.591-18.407-13.518-25.4-13.518v5.667c5.259,0,13.057,4.194,21.346,11.84a119.429,119.429,0,0,0-10.5,12.679,118.739,118.739,0,0,0-16.163,2.8c-.582-2.539-1.02-5-1.322-7.367-1.194-9.71.28-17.258,3.71-19.268a5.625,5.625,0,0,1,2.924-.657v-5.667a11.4,11.4,0,0,0-5.743,1.421c-7.141,4.118-8.743,16.948-5.055,33.058-15.807,4.881-26.091,12.679-26.091,20.908,0,8.259,10.344,16.087,26.2,20.938-3.657,16.163-2.033,29.016,5.131,33.134a11.161,11.161,0,0,0,5.72,1.421c6.989,0,16.132-4.979,25.381-13.616,9.249,8.591,18.4,13.518,25.381,13.518a11.4,11.4,0,0,0,5.743-1.421c7.141-4.118,8.742-16.948,5.055-33.058,15.755-4.851,26.046-12.679,26.046-20.908Zm-33.081-16.948c-.937,3.279-2.108,6.657-3.43,10.035-1.043-2.033-2.131-4.065-3.325-6.1-1.171-2.033-2.41-4.012-3.657-5.947,3.6.536,7.08,1.194,10.412,2.01Zm-11.644,27.059c-1.98,3.431-4.012,6.68-6.12,9.71-3.786.332-7.624.506-11.485.506-3.839,0-7.677-.181-11.432-.484-2.108-3.022-4.171-6.249-6.151-9.657-1.934-3.325-3.687-6.71-5.282-10.11,1.579-3.408,3.355-6.808,5.259-10.14,1.98-3.43,4.012-6.68,6.12-9.71,3.786-.332,7.624-.506,11.485-.506,3.839,0,7.677.181,11.432.484,2.108,3.022,4.171,6.249,6.151,9.657,1.934,3.325,3.687,6.71,5.282,10.11C-394.006,239.893-395.759,243.3-397.671,246.625Zm8.206-3.3c1.337,3.31,2.5,6.687,3.506,10.11-3.332.816-6.838,1.5-10.465,2.033,1.247-1.957,2.486-3.967,3.657-6.022,1.171-2.033,2.267-4.088,3.3-6.12Zm-25.759,27.112a106.221,106.221,0,0,1-7.065-8.13c2.29.1,4.624.181,6.989.181,2.388,0,4.753-.053,7.065-.181A100.838,100.838,0,0,1-415.224,270.435Zm-18.906-14.969c-3.6-.536-7.088-1.194-10.42-2.01.937-3.279,2.108-6.657,3.43-10.035,1.043,2.033,2.131,4.065,3.325,6.1S-435.376,253.539-434.129,255.466Zm18.777-52.87a106.228,106.228,0,0,1,7.065,8.13c-2.289-.1-4.624-.181-6.989-.181-2.388,0-4.753.053-7.065.181A98.284,98.284,0,0,1-415.352,202.6Zm-18.8,14.961c-1.247,1.957-2.486,3.967-3.657,6.022-1.171,2.033-2.267,4.065-3.31,6.1-1.337-3.31-2.5-6.687-3.506-10.11C-441.293,218.781-437.787,218.093-434.152,217.557Zm-23,31.811c-8.992-3.839-14.81-8.871-14.81-12.861s5.818-9.045,14.81-12.853c2.184-.937,4.571-1.776,7.035-2.569a122.273,122.273,0,0,0,5.72,15.475,121.3,121.3,0,0,0-5.644,15.4c-2.509-.786-4.9-1.647-7.11-2.592Zm13.669,36.307c-3.453-1.98-4.957-9.528-3.786-19.238.28-2.388.733-4.9,1.292-7.473a124.1,124.1,0,0,0,16.132,2.773,123.9,123.9,0,0,0,10.571,12.7c-8.282,7.7-16.057,11.916-21.346,11.916A5.876,5.876,0,0,1-443.484,285.675Zm60.275-19.359c1.194,9.71-.28,17.251-3.71,19.261a5.625,5.625,0,0,1-2.924.657c-5.259,0-13.057-4.194-21.346-11.84a119.437,119.437,0,0,0,10.5-12.679,118.747,118.747,0,0,0,16.163-2.8,71.959,71.959,0,0,1,1.322,7.4Zm9.778-16.948c-2.184.937-4.571,1.776-7.035,2.569a122.266,122.266,0,0,0-5.72-15.475,121.287,121.287,0,0,0,5.644-15.4c2.516.786,4.9,1.655,7.141,2.592,8.992,3.839,14.81,8.871,14.81,12.853-.023,4-5.841,9.052-14.84,12.861Z"/>
    <path id="Path_13521" data-name="Path 13521" class="cls-1" d="M204.814,785.128A11.614,11.614,0,1,0,193.2,773.514,11.613,11.613,0,0,0,204.814,785.128Z" transform="translate(-620.113 -537.006)"/>
  </g>
</svg>
