<?xml version="1.0" encoding="UTF-8"?><svg id="Layer_1" xmlns="http://www.w3.org/2000/svg" width="100" height="100" viewBox="0 0 100 100"><defs><style>.cls-1{fill:#cd6799;}</style></defs><path class="cls-1" d="m85.75,55.56c-3.45.02-6.46.85-8.97,2.08-.92-1.83-1.84-3.45-2.01-4.65-.18-1.39-.4-2.24-.18-3.91.22-1.66,1.19-4.03,1.18-4.21s-.22-1.03-2.21-1.05-3.71.38-3.91.9-.58,1.72-.83,2.95c-.34,1.81-3.98,8.26-6.06,11.65-.67-1.32-1.25-2.48-1.37-3.4-.18-1.39-.4-2.24-.18-3.91.22-1.66,1.19-4.03,1.18-4.21s-.22-1.03-2.21-1.05-3.71.38-3.91.9-.42,1.75-.83,2.95c-.42,1.19-5.24,11.97-6.51,14.76-.65,1.43-1.21,2.57-1.61,3.35h0s-.02.05-.07.14c-.34.67-.54,1.03-.54,1.03v.02c-.27.49-.56.94-.71.94-.11,0-.31-1.3.04-3.07.72-3.74,2.44-9.57,2.42-9.76,0-.11.33-1.12-1.12-1.65-1.41-.52-1.92.34-2.04.34s-.22.31-.22.31c0,0,1.57-6.55-3-6.55-2.86,0-6.8,3.13-8.75,5.95-1.23.67-3.85,2.1-6.65,3.63-1.07.6-2.17,1.19-3.2,1.75-.07-.07-.14-.16-.22-.24-5.53-5.91-15.77-10.09-15.33-18.03.16-2.89,1.16-10.49,19.66-19.71,15.23-7.5,27.34-5.42,29.44-.81,3,6.58-6.49,18.81-22.22,20.58-6,.67-9.15-1.65-9.95-2.51-.83-.9-.96-.96-1.27-.78-.51.27-.18,1.08,0,1.56.47,1.23,2.41,3.4,5.68,4.47,2.89.94,9.93,1.46,18.44-1.83,9.53-3.69,16.98-13.94,14.79-22.53-2.19-8.72-16.65-11.59-30.34-6.73-8.14,2.89-16.96,7.45-23.31,13.38C1.3,35.67.11,41.8.6,44.36c1.75,9.11,14.32,15.04,19.35,19.44-.25.14-.49.27-.69.38-2.51,1.25-12.1,6.26-14.48,11.55-2.71,6,.43,10.31,2.51,10.89,6.46,1.79,13.09-1.43,16.65-6.74,3.56-5.32,3.13-12.22,1.48-15.39-.02-.04-.04-.07-.07-.11.65-.38,1.32-.78,1.97-1.16,1.28-.76,2.55-1.46,3.63-2.04-.61,1.68-1.07,3.69-1.28,6.58-.27,3.4,1.12,7.81,2.95,9.55.81.76,1.77.78,2.39.78,2.13,0,3.09-1.77,4.16-3.87,1.3-2.57,2.48-5.55,2.48-5.55,0,0-1.46,8.06,2.51,8.06,1.45,0,2.91-1.88,3.56-2.84v.02s.04-.05.11-.18c.14-.24.24-.38.24-.38v-.04c.58-1.01,1.88-3.31,3.82-7.12,2.5-4.92,4.9-11.07,4.9-11.07,0,0,.22,1.5.96,4,.43,1.46,1.34,3.07,2.06,4.63-.58.81-.94,1.27-.94,1.27l.02.02c-.47.61-.98,1.28-1.54,1.93-1.97,2.35-4.32,5.05-4.65,5.82-.38.92-.29,1.59.43,2.13.52.4,1.46.45,2.42.4,1.77-.13,3.02-.56,3.63-.83.96-.34,2.08-.87,3.13-1.65,1.93-1.43,3.11-3.47,3-6.17-.05-1.48-.54-2.97-1.14-4.36.18-.25.34-.51.52-.76,3.06-4.47,5.42-9.37,5.42-9.37,0,0,.22,1.5.96,4,.36,1.27,1.1,2.64,1.75,3.98-2.88,2.33-4.65,5.05-5.28,6.82-1.14,3.29-.25,4.77,1.43,5.12.76.16,1.84-.2,2.64-.54,1.01-.33,2.21-.89,3.35-1.72,1.93-1.43,3.8-3.42,3.69-6.11-.05-1.23-.38-2.44-.83-3.62,2.44-1.01,5.59-1.57,9.6-1.1,8.61,1.01,10.31,6.38,9.98,8.64s-2.13,3.49-2.73,3.87-.8.51-.74.78c.07.4.36.38.87.31.71-.13,4.52-1.83,4.68-5.99.27-5.32-4.79-11.12-13.74-11.07Zm-66.4,22.39c-2.86,3.11-6.84,4.29-8.55,3.29-1.84-1.07-1.12-5.66,2.39-8.95,2.13-2.01,4.88-3.87,6.71-5.01.42-.25,1.03-.61,1.77-1.07.13-.07.2-.11.2-.11h0c.14-.09.29-.18.43-.27,1.28,4.7.05,8.84-2.95,12.12Zm20.8-14.14c-.99,2.42-3.07,8.63-4.34,8.28-1.08-.29-1.75-4.99-.22-9.64.78-2.33,2.42-5.12,3.38-6.2,1.56-1.74,3.27-2.31,3.69-1.61.52.92-1.9,7.65-2.51,9.17Zm17.16,8.21c-.42.22-.81.36-.99.25-.13-.07.18-.36.18-.36,0,0,2.15-2.31,3-3.36.49-.61,1.07-1.34,1.68-2.15v.24c0,2.77-2.68,4.63-3.87,5.39Zm13.24-3.02c-.31-.22-.25-.94.78-3.2.4-.89,1.34-2.37,2.95-3.8.18.58.31,1.14.29,1.66-.02,3.49-2.51,4.79-4.01,5.33Z"/></svg>