<?xml version="1.0" encoding="UTF-8"?><svg id="Layer_1" xmlns="http://www.w3.org/2000/svg" width="100" height="100" viewBox="0 0 100 100"><defs><style>.cls-1{fill:#f05138;}.cls-2{fill:#fff;}</style></defs><path class="cls-1" d="m99.49,27.92c0-1-.02-1.99-.04-2.99-.06-2.17-.19-4.36-.57-6.5-.39-2.18-1.03-4.2-2.04-6.18-.99-1.94-2.28-3.72-3.82-5.26-1.54-1.54-3.32-2.83-5.26-3.82-1.98-1.01-4-1.65-6.18-2.04-2.15-.39-4.33-.51-6.5-.57-1-.03-1.99-.04-2.99-.04-1.18,0-2.37,0-3.55,0H31.47c-1.18,0-2.36,0-3.55,0-1,0-1.99.02-2.99.04-.54.01-1.09.03-1.63.06-1.63.08-3.27.22-4.87.51-1.63.29-3.18.73-4.69,1.35-.5.21-1,.44-1.49.69-1.46.74-2.82,1.65-4.07,2.72-.41.35-.81.72-1.2,1.11-1.54,1.54-2.84,3.32-3.82,5.26-1.01,1.98-1.65,4-2.04,6.18-.39,2.15-.51,4.33-.57,6.5-.03,1-.04,1.99-.05,2.99,0,1.18,0,2.37,0,3.55v37.06c0,1.18,0,2.36,0,3.55,0,1,.02,1.99.05,2.99.06,2.17.19,4.36.57,6.5.39,2.18,1.03,4.21,2.04,6.18.99,1.94,2.28,3.72,3.82,5.26,1.54,1.54,3.32,2.84,5.26,3.83,1.98,1.01,4,1.64,6.18,2.04,2.14.39,4.33.51,6.5.57.99.03,1.99.04,2.99.04,1.18,0,2.36,0,3.55,0h37.06c1.18,0,2.36,0,3.55,0,1,0,1.99-.02,2.99-.04,2.17-.06,4.36-.19,6.5-.57,2.18-.39,4.2-1.03,6.18-2.04,1.94-.99,3.72-2.28,5.26-3.83,1.54-1.54,2.84-3.32,3.82-5.26,1.01-1.98,1.65-4.01,2.04-6.18.39-2.14.51-4.33.57-6.5.03-1,.04-1.99.04-2.99,0-1.18,0-2.36,0-3.55V31.47c0-1.18,0-2.36,0-3.55Z"/><path class="cls-2" d="m78.95,61.61s0,0,0,0c.11-.37.22-.74.32-1.13,4.11-16.37-5.92-35.73-22.89-45.92,7.44,10.08,10.72,22.29,7.8,32.97-.26.95-.57,1.87-.92,2.76-.38-.25-.85-.53-1.48-.88,0,0-16.88-10.42-35.18-28.86-.48-.48,9.76,14.63,21.37,26.9-5.47-3.07-20.73-14.17-30.38-23.01,1.19,1.98,2.6,3.88,4.15,5.72,8.06,10.23,18.58,22.84,31.18,32.53-8.85,5.42-21.36,5.84-33.81,0-3.08-1.44-5.98-3.19-8.66-5.16,5.27,8.43,13.39,15.71,23.27,19.95,11.78,5.06,23.5,4.72,32.23.08h0s.09-.04.13-.07c.36-.19.71-.39,1.06-.6,4.19-2.18,12.48-4.39,16.92,4.27,1.09,2.12,3.4-9.1-5.1-19.57Z"/></svg>