<svg id="Typescript_logo_2020" xmlns="http://www.w3.org/2000/svg" width="111" height="111" viewBox="0 0 111 111">
  <defs>
    <style>
      .cls-1 {
        fill: #3178c6;
      }

      .cls-2 {
        fill: #fff;
        fill-rule: evenodd;
      }
    </style>
  </defs>
  <rect id="Rectangle_6894" data-name="Rectangle 6894" class="cls-1" width="111" height="111" rx="50"/>
  <rect id="Rectangle_6895" data-name="Rectangle 6895" class="cls-1" width="111" height="111" rx="13"/>
  <path id="Path_13505" data-name="Path 13505" class="cls-2" d="M160.961,274.587V285.4a22.91,22.91,0,0,0,6.236,2.027,41.076,41.076,0,0,0,7.587.676,35.457,35.457,0,0,0,7.385-.743,18.1,18.1,0,0,0,6.134-2.449,12.48,12.48,0,0,0,4.174-4.459,15.71,15.71,0,0,0,.659-11.959,12.04,12.04,0,0,0-2.535-3.936,18.559,18.559,0,0,0-3.971-3.091,42.536,42.536,0,0,0-5.222-2.584q-2.129-.878-3.819-1.706a19.394,19.394,0,0,1-2.873-1.689,7.365,7.365,0,0,1-1.825-1.824,3.839,3.839,0,0,1-.642-2.179,3.642,3.642,0,0,1,.575-2.01,4.961,4.961,0,0,1,1.622-1.537,8.676,8.676,0,0,1,2.569-1,14.9,14.9,0,0,1,3.38-.355,21.443,21.443,0,0,1,2.856.2,22.6,22.6,0,0,1,3.025.625,21.059,21.059,0,0,1,2.957,1.064,16.3,16.3,0,0,1,2.653,1.487v-10.1a26.394,26.394,0,0,0-5.391-1.4,43.925,43.925,0,0,0-6.709-.456,31.186,31.186,0,0,0-7.3.828,18.571,18.571,0,0,0-6.067,2.584,12.914,12.914,0,0,0-4.14,4.476,13.124,13.124,0,0,0-1.521,6.5,12.609,12.609,0,0,0,2.788,8.243,21.217,21.217,0,0,0,8.466,5.777q2.231.912,4.157,1.79a23.135,23.135,0,0,1,3.329,1.824,8.729,8.729,0,0,1,2.214,2.061,4.2,4.2,0,0,1,.811,2.534,3.876,3.876,0,0,1-.507,1.942,4.5,4.5,0,0,1-1.538,1.554,8.43,8.43,0,0,1-2.569,1.03,15.436,15.436,0,0,1-3.6.372,20.539,20.539,0,0,1-6.962-1.233,20.777,20.777,0,0,1-6.388-3.7Zm-18.174-26.636h13.868V239.08H118v8.872h13.8v39.5h10.986Z" transform="translate(-92.518 -186.604)"/>
</svg>
