<?xml version="1.0" encoding="UTF-8"?>
<svg id="Layer_2" data-name="Layer 2" xmlns="http://www.w3.org/2000/svg" viewBox="0 0 120.82 107.8">
  <defs>
    <style>
      .cls-1 {
        fill: #fff;
        fill-rule: evenodd;
      }
    </style>
  </defs>
  <g id="Layer_1-2" data-name="Layer 1">
    <g id="Logo">
      <path id="Logo-2" class="cls-1" d="m34.86,0c-3.33.05-6.4,1.83-8.1,4.7L1.21,49.2c-1.62,2.92-1.62,6.47,0,9.4l25.55,44.5c1.7,2.87,4.77,4.65,8.1,4.7h51.09c3.33-.05,6.4-1.83,8.1-4.7l25.55-44.5c1.62-2.92,1.62-6.47,0-9.4L94.06,4.7c-1.7-2.87-4.76-4.65-8.09-4.7h-51.1Zm.46,26.03c.07,0,.14,0,.21,0h8.81c.4.01.76.23.96.57l14.96,26.72c.08.13.12.28.14.43.02-.15.07-.3.14-.43l14.92-26.72c.21-.35.59-.57,1-.57h8.81c.66.06,1.15.65,1.09,1.31-.01.13-.04.25-.1.37l-14.6,26.18,14.6,26.14c.28.6.03,1.32-.58,1.61-.13.06-.28.1-.42.11h-8.81c-.42,0-.8-.24-1-.61l-14.92-26.71c-.08-.13-.13-.28-.15-.43-.02.15-.07.3-.14.43l-14.95,26.72c-.19.36-.56.59-.96.61h-8.81c-.67-.05-1.16-.63-1.11-1.3.01-.15.05-.29.11-.42l14.6-26.14-14.6-26.18c-.29-.6-.03-1.32.57-1.61.07-.03.14-.06.22-.08h0Z"/>
    </g>
  </g>
</svg>