<?xml version="1.0" encoding="UTF-8"?><svg id="Layer_1" xmlns="http://www.w3.org/2000/svg" width="100" height="100" viewBox="0 0 100 100"><defs><style>.cls-1{fill:#3498db;fill-rule:evenodd;}</style></defs><path class="cls-1" d="m29.07,5.84c-2.67,0-5.29,1.53-6.64,3.85L1.49,46.15c-1.33,2.33-1.33,5.37,0,7.7l20.93,36.46c1.35,2.32,3.96,3.84,6.64,3.85h41.87c2.67,0,5.29-1.53,6.64-3.85l20.93-36.46c1.33-2.33,1.32-5.37,0-7.7l-20.93-36.46c-1.35-2.32-3.96-3.84-6.64-3.85H29.07Zm.38,21.33c.06,0,.12,0,.18,0h7.22c.32,0,.63.19.79.47l12.25,21.89c.06.11.1.23.12.35.02-.12.05-.24.12-.35l12.22-21.89c.16-.29.49-.47.82-.47h7.22c.64,0,1.12.81.82,1.38l-11.96,21.45,11.96,21.42c.33.57-.16,1.42-.82,1.41h-7.22c-.34,0-.66-.2-.82-.5l-12.22-21.89c-.06-.11-.1-.23-.12-.35-.02.12-.05.24-.12.35l-12.25,21.89c-.15.29-.46.49-.79.5h-7.22c-.66,0-1.15-.84-.82-1.41l11.96-21.42-11.96-21.45c-.29-.52.06-1.27.64-1.38h0Z"/></svg>