<?xml version="1.0" encoding="UTF-8"?>
<svg id="uuid-d1a2a3a9-fc34-47a2-8983-bfe2f7446570" data-name="Layer 1" xmlns="http://www.w3.org/2000/svg" viewBox="0 0 720 720">
  <defs>
    <style>
      .uuid-1dac2b61-0629-4beb-8695-f66433b90011 {
        fill: #fff;
      }

      .uuid-41739cda-f333-44ba-8944-78b77a0033e1 {
        fill: #0fb9ff;
      }

      .uuid-5b39636a-5cbf-40cc-843d-853dc7df4fac {
        fill: #394c77;
      }
    </style>
  </defs>
  <path class="uuid-5b39636a-5cbf-40cc-843d-853dc7df4fac" d="M381.46532,481.01862c-68.01117,0-123.3423-55.33112-123.3423-123.3423s55.33112-123.3423,123.3423-123.3423h73.20747c27.64417,0,50.13483,22.48953,50.13483,50.13483v73.20747c0,68.01117-55.33112,123.3423-123.3423,123.3423Zm0-235.15728c-61.65539,0-111.81498,50.15959-111.81498,111.81498s50.15959,111.81498,111.81498,111.81498,111.81498-50.15959,111.81498-111.81498v-73.20747c0-21.28726-17.31912-38.60751-38.60751-38.60751h-73.20747Z"/>
  <path class="uuid-41739cda-f333-44ba-8944-78b77a0033e1" d="M418.79208,304.19985c-.12572,.66686-.15636,1.22969-.33882,1.73804-3.15892,8.80132-6.29476,17.6113-9.52807,26.38538-1.55103,4.2089-5.29694,6.06453-9.12643,4.67293-2.96-1.07561-4.61648-3.26564-4.71842-6.37407-.29184-8.89768-.45954-17.79943-.67827-26.69953-.13122-5.3384,5.25678-8.5765,9.4913-6.86359,5.10505,2.06505,10.31245,3.83291,14.8987,7.14084Z"/>
  <path class="uuid-41739cda-f333-44ba-8944-78b77a0033e1" d="M350.8374,411.18251c1.50471-4.23736,2.921-8.2591,4.36103-12.27232,1.75007-4.87741,3.51713-9.74878,5.2825-14.62073,1.68167-4.64121,4.70089-6.91629,8.35321-6.21821,3.47851,.66485,6.1082,3.5048,6.0403,8.49926-.10417,7.65755,.32695,15.32217,.5128,22.98419,.02725,1.12442,.0708,2.26848-.09288,3.37384-.54279,3.66554-4.06658,6.63699-7.42962,5.82627-6.04361-1.45689-11.6426-4.04816-17.02734-7.57229Z"/>
  <path class="uuid-1dac2b61-0629-4beb-8695-f66433b90011" d="M328.61615,386.93965c3.78809-3.20167,7.3104-6.18677,10.84163-9.16122,3.97084-3.34465,7.9325-6.70044,11.93043-10.01242,3.28604-2.72224,6.65587-2.86143,9.50946-.47375,2.7464,2.298,3.14196,5.82892,1.14359,9.50196-3.98945,7.33267-7.96331,14.674-11.89909,22.03551-1.05241,1.96834-2.3608,3.55858-4.59555,4.20391-2.48359,.71724-4.82156,.34921-6.57866-1.51581-4.02948-4.27705-7.52826-8.96179-10.35182-14.57818Z"/>
  <path class="uuid-1dac2b61-0629-4beb-8695-f66433b90011" d="M331.43339,323.51074c9.78149,3.53187,19.21858,6.87906,28.60571,10.36112,3.33989,1.23891,5.01159,4.4841,4.41764,7.87065-.56218,3.20535-3.11624,5.5933-6.61162,5.71902-8.89505,.31988-17.79493,.52192-26.69444,.69193-5.6222,.10742-8.58629-5.17204-6.79945-9.7678,1.96106-5.04374,3.91609-10.04546,7.08216-14.87493Z"/>
  <path class="uuid-41739cda-f333-44ba-8944-78b77a0033e1" d="M355.45959,301.59249c.56156,.49339,1.02908,.81017,1.37928,1.22576,6.10192,7.24189,12.21206,14.47725,18.25182,21.77077,.76023,.91802,1.38552,2.10117,1.63733,3.25646,.63488,2.91355-.36661,5.36761-2.80715,7.09257-2.44893,1.73085-4.99595,1.70236-7.63235,.24771-6.01908-3.32112-12.07766-6.57071-18.12234-9.8454-1.58548-.85893-3.20155-1.66366-4.76416-2.56194-4.99471-2.87115-5.63808-8.332-1.23731-11.96746,3.29349-2.72075,6.83473-5.14539,10.31047-7.63944,.88963-.63837,1.94895-1.04034,2.9844-1.57903Z"/>
  <path class="uuid-41739cda-f333-44ba-8944-78b77a0033e1" d="M321.61124,354.85409c5.04798-.93115,9.91462-1.83974,14.78555-2.72428,4.77284-.86675,9.54924-1.71365,14.32564-2.56066,3.99177-.70785,7.16317,.95564,8.46321,4.42462,1.26493,3.37533,.03705,6.55715-3.33472,8.6281-6.92257,4.25185-13.82338,8.54007-20.78904,12.72023-1.41724,.85052-3.031,1.58105-4.64162,1.85725-2.94126,.50441-6.18459-1.17796-6.8753-3.77521-1.59619-6.00189-2.34161-12.13667-1.93373-18.57005Z"/>
  <path class="uuid-1dac2b61-0629-4beb-8695-f66433b90011" d="M441.42932,328.75841c-.65531,.40176-1.28962,.69026-1.80441,1.12138-7.09543,5.94198-14.18929,11.88613-21.2473,17.87237-1.82666,1.54926-3.80422,2.42835-6.21097,1.93942-4.57268-.92889-7.10238-5.79511-4.92764-9.9559,4.2327-8.098,8.59547-16.13085,13.05902-24.10416,2.15862-3.85602,7.10875-4.90492,10.14-2.04486,4.44481,4.19382,7.85318,9.22599,10.9913,15.17175Z"/>
  <path class="uuid-41739cda-f333-44ba-8944-78b77a0033e1" d="M414.222,414.00963c-5.30124-6.29138-10.30997-12.23482-15.31759-18.17914-1.45343-1.72531-2.95371-3.41415-4.34378-5.1892-2.23289-2.85122-2.17673-6.38511,.0526-8.99288,2.26676-2.65156,5.59325-3.22046,8.87925-1.44539,7.63851,4.12626,15.27623,8.25443,22.88459,12.43585,5.02776,2.76315,5.72393,8.31227,1.37882,11.95458-3.10346,2.60149-6.45753,4.90895-9.75151,7.27572-1.07796,.7745-2.3187,1.32264-3.78239,2.14047Z"/>
  <path class="uuid-1dac2b61-0629-4beb-8695-f66433b90011" d="M387.70989,294.54453c.5779,3.02849,1.16531,5.9955,1.70743,8.9708,1.13164,6.2104,2.24472,12.42423,3.35151,18.63912,.17779,.99811,.36773,2.00564,.4078,3.01454,.12688,3.19605-1.89804,6.06066-4.85022,6.9713-3.11789,.9617-6.27544-.06913-7.99503-2.83886-4.63819-7.47064-9.27564-14.94402-13.75804-22.50835-3.0748-5.18889-.75192-9.94482,5.10761-11.07369,5.21629-1.00493,10.44065-1.66356,16.02894-1.17486Z"/>
  <path class="uuid-1dac2b61-0629-4beb-8695-f66433b90011" d="M382.12661,420.88031c-.84931-4.54167-1.68965-8.95629-2.49765-13.37682-.89162-4.87815-1.75991-9.7606-2.62262-14.64396-.15665-.88659-.31546-1.78448-.33977-2.68075-.08552-3.15148,2.03385-6.08336,4.93264-6.91315,3.18497-.91169,6.18463,.1467,7.96112,2.94499,1.8726,2.94971,3.63574,5.96875,5.46285,8.94756,2.71158,4.42082,5.42109,8.843,8.16442,13.24413,1.25625,2.01544,1.8073,4.15277,1.11787,6.45296-.68964,2.30098-2.13761,4.06172-4.5671,4.54233-5.63584,1.11495-11.29853,2.11426-17.61177,1.48269Z"/>
  <circle class="uuid-41739cda-f333-44ba-8944-78b77a0033e1" cx="381.46532" cy="357.67632" r="10.37459"/>
</svg>