<?xml version="1.0" encoding="UTF-8"?>
<svg id="uuid-f29a1b8e-2561-4be2-ae24-bd67a961c67c" data-name="Layer 1" xmlns="http://www.w3.org/2000/svg" viewBox="0 0 720 720">
  <defs>
    <style>
      .uuid-1d9e1732-df16-4a1e-baae-3340aea33f5c {
        fill: #fff;
      }

      .uuid-5d30eeb0-27d3-4354-bfc0-1db6f92b5735 {
        fill: #0fb9ff;
      }

      .uuid-0cfb9313-2d04-4f4e-8998-3b0ec22a81ca {
        fill: #394c77;
      }

      .uuid-89467965-1dd5-415f-9426-de021ba36bf5 {
        fill: #3b517b;
      }
    </style>
  </defs>
  <g>
    <g>
      <path class="uuid-0cfb9313-2d04-4f4e-8998-3b0ec22a81ca" d="M398.36974,432.07006h-3.14324v9.23478h-1.17771v-9.23478h-3.15774v-.96021h7.47869v.96021Z"/>
      <path class="uuid-0cfb9313-2d04-4f4e-8998-3b0ec22a81ca" d="M410.67768,441.30484h-5.32546v-10.19499h5.28197v1.03271h-4.09701v3.15774h3.93831v1.03271h-3.93831v3.93912h4.14051v1.03271Z"/>
      <path class="uuid-0cfb9313-2d04-4f4e-8998-3b0ec22a81ca" d="M424.56207,440.66846c-.79991,.55422-1.72709,.83132-2.78236,.83132-1.31948,0-2.32239-.45272-3.00952-1.35815-.68633-.90543-1.02949-2.21525-1.02949-3.93106,0-1.6562,.33269-2.95474,.99727-3.89079,.66458-.93766,1.67876-1.40487,3.04174-1.40487,.49138,0,.97793,.06122,1.45965,.18689s.86999,.29161,1.16401,.49944l-.39069,.93121c-.67908-.38505-1.4234-.57838-2.23297-.57838-.93927,0-1.63768,.34155-2.09523,1.02304s-.68633,1.75931-.68633,3.23346c0,2.8323,.92718,4.24845,2.78155,4.24845,.78541,0,1.59015-.24005,2.41342-.72177l.36894,.93121Z"/>
      <path class="uuid-0cfb9313-2d04-4f4e-8998-3b0ec22a81ca" d="M437.51283,441.30484h-1.18496v-5.05883h-3.48963v5.05883h-1.18496v-10.19499h1.18496v4.09701h3.48963v-4.09701h1.18496v10.19499Z"/>
      <path class="uuid-0cfb9313-2d04-4f4e-8998-3b0ec22a81ca" d="M450.97753,441.30484h-1.31546l-3.65637-8.04902v8.04902h-1.18496v-10.19499h1.32271l3.67087,7.97652v-7.97652h1.16321v10.19499Z"/>
      <path class="uuid-0cfb9313-2d04-4f4e-8998-3b0ec22a81ca" d="M461.20475,430.91491c1.14146,0,2.01225,.45111,2.61158,1.35493,.60013,.90221,.89979,2.21686,.89979,3.94073,0,1.71581-.29886,3.02563-.89577,3.93106-.59772,.90543-1.46932,1.35815-2.61561,1.35815-1.13743,0-2.00581-.45111-2.60514-1.35493-.60013-.90221-.89979-2.21364-.89979-3.93429,0-1.71904,.29886-3.03208,.89577-3.93751,.59772-.90543,1.4669-1.35815,2.60916-1.35815Zm0,9.54411c1.50234,0,2.25392-1.41615,2.25392-4.24845,0-2.83713-.75157-4.25651-2.25392-4.25651-.73224,0-1.29048,.36733-1.67312,1.10199s-.57435,1.7867-.57435,3.15452c0,1.38232,.19011,2.43597,.57113,3.16096,.38022,.72499,.93927,1.08749,1.67634,1.08749Z"/>
      <path class="uuid-0cfb9313-2d04-4f4e-8998-3b0ec22a81ca" d="M477.50175,441.30484h-5.54941v-10.19499h1.18496v9.16228h4.36445v1.03271Z"/>
      <path class="uuid-0cfb9313-2d04-4f4e-8998-3b0ec22a81ca" d="M487.84496,430.91491c1.14146,0,2.01225,.45111,2.61158,1.35493,.60013,.90221,.89979,2.21686,.89979,3.94073,0,1.71581-.29886,3.02563-.89577,3.93106-.59772,.90543-1.46932,1.35815-2.61561,1.35815-1.13743,0-2.00581-.45111-2.60514-1.35493-.60013-.90221-.89979-2.21364-.89979-3.93429,0-1.71904,.29886-3.03208,.89577-3.93751,.59772-.90543,1.4669-1.35815,2.60916-1.35815Zm0,9.54411c1.50234,0,2.25392-1.41615,2.25392-4.24845,0-2.83713-.75157-4.25651-2.25392-4.25651-.73224,0-1.29048,.36733-1.67312,1.10199s-.57435,1.7867-.57435,3.15452c0,1.38232,.19011,2.43597,.57113,3.16096,.38022,.72499,.93927,1.08749,1.67634,1.08749Z"/>
      <path class="uuid-0cfb9313-2d04-4f4e-8998-3b0ec22a81ca" d="M504.4666,440.58307c-.83374,.6106-1.75609,.91671-2.76786,.91671-1.32432,0-2.32883-.44949-3.01274-1.34687-.68391-.89899-1.02627-2.21203-1.02627-3.94234,0-1.6707,.33108-2.97246,.99404-3.90207,.66216-.9296,1.67715-1.39359,3.04496-1.39359,.49138,0,.97793,.06122,1.45965,.18689s.86999,.29161,1.16401,.49944l-.39069,.93121c-.67908-.38505-1.4234-.57838-2.23297-.57838-.93443,0-1.63123,.34316-2.0912,1.02627-.46077,.68471-.69035,1.76092-.69035,3.23024,0,2.8323,.92718,4.24845,2.78155,4.24845,.69841,0,1.22604-.14661,1.5829-.43983v-2.51491h-1.83584v-1.02627h3.0208v4.10506Z"/>
      <path class="uuid-0cfb9313-2d04-4f4e-8998-3b0ec22a81ca" d="M516.76809,441.30484h-4.63189v-1.03271h1.75609v-8.12957h-1.75609v-1.03271h4.63189v1.03271h-1.69084v8.12957h1.69084v1.03271Z"/>
      <path class="uuid-0cfb9313-2d04-4f4e-8998-3b0ec22a81ca" d="M530.55743,441.30484h-5.32546v-10.19499h5.28197v1.03271h-4.09701v3.15774h3.93831v1.03271h-3.93831v3.93912h4.14051v1.03271Z"/>
      <path class="uuid-0cfb9313-2d04-4f4e-8998-3b0ec22a81ca" d="M543.31406,432.236c-.60738-.20622-1.18335-.31094-1.72709-.31094-.61705,0-1.1189,.14178-1.50718,.42372-.38747,.28194-.5816,.6831-.5816,1.20349,0,.61544,.5083,1.15838,1.5249,1.62559,.75157,.34638,1.2486,.58805,1.49187,.72177,.24327,.13533,.49058,.32061,.7411,.55744,.25052,.23522,.45111,.51394,.60335,.83455,.15144,.319,.22716,.67988,.22716,1.07943,0,.99243-.3335,1.76253-1.00049,2.30869s-1.45401,.82005-2.35944,.82005c-.87643,0-1.64493-.174-2.30467-.52038l.24569-1.01821c.77574,.35122,1.4524,.52683,2.02998,.52683,.67505,0,1.21557-.174,1.62237-.5236s.6106-.82971,.6106-1.44193c0-.45272-.13211-.83616-.39713-1.15193s-.75399-.63638-1.4669-.96504c-.73224-.33672-1.2059-.5671-1.42018-.68955s-.42694-.29322-.6396-.50911c-.21186-.2175-.37538-.46077-.49138-.72982-.11519-.27066-.17319-.56388-.17319-.88127,0-.84421,.30369-1.50154,.91027-1.97359,.60738-.47205,1.37587-.70727,2.30547-.70727,.67908,0,1.35332,.10311,2.02273,.30933l-.26664,1.01177Z"/>
    </g>
    <path class="uuid-5d30eeb0-27d3-4354-bfc0-1db6f92b5735" d="M193.53496,416.3523c-4.25328,3.8924-9.69233,5.8386-16.31714,5.8386-8.19724,0-14.64161-2.6293-19.33311-7.88791-4.6915-5.28438-7.03725-12.52785-7.03725-21.73041,0-9.9501,2.66797-17.6189,8.00391-23.0064,4.63995-4.6915,10.54299-7.03725,17.70912-7.03725,9.58922,0,16.60069,3.14485,21.03442,9.43456,2.44886,3.53151,3.76351,7.07592,3.94395,10.63321h-11.90919c-.77332-2.73241-1.76576-4.79461-2.9773-6.18659-2.16531-2.47464-5.3746-3.71196-9.62789-3.71196-4.33062,0-7.74613,1.74642-10.24655,5.23927s-3.75062,8.43568-3.75062,14.82849,1.3211,11.18098,3.96329,14.3645,5.99971,4.77528,10.07255,4.77528c4.17595,0,7.35947-1.36621,9.55055-4.09862,1.21154-1.46932,2.21686-3.67329,3.01596-6.61192h11.79319c-1.0311,6.21237-3.6604,11.26476-7.88791,15.15715Z"/>
    <path class="uuid-5d30eeb0-27d3-4354-bfc0-1db6f92b5735" d="M226.74924,409.54705l8.6999-31.08763h11.71586l-14.46116,41.45018c-2.78397,7.99102-4.98794,12.94674-6.61192,14.86716s-4.87194,2.88063-9.74389,2.88063c-.97954,0-1.76576-.00644-2.35864-.01933s-1.4822-.058-2.66797-.13533v-8.8159l1.39198,.07733c1.08265,.05155,2.11375,.01289,3.0933-.116s1.80442-.42533,2.47464-.88932c.64444-.43822,1.24376-1.35332,1.79798-2.7453s.77977-2.24264,.67666-2.55197l-15.46648-44.00215h12.25719l9.20256,31.08763Z"/>
    <path class="uuid-5d30eeb0-27d3-4354-bfc0-1db6f92b5735" d="M276.55132,421.7269c-3.47996,0-6.27681-.69599-8.39057-2.08798-1.2631-.82488-2.6293-2.26842-4.09862-4.33062v5.29727h-10.78787v-56.91666h10.9812v20.26109c1.39198-1.95909,2.92574-3.45418,4.60128-4.48528,1.98487-1.28887,4.51106-1.93331,7.57858-1.93331,5.54216,0,9.87922,1.99775,13.01118,5.99326s4.69794,9.151,4.69794,15.46648c0,6.54748-1.54665,11.97364-4.63995,16.27847s-7.41102,6.45726-12.95318,6.45726Zm6.03193-21.57575c0-2.99019-.38666-5.46482-1.15999-7.42391-1.46932-3.71196-4.17595-5.56793-8.1199-5.56793-3.99551,0-6.74081,1.81731-8.2359,5.45194-.77332,1.93331-1.15999,4.43373-1.15999,7.50124,0,3.60885,.7991,6.59903,2.39731,8.97056s4.03417,3.55729,7.30791,3.55729c2.83552,0,5.0395-1.1471,6.61192-3.44129s2.35864-5.31016,2.35864-9.04789Z"/>
    <path class="uuid-5d30eeb0-27d3-4354-bfc0-1db6f92b5735" d="M338.10793,408.2324c-.28355,2.50041-1.58531,5.0395-3.90529,7.61724-3.60885,4.09862-8.66123,6.14793-15.15715,6.14793-5.36171,0-10.09188-1.72709-14.1905-5.18127s-6.14793-9.07367-6.14793-16.85847c0-7.29503,1.84953-12.88874,5.5486-16.78114,3.69907-3.8924,8.50012-5.8386,14.40316-5.8386,3.50574,0,6.66348,.65733,9.47322,1.97198s5.12972,3.38974,6.95992,6.22526c1.64976,2.50041,2.71952,5.40038,3.2093,8.6999,.28355,1.93331,.39955,4.71728,.348,8.3519h-28.84499c.15466,4.22751,1.4822,7.19192,3.98262,8.89323,1.52087,1.05688,3.35107,1.58531,5.4906,1.58531,2.26842,0,4.11151-.64444,5.52927-1.93331,.77332-.69599,1.45643-1.66265,2.04931-2.89997h11.25187Zm-10.90387-12.91451c-.18044-2.91285-1.06332-5.12327-2.64864-6.63126s-3.55085-2.26197-5.8966-2.26197c-2.55197,0-4.53039,.7991-5.93526,2.39731s-2.28775,3.76351-2.64864,6.49592h17.12913Z"/>
    <path class="uuid-5d30eeb0-27d3-4354-bfc0-1db6f92b5735" d="M367.26225,388.62863c-4.43373,0-7.41102,1.44354-8.93189,4.33062-.85066,1.62398-1.27598,4.1244-1.27598,7.50124v20.1451h-11.0972v-42.14617h10.51721v7.34658c1.70131-2.80974,3.18352-4.73017,4.44661-5.76127,2.0622-1.72709,4.74306-2.59064,8.04257-2.59064,.20622,0,.38022,.00644,.52199,.01933s.45755,.03222,.94732,.058v11.29053c-.69599-.07733-1.31465-.12889-1.85598-.15466s-.97954-.03867-1.31465-.03867Z"/>
    <path class="uuid-1d9e1732-df16-4a1e-baae-3340aea33f5c" d="M382.75451,449.95807h-4.75111v-70.3725h4.75111v7.20642h.15869c.68552-1.31948,1.57001-2.50686,2.65266-3.56374,1.08185-1.05527,2.26922-1.92687,3.56374-2.61319,1.2929-.68471,2.62527-1.21315,3.99873-1.5837,1.37265-.36894,2.71872-.55422,4.03901-.55422,3.32529,0,6.14954,.55422,8.47273,1.66265,2.32239,1.10843,4.23637,2.62769,5.74113,4.55456s2.5995,4.20978,3.28663,6.84875c.68552,2.64058,1.02949,5.46482,1.02949,8.47273,0,2.85163-.37055,5.59693-1.10924,8.2359-.73949,2.64058-1.86081,4.94927-3.36477,6.92931-1.50476,1.98003-3.40585,3.56374-5.70165,4.75111-2.29661,1.18737-5.00244,1.78187-8.11749,1.78187-2.90319,0-5.68877-.64766-8.35432-1.93975-2.66636-1.29371-4.7648-3.20768-6.29534-5.74193v35.92574Zm0-49.7038c0,2.32319,.31658,4.52717,.95054,6.61192,.63316,2.08636,1.54423,3.9069,2.73161,5.46482,1.18818,1.55793,2.63977,2.79847,4.35559,3.72162,1.71501,.92316,3.65476,1.38554,5.82007,1.38554,2.42792,0,4.55375-.48816,6.37509-1.46448s3.31241-2.30869,4.474-4.00034c1.16079-1.68842,2.00581-3.65396,2.53425-5.89821,.52683-2.24425,.73869-4.65928,.63316-7.24669,0-2.5858-.35605-4.87033-1.06896-6.84875-.71291-1.98003-1.70212-3.65557-2.96924-5.02983-1.26712-1.37104-2.74611-2.41503-4.43453-3.12713-1.69004-.7121-3.53796-1.06977-5.54377-1.06977-2.21686,0-4.19689,.44949-5.93849,1.34687-1.7424,.89738-3.1948,2.12503-4.35559,3.68135-1.1616,1.55793-2.04689,3.40585-2.65266,5.54377-.60738,2.13792-.91107,4.44823-.91107,6.92931Z"/>
    <path class="uuid-1d9e1732-df16-4a1e-baae-3340aea33f5c" d="M444.67925,396.69053c.89738-.10472,1.96634-.26261,3.20768-.47527,1.23974-.20944,2.25633-.50105,3.04819-.86999s1.27921-.99082,1.46529-1.86242c.18447-.86999,.27711-1.67392,.27711-2.41503,0-2.42792-.77977-4.42084-2.33608-5.97876-1.55793-1.55631-4.18481-2.33608-7.87905-2.33608-1.63687,0-3.14163,.14661-4.51428,.43661-1.37346,.29-2.57291,.79105-3.6024,1.50476-1.02949,.7121-1.87451,1.66265-2.53425,2.85002-.66055,1.18737-1.09635,2.68086-1.3066,4.474h-4.83086c.15869-2.42792,.71291-4.49978,1.66345-6.21559,.94974-1.71581,2.17739-3.11424,3.68215-4.19689s3.24635-1.8737,5.22638-2.37636c1.97923-.50105,4.07848-.75238,6.29534-.75238,2.05898,0,3.99873,.22555,5.82007,.67344,1.82134,.44949,3.40504,1.1616,4.75192,2.13792,1.34607,.97793,2.40133,2.28453,3.16741,3.91979,.76446,1.63687,1.1479,3.64268,1.1479,6.01904v22.32974c0,1.84953,.32947,3.02402,.99002,3.52507,.65974,.50266,1.99212,.38344,3.99873-.35605v3.72162c-.36975,.10633-.91027,.26261-1.62318,.47527-.71291,.20944-1.41293,.31577-2.09845,.31577-.73949,0-1.4524-.07894-2.13792-.23683-.79185-.10633-1.42582-.35605-1.90028-.75238-.47527-.39633-.85871-.8716-1.14871-1.42582-.2908-.55422-.48897-1.15999-.59369-1.82053-.10633-.66055-.15869-1.35976-.15869-2.09925-2.00662,2.21686-4.30323,3.9069-6.88903,5.0685-2.58741,1.15999-5.38508,1.74159-8.39379,1.74159-1.79556,0-3.52426-.23683-5.18691-.7121-1.66345-.47527-3.12794-1.21476-4.39506-2.21686-1.26712-1.00371-2.27083-2.22975-3.00952-3.68296-.73949-1.45159-1.10843-3.1803-1.10843-5.18772,0-6.96797,4.77689-11.08592,14.33308-12.35224l6.57245-.8716Zm7.99827,2.37636c-2.00662,.84421-4.03901,1.39843-6.09718,1.66265-2.05898,.26422-4.11795,.47527-6.17693,.63316-3.64268,.26422-6.48142,1.08265-8.51301,2.4553-2.0332,1.37265-3.04899,3.4574-3.04899,6.25587,0,1.26632,.25052,2.36347,.75238,3.28663,.50105,.92316,1.16079,1.69004,1.98003,2.29581,.81763,.60738,1.76817,1.05688,2.85083,1.34687,1.08104,.29,2.17739,.43499,3.28582,.43499,1.90109,0,3.74821-.23844,5.54377-.7121,1.79395-.47527,3.39135-1.20026,4.79058-2.1782,1.39843-.97632,2.52055-2.21686,3.36557-3.72162,.84421-1.50476,1.26712-3.28663,1.26712-5.3456v-6.41376Z"/>
    <path class="uuid-1d9e1732-df16-4a1e-baae-3340aea33f5c" d="M498.92311,392.49364c-.84502-3.06108-2.29581-5.45032-4.35478-7.16614s-4.67217-2.57453-7.83957-2.57453c-2.42953,0-4.51428,.50266-6.25587,1.50476-1.7424,1.00371-3.16821,2.33608-4.27664,3.99873-1.10843,1.66426-1.92767,3.53796-2.4545,5.62271-.52844,2.08636-.79185,4.18562-.79185,6.29615,0,2.16531,.24972,4.27584,.75238,6.33481,.50105,2.05898,1.3066,3.9069,2.41503,5.54377s2.53425,2.94347,4.27584,3.91979c1.7424,.97632,3.85293,1.46448,6.33562,1.46448,3.53635,0,6.37429-.97632,8.51221-2.93058,2.13872-1.95264,3.49688-4.64478,4.07848-8.0764h5.06769c-.42291,2.27003-1.09554,4.34189-2.0187,6.21559-.92477,1.87531-2.11214,3.48479-3.56374,4.83005-1.4524,1.34687-3.1811,2.39086-5.18691,3.12874-2.00662,.73788-4.30323,1.10843-6.88903,1.10843-3.27454,0-6.09798-.55422-8.47354-1.66265s-4.329-2.62608-5.85954-4.55295c-1.53215-1.92687-2.66636-4.20978-3.40504-6.85036-.7403-2.63897-1.10924-5.46321-1.10924-8.47273,0-2.85163,.40841-5.58243,1.22765-8.19563,.81763-2.61319,2.0195-4.9235,3.60321-6.92931,1.5837-2.00581,3.55004-3.60401,5.89901-4.79139s5.0548-1.78187,8.11749-1.78187c4.75111,0,8.59195,1.13582,11.52173,3.40585s4.76319,5.80799,5.50349,10.61065h-4.83086Z"/>
    <path class="uuid-1d9e1732-df16-4a1e-baae-3340aea33f5c" d="M513.57358,420.60558v-57.01494h4.75111v35.47625l20.11368-19.48133h6.49351l-15.36257,14.80916,17.18391,26.21086h-5.30533l-15.36257-22.88556-7.76063,7.3643v15.52126h-4.75111Z"/>
  </g>
  <g>
    <path class="uuid-0cfb9313-2d04-4f4e-8998-3b0ec22a81ca" d="M348.80034,355.70448c-27.27628,0-49.46716-22.19087-49.46716-49.46716s22.19087-49.46716,49.46716-49.46716h29.36029c11.08686,0,20.10687,9.01956,20.10687,20.10687v29.36029c0,27.27628-22.19087,49.46716-49.46716,49.46716Zm0-94.31121c-24.72726,0-44.84406,20.1168-44.84406,44.84406s20.1168,44.84406,44.84406,44.84406,44.84406-20.1168,44.84406-44.84406v-29.36029c0-8.53738-6.94593-15.48377-15.48377-15.48377h-29.36029Z"/>
    <path class="uuid-5d30eeb0-27d3-4354-bfc0-1db6f92b5735" d="M363.77046,284.79027c-.05042,.26745-.06271,.49317-.13589,.69705-1.2669,3.52982-2.52455,7.06312-3.82129,10.58201-.62205,1.688-2.12437,2.43222-3.66021,1.87411-1.18712-.43138-1.85147-1.3097-1.89235-2.55636-.11705-3.56847-.1843-7.13857-.27202-10.708-.05263-2.141,2.10826-3.43966,3.80654-2.75268,2.04741,.8282,4.13587,1.53721,5.97521,2.86388Z"/>
    <path class="uuid-5d30eeb0-27d3-4354-bfc0-1db6f92b5735" d="M336.51683,327.69629c.60347-1.69942,1.17148-3.31236,1.74902-4.92189,.70188-1.95611,1.41057-3.9098,2.11858-5.86373,.67444-1.86139,1.88532-2.77382,3.3501-2.49385,1.39508,.26664,2.44973,1.40562,2.4225,3.40868-.04178,3.07111,.13113,6.14505,.20566,9.21794,.01093,.45096,.02839,.90979-.03725,1.3531-.21769,1.47009-1.63093,2.66181-2.97969,2.33666-2.42382-.58429-4.66933-1.62354-6.82891-3.03691Z"/>
    <path class="uuid-89467965-1dd5-415f-9426-de021ba36bf5" d="M327.60487,317.97355c1.51924-1.28405,2.93188-2.48124,4.3481-3.67416,1.59253-1.34139,3.18138-2.68725,4.78477-4.01554,1.31789-1.09177,2.66938-1.14759,3.81382-.19,1.10146,.92163,1.2601,2.33772,.45865,3.81082-1.59999,2.94081-3.19373,5.8851-4.7722,8.83747-.42207,.78942-.94681,1.42719-1.84307,1.686-.99606,.28765-1.93371,.14005-2.63841-.60792-1.61605-1.71534-3.01925-3.59418-4.15166-5.84667Z"/>
    <path class="uuid-0cfb9313-2d04-4f4e-8998-3b0ec22a81ca" d="M328.73474,292.53501c3.92293,1.41648,7.70773,2.75889,11.47249,4.15539,1.33948,.49687,2.00993,1.79837,1.77172,3.15657-.22547,1.28553-1.24979,2.24323-2.65163,2.29365-3.56741,.12829-7.13676,.20932-10.70596,.2775-2.25481,.04308-3.44358-2.07428-2.72696-3.91743,.7865-2.02282,1.57057-4.02879,2.84034-5.96568Z"/>
    <path class="uuid-5d30eeb0-27d3-4354-bfc0-1db6f92b5735" d="M338.37059,283.74457c.22522,.19788,.41272,.32492,.55317,.4916,2.44721,2.9044,4.89772,5.80619,7.32,8.7313,.3049,.36818,.55567,.84269,.65666,1.30602,.25462,1.1685-.14703,2.15271-1.12582,2.84452-.98216,.69417-2.00366,.68274-3.061,.09934-2.41399-1.33196-4.84382-2.63522-7.26807-3.94856-.63586-.34448-1.284-.66722-1.91069-1.02748-2.00316-1.15149-2.26118-3.3416-.49623-4.79962,1.32087-1.09117,2.74111-2.06359,4.13507-3.06384,.35679-.25602,.78164-.41724,1.19691-.63328Z"/>
    <path class="uuid-5d30eeb0-27d3-4354-bfc0-1db6f92b5735" d="M324.79551,305.10545c2.02452-.37344,3.97632-.73784,5.92983-1.09259,1.91418-.34761,3.82978-.68727,5.74538-1.02697,1.60092-.28389,2.87283,.38327,3.39422,1.77452,.50731,1.35369,.01486,2.62978-1.33741,3.46035-2.77634,1.70523-5.54395,3.42505-8.33757,5.10152-.56839,.34111-1.2156,.63409-1.86155,.74486-1.17961,.2023-2.48036-.47243-2.75738-1.51407-.64016-2.40709-.93912-4.86748-.77553-7.44763Z"/>
    <path class="uuid-0cfb9313-2d04-4f4e-8998-3b0ec22a81ca" d="M372.84926,294.63962c-.26282,.16113-.51721,.27683-.72367,.44974-2.84567,2.38307-5.6907,4.767-8.52136,7.16782-.73259,.62134-1.52571,.9739-2.49095,.77782-1.8339-.37254-2.84845-2.32417-1.97626-3.99287,1.69755-3.24775,3.44726-6.46937,5.2374-9.66712,.86573-1.54648,2.85101-1.96715,4.06671-.8201,1.78262,1.68196,3.14957,3.70014,4.40812,6.08472Z"/>
    <path class="uuid-5d30eeb0-27d3-4354-bfc0-1db6f92b5735" d="M361.9376,328.83012c-2.12609-2.52319-4.13487-4.90685-6.14321-7.29085-.58291-.69195-1.1846-1.36927-1.7421-2.08116-.89551-1.1435-.87299-2.56079,.0211-3.60665,.9091-1.06342,2.2432-1.29159,3.56107-.57968,3.06347,1.65486,6.12662,3.31049,9.178,4.98747,2.01641,1.10818,2.29562,3.33369,.55299,4.79445-1.24466,1.04334-2.58983,1.96877-3.9109,2.91797-.43232,.31062-.92993,.53045-1.51695,.85845Z"/>
    <path class="uuid-89467965-1dd5-415f-9426-de021ba36bf5" d="M351.30476,280.91795c.23177,1.21459,.46735,2.40453,.68478,3.59779,.45385,2.49072,.90026,4.98281,1.34414,7.47533,.0713,.4003,.14748,.80437,.16355,1.209,.05089,1.28179-.76122,2.43066-1.94521,2.79588-1.25045,.3857-2.5168-.02773-3.20645-1.13854-1.86017-2.99615-3.72005-5.99339-5.51774-9.02711-1.23317-2.08104-.30156-3.98843,2.04844-4.44117,2.09203-.40303,4.18729-.66718,6.4285-.47119Z"/>
    <path class="uuid-0cfb9313-2d04-4f4e-8998-3b0ec22a81ca" d="M349.06556,331.58565c-.34062-1.82146-.67764-3.59197-1.0017-5.36485-.35759-1.95641-.70582-3.91455-1.05182-5.87305-.06283-.35557-.12652-.71567-.13627-1.07513-.0343-1.26392,.81569-2.43977,1.97826-2.77256,1.27735-.36564,2.48038,.05883,3.19285,1.18111,.75102,1.183,1.45814,2.3938,2.19091,3.58847,1.08749,1.77299,2.17416,3.54654,3.27439,5.31164,.50383,.8083,.72483,1.66549,.44833,2.588-.27658,.92282-.8573,1.62898-1.83166,1.82173-2.26029,.44716-4.53134,.84794-7.0633,.59464Z"/>
    <circle class="uuid-5d30eeb0-27d3-4354-bfc0-1db6f92b5735" cx="348.80034" cy="306.23732" r="4.16079"/>
  </g>
</svg>