<?xml version="1.0" encoding="UTF-8"?>
<svg id="uuid-f58e1a01-3e4a-4a73-adb6-0a5f8563d291" data-name="Layer 1" xmlns="http://www.w3.org/2000/svg" viewBox="0 0 720 720">
  <defs>
    <style>
      .uuid-769fed31-b01c-408b-88e7-4030966de4bb {
        fill: #0fb9ff;
      }

      .uuid-86584836-4b7c-4e03-822d-b7c36aa59a6f {
        fill: #394c77;
      }

      .uuid-980e1069-b79d-4853-98bd-4a0f23e31332 {
        fill: #3b517b;
      }
    </style>
  </defs>
  <g>
    <path class="uuid-86584836-4b7c-4e03-822d-b7c36aa59a6f" d="M405.60851,433.76272h-3.11514v9.15221h-1.16718v-9.15221h-3.12951v-.95163h7.41182v.95163Z"/>
    <path class="uuid-86584836-4b7c-4e03-822d-b7c36aa59a6f" d="M417.8064,442.91493h-5.27785v-10.10384h5.23474v1.02348h-4.06038v3.12951h3.9031v1.02348h-3.9031v3.9039h4.10349v1.02348Z"/>
    <path class="uuid-86584836-4b7c-4e03-822d-b7c36aa59a6f" d="M431.56665,442.28424c-.79276,.54926-1.71165,.82389-2.75748,.82389-1.30769,0-2.30162-.44867-2.98261-1.34601-.68019-.89734-1.02028-2.19544-1.02028-3.89592,0-1.64139,.32972-2.92832,.98835-3.856,.65863-.92927,1.66375-1.39231,3.01455-1.39231,.48699,0,.96919,.06067,1.4466,.18522s.86221,.289,1.15361,.49497l-.3872,.92289c-.673-.38161-1.41067-.57321-2.21301-.57321-.93087,0-1.62303,.3385-2.07649,1.0139s-.68019,1.74358-.68019,3.20455c0,2.80698,.91889,4.21046,2.75668,4.21046,.77838,0,1.57593-.23791,2.39184-.71532l.36564,.92289Z"/>
    <path class="uuid-86584836-4b7c-4e03-822d-b7c36aa59a6f" d="M444.40162,442.91493h-1.17436v-5.0136h-3.45842v5.0136h-1.17436v-10.10384h1.17436v4.06038h3.45842v-4.06038h1.17436v10.10384Z"/>
    <path class="uuid-86584836-4b7c-4e03-822d-b7c36aa59a6f" d="M457.74593,442.91493h-1.3037l-3.62368-7.97705v7.97705h-1.17436v-10.10384h1.31088l3.63805,7.9052v-7.9052h1.15281v10.10384Z"/>
    <path class="uuid-86584836-4b7c-4e03-822d-b7c36aa59a6f" d="M467.8817,432.6179c1.13125,0,1.99426,.44707,2.58823,1.34281,.59477,.89414,.89175,2.19704,.89175,3.9055,0,1.70047-.29619,2.99858-.88776,3.89592-.59237,.89734-1.45618,1.34601-2.59222,1.34601-1.12726,0-1.98788-.44707-2.58184-1.34281-.59477-.89414-.89175-2.19385-.89175-3.89911,0-1.70367,.29619-3.00497,.88776-3.9023,.59237-.89734,1.45378-1.34601,2.58583-1.34601Zm0,9.45877c1.48891,0,2.23377-1.40349,2.23377-4.21046,0-2.81177-.74485-4.21845-2.23377-4.21845-.72569,0-1.27895,.36404-1.65816,1.09213s-.56922,1.77073-.56922,3.12631c0,1.36996,.18841,2.41419,.56603,3.1327,.37682,.71851,.93087,1.07776,1.66135,1.07776Z"/>
    <path class="uuid-86584836-4b7c-4e03-822d-b7c36aa59a6f" d="M484.03299,442.91493h-5.49979v-10.10384h1.17436v9.08036h4.32543v1.02348Z"/>
    <path class="uuid-86584836-4b7c-4e03-822d-b7c36aa59a6f" d="M494.28372,432.6179c1.13125,0,1.99426,.44707,2.58823,1.34281,.59477,.89414,.89175,2.19704,.89175,3.9055,0,1.70047-.29619,2.99858-.88776,3.89592-.59237,.89734-1.45618,1.34601-2.59222,1.34601-1.12726,0-1.98788-.44707-2.58184-1.34281-.59477-.89414-.89175-2.19385-.89175-3.89911,0-1.70367,.29619-3.00497,.88776-3.9023,.59237-.89734,1.45378-1.34601,2.58583-1.34601Zm0,9.45877c1.48891,0,2.23377-1.40349,2.23377-4.21046,0-2.81177-.74485-4.21845-2.23377-4.21845-.72569,0-1.27895,.36404-1.65816,1.09213s-.56922,1.77073-.56922,3.12631c0,1.36996,.18841,2.41419,.56603,3.1327,.37682,.71851,.93087,1.07776,1.66135,1.07776Z"/>
    <path class="uuid-86584836-4b7c-4e03-822d-b7c36aa59a6f" d="M510.75674,442.19962c-.82629,.60514-1.74039,.90851-2.74311,.90851-1.31248,0-2.30801-.44548-2.9858-1.33483-.67779-.89095-1.01709-2.19225-1.01709-3.90709,0-1.65576,.32812-2.94589,.98516-3.86718,.65624-.92129,1.66215-1.38113,3.01774-1.38113,.48699,0,.96919,.06067,1.4466,.18522s.86221,.289,1.15361,.49497l-.3872,.92289c-.673-.38161-1.41067-.57321-2.21301-.57321-.92608,0-1.61665,.34009-2.0725,1.01709-.45665,.67859-.68418,1.74518-.68418,3.20136,0,2.80698,.91889,4.21046,2.75668,4.21046,.69216,0,1.21508-.1453,1.56875-.4359v-2.49243h-1.81942v-1.01709h2.99379v4.06836Z"/>
    <path class="uuid-86584836-4b7c-4e03-822d-b7c36aa59a6f" d="M522.94825,442.91493h-4.59048v-1.02348h1.74039v-8.05688h-1.74039v-1.02348h4.59048v1.02348h-1.67572v8.05688h1.67572v1.02348Z"/>
    <path class="uuid-86584836-4b7c-4e03-822d-b7c36aa59a6f" d="M536.61429,442.91493h-5.27785v-10.10384h5.23474v1.02348h-4.06038v3.12951h3.9031v1.02348h-3.9031v3.9039h4.10349v1.02348Z"/>
    <path class="uuid-86584836-4b7c-4e03-822d-b7c36aa59a6f" d="M549.25686,433.92718c-.60195-.20438-1.17277-.30816-1.71165-.30816-.61153,0-1.1089,.14051-1.4937,.41993-.384,.27942-.5764,.677-.5764,1.19273,0,.60993,.50375,1.14802,1.51126,1.61106,.74485,.34329,1.23743,.58279,1.47853,.71532,.2411,.13412,.48619,.31774,.73448,.55245,.24828,.23312,.44707,.50934,.59796,.82708,.15009,.31614,.22513,.6738,.22513,1.06978,0,.98356-.33051,1.74678-.99154,2.28805s-1.44101,.81271-2.33835,.81271c-.8686,0-1.63022-.17244-2.28406-.51573l.24349-1.00911c.7688,.34808,1.43941,.52212,2.01183,.52212,.66901,0,1.2047-.17244,1.60786-.51892s.60514-.82229,.60514-1.42903c0-.44867-.13093-.82868-.39358-1.14163s-.74725-.63069-1.45378-.95642c-.72569-.33371-1.19512-.56203-1.40748-.68338s-.42312-.2906-.63388-.50455c-.20996-.21555-.37203-.45665-.48699-.7233-.11416-.26824-.17164-.55884-.17164-.87339,0-.83666,.30098-1.48811,.90213-1.95594,.60195-.46783,1.36357-.70095,2.28486-.70095,.673,0,1.34122,.10219,2.00464,.30656l-.26425,1.00272Z"/>
  </g>
  <path class="uuid-86584836-4b7c-4e03-822d-b7c36aa59a6f" d="M202.60519,418.1855c-4.21525,3.8576-9.60567,5.78639-16.17125,5.78639-8.12394,0-14.51069-2.60579-19.16025-7.81738-4.64955-5.23713-6.97433-12.41584-6.97433-21.53612,0-9.86114,2.64411-17.46137,7.93234-22.80069,4.59846-4.64955,10.44872-6.97433,17.55078-6.97433,9.50348,0,16.45226,3.11673,20.84635,9.3502,2.42696,3.49994,3.72986,7.01265,3.90869,10.53814h-11.80271c-.76641-2.70798-1.74997-4.75174-2.95068-6.13128-2.14595-2.45251-5.32655-3.67877-9.5418-3.67877-4.2919,0-7.67687,1.73081-10.15493,5.19243-2.47806,3.46162-3.71709,8.36025-3.71709,14.69591s1.30928,11.08101,3.92785,14.23606c2.61857,3.15505,5.94606,4.73258,9.98249,4.73258,4.13861,0,7.29367-1.35399,9.46516-4.06197,1.20071-1.45618,2.19704-3.64045,2.989-6.5528h11.68775c-1.02188,6.15683-3.62767,11.16404-7.81738,15.02163Z"/>
  <path class="uuid-86584836-4b7c-4e03-822d-b7c36aa59a6f" d="M235.52249,411.44109l8.62211-30.80967h11.61111l-14.33186,41.07957c-2.75908,7.91957-4.94334,12.83098-6.5528,14.73423-1.60946,1.90325-4.82838,2.85488-9.65676,2.85488-.97079,0-1.74997-.00639-2.33755-.01916s-1.46895-.05748-2.64411-.13412v-8.73707l1.37954,.07664c1.07297,.05109,2.09485,.01277,3.06564-.11496s1.78829-.42153,2.45251-.88137c.63867-.4343,1.23264-1.34122,1.7819-2.72075,.54926-1.37954,.7728-2.22259,.67061-2.52915l-15.3282-43.60872h12.1476l9.12028,30.80967Z"/>
  <path class="uuid-86584836-4b7c-4e03-822d-b7c36aa59a6f" d="M284.87928,423.51205c-3.44884,0-6.22069-.68977-8.31555-2.06931-1.2518-.8175-2.60579-2.24814-4.06197-4.2919v5.24991h-10.69142v-56.40776h10.88302v20.07994c1.37954-1.94157,2.89958-3.4233,4.56014-4.44518,1.96712-1.27735,4.47072-1.91602,7.51082-1.91602,5.4926,0,9.79089,1.97989,12.89485,5.93968s4.65594,9.06918,4.65594,15.3282c0,6.48894-1.53282,11.86658-4.59846,16.13293-3.06564,4.26635-7.34476,6.39952-12.83736,6.39952Zm5.978-21.38283c0-2.96345-.3832-5.41596-1.14961-7.35753-1.45618-3.67877-4.13861-5.51815-8.0473-5.51815-3.95978,0-6.68054,1.80106-8.16226,5.40319-.76641,1.91602-1.14961,4.39408-1.14961,7.43418,0,3.57658,.79196,6.54003,2.37587,8.89035s3.9981,3.52549,7.24257,3.52549c2.81017,0,4.99444-1.13684,6.5528-3.41052s2.33755-5.26268,2.33755-8.96699Z"/>
  <path class="uuid-86584836-4b7c-4e03-822d-b7c36aa59a6f" d="M345.8855,410.13819c-.28102,2.47806-1.57114,4.99444-3.87037,7.54914-3.57658,4.06197-8.58379,6.09296-15.02163,6.09296-5.31377,0-10.00165-1.71165-14.06362-5.13495s-6.09296-8.99254-6.09296-16.70773c0-7.2298,1.833-12.7735,5.49899-16.63109s8.42412-5.78639,14.27438-5.78639c3.47439,0,6.6039,.65145,9.38852,1.95435,2.78462,1.3029,5.08385,3.35943,6.89769,6.1696,1.63501,2.47806,2.69521,5.3521,3.1806,8.62211,.28102,1.91602,.39598,4.6751,.34488,8.27723h-28.58709c.15328,4.18971,1.46895,7.12761,3.94701,8.81371,1.50727,1.04743,3.32111,1.57114,5.44151,1.57114,2.24814,0,4.07475-.63867,5.47983-1.91602,.76641-.68977,1.44341-1.64778,2.03099-2.87404h11.15126Zm-10.80638-12.79904c-.17883-2.88681-1.05381-5.07747-2.62495-6.57196s-3.5191-2.24175-5.84387-2.24175c-2.52915,0-4.48988,.79196-5.8822,2.37587s-2.2673,3.72986-2.62495,6.43784h16.97598Z"/>
  <path class="uuid-86584836-4b7c-4e03-822d-b7c36aa59a6f" d="M374.77915,390.7097c-4.39408,0-7.34476,1.43063-8.85203,4.2919-.84305,1.60946-1.26458,4.08752-1.26458,7.43418v19.96498h-10.99798v-41.76934h10.42317v7.28089c1.6861-2.78462,3.15505-4.68787,4.40686-5.70975,2.04376-1.71165,4.70065-2.56747,7.97066-2.56747,.20438,0,.37682,.00639,.51733,.01916s.45346,.03193,.93885,.05748v11.18958c-.68977-.07664-1.3029-.12773-1.83938-.15328s-.97079-.03832-1.3029-.03832Z"/>
  <path class="uuid-769fed31-b01c-408b-88e7-4030966de4bb" d="M390.1329,451.49079h-4.70863v-69.74329h4.70863v7.14198h.15727c.67939-1.30769,1.55597-2.48445,2.62895-3.53187,1.07218-1.04583,2.24893-1.90964,3.53187-2.58983,1.28134-.67859,2.6018-1.20231,3.96298-1.56954,1.36038-.36564,2.69441-.54926,4.00289-.54926,3.29556,0,6.09455,.54926,8.39698,1.64778,2.30162,1.09852,4.19849,2.6042,5.68979,4.51383,1.49131,1.90964,2.57625,4.17214,3.25724,6.78752,.67939,2.61697,1.02028,5.41596,1.02028,8.39698,0,2.82614-.36724,5.54689-1.09932,8.16226-.73288,2.61697-1.84417,4.90502-3.33468,6.86735-1.49131,1.96233-3.3754,3.53187-5.65068,4.70863-2.27608,1.17676-4.95771,1.76594-8.04491,1.76594-2.87723,0-5.6379-.64187-8.27962-1.92241-2.64252-1.28214-4.7222-3.179-6.23905-5.69059v35.60453Zm0-49.25939c0,2.30242,.31375,4.48669,.94205,6.5528,.6275,2.06771,1.53042,3.87197,2.70718,5.41596,1.17756,1.544,2.61617,2.77345,4.31664,3.68835,1.69967,.9149,3.62208,1.37315,5.76803,1.37315,2.40621,0,4.51304-.4838,6.31809-1.45139s3.28279-2.28805,4.434-3.96457c1.15041-1.67333,1.98788-3.62129,2.51159-5.84547,.52212-2.22419,.73208-4.61762,.6275-7.1819,0-2.56268-.35287-4.82679-1.0594-6.78752-.70653-1.96233-1.6869-3.62288-2.94269-4.98486-1.25579-1.35878-2.72155-2.39343-4.39488-3.09917-1.67492-.70574-3.50632-1.0602-5.4942-1.0602-2.19704,0-4.15937,.44548-5.88539,1.33483-1.72682,.88935-3.16623,2.10603-4.31664,3.64843-1.15121,1.544-2.02859,3.3754-2.62895,5.4942-.60195,2.1188-.90293,4.40845-.90293,6.86735Z"/>
  <path class="uuid-769fed31-b01c-408b-88e7-4030966de4bb" d="M451.50396,398.69953c.88935-.10378,1.94876-.26026,3.179-.47102,1.22865-.20757,2.23616-.49657,3.02093-.86221s1.26777-.98196,1.45219-1.84577c.18282-.86221,.27463-1.65896,.27463-2.39343,0-2.40621-.7728-4.38131-2.3152-5.92531-1.544-1.5424-4.14739-2.3152-7.8086-2.3152-1.62223,0-3.11354,.1453-4.47392,.4327-1.36118,.2874-2.54991,.78397-3.57019,1.49131-1.02028,.70574-1.85775,1.64778-2.51159,2.82454-.65464,1.17676-1.08655,2.65689-1.29491,4.434h-4.78767c.15727-2.40621,.70653-4.45955,1.64858-6.16002,.94125-1.70047,2.15792-3.0864,3.64923-4.15937,1.49131-1.07297,3.21732-1.85695,5.17965-2.35511,1.96153-.49657,4.04201-.74565,6.23905-.74565,2.04057,0,3.96298,.22354,5.76803,.66742,1.80505,.44548,3.3746,1.15121,4.70943,2.1188,1.33403,.96919,2.37986,2.2641,3.13909,3.88474,.75763,1.62223,1.13764,3.61011,1.13764,5.96522v22.13008c0,1.833,.32652,2.99698,.98116,3.49355,.65384,.49817,1.9743,.38001,3.96298-.35287v3.68835c-.36644,.10538-.90213,.26026-1.60866,.47102-.70653,.20757-1.40029,.31295-2.07968,.31295-.73288,0-1.43941-.07824-2.1188-.23471-.78477-.10538-1.41307-.35287-1.88329-.74565-.47102-.39279-.85103-.86381-1.13844-1.41307-.2882-.54926-.48459-1.14961-.58838-1.80426-.10538-.65464-.15727-1.3476-.15727-2.08048-1.98867,2.19704-4.26475,3.87197-6.82743,5.02318-2.56428,1.14961-5.33693,1.72602-8.31874,1.72602-1.77951,0-3.49275-.23471-5.14053-.70574-1.64858-.47102-3.09997-1.2039-4.35576-2.19704-1.25579-.99474-2.25053-2.20981-2.98261-3.65003-.73288-1.43862-1.09852-3.15186-1.09852-5.14133,0-6.90567,4.73418-10.9868,14.20493-12.2418l6.51369-.86381Zm7.92675,2.35511c-1.98867,.83666-4.00289,1.38592-6.04266,1.64778-2.04057,.26186-4.08113,.47102-6.1217,.6275-3.61011,.26186-6.42347,1.07297-8.43689,2.43335-2.01502,1.36038-3.02173,3.42649-3.02173,6.19994,0,1.255,.24828,2.34234,.74565,3.25724,.49657,.9149,1.15041,1.67492,1.96233,2.27528,.81032,.60195,1.75236,1.04743,2.82534,1.33483,1.07138,.2874,2.15792,.43111,3.25644,.43111,1.88409,0,3.71469-.23631,5.4942-.70574,1.77791-.47102,3.36103-1.18953,4.74775-2.15872,1.38592-.96759,2.49802-2.19704,3.33548-3.68835,.83666-1.49131,1.25579-3.25724,1.25579-5.29781v-6.35641Z"/>
  <path class="uuid-769fed31-b01c-408b-88e7-4030966de4bb" d="M505.26282,394.54016c-.83746-3.03371-2.27528-5.40159-4.31585-7.10206s-4.63039-2.55151-7.76948-2.55151c-2.4078,0-4.47392,.49817-6.19994,1.49131-1.72682,.99474-3.13989,2.3152-4.23841,3.96298-1.09852,1.64938-1.91044,3.50632-2.43255,5.57244-.52371,2.06771-.78477,4.14819-.78477,6.23985,0,2.14595,.24749,4.23761,.74565,6.27817,.49657,2.04057,1.29491,3.87197,2.39343,5.4942,1.09852,1.62223,2.51159,2.91715,4.23761,3.88474,1.72682,.96759,3.81848,1.45139,6.27897,1.45139,3.50473,0,6.31729-.96759,8.4361-2.90437,2.1196-1.93518,3.46561-4.60325,4.04201-8.00419h5.02238c-.41913,2.24973-1.08575,4.30307-2.00065,6.16002-.9165,1.85854-2.09326,3.45363-3.53187,4.78687-1.43941,1.33483-3.15266,2.36948-5.14053,3.10077-1.98867,.73128-4.26475,1.09852-6.82743,1.09852-3.24527,0-6.04346-.54926-8.39778-1.64778s-4.2903-2.6026-5.80715-4.51224c-1.51845-1.90964-2.64252-4.17214-3.3746-6.78911-.73368-2.61537-1.09932-5.41437-1.09932-8.39698,0-2.82614,.40476-5.53252,1.21668-8.12235,.81032-2.58983,2.00145-4.87948,3.57099-6.86735s3.5183-3.57179,5.84627-4.74855,5.00961-1.76594,8.04491-1.76594c4.70863,0,8.51513,1.12566,11.41871,3.3754,2.90358,2.24973,4.72061,5.75606,5.45428,10.51578h-4.78767Z"/>
  <path class="uuid-769fed31-b01c-408b-88e7-4030966de4bb" d="M519.78229,422.40075v-56.50516h4.70863v35.15905l19.93384-19.30714h6.43545l-15.22521,14.67675,17.03026,25.9765h-5.25789l-15.22521-22.68094-7.69124,7.29846v15.38248h-4.70863Z"/>
  <path class="uuid-86584836-4b7c-4e03-822d-b7c36aa59a6f" d="M356.48232,358.07993c-27.0324,0-49.02486-21.99246-49.02486-49.02486s21.99246-49.02486,49.02486-49.02486h29.09777c10.98773,0,19.92709,8.93891,19.92709,19.92709v29.09777c0,27.0324-21.99246,49.02486-49.02486,49.02486Zm0-93.46796c-24.50617,0-44.4431,19.93693-44.4431,44.4431s19.93693,44.4431,44.4431,44.4431,44.4431-19.93693,44.4431-44.4431v-29.09777c0-8.46105-6.88383-15.34533-15.34533-15.34533h-29.09777Z"/>
  <path class="uuid-769fed31-b01c-408b-88e7-4030966de4bb" d="M371.31858,287.79978c-.04997,.26506-.06215,.48876-.13467,.69082-1.25557,3.49826-2.50198,6.99997-3.78712,10.4874-.61649,1.67291-2.10537,2.41047-3.62748,1.85735-1.17651-.42752-1.83491-1.29799-1.87543-2.5335-.116-3.53656-.18265-7.07474-.26959-10.61226-.05216-2.12185,2.08941-3.4089,3.77251-2.72807,2.0291,.8208,4.09889,1.52347,5.92179,2.83827Z"/>
  <path class="uuid-769fed31-b01c-408b-88e7-4030966de4bb" d="M344.30864,330.32218c.59808-1.68422,1.16101-3.28275,1.73338-4.87788,.6956-1.93862,1.39796-3.87485,2.09964-5.8113,.66841-1.84474,1.86846-2.74902,3.32015-2.47155,1.3826,.26426,2.42783,1.39305,2.40084,3.3782-.04141,3.04365,.12995,6.0901,.20382,9.13553,.01083,.44692,.02814,.90165-.03692,1.341-.21574,1.45694-1.61634,2.63801-2.95305,2.31577-2.40215-.57907-4.62758-1.60902-6.76785-3.00976Z"/>
  <path class="uuid-980e1069-b79d-4853-98bd-4a0f23e31332" d="M335.47636,320.68637c1.50565-1.27257,2.90566-2.45906,4.30922-3.64131,1.57829-1.3294,3.15293-2.66322,4.74199-3.97964,1.3061-1.08201,2.64551-1.13733,3.77972-.1883,1.09161,.91339,1.24883,2.31682,.45454,3.77674-1.58569,2.91452-3.16518,5.83248-4.72953,8.75845-.4183,.78236-.93835,1.41443-1.82659,1.67093-.98715,.28508-1.91643,.1388-2.61482-.60249-1.6016-1.7-2.99226-3.56204-4.11454-5.79439Z"/>
  <path class="uuid-86584836-4b7c-4e03-822d-b7c36aa59a6f" d="M336.59612,295.47528c3.88785,1.40381,7.63881,2.73422,11.36991,4.11823,1.3275,.49243,1.99196,1.78229,1.75588,3.12835-.22345,1.27403-1.23861,2.22317-2.62792,2.27314-3.53551,.12714-7.07295,.20745-10.61024,.27502-2.23465,.0427-3.41279-2.05573-2.70258-3.88241,.77946-2.00474,1.55653-3.99277,2.81495-5.91234Z"/>
  <path class="uuid-769fed31-b01c-408b-88e7-4030966de4bb" d="M346.14582,286.76343c.2232,.19611,.40903,.32202,.54822,.4872,2.42533,2.87844,4.85393,5.75427,7.25455,8.65323,.30217,.36488,.5507,.83515,.65079,1.29434,.25235,1.15805-.14572,2.13346-1.11576,2.81908-.97338,.68796-1.98574,.67664-3.03363,.09846-2.3924-1.32005-4.80051-2.61166-7.20309-3.91325-.63018-.3414-1.27252-.66126-1.89361-1.01829-1.98525-1.14119-2.24097-3.31172-.49179-4.7567,1.30906-1.08142,2.7166-2.04514,4.0981-3.03645,.3536-.25373,.77465-.4135,1.18621-.62762Z"/>
  <path class="uuid-769fed31-b01c-408b-88e7-4030966de4bb" d="M332.69211,307.93332c2.00642-.3701,3.94076-.73124,5.87681-1.08282,1.89706-.34451,3.79554-.68112,5.69401-1.01778,1.58661-.28135,2.84715,.37984,3.36387,1.75865,.50277,1.34159,.01473,2.60627-1.32545,3.42941-2.75151,1.68998-5.49438,3.39442-8.26302,5.05591-.56331,.33806-1.20473,.62842-1.84491,.7382-1.16906,.20049-2.45819-.46821-2.73273-1.50053-.63444-2.38557-.93072-4.82396-.7686-7.38104Z"/>
  <path class="uuid-86584836-4b7c-4e03-822d-b7c36aa59a6f" d="M380.31621,297.56107c-.26047,.15969-.51259,.27436-.7172,.44572-2.82022,2.36176-5.63982,4.72438-8.44516,7.10373-.72604,.61578-1.51206,.96519-2.46867,.77086-1.8175-.36921-2.82298-2.30338-1.95859-3.95717,1.68237-3.21871,3.41644-6.41153,5.19057-9.58068,.85799-1.53265,2.82551-1.94956,4.03035-.81277,1.76668,1.66692,3.12141,3.66705,4.36871,6.03032Z"/>
  <path class="uuid-769fed31-b01c-408b-88e7-4030966de4bb" d="M369.50211,331.44587c-2.10708-2.50063-4.0979-4.86298-6.08828-7.22566-.57769-.68576-1.17401-1.35702-1.72652-2.06255-.88751-1.13327-.86518-2.53789,.02091-3.5744,.90097-1.05391,2.22315-1.28004,3.52923-.5745,3.03608,1.64007,6.07184,3.28089,9.09594,4.94288,1.99838,1.09827,2.27509,3.30388,.54804,4.75159-1.23353,1.03401-2.56667,1.95116-3.87593,2.89188-.42846,.30784-.92161,.52571-1.50339,.85077Z"/>
  <path class="uuid-980e1069-b79d-4853-98bd-4a0f23e31332" d="M358.96435,283.96208c.2297,1.20373,.46317,2.38303,.67865,3.56562,.44979,2.46845,.89221,4.93826,1.33212,7.40849,.07066,.39672,.14616,.79718,.16209,1.19819,.05043,1.27033-.75441,2.40893-1.92782,2.77088-1.23927,.38225-2.4943-.02748-3.17779-1.12836-1.84354-2.96936-3.68679-5.9398-5.46841-8.94639-1.22214-2.06243-.29887-3.95277,2.03012-4.40146,2.07332-.39943,4.14985-.66121,6.37102-.46697Z"/>
  <path class="uuid-86584836-4b7c-4e03-822d-b7c36aa59a6f" d="M356.74516,334.17676c-.33758-1.80518-.67158-3.55986-.99274-5.31688-.35439-1.93892-.69951-3.87955-1.04241-5.82054-.06227-.35239-.12538-.70928-.13505-1.06552-.03399-1.25262,.80839-2.41795,1.96058-2.74777,1.26593-.36237,2.4582,.05831,3.16431,1.17055,.7443,1.17242,1.4451,2.3724,2.17132,3.55639,1.07777,1.75714,2.15472,3.51483,3.24511,5.26415,.49932,.80108,.71835,1.6506,.44432,2.56486-.27411,.91457-.84964,1.61441-1.81529,1.80544-2.24008,.44316-4.49083,.84035-7.00015,.58932Z"/>
  <circle class="uuid-769fed31-b01c-408b-88e7-4030966de4bb" cx="356.48232" cy="309.05507" r="4.12359"/>
</svg>