<?xml version="1.0" encoding="UTF-8"?>
<svg id="uuid-d64f2e33-1f55-476b-9ba5-3088757c99c1" data-name="Layer 1" xmlns="http://www.w3.org/2000/svg" viewBox="0 0 720 720">
  <defs>
    <style>
      .uuid-f6f38fe2-0abd-4a11-80b9-29a801ab761d {
        fill: #fff;
      }

      .uuid-7ba764b0-ea58-4b3c-bc8b-49d2b3bc5afa {
        fill: #0fb9ff;
      }

      .uuid-5c58ddf0-aafa-4081-8ddb-81bc1d02bda0 {
        fill: #394c77;
      }

      .uuid-3324b637-7270-4dbf-af51-7defb9eb72d7 {
        fill: #3b517b;
      }
    </style>
  </defs>
  <path class="uuid-5c58ddf0-aafa-4081-8ddb-81bc1d02bda0" d="M103.60887,408.44247c-22.16533,0-40.19815-18.03281-40.19815-40.19815s18.03281-40.19815,40.19815-40.19815h23.85884c9.00944,0,16.3393,7.3295,16.3393,16.3393v23.85884c0,22.16533-18.03281,40.19815-40.19815,40.19815Zm0-76.63946c-20.09394,0-36.44131,16.34737-36.44131,36.44131s16.34737,36.44131,36.44131,36.44131,36.44131-16.34737,36.44131-36.44131v-23.85884c0-6.93767-5.64443-12.58247-12.58247-12.58247h-23.85884Z"/>
  <path class="uuid-7ba764b0-ea58-4b3c-bc8b-49d2b3bc5afa" d="M208.02485,388.81453c-4.93504,4.51631-11.24591,6.77446-18.93261,6.77446-9.51117,0-16.9885-3.05075-22.432-9.15226-5.4435-6.13141-8.16525-14.53594-8.16525-25.21357,0-11.545,3.09562-20.44303,9.28685-26.69408,5.38368-5.4435,12.23292-8.16525,20.54771-8.16525,11.12627,0,19.26161,3.64894,24.40602,10.94682,2.84139,4.09758,4.36676,8.21011,4.57613,12.3376h-13.81811c-.89728-3.17039-2.04879-5.56314-3.45453-7.17824-2.51238-2.8713-6.2361-4.30694-11.17114-4.30694-5.02477,0-8.98776,2.02636-11.88896,6.07907s-4.35181,9.78783-4.35181,17.20535,1.53285,12.97317,4.59856,16.66698,6.9614,5.5407,11.68707,5.5407c4.84531,0,8.53912-1.58519,11.08141-4.75558,1.40574-1.70483,2.5722-4.26208,3.49939-7.67174h13.68352c-1.19637,7.20815-4.24713,13.07038-9.15226,17.58669Z"/>
  <path class="uuid-7ba764b0-ea58-4b3c-bc8b-49d2b3bc5afa" d="M246.56302,380.91846l10.0944-36.07066h13.59379l-16.77914,48.09421c-3.23021,9.27189-5.78746,15.02196-7.67174,17.25021-1.88429,2.22825-5.65286,3.34237-11.30573,3.34237-1.13655,0-2.04879-.00748-2.7367-.02243s-1.71979-.0673-3.09562-.15702v-10.22899l1.6151,.08973c1.25619,.05982,2.45257,.01495,3.58912-.13459s2.09365-.4935,2.8713-1.03187c.74773-.50846,1.44313-1.57024,2.08618-3.18534s.90476-2.60211,.78512-2.96102l-17.9456-51.05524h14.22189l10.67763,36.07066Z"/>
  <path class="uuid-7ba764b0-ea58-4b3c-bc8b-49d2b3bc5afa" d="M304.34786,395.05063c-4.03776,0-7.28292-.80755-9.73549-2.42266-1.46556-.9571-3.05075-2.63202-4.75558-5.02477v6.14637h-12.51706v-66.03981h12.74138v23.50874c1.6151-2.27311,3.39471-4.00785,5.33882-5.20422,2.30302-1.49547,5.23413-2.2432,8.79334-2.2432,6.43051,0,11.46275,2.31797,15.09674,6.95392s5.45098,10.61781,5.45098,17.9456c0,7.59697-1.79456,13.89289-5.38368,18.88775s-8.59893,7.49229-15.02944,7.49229Zm6.99878-25.03411c0-3.46948-.44864-6.34078-1.34592-8.61389-1.70483-4.30694-4.84531-6.46042-9.42144-6.46042-4.63595,0-7.82129,2.10861-9.55603,6.32582-.89728,2.2432-1.34592,5.14441-1.34592,8.70362,0,4.18731,.92719,7.65679,2.78157,10.40845s4.68081,4.12749,8.4793,4.12749c3.29003,0,5.84728-1.33097,7.67174-3.9929s2.7367-6.16132,2.7367-10.49818Z"/>
  <path class="uuid-7ba764b0-ea58-4b3c-bc8b-49d2b3bc5afa" d="M375.77135,379.39309c-.329,2.90121-1.83942,5.84728-4.53126,8.83821-4.18731,4.75558-10.04954,7.13338-17.58669,7.13338-6.22114,0-11.7095-2.00393-16.46509-6.01178s-7.13338-10.52809-7.13338-19.56071c0-8.46434,2.14599-14.95467,6.43798-19.47098s9.8626-6.77446,16.71184-6.77446c4.06767,0,7.73156,.76269,10.99168,2.28806s5.95196,3.93308,8.07552,7.2231c1.9142,2.90121,3.15543,6.26601,3.72371,10.0944,.329,2.2432,.46359,5.47341,.40378,9.69062h-33.46855c.17946,4.90513,1.71979,8.3447,4.62099,10.31872,1.76465,1.22628,3.88821,1.83942,6.37069,1.83942,2.63202,0,4.77054-.74773,6.41555-2.2432,.89728-.80755,1.68988-1.92915,2.37779-3.3648h13.05543Zm-12.65165-14.98458c-.20937-3.37975-1.23376-5.94448-3.07318-7.69418s-4.12001-2.62454-6.84176-2.62454c-2.96102,0-5.25657,.92719-6.88662,2.78157s-2.65445,4.36676-3.07318,7.53715h19.87475Z"/>
  <path class="uuid-7ba764b0-ea58-4b3c-bc8b-49d2b3bc5afa" d="M409.59881,356.64704c-5.14441,0-8.59893,1.67492-10.36358,5.02477-.98701,1.88429-1.48051,4.78549-1.48051,8.70362v23.37415h-12.87597v-48.90176h12.20301v8.52416c1.97402-3.26012,3.6938-5.48836,5.15936-6.68474,2.39275-2.00393,5.50332-3.00589,9.33171-3.00589,.23927,0,.44116,.00748,.60566,.02243s.53089,.03739,1.09917,.0673v13.10029c-.80755-.08973-1.52538-.14955-2.15347-.17946s-1.13655-.04486-1.52538-.04486Z"/>
  <path class="uuid-f6f38fe2-0abd-4a11-80b9-29a801ab761d" d="M427.57432,427.80696h-5.51266v-81.65249h5.51266v8.36153h.18413c.7954-1.53098,1.82167-2.90868,3.07786-4.13497,1.25526-1.22441,2.63296-2.23572,4.13497-3.03206,1.50014-.79447,3.04608-1.40761,4.63969-1.83755,1.59267-.42808,3.1545-.64305,4.68642-.64305,3.8583,0,7.13525,.64305,9.83082,1.92915,2.69464,1.2861,4.91541,3.04888,6.66137,5.28461s3.01617,4.88457,3.81344,7.94654c.7954,3.06384,1.1945,6.34078,1.1945,9.83082,0,3.30872-.42995,6.49406-1.28704,9.55603-.85802,3.06384-2.15908,5.74259-3.9041,8.04-1.74596,2.29741-3.95177,4.13497-6.61557,5.51266-2.66473,1.3777-5.80428,2.06748-9.41864,2.06748-3.36854,0-6.60062-.75147-9.69343-2.25068-3.09375-1.50107-5.52855-3.72184-7.30442-6.6623v41.68427Zm0-57.67081c0,2.69558,.36732,5.25283,1.10291,7.67174,.73465,2.42079,1.79176,4.53313,3.16945,6.34078,1.37863,1.80765,3.0629,3.24703,5.05374,4.31816,1.98991,1.07113,4.24058,1.60763,6.75297,1.60763,2.81709,0,5.28367-.56641,7.39695-1.69922s3.84335-2.67875,5.19114-4.64156c1.34685-1.95906,2.32732-4.23965,2.94046-6.84363,.61127-2.60398,.85709-5.40611,.73465-8.40826,0-3.00028-.41312-5.651-1.2403-7.94654-.82718-2.29741-1.97495-4.24152-3.44518-5.83606-1.47023-1.5908-3.18628-2.80213-5.14534-3.62838-1.96093-.82625-4.10506-1.24124-6.43238-1.24124-2.5722,0-4.86961,.52154-6.89036,1.56276-2.02168,1.04122-3.70689,2.46565-5.05374,4.27143-1.34779,1.80765-2.37499,3.95177-3.07786,6.43238-.70474,2.48061-1.05711,5.16123-1.05711,8.04Z"/>
  <path class="uuid-f6f38fe2-0abd-4a11-80b9-29a801ab761d" d="M499.42496,366.00118c1.04122-.12151,2.28152-.3047,3.72184-.55145,1.43845-.24301,2.618-.58136,3.53678-1.00944s1.48425-1.14964,1.70016-2.16095c.21404-1.00944,.32153-1.94224,.32153-2.80213,0-2.81709-.90476-5.12945-2.71053-6.9371-1.80765-1.80578-4.85559-2.71053-9.14198-2.71053-1.89924,0-3.6452,.17011-5.23787,.50659-1.59361,.33648-2.98533,.91784-4.17983,1.74596-1.1945,.82625-2.17497,1.92915-2.94046,3.30685-.76643,1.3777-1.27208,3.11057-1.51603,5.19114h-5.6052c.18413-2.81709,.82718-5.22105,1.93009-7.21189,1.10197-1.99084,2.5264-3.61342,4.27236-4.86961s3.76671-2.17403,6.06412-2.75727c2.29648-.58136,4.73222-.87298,7.30442-.87298,2.38901,0,4.63969,.26171,6.75297,.78138,2.11328,.52154,3.95084,1.34779,5.5136,2.48061,1.56183,1.13469,2.78624,2.65071,3.67511,4.54809,.887,1.89924,1.3319,4.22656,1.3319,6.98383v25.90896c0,2.14599,.38228,3.50874,1.14871,4.0901,.76549,.58323,2.31143,.4449,4.63969-.41312v4.31816c-.42901,.12338-1.05617,.3047-1.88335,.55145-.82718,.24301-1.63941,.36639-2.43481,.36639-.85802,0-1.6852-.0916-2.48061-.27479-.91878-.12338-1.65436-.41312-2.20488-.87298-.55145-.45986-.99635-1.01131-1.33283-1.65436-.33741-.64305-.56734-1.34592-.68885-2.11235-.12338-.76643-.18413-1.57772-.18413-2.43574-2.32825,2.5722-4.99299,4.53313-7.99327,5.88092-3.00215,1.34592-6.24825,2.02075-9.73923,2.02075-2.08337,0-4.08917-.27479-6.01832-.82625-1.93009-.55145-3.62931-1.40948-5.09954-2.5722-1.47023-1.16459-2.63483-2.58716-3.49191-4.2733-.85802-1.68427-1.2861-3.69006-1.2861-6.01925,0-8.08487,5.54257-12.86288,16.63053-14.33218l7.62595-1.01131Zm9.28031,2.75727c-2.32825,.97953-4.68642,1.62258-7.07449,1.92915-2.38901,.30657-4.77802,.55145-7.16702,.73465-4.22656,.30657-7.52033,1.25619-9.87756,2.84886-2.3591,1.59267-3.53771,4.01159-3.53771,7.25862,0,1.4693,.29068,2.74231,.87298,3.81344,.58136,1.07113,1.34685,1.96093,2.29741,2.6638,.94869,.70474,2.05159,1.22628,3.30779,1.56276,1.25432,.33648,2.5264,.50472,3.81251,.50472,2.20581,0,4.349-.27666,6.43238-.82625,2.0815-.55145,3.93495-1.39265,5.55846-2.52734,1.62258-1.13282,2.92457-2.5722,3.90504-4.31816,.97953-1.74596,1.47023-3.81344,1.47023-6.20245v-7.44182Z"/>
  <path class="uuid-f6f38fe2-0abd-4a11-80b9-29a801ab761d" d="M562.36355,361.13157c-.98047-3.55173-2.6638-6.32396-5.05281-8.3148s-5.42107-2.98719-9.09618-2.98719c-2.81895,0-5.23787,.58323-7.25862,1.74596-2.02168,1.16459-3.67604,2.71053-4.96215,4.63969-1.2861,1.93102-2.23666,4.10506-2.84793,6.52397-.61314,2.42079-.91878,4.85653-.91878,7.30536,0,2.51238,.28975,4.96121,.87298,7.35022,.58136,2.38901,1.51603,4.53313,2.80213,6.43238s2.94046,3.41527,4.96121,4.54809c2.02168,1.13282,4.47051,1.69922,7.35115,1.69922,4.10319,0,7.39602-1.13282,9.87662-3.40032,2.48154-2.26563,4.05739-5.38929,4.73222-9.37097h5.87999c-.4907,2.63389-1.27115,5.03785-2.34227,7.21189-1.073,2.1759-2.4507,4.04337-4.13497,5.60426-1.6852,1.56276-3.691,2.77409-6.01832,3.63025-2.32825,.85615-4.99299,1.2861-7.99327,1.2861-3.79942,0-7.07543-.64305-9.83176-1.92915s-5.0229-3.04701-6.79877-5.28274c-1.77774-2.23572-3.09375-4.88457-3.95084-7.94841-.85896-3.06197-1.28704-6.33891-1.28704-9.83082,0-3.30872,.47388-6.47724,1.42443-9.5093,.94869-3.03206,2.34321-5.71268,4.18076-8.04s4.11908-4.1817,6.84456-5.5594,5.86503-2.06748,9.41864-2.06748c5.51266,0,9.96916,1.31788,13.36854,3.95177s5.52668,6.73895,6.38564,12.31143h-5.6052Z"/>
  <path class="uuid-f6f38fe2-0abd-4a11-80b9-29a801ab761d" d="M579.36233,393.74957v-66.15384h5.51266v41.16272l23.33769-22.60398h7.53435l-17.82503,17.18291,19.93831,30.41219h-6.15572l-17.82503-26.55388-9.00458,8.54472v18.00916h-5.51266Z"/>
  <path class="uuid-7ba764b0-ea58-4b3c-bc8b-49d2b3bc5afa" d="M115.77393,350.81595c-.04097,.21733-.05096,.40076-.11042,.56644-1.02951,2.86841-2.05151,5.73965-3.10527,8.59919-.50549,1.37171-1.72631,1.97647-2.97437,1.52294-.96468-.35055-1.50454-1.06429-1.53777-2.07736-.09511-2.89982-.14977-5.80096-.22105-8.70157-.04277-1.73982,1.71322-2.79514,3.09328-2.23689,1.66377,.67302,3.3609,1.24917,4.85559,2.32725Z"/>
  <path class="uuid-7ba764b0-ea58-4b3c-bc8b-49d2b3bc5afa" d="M93.62701,385.68237c.4904-1.38099,.95197-2.6917,1.42129-3.99964,.57036-1.58958,1.14626-3.1772,1.72161-4.765,.54807-1.51261,1.53205-2.25407,2.72237-2.02656,1.13367,.21668,1.99071,1.14224,1.96858,2.76997-.03395,2.49565,.10656,4.99361,.16713,7.49071,.00888,.36646,.02307,.73931-.03027,1.09956-.1769,1.19463-1.32533,2.16304-2.42137,1.89882-1.96965-.47481-3.79441-1.31932-5.54933-2.46787Z"/>
  <path class="uuid-3324b637-7270-4dbf-af51-7defb9eb72d7" d="M86.38495,377.78145c1.23457-1.04345,2.38251-2.01631,3.53337-2.98571,1.29413-1.09005,2.58526-2.18372,3.88821-3.26312,1.07094-.8872,2.1692-.93256,3.0992-.1544,.89507,.74894,1.02399,1.89969,.37271,3.09676-1.30019,2.38977-2.5953,4.78236-3.878,7.18153-.34299,.6415-.7694,1.15977-1.49772,1.37009-.80942,.23375-1.57138,.11381-2.14403-.49401-1.31324-1.39392-2.45351-2.92071-3.37373-4.75113Z"/>
  <path class="uuid-5c58ddf0-aafa-4081-8ddb-81bc1d02bda0" d="M87.3031,357.10951c3.18786,1.15106,6.26347,2.24193,9.32281,3.37676,1.08849,.40377,1.63331,1.4614,1.43974,2.5651-.18322,1.04465-1.0156,1.8229-2.15477,1.86387-2.89896,.10425-5.7995,.1701-8.69991,.22551-1.83231,.03501-2.79833-1.68561-2.21599-3.1834,.63912-1.64379,1.27628-3.27389,2.30813-4.84785Z"/>
  <path class="uuid-7ba764b0-ea58-4b3c-bc8b-49d2b3bc5afa" d="M95.13342,349.96619c.18302,.1608,.33539,.26404,.44952,.39948,1.98866,2.36019,3.98,4.71824,5.9484,7.09525,.24777,.29919,.45155,.68479,.53362,1.0613,.20691,.94955-.11948,1.74934-.91487,2.31152-.79812,.5641-1.62822,.55481-2.48744,.08073-1.96166-1.08238-3.9362-2.14144-5.9062-3.20869-.51672-.27993-1.04341-.5422-1.55267-.83495-1.62781-.93573-1.83749-2.71546-.40325-3.90028,1.07337-.88671,2.22749-1.67692,3.36026-2.48975,.28994-.20805,.63518-.33905,.97264-.51462Z"/>
  <path class="uuid-7ba764b0-ea58-4b3c-bc8b-49d2b3bc5afa" d="M84.102,367.32453c1.64517-.30347,3.23125-.59958,4.81872-.88786,1.5555-.28248,3.11217-.55849,4.66883-.83454,1.30095-.23069,2.33453,.31145,2.75822,1.44202,.41225,1.10004,.01208,2.13702-1.08681,2.81196-2.25612,1.38571-4.50514,2.78327-6.7753,4.14562-.46189,.27719-.98783,.51528-1.51274,.60529-.95858,.16439-2.0156-.38391-2.24071-1.23037-.52021-1.95606-.76315-3.95543-.63022-6.05211Z"/>
  <path class="uuid-5c58ddf0-aafa-4081-8ddb-81bc1d02bda0" d="M123.15158,358.81976c-.21357,.13094-.4203,.22496-.58807,.36547-2.31245,1.93653-4.62439,3.87377-6.92465,5.82473-.59532,.50491-1.23982,.79142-2.0242,.63207-1.49027-.30273-2.31472-1.88867-1.60595-3.2447,1.37947-2.6392,2.80133-5.25716,4.25603-7.85572,.70351-1.25671,2.31679-1.59855,3.3047-.66643,1.4486,1.3668,2.55941,3.00682,3.58214,4.94458Z"/>
  <path class="uuid-7ba764b0-ea58-4b3c-bc8b-49d2b3bc5afa" d="M114.28451,386.60375c-1.72771-2.05041-3.36009-3.98742-4.99211-5.92471-.47368-.56229-.96264-1.1127-1.41567-1.6912-.72772-.92923-.70941-2.08095,.01714-2.93084,.73875-.86416,1.82288-1.04957,2.89381-.47106,2.48945,1.34478,4.97863,2.69018,7.45825,4.05293,1.63858,.90053,1.86547,2.70903,.44937,3.89608-1.01144,.84784-2.10456,1.59986-3.17809,2.37121-.35132,.25242-.75568,.43106-1.23271,.69759Z"/>
  <path class="uuid-3324b637-7270-4dbf-af51-7defb9eb72d7" d="M105.64402,347.66921c.18834,.98701,.37978,1.95398,.55646,2.92365,.36881,2.02401,.73157,4.04915,1.09228,6.07462,.05794,.32529,.11985,.65365,.13291,.98246,.04135,1.04162-.61858,1.97521-1.58072,2.272-1.01614,.31343-2.04521-.02253-2.60564-.9252-1.51162-2.43474-3.023-4.87036-4.48385-7.33563-1.0021-1.6911-.24506-3.24109,1.66461-3.60899,1.70003-.32751,3.40268-.54217,5.22395-.3829Z"/>
  <path class="uuid-5c58ddf0-aafa-4081-8ddb-81bc1d02bda0" d="M103.82439,388.84296c-.2768-1.48016-.55067-2.91892-.814-4.3596-.29058-1.58982-.57357-3.18105-.85473-4.77257-.05105-.28895-.10281-.58157-.11073-.87367-.02787-1.02709,.66285-1.98261,1.60758-2.25304,1.038-.29713,2.01561,.04781,2.59459,.95979,.6103,.96133,1.18491,1.94526,1.78038,2.91608,.88372,1.44078,1.76677,2.882,2.66084,4.31636,.40942,.65685,.58901,1.35342,.36432,2.10307-.22476,.74991-.69666,1.32374-1.48845,1.48038-1.83676,.36337-3.68227,.68905-5.7398,.48322Z"/>
  <circle class="uuid-7ba764b0-ea58-4b3c-bc8b-49d2b3bc5afa" cx="103.60887" cy="368.24432" r="3.38115"/>
</svg>