<?xml version="1.0" encoding="UTF-8"?>
<svg id="uuid-4e9f5c6f-57ee-480b-854a-811dabb1b57b" data-name="Layer 1" xmlns="http://www.w3.org/2000/svg" viewBox="0 0 720 720">
  <defs>
    <style>
      .uuid-2f683c17-2fb9-4579-99d0-d97307f0713d {
        fill: #0fb9ff;
      }

      .uuid-e75eec9a-77d8-4e23-9c64-0a9ef281a738 {
        fill: #394c77;
      }

      .uuid-174cdae1-de1a-46af-acdd-5bc7d4d12c08 {
        fill: #3b517b;
      }
    </style>
  </defs>
  <path class="uuid-e75eec9a-77d8-4e23-9c64-0a9ef281a738" d="M112.56729,400.49653c-22.17542,0-40.21643-18.04102-40.21643-40.21643s18.04102-40.21643,40.21643-40.21643h23.8697c9.01353,0,16.34674,7.33283,16.34674,16.34674v23.8697c0,22.17542-18.04102,40.21643-40.21643,40.21643Zm0-76.67432c-20.10308,0-36.45789,16.35481-36.45789,36.45789s16.35481,36.45789,36.45789,36.45789,36.45789-16.35481,36.45789-36.45789v-23.8697c0-6.94083-5.64699-12.58819-12.58819-12.58819h-23.8697Z"/>
  <g>
    <path class="uuid-e75eec9a-77d8-4e23-9c64-0a9ef281a738" d="M454.80654,399.10511h-3.64873v10.71989h-1.3671v-10.71989h-3.66556v-1.11463h8.68139v1.11463Z"/>
    <path class="uuid-e75eec9a-77d8-4e23-9c64-0a9ef281a738" d="M469.09381,409.825h-6.18189v-11.83452h6.1314v1.19879h-4.75588v3.66556h4.57166v1.19879h-4.57166v4.5726h4.80637v1.19879Z"/>
    <path class="uuid-e75eec9a-77d8-4e23-9c64-0a9ef281a738" d="M485.21106,409.08628c-.92855,.64334-2.00484,.96501-3.22981,.96501-1.53168,0-2.69587-.52552-3.4935-1.57656-.7967-1.05104-1.19505-2.5715-1.19505-4.56325,0-1.92255,.38619-3.42992,1.15764-4.51649,.77145-1.08845,1.94873-1.6308,3.53091-1.6308,.57041,0,1.1352,.07107,1.69439,.21694s1.0099,.3385,1.35121,.57976l-.45352,1.08097c-.78828-.44697-1.65231-.6714-2.59207-.6714-1.09032,0-1.90104,.39648-2.43217,1.18757s-.7967,2.04224-.7967,3.75346c0,3.28778,1.07629,4.93167,3.22887,4.93167,.91171,0,1.84587-.27866,2.80154-.83784l.42827,1.08097Z"/>
    <path class="uuid-e75eec9a-77d8-4e23-9c64-0a9ef281a738" d="M500.24453,409.825h-1.37552v-5.87238h-4.05082v5.87238h-1.37552v-11.83452h1.37552v4.75588h4.05082v-4.75588h1.37552v11.83452Z"/>
    <path class="uuid-e75eec9a-77d8-4e23-9c64-0a9ef281a738" d="M515.87459,409.825h-1.52701l-4.24438-9.34344v9.34344h-1.37552v-11.83452h1.53542l4.26121,9.25928v-9.25928h1.35027v11.83452Z"/>
    <path class="uuid-e75eec9a-77d8-4e23-9c64-0a9ef281a738" d="M527.74652,397.76419c1.32503,0,2.33586,.52365,3.03157,1.57282,.69664,1.0473,1.0445,2.57337,1.0445,4.57447,0,1.99175-.34692,3.51221-1.03982,4.56325-.69384,1.05104-1.70561,1.57656-3.03624,1.57656-1.32035,0-2.32838-.52365-3.02409-1.57282-.69664-1.0473-1.0445-2.56963-1.0445-4.56699,0-1.99549,.34692-3.51969,1.03982-4.57073,.69384-1.05104,1.7028-1.57656,3.02876-1.57656Zm0,11.07897c1.74395,0,2.61639-1.64389,2.61639-4.93167,0-3.29339-.87244-4.94103-2.61639-4.94103-.85,0-1.49802,.4264-1.94219,1.27921s-.66672,2.07403-.66672,3.66182c0,1.60462,.22068,2.82772,.66298,3.6693,.44136,.84158,1.09032,1.26237,1.94593,1.26237Z"/>
    <path class="uuid-e75eec9a-77d8-4e23-9c64-0a9ef281a738" d="M546.66436,409.825h-6.44185v-11.83452h1.37552v10.63574h5.06633v1.19879Z"/>
    <path class="uuid-e75eec9a-77d8-4e23-9c64-0a9ef281a738" d="M558.67094,397.76419c1.32503,0,2.33586,.52365,3.03157,1.57282,.69664,1.0473,1.0445,2.57337,1.0445,4.57447,0,1.99175-.34692,3.51221-1.03982,4.56325-.69384,1.05104-1.70561,1.57656-3.03624,1.57656-1.32035,0-2.32838-.52365-3.02409-1.57282-.69664-1.0473-1.0445-2.56963-1.0445-4.56699,0-1.99549,.34692-3.51969,1.03982-4.57073,.69384-1.05104,1.7028-1.57656,3.02876-1.57656Zm0,11.07897c1.74395,0,2.61639-1.64389,2.61639-4.93167,0-3.29339-.87244-4.94103-2.61639-4.94103-.85,0-1.49802,.4264-1.94219,1.27921s-.66672,2.07403-.66672,3.66182c0,1.60462,.22068,2.82772,.66298,3.6693,.44136,.84158,1.09032,1.26237,1.94593,1.26237Z"/>
    <path class="uuid-e75eec9a-77d8-4e23-9c64-0a9ef281a738" d="M577.96563,408.98716c-.96782,.7088-2.0385,1.06413-3.21298,1.06413-1.53729,0-2.70335-.52178-3.49724-1.56347-.79389-1.04356-1.19131-2.56776-1.19131-4.57634,0-1.93938,.38432-3.45049,1.1539-4.52959,.76865-1.0791,1.94686-1.61771,3.53465-1.61771,.57041,0,1.1352,.07107,1.69439,.21694s1.0099,.3385,1.35121,.57976l-.45352,1.08097c-.78828-.44697-1.65231-.6714-2.59207-.6714-1.08471,0-1.89356,.39835-2.4275,1.19131-.53487,.79483-.80137,2.04411-.80137,3.74972,0,3.28778,1.07629,4.93167,3.22887,4.93167,.81072,0,1.42321-.17019,1.83746-.51056v-2.91936h-2.13107v-1.19131h3.50659v4.76523Z"/>
    <path class="uuid-e75eec9a-77d8-4e23-9c64-0a9ef281a738" d="M592.24542,409.825h-5.37678v-1.19879h2.0385v-9.43695h-2.0385v-1.19879h5.37678v1.19879h-1.96276v9.43695h1.96276v1.19879Z"/>
    <path class="uuid-e75eec9a-77d8-4e23-9c64-0a9ef281a738" d="M608.25232,409.825h-6.18189v-11.83452h6.1314v1.19879h-4.75588v3.66556h4.57166v1.19879h-4.57166v4.5726h4.80637v1.19879Z"/>
    <path class="uuid-e75eec9a-77d8-4e23-9c64-0a9ef281a738" d="M623.06044,399.29774c-.70506-.23938-1.37365-.36095-2.00484-.36095-.71628,0-1.29884,.16458-1.74956,.49186-.44978,.32728-.67514,.79296-.67514,1.39703,0,.71441,.59004,1.34466,1.77013,1.88702,.87244,.40209,1.44939,.68262,1.73179,.83784,.2824,.1571,.56947,.37217,.86028,.64708,.29081,.27305,.52365,.59659,.70038,.96876,.1758,.3703,.2637,.78922,.2637,1.25302,0,1.15203-.38713,2.04598-1.16138,2.67997s-1.68784,.95192-2.73888,.95192c-1.01738,0-1.90946-.20198-2.6753-.60407l.2852-1.18196c.90049,.4077,1.68597,.61155,2.35643,.61155,.78361,0,1.41105-.20198,1.88328-.60781s.7088-.96314,.7088-1.67381c0-.52552-.15336-.97063-.461-1.33718s-.87525-.73872-1.7028-1.12024c-.85-.39087-1.39983-.6583-1.64857-.80044s-.4956-.34037-.74246-.59098c-.24593-.25247-.43575-.53487-.57041-.84719-.13372-.31419-.20104-.65456-.20104-1.02299,0-.97998,.35253-1.74301,1.05665-2.29098,.70506-.54796,1.59714-.82101,2.67623-.82101,.78828,0,1.57095,.11969,2.34802,.35908l-.30952,1.17448Z"/>
  </g>
  <path class="uuid-e75eec9a-77d8-4e23-9c64-0a9ef281a738" d="M217.03076,380.85966c-4.93729,4.51836-11.25103,6.77755-18.94122,6.77755-9.5155,0-16.99623-3.05214-22.44221-9.15642-5.44598-6.1342-8.16896-14.54255-8.16896-25.22504,0-11.55026,3.09702-20.45233,9.29107-26.70623,5.38613-5.44598,12.23848-8.16896,20.55706-8.16896,11.13133,0,19.27037,3.6506,24.41712,10.9518,2.84268,4.09944,4.36875,8.21385,4.57821,12.34321h-13.8244c-.89769-3.17183-2.04972-5.56567-3.4561-7.18151-2.51353-2.8726-6.23893-4.3089-11.17622-4.3089-5.02705,0-8.99184,2.02728-11.89437,6.08184-2.90253,4.05456-4.35379,9.79228-4.35379,17.21317s1.53355,12.97908,4.60065,16.67456,6.96456,5.54322,11.69239,5.54322c4.84752,0,8.543-1.58592,11.08645-4.75775,1.40638-1.70561,2.57337-4.26402,3.50098-7.67523h13.68975c-1.19692,7.21143-4.24906,13.07633-9.15642,17.59469Z"/>
  <path class="uuid-e75eec9a-77d8-4e23-9c64-0a9ef281a738" d="M255.58647,372.96l10.09899-36.08707h13.59998l-16.78677,48.11609c-3.23168,9.27611-5.79009,15.0288-7.67523,17.25806s-5.65544,3.34389-11.31087,3.34389c-1.13707,0-2.04972-.00748-2.73795-.02244s-1.72057-.06733-3.09702-.1571v-10.23365l1.61584,.08977c1.25676,.05985,2.45368,.01496,3.59075-.13465s2.09461-.49373,2.8726-1.03234c.74807-.50869,1.44378-1.57095,2.08713-3.18679,.64334-1.61584,.90517-2.6033,.78548-2.96237l-17.95377-51.07846h14.22836l10.68249,36.08707Z"/>
  <path class="uuid-e75eec9a-77d8-4e23-9c64-0a9ef281a738" d="M313.39759,387.09859c-4.0396,0-7.28624-.80792-9.73992-2.42376-1.46622-.95753-3.05214-2.63322-4.75775-5.02705v6.14916h-12.52275v-66.06986h12.74717v23.51943c1.61584-2.27414,3.39625-4.00967,5.34125-5.20659,2.30407-1.49615,5.23651-2.24422,8.79734-2.24422,6.43343,0,11.46797,2.31903,15.1036,6.95708,3.63564,4.63806,5.45346,10.62264,5.45346,17.95377,0,7.60043-1.79538,13.89921-5.38613,18.89634-3.59075,4.99713-8.60285,7.4957-15.03628,7.4957Zm7.00197-25.0455c0-3.47106-.44884-6.34366-1.34653-8.61781-1.70561-4.3089-4.84752-6.46336-9.42573-6.46336-4.63806,0-7.82485,2.10957-9.56038,6.3287-.89769,2.24422-1.34653,5.14675-1.34653,8.70758,0,4.18921,.92761,7.66027,2.78283,10.41318s4.68294,4.12937,8.48315,4.12937c3.29152,0,5.84994-1.33157,7.67523-3.99471s2.73795-6.16413,2.73795-10.50295Z"/>
  <path class="uuid-e75eec9a-77d8-4e23-9c64-0a9ef281a738" d="M384.85358,371.43393c-.32915,2.90253-1.84026,5.84994-4.53333,8.84223-4.18921,4.75775-10.05411,7.13662-17.59469,7.13662-6.22397,0-11.71483-2.00484-16.47258-6.01451s-7.13662-10.53288-7.13662-19.5696c0-8.46819,2.14697-14.96147,6.44091-19.47984s9.86709-6.77755,16.71944-6.77755c4.06952,0,7.73508,.76304,10.99668,2.28911s5.95467,3.93487,8.07919,7.22639c1.91507,2.90253,3.15687,6.26886,3.72541,10.09899,.32915,2.24422,.46381,5.4759,.40396,9.69503h-33.48377c.17954,4.90736,1.72057,8.3485,4.62309,10.32341,1.76545,1.22684,3.88998,1.84026,6.37359,1.84026,2.63322,0,4.77271-.74807,6.41847-2.24422,.89769-.80792,1.69065-1.93003,2.37887-3.36633h13.06136Zm-12.6574-14.99139c-.20946-3.38129-1.23432-5.94718-3.07458-7.69768-1.84026-1.75049-4.12189-2.62574-6.84487-2.62574-2.96237,0-5.25896,.92761-6.88976,2.78283s-2.65566,4.36875-3.07458,7.54058h19.88379Z"/>
  <path class="uuid-e75eec9a-77d8-4e23-9c64-0a9ef281a738" d="M418.69643,348.67754c-5.14675,0-8.60285,1.67568-10.3683,5.02705-.98746,1.88515-1.48119,4.78767-1.48119,8.70758v23.38478h-12.88183v-48.92401h12.20856v8.52804c1.97491-3.2616,3.69548-5.49086,5.16171-6.68778,2.39384-2.00484,5.50582-3.00726,9.33596-3.00726,.23938,0,.44136,.00748,.60594,.02244s.53113,.0374,1.09967,.06733v13.10625c-.80792-.08977-1.52607-.14961-2.15445-.17954s-1.13707-.04488-1.52607-.04488Z"/>
  <path class="uuid-2f683c17-2fb9-4579-99d0-d97307f0713d" d="M436.68011,419.86982h-5.51517v-81.68963h5.51517v8.36533h.18421c.79576-1.53168,1.82249-2.91001,3.07926-4.13685,1.25583-1.22497,2.63415-2.23674,4.13685-3.03344,1.50082-.79483,3.04746-1.40825,4.6418-1.83839,1.5934-.42827,3.15594-.64334,4.68855-.64334,3.86006,0,7.13849,.64334,9.8353,1.93003,2.69587,1.28669,4.91765,3.05027,6.6644,5.28701s3.01754,4.88679,3.81518,7.95015c.79576,3.06523,1.19505,6.34366,1.19505,9.8353,0,3.31023-.43014,6.49702-1.28762,9.56038-.85841,3.06523-2.16006,5.7452-3.90588,8.04366-1.74675,2.29846-3.95357,4.13685-6.61858,5.51517-2.66595,1.37833-5.80692,2.06842-9.42292,2.06842-3.37007,0-6.60362-.75181-9.69784-2.2517-3.09515-1.50176-5.53107-3.72354-7.30774-6.66534v41.70323Zm0-57.69704c0,2.69681,.36749,5.25522,1.10341,7.67523,.73498,2.42189,1.79257,4.5352,3.1709,6.34366,1.37926,1.80847,3.0643,3.24851,5.05604,4.32012,1.99081,1.07162,4.24251,1.60836,6.75604,1.60836,2.81837,0,5.28607-.56667,7.40032-1.7s3.8451-2.67997,5.1935-4.64367c1.34747-1.95995,2.32838-4.24158,2.9418-6.84674,.61155-2.60517,.85748-5.40857,.73498-8.41209,0-3.00165-.41331-5.65357-1.24087-7.95015-.82756-2.29846-1.97585-4.24345-3.44675-5.83871-1.4709-1.59153-3.18773-2.80341-5.14768-3.63003-1.96182-.82662-4.10692-1.2418-6.4353-1.2418-2.57337,0-4.87183,.52178-6.8935,1.56347-2.0226,1.04169-3.70857,2.46677-5.05604,4.27337-1.3484,1.80847-2.37607,3.95357-3.07926,6.4353-.70506,2.48173-1.05759,5.16358-1.05759,8.04366Z"/>
  <path class="uuid-2f683c17-2fb9-4579-99d0-d97307f0713d" d="M508.56344,358.03594c1.04169-.12156,2.28256-.30484,3.72354-.5517,1.43911-.24312,2.61919-.58163,3.53839-1.0099s1.48493-1.15016,1.70093-2.16193c.21414-1.0099,.32167-1.94312,.32167-2.80341,0-2.81837-.90517-5.13178-2.71177-6.94025-1.80847-1.8066-4.8578-2.71177-9.14613-2.71177-1.90011,0-3.64686,.17019-5.24026,.50682-1.59433,.33663-2.98668,.91826-4.18173,1.74675-1.19505,.82662-2.17596,1.93003-2.9418,3.30836-.76678,1.37833-1.27266,3.11199-1.51672,5.1935h-5.60775c.18421-2.81837,.82756-5.22342,1.93096-7.21517,1.10247-1.99175,2.52755-3.61507,4.27431-4.87183s3.76842-2.17502,6.06688-2.75852c2.29752-.58163,4.73437-.87338,7.30774-.87338,2.39009,0,4.6418,.26183,6.75604,.78174,2.11424,.52178,3.95263,1.3484,5.51611,2.48173,1.56254,1.1352,2.78751,2.65192,3.67678,4.55016,.8874,1.90011,1.33251,4.22849,1.33251,6.98701v25.92075c0,2.14697,.38245,3.51034,1.14923,4.09196,.76584,.5835,2.31248,.4451,4.6418-.41331v4.32012c-.42921,.12343-1.05665,.30484-1.88421,.5517-.82756,.24312-1.64015,.36656-2.43591,.36656-.85841,0-1.68597-.09164-2.48173-.27492-.9192-.12343-1.65511-.41331-2.20588-.87338-.5517-.46007-.99681-1.01177-1.33344-1.65511-.33757-.64334-.5676-1.34653-.68916-2.11331-.12343-.76678-.18421-1.57844-.18421-2.43685-2.32931,2.57337-4.99526,4.5352-7.99691,5.8836-3.00352,1.34653-6.25109,2.02167-9.74366,2.02167-2.08432,0-4.09103-.27492-6.02106-.82662-1.93096-.5517-3.63096-1.41012-5.10186-2.57337-1.4709-1.16512-2.63602-2.58833-3.4935-4.27524-.85841-1.68504-1.28669-3.69174-1.28669-6.02199,0-8.08855,5.5451-12.86874,16.63809-14.3387l7.62942-1.01177Zm9.28453,2.75852c-2.32931,.97998-4.68855,1.62332-7.07771,1.93003-2.39009,.30671-4.78019,.5517-7.17028,.73498-4.22849,.30671-7.52375,1.25676-9.88205,2.85016-2.36017,1.5934-3.53932,4.01341-3.53932,7.26192,0,1.46996,.29081,2.74356,.87338,3.81518,.58163,1.07162,1.34747,1.96182,2.29846,2.66501,.94912,.70506,2.05253,1.22684,3.30929,1.56347,1.25489,.33663,2.52755,.50495,3.81424,.50495,2.20682,0,4.35098-.27679,6.4353-.82662,2.08245-.5517,3.93674-1.39329,5.56099-2.52849,1.62332-1.13333,2.9259-2.57337,3.90681-4.32012,.97998-1.74675,1.4709-3.81518,1.4709-6.20527v-7.4452Z"/>
  <path class="uuid-2f683c17-2fb9-4579-99d0-d97307f0713d" d="M571.53066,353.16411c-.98091-3.55335-2.66501-6.32683-5.05511-8.31858s-5.42353-2.98855-9.10031-2.98855c-2.82024,0-5.24026,.5835-7.26192,1.74675-2.0226,1.16512-3.67772,2.71177-4.9644,4.6418-1.28669,1.9319-2.23767,4.10692-2.84923,6.52694-.61342,2.42189-.9192,4.85874-.9192,7.30868,0,2.51353,.28988,4.96347,.87338,7.35356,.58163,2.39009,1.51672,4.5352,2.80341,6.4353,1.28669,1.90011,2.9418,3.41683,4.96347,4.55016,2.0226,1.13333,4.47254,1.7,7.3545,1.7,4.10505,0,7.39938-1.13333,9.88112-3.40186,2.48267-2.26666,4.05923-5.39174,4.73437-9.37523h5.88266c-.49092,2.63509-1.27173,5.04015-2.34334,7.21517-1.07349,2.17689-2.45181,4.04521-4.13685,5.60681-1.68597,1.56347-3.69268,2.77535-6.02106,3.6319-2.32931,.85654-4.99526,1.28669-7.99691,1.28669-3.80115,0-7.07865-.64334-9.83623-1.93003-2.75759-1.28669-5.02518-3.0484-6.80186-5.28514-1.77854-2.23674-3.09515-4.88679-3.95263-7.95202-.85935-3.06336-1.28762-6.34179-1.28762-9.8353,0-3.31023,.47409-6.48019,1.42508-9.51363,.94912-3.03344,2.34428-5.71528,4.18267-8.04366,1.83839-2.32838,4.12095-4.1836,6.84768-5.56193s5.8677-2.06842,9.42292-2.06842c5.51517,0,9.97369,1.31848,13.37462,3.95357,3.40093,2.63509,5.5292,6.74201,6.38855,12.31703h-5.60775Z"/>
  <path class="uuid-2f683c17-2fb9-4579-99d0-d97307f0713d" d="M588.53717,385.79694v-66.18394h5.51517v41.18145l23.34831-22.61426h7.53778l-17.83314,17.19073,19.94738,30.42602h-6.15852l-17.83314-26.56596-9.00868,8.54861v18.01735h-5.51517Z"/>
  <path class="uuid-2f683c17-2fb9-4579-99d0-d97307f0713d" d="M124.73788,342.84379c-.04099,.21743-.05098,.40095-.11048,.5667-1.02998,2.86972-2.05244,5.74226-3.10668,8.6031-.50572,1.37233-1.7271,1.97737-2.97572,1.52363-.96512-.35071-1.50523-1.06478-1.53847-2.0783-.09516-2.90114-.14984-5.8036-.22115-8.70553-.04279-1.74061,1.714-2.79641,3.09469-2.23791,1.66453,.67332,3.36243,1.24974,4.8578,2.32831Z"/>
  <path class="uuid-2f683c17-2fb9-4579-99d0-d97307f0713d" d="M102.58089,377.72608c.49062-1.38162,.95241-2.69293,1.42194-4.00146,.57062-1.59031,1.14678-3.17864,1.72239-4.76717,.54832-1.51329,1.53275-2.25509,2.72361-2.02748,1.13419,.21678,1.99161,1.14276,1.96947,2.77123-.03397,2.49679,.10661,4.99588,.1672,7.49412,.00889,.36662,.02308,.73965-.03029,1.10006-.17698,1.19517-1.32593,2.16403-2.42247,1.89969-1.97055-.47503-3.79613-1.31992-5.55186-2.46899Z"/>
  <path class="uuid-174cdae1-de1a-46af-acdd-5bc7d4d12c08" d="M95.33552,369.82156c1.23513-1.04392,2.3836-2.01723,3.53497-2.98707,1.29471-1.09054,2.58644-2.18472,3.88998-3.26461,1.07143-.8876,2.17018-.93299,3.10061-.15447,.89548,.74928,1.02445,1.90055,.37288,3.09817-1.30078,2.39086-2.59648,4.78454-3.87976,7.1848-.34314,.64179-.76975,1.16029-1.49841,1.37071-.80979,.23386-1.5721,.11386-2.14501-.49424-1.31384-1.39456-2.45463-2.92204-3.37527-4.7533Z"/>
  <path class="uuid-e75eec9a-77d8-4e23-9c64-0a9ef281a738" d="M96.2541,349.14022c3.18931,1.15158,6.26632,2.24295,9.32705,3.3783,1.08899,.40395,1.63406,1.46206,1.4404,2.56627-.1833,1.04512-1.01607,1.82373-2.15575,1.86472-2.90028,.1043-5.80213,.17017-8.70387,.22561-1.83315,.03502-2.79961-1.68637-2.217-3.18484,.63942-1.64454,1.27686-3.27538,2.30918-4.85005Z"/>
  <path class="uuid-2f683c17-2fb9-4579-99d0-d97307f0713d" d="M104.08798,341.99365c.1831,.16087,.33554,.26416,.44972,.39967,1.98956,2.36126,3.98181,4.72039,5.95111,7.09848,.24788,.29932,.45176,.6851,.53386,1.06179,.20701,.94998-.11954,1.75014-.91529,2.31257-.79849,.56435-1.62896,.55506-2.48857,.08077-1.96255-1.08287-3.93799-2.14242-5.90889-3.21015-.51695-.28006-1.04388-.54245-1.55338-.83533-1.62855-.93615-1.83833-2.71669-.40343-3.90205,1.07386-.88712,2.2285-1.67768,3.36178-2.49088,.29007-.20814,.63546-.33921,.97308-.51485Z"/>
  <path class="uuid-2f683c17-2fb9-4579-99d0-d97307f0713d" d="M93.05154,359.35989c1.64592-.30361,3.23271-.59986,4.82091-.88827,1.55621-.28261,3.11358-.55875,4.67095-.83492,1.30154-.2308,2.33559,.31159,2.75948,1.44267,.41244,1.10054,.01208,2.138-1.0873,2.81324-2.25714,1.38634-4.50719,2.78454-6.77838,4.1475-.4621,.27732-.98828,.51551-1.51343,.60557-.95902,.16446-2.01652-.38408-2.24173-1.23093-.52045-1.95695-.7635-3.95723-.6305-6.05487Z"/>
  <path class="uuid-e75eec9a-77d8-4e23-9c64-0a9ef281a738" d="M132.11888,350.85125c-.21367,.131-.42049,.22506-.58834,.36563-2.3135,1.93741-4.6265,3.87554-6.9278,5.82738-.59559,.50514-1.24039,.79178-2.02512,.63236-1.49095-.30287-2.31577-1.88953-1.60668-3.24618,1.3801-2.6404,2.8026-5.25955,4.25796-7.85929,.70383-1.25728,2.31785-1.59928,3.3062-.66674,1.44926,1.36742,2.56057,3.00819,3.58377,4.94683Z"/>
  <path class="uuid-2f683c17-2fb9-4579-99d0-d97307f0713d" d="M123.24778,378.64788c-1.7285-2.05134-3.36162-3.98923-4.99438-5.92741-.4739-.56255-.96307-1.1132-1.41631-1.69197-.72805-.92966-.70973-2.0819,.01715-2.93218,.73909-.86455,1.82371-1.05005,2.89513-.47128,2.49058,1.34539,4.9809,2.6914,7.46165,4.05478,1.63933,.90094,1.86632,2.71026,.44957,3.89786-1.0119,.84823-2.10551,1.60059-3.17953,2.37229-.35148,.25253-.75603,.43125-1.23327,.69791Z"/>
  <path class="uuid-174cdae1-de1a-46af-acdd-5bc7d4d12c08" d="M114.60336,339.69563c.18843,.98746,.37995,1.95487,.55672,2.92498,.36898,2.02494,.7319,4.05099,1.09278,6.07739,.05797,.32544,.1199,.65395,.13297,.98291,.04137,1.04209-.61887,1.97611-1.58144,2.27303-1.01661,.31357-2.04614-.02254-2.60682-.92562-1.51231-2.43584-3.02437-4.87258-4.48589-7.33897-1.00256-1.69187-.24517-3.24256,1.66537-3.61064,1.7008-.32766,3.40423-.54241,5.22632-.38307Z"/>
  <path class="uuid-e75eec9a-77d8-4e23-9c64-0a9ef281a738" d="M112.78291,380.8881c-.27692-1.48084-.55092-2.92025-.81437-4.36158-.29072-1.59055-.57383-3.1825-.85512-4.77474-.05108-.28908-.10286-.58184-.11079-.87407-.02789-1.02756,.66315-1.98351,1.60831-2.25407,1.03848-.29726,2.01653,.04783,2.59577,.96023,.61057,.96177,1.18545,1.94614,1.78119,2.9174,.88412,1.44143,1.76757,2.88331,2.66206,4.31832,.40961,.65714,.58928,1.35403,.36449,2.10402-.22486,.75025-.69698,1.32435-1.48913,1.48105-1.8376,.36354-3.68395,.68937-5.74241,.48344Z"/>
  <circle class="uuid-2f683c17-2fb9-4579-99d0-d97307f0713d" cx="112.56729" cy="360.28009" r="3.38269"/>
</svg>