<?xml version="1.0" encoding="UTF-8"?>
<svg id="uuid-e7c03ee6-6229-492e-95a6-d9061627ae67" data-name="Layer 1" xmlns="http://www.w3.org/2000/svg" viewBox="0 0 720 720">
  <defs>
    <style>
      .uuid-97d251be-7cda-4a77-8820-4aa8582ea8ef {
        fill: #fff;
      }

      .uuid-01fcc377-c76f-44de-b600-bbaebcceb276 {
        fill: #0fb9ff;
      }
    </style>
  </defs>
  <path class="uuid-01fcc377-c76f-44de-b600-bbaebcceb276" d="M152.23478,396.09687c-19.79912,0-35.90687-16.10776-35.90687-35.90687s16.10776-35.90687,35.90687-35.90687h21.31184c8.04765,0,14.59503,6.54705,14.59503,14.59503v21.31184c0,19.79912-16.10776,35.90687-35.90687,35.90687Zm0-68.45797c-17.94885,0-32.55109,14.60224-32.55109,32.55109s14.60224,32.55109,32.55109,32.55109,32.55109-14.60224,32.55109-32.55109v-21.31184c0-6.19706-5.04187-11.23925-11.23925-11.23925h-21.31184Z"/>
  <g>
    <path class="uuid-97d251be-7cda-4a77-8820-4aa8582ea8ef" d="M457.79996,394.85455h-3.25773v9.57116h-1.22061v-9.57116h-3.27276v-.99519h7.7511v.99519Z"/>
    <path class="uuid-97d251be-7cda-4a77-8820-4aa8582ea8ef" d="M470.55622,404.42571h-5.51945v-10.56635h5.47436v1.07033h-4.24624v3.27276h4.08177v1.07033h-4.08177v4.0826h4.29133v1.07033Z"/>
    <path class="uuid-97d251be-7cda-4a77-8820-4aa8582ea8ef" d="M484.94635,403.76615c-.82904,.5744-1.79,.8616-2.8837,.8616-1.36755,0-2.40698-.46921-3.11914-1.40762-.71132-.93841-1.06699-2.29594-1.06699-4.07425,0-1.71653,.34481-3.06237,1.03359-4.03251,.68878-.97181,1.73991-1.45605,3.15254-1.45605,.50928,0,1.01355,.06345,1.51282,.19369s.90168,.30223,1.20641,.51763l-.40492,.96513c-.70381-.39908-1.47525-.59945-2.31431-.59945-.97348,0-1.69733,.35399-2.17154,1.06031s-.71132,1.8234-.71132,3.35124c0,2.93547,.96096,4.4032,2.88287,4.4032,.81402,0,1.64807-.2488,2.50133-.74806l.38238,.96513Z"/>
    <path class="uuid-97d251be-7cda-4a77-8820-4aa8582ea8ef" d="M498.36885,404.42571h-1.22812v-5.2431h-3.61674v5.2431h-1.22812v-10.56635h1.22812v4.24624h3.61674v-4.24624h1.22812v10.56635Z"/>
    <path class="uuid-97d251be-7cda-4a77-8820-4aa8582ea8ef" d="M512.324,404.42571h-1.36337l-3.78956-8.3422v8.3422h-1.22812v-10.56635h1.37089l3.80459,8.26706v-8.26706h1.20558v10.56635Z"/>
    <path class="uuid-97d251be-7cda-4a77-8820-4aa8582ea8ef" d="M522.92375,393.65732c1.18304,0,2.08555,.46754,2.70671,1.40428,.62199,.93507,.93257,2.29761,.93257,4.08427,0,1.77831-.30974,3.13584-.9284,4.07425-.61949,.93841-1.52284,1.40762-2.71088,1.40762-1.17886,0-2.07887-.46754-2.70003-1.40428-.62199-.93507-.93257-2.29427-.93257-4.07759,0-1.78165,.30974-3.14252,.9284-4.08093,.61949-.93841,1.52033-1.40762,2.7042-1.40762Zm0,9.89176c1.55707,0,2.33602-1.46773,2.33602-4.4032,0-2.94048-.77895-4.41155-2.33602-4.41155-.75891,0-1.33749,.38071-1.73406,1.14213s-.59528,1.85178-.59528,3.26942c0,1.43267,.19703,2.5247,.59194,3.2761,.39407,.7514,.97348,1.1271,1.7374,1.1271Z"/>
    <path class="uuid-97d251be-7cda-4a77-8820-4aa8582ea8ef" d="M539.81437,404.42571h-5.75155v-10.56635h1.22812v9.49602h4.52342v1.07033Z"/>
    <path class="uuid-97d251be-7cda-4a77-8820-4aa8582ea8ef" d="M550.53434,393.65732c1.18304,0,2.08555,.46754,2.70671,1.40428,.62199,.93507,.93257,2.29761,.93257,4.08427,0,1.77831-.30974,3.13584-.9284,4.07425-.61949,.93841-1.52284,1.40762-2.71088,1.40762-1.17886,0-2.07887-.46754-2.70003-1.40428-.62199-.93507-.93257-2.29427-.93257-4.07759,0-1.78165,.30974-3.14252,.9284-4.08093,.61949-.93841,1.52033-1.40762,2.7042-1.40762Zm0,9.89176c1.55707,0,2.33602-1.46773,2.33602-4.4032,0-2.94048-.77895-4.41155-2.33602-4.41155-.75891,0-1.33749,.38071-1.73406,1.14213s-.59528,1.85178-.59528,3.26942c0,1.43267,.19703,2.5247,.59194,3.2761,.39407,.7514,.97348,1.1271,1.7374,1.1271Z"/>
    <path class="uuid-97d251be-7cda-4a77-8820-4aa8582ea8ef" d="M567.76142,403.67765c-.86411,.63285-1.82006,.9501-2.86868,.9501-1.37256,0-2.41366-.46587-3.12248-1.39593-.70882-.93174-1.06365-2.2926-1.06365-4.08594,0-1.73156,.34314-3.08074,1.03025-4.0442,.68628-.96346,1.73824-1.44436,3.15588-1.44436,.50928,0,1.01355,.06345,1.51282,.19369s.90168,.30223,1.20641,.51763l-.40492,.96513c-.70381-.39908-1.47525-.59945-2.31431-.59945-.96847,0-1.69065,.35566-2.16737,1.06365-.47756,.70966-.7155,1.82507-.7155,3.3479,0,2.93547,.96096,4.4032,2.88287,4.4032,.72385,0,1.2707-.15195,1.64056-.45585v-2.60652h-1.90271v-1.06365h3.13083v4.25459Z"/>
    <path class="uuid-97d251be-7cda-4a77-8820-4aa8582ea8ef" d="M580.511,404.42571h-4.80061v-1.07033h1.82006v-8.42569h-1.82006v-1.07033h4.80061v1.07033h-1.75243v8.42569h1.75243v1.07033Z"/>
    <path class="uuid-97d251be-7cda-4a77-8820-4aa8582ea8ef" d="M594.80262,404.42571h-5.51945v-10.56635h5.47436v1.07033h-4.24624v3.27276h4.08177v1.07033h-4.08177v4.0826h4.29133v1.07033Z"/>
    <path class="uuid-97d251be-7cda-4a77-8820-4aa8582ea8ef" d="M608.02391,395.02654c-.62951-.21373-1.22645-.32227-1.79-.32227-.63952,0-1.15966,.14694-1.56208,.43915-.40158,.29221-.60279,.70799-.60279,1.24732,0,.63785,.52681,1.20057,1.58044,1.6848,.77895,.359,1.29408,.60947,1.54621,.74806,.25214,.14026,.50845,.33229,.7681,.57774,.25965,.24379,.46754,.53266,.62533,.86494,.15696,.33062,.23544,.70465,.23544,1.11875,0,1.02858-.34564,1.82674-1.03693,2.39279s-1.50697,.84992-2.44539,.84992c-.90836,0-1.70484-.18034-2.38862-.53934l.25464-1.0553c.804,.36401,1.5053,.54602,2.10392,.54602,.69964,0,1.25985-.18034,1.68146-.54268s.63285-.85993,.63285-1.49445c0-.46921-.13692-.86661-.4116-1.19389s-.78146-.65956-1.52033-1.0002c-.75891-.34898-1.24983-.58776-1.47191-.71466s-.44249-.3039-.6629-.52765c-.21958-.22542-.38906-.47756-.50928-.75641-.11939-.28052-.1795-.58442-.1795-.91337,0-.87496,.31475-1.55623,.94342-2.04548,.62951-.48924,1.42599-.73303,2.38945-.73303,.70381,0,1.40261,.10687,2.0964,.3206l-.27635,1.04862Z"/>
  </g>
  <path class="uuid-01fcc377-c76f-44de-b600-bbaebcceb276" d="M245.50403,378.56427c-4.40821,4.03418-10.04538,6.05127-16.9115,6.05127-8.49582,0-15.17493-2.72508-20.03732-8.17523-4.86239-5.47687-7.29358-12.98418-7.29358-22.52195,0-10.31254,2.76515-18.26068,8.29545-23.84441,4.80896-4.86239,10.92702-7.29358,18.35418-7.29358,9.93851,0,17.20538,3.2594,21.8006,9.77821,2.53806,3.66015,3.9006,7.33366,4.08761,11.02052h-12.34299c-.80149-2.83194-1.83008-4.96925-3.08575-6.41194-2.24418-2.56478-5.57037-3.84717-9.97858-3.84717-4.48836,0-8.02829,1.81004-10.61978,5.43011-2.59149,3.62008-3.88724,8.74295-3.88724,15.36862s1.36922,11.58825,4.10765,14.88773,6.21825,4.94922,10.43944,4.94922c4.32806,0,7.62754-1.41597,9.89844-4.24791,1.25567-1.52284,2.29761-3.80709,3.12582-6.85276h12.22276c-1.06866,6.43866-3.79373,11.67508-8.17523,15.70926Z"/>
  <path class="uuid-01fcc377-c76f-44de-b600-bbaebcceb276" d="M279.92814,371.51113l9.01679-32.22001h12.14261l-14.98791,42.96001c-2.88537,8.28209-5.16963,13.41832-6.85276,15.4087-1.68313,1.99037-5.0494,2.98556-10.09881,2.98556-1.01522,0-1.83008-.00668-2.44455-.02004s-1.53619-.06011-2.76515-.14026v-9.13702l1.44269,.08015c1.12209,.05343,2.19075,.01336,3.20597-.12022s1.87015-.44082,2.56478-.92172c.66791-.45418,1.28907-1.40261,1.86347-2.8453,.5744-1.44269,.80817-2.32433,.70131-2.64493l-16.02985-45.60494h12.70366l9.53776,32.22001Z"/>
  <path class="uuid-01fcc377-c76f-44de-b600-bbaebcceb276" d="M331.54427,384.13464c-3.60672,0-6.50545-.72134-8.6962-2.16403-1.3091-.85493-2.72508-2.35105-4.24791-4.48836v5.49023h-11.18082v-58.98986h11.3812v20.99911c1.44269-2.03045,3.03231-3.58,4.76888-4.64866,2.05716-1.33582,4.67537-2.00373,7.85463-2.00373,5.74403,0,10.23907,2.07052,13.48512,6.21157,3.24605,4.14105,4.86907,9.48433,4.86907,16.02985,0,6.78597-1.60299,12.40978-4.80896,16.87142s-7.68097,6.69246-13.425,6.69246Zm6.25164-22.36165c0-3.09911-.40075-5.66388-1.20224-7.69433-1.52284-3.84717-4.32806-5.77075-8.41567-5.77075-4.14105,0-6.98634,1.88351-8.5359,5.65052-.80149,2.00373-1.20224,4.59522-1.20224,7.77448,0,3.7403,.82821,6.8394,2.48463,9.29732,1.65642,2.45791,4.18112,3.68687,7.57411,3.68687,2.93881,0,5.22306-1.18888,6.85276-3.56664s2.44455-5.50358,2.44455-9.37746Z"/>
  <path class="uuid-01fcc377-c76f-44de-b600-bbaebcceb276" d="M395.34309,370.1486c-.29388,2.59149-1.64306,5.22306-4.04754,7.8947-3.7403,4.24791-8.97672,6.37187-15.70926,6.37187-5.55702,0-10.45948-1.79-14.70739-5.37-4.24791-3.58-6.37187-9.40418-6.37187-17.47254,0-7.56075,1.9169-13.35821,5.75071-17.39239,3.83381-4.03418,8.80974-6.05127,14.9278-6.05127,3.63343,0,6.9062,.68127,9.81829,2.04381,2.91209,1.36254,5.31657,3.51321,7.21343,6.45202,1.70985,2.59149,2.81858,5.59709,3.32619,9.01679,.29388,2.00373,.4141,4.88911,.36067,8.65612h-29.89568c.1603,4.38149,1.53619,7.45388,4.12769,9.21717,1.57627,1.09537,3.47314,1.64306,5.6906,1.64306,2.35105,0,4.26127-.66791,5.73067-2.00373,.80149-.72134,1.50948-1.72321,2.12396-3.0056h11.66172Zm-11.30105-13.38493c-.18701-3.01896-1.10205-5.30989-2.74511-6.8728-1.64306-1.56291-3.68019-2.34437-6.11138-2.34437-2.64493,0-4.69541,.82821-6.15146,2.48463-1.45605,1.65642-2.37108,3.9006-2.74511,6.73254h17.75306Z"/>
  <path class="uuid-01fcc377-c76f-44de-b600-bbaebcceb276" d="M425.55937,349.83075c-4.59522,0-7.68097,1.49612-9.25724,4.48836-.88164,1.68313-1.32246,4.27463-1.32246,7.77448v20.87889h-11.50142v-43.68135h10.9003v7.61418c1.76328-2.91209,3.29948-4.90246,4.60858-5.97112,2.13731-1.79,4.91582-2.685,8.33552-2.685,.21373,0,.39407,.00668,.54101,.02004s.47422,.0334,.98183,.06011v11.70179c-.72134-.08015-1.36254-.13358-1.92358-.1603s-1.01522-.04007-1.36254-.04007Z"/>
  <path class="uuid-97d251be-7cda-4a77-8820-4aa8582ea8ef" d="M441.61594,413.39414h-4.92417v-72.93584h4.92417v7.46891h.16447c.71049-1.36755,1.6272-2.59817,2.74929-3.69355,1.12125-1.0937,2.35188-1.99705,3.69355-2.70838,1.34-.70966,2.7209-1.25734,4.14439-1.64139,1.42265-.38238,2.81775-.5744,4.18613-.5744,3.44642,0,6.37354,.5744,8.78135,1.72321,2.40698,1.14881,4.39068,2.72341,5.95025,4.72046,1.55957,1.99705,2.69418,4.36313,3.40634,7.09822,.71049,2.73676,1.06699,5.66388,1.06699,8.78135,0,2.9555-.38405,5.8008-1.14964,8.5359-.76643,2.73676-1.92859,5.12955-3.48733,7.18171-1.55957,2.05216-3.52991,3.69355-5.90934,4.92417-2.38027,1.23063-5.18466,1.84677-8.41317,1.84677-3.00894,0-5.89598-.67125-8.65863-2.01041-2.76348-1.34083-4.93836-3.32453-6.52465-5.95108v37.23435Zm0-51.51428c0,2.40782,.32811,4.69207,.98517,6.85276,.65622,2.16236,1.60048,4.04921,2.83111,5.66388,1.23146,1.61467,2.73593,2.9004,4.51424,3.85718,1.77748,.95678,3.78789,1.43601,6.03207,1.43601,2.51635,0,4.71962-.50594,6.60731-1.51783s3.43306-2.39279,4.63697-4.14606c1.20307-1.74993,2.07887-3.78705,2.62656-6.11305,.54602-2.326,.76559-4.82899,.65622-7.51065,0-2.67999-.36902-5.04773-1.1079-7.09822-.73888-2.05216-1.76412-3.78872-3.0774-5.21304-1.31328-1.42098-2.84613-2.50299-4.59606-3.24104-1.7516-.73804-3.66683-1.10873-5.7457-1.10873-2.29761,0-4.34977,.46587-6.1548,1.39593-1.80586,.93007-3.31117,2.20244-4.51424,3.81544-1.20391,1.61467-2.12145,3.52991-2.74929,5.7457-.62951,2.21579-.94426,4.61025-.94426,7.18171Z"/>
  <path class="uuid-97d251be-7cda-4a77-8820-4aa8582ea8ef" d="M505.79631,358.18632c.93007-.10854,2.03796-.27217,3.32453-.49258,1.28489-.21707,2.33852-.5193,3.15922-.90168s1.3258-1.02691,1.51866-1.93026c.19119-.90168,.2872-1.7349,.2872-2.50299,0-2.51635-.80817-4.58187-2.42118-6.19654-1.61467-1.613-4.33724-2.42118-8.16604-2.42118-1.69649,0-3.25606,.15195-4.67871,.45251-1.42348,.30056-2.66663,.81986-3.73362,1.55957-1.06699,.73804-1.94278,1.72321-2.62656,2.95383-.68461,1.23063-1.13628,2.77851-1.35419,4.63697h-5.00682c.16447-2.51635,.73888-4.66369,1.72404-6.442,.98433-1.77831,2.2567-3.22768,3.81627-4.34977,1.55957-1.12209,3.3646-1.94195,5.41676-2.46292,2.05132-.5193,4.22704-.77979,6.52465-.77979,2.13397,0,4.14439,.23377,6.03207,.69797,1.88768,.46587,3.52907,1.20391,4.92501,2.21579,1.3951,1.01355,2.4888,2.36774,3.28278,4.06257,.79231,1.69649,1.18972,3.77536,1.18972,6.23829v23.1431c0,1.9169,.34147,3.13417,1.02608,3.65347,.68377,.52097,2.06468,.39741,4.14439-.36902v3.85718c-.38321,.11021-.94342,.27217-1.6823,.49258-.73888,.21707-1.46439,.32728-2.17488,.32728-.76643,0-1.5053-.08182-2.21579-.24546-.8207-.11021-1.47775-.36902-1.9695-.77979-.49258-.41077-.88999-.90335-1.19055-1.47775-.30139-.5744-.50678-1.20224-.61531-1.88685-.11021-.68461-.16447-1.40929-.16447-2.17572-2.07971,2.29761-4.45997,4.04921-7.13996,5.25312-2.68166,1.20224-5.58123,1.80503-8.69954,1.80503-1.86097,0-3.65264-.24546-5.37585-.73804-1.72404-.49258-3.24187-1.25901-4.55515-2.29761-1.31328-1.04027-2.35355-2.31097-3.11914-3.81711-.76643-1.50447-1.14881-3.29614-1.14881-5.37668,0-7.22178,4.95089-11.48973,14.85517-12.80218l6.81185-.90335Zm8.28961,2.46292c-2.07971,.87496-4.18613,1.44937-6.31927,1.72321-2.13397,.27384-4.26795,.49258-6.40192,.65622-3.77536,.27384-6.71751,1.12209-8.8231,2.54474-2.10726,1.42265-3.16005,3.58334-3.16005,6.48374,0,1.31244,.25965,2.44956,.77979,3.40634,.5193,.95678,1.20307,1.7516,2.05216,2.37943,.84741,.62951,1.83258,1.09537,2.95467,1.39593,1.12042,.30056,2.2567,.45084,3.40551,.45084,1.97034,0,3.88474-.24713,5.7457-.73804,1.8593-.49258,3.51488-1.24398,4.96508-2.25754,1.44937-1.01188,2.61237-2.29761,3.48816-3.85718,.87496-1.55957,1.31328-3.40634,1.31328-5.54032v-6.64738Z"/>
  <path class="uuid-97d251be-7cda-4a77-8820-4aa8582ea8ef" d="M562.01601,353.83655c-.8758-3.17258-2.37943-5.64885-4.51341-7.42717s-4.84235-2.6683-8.12513-2.6683c-2.51802,0-4.67871,.52097-6.48374,1.55957-1.80586,1.04027-3.28362,2.42118-4.43242,4.14439-1.14881,1.72488-1.99789,3.66683-2.5439,5.82752-.54769,2.16236-.8207,4.33808-.8207,6.52549,0,2.24418,.25882,4.43159,.77979,6.56556,.5193,2.13397,1.35419,4.04921,2.50299,5.7457,1.14881,1.69649,2.62656,3.05068,4.43159,4.06257,1.80586,1.01188,3.99327,1.51783,6.5664,1.51783,3.66516,0,6.60647-1.01188,8.82226-3.03732,2.21663-2.02377,3.62425-4.81397,4.22704-8.37059h5.25228c-.43832,2.35272-1.13545,4.50005-2.09223,6.442-.95845,1.94362-2.18908,3.61173-3.69355,5.00599-1.5053,1.39593-3.29697,2.47795-5.37585,3.24271-2.07971,.76476-4.45997,1.14881-7.13996,1.14881-3.39382,0-6.3201-.5744-8.78219-1.72321s-4.48669-2.72174-6.07298-4.71879c-1.58796-1.99705-2.76348-4.36313-3.52907-7.09989-.76726-2.73509-1.14964-5.66221-1.14964-8.78135,0-2.9555,.42329-5.78578,1.27237-8.49415,.84741-2.70838,2.09306-5.10284,3.73446-7.18171s3.67935-3.73529,6.11389-4.96592,5.23892-1.84677,8.41317-1.84677c4.92417,0,8.90492,1.17719,11.94141,3.52991,3.03649,2.35272,4.93669,6.01954,5.70396,10.99715h-5.00682Z"/>
  <path class="uuid-97d251be-7cda-4a77-8820-4aa8582ea8ef" d="M577.20012,382.97248v-59.09172h4.92417v36.76848l20.84632-20.19094h6.73003l-15.92215,15.34859,17.80984,27.16559h-5.49857l-15.92215-23.71918-8.04331,7.63255v16.08663h-4.92417Z"/>
  <path class="uuid-01fcc377-c76f-44de-b600-bbaebcceb276" d="M163.10118,344.62215c-.0366,.19413-.04552,.35798-.09864,.50597-.91961,2.5622-1.8325,5.12693-2.77377,7.6812-.45153,1.22528-1.54202,1.76548-2.65685,1.36036-.8617-.31313-1.34393-.95068-1.37361-1.85559-.08496-2.59025-.13378-5.18169-.19745-7.77265-.0382-1.55409,1.53033-2.49675,2.76307-1.9981,1.48616,.60117,3.00212,1.11582,4.33725,2.07881Z"/>
  <path class="uuid-01fcc377-c76f-44de-b600-bbaebcceb276" d="M143.31851,375.76648c.43804-1.23356,.85035-2.40435,1.26956-3.57267,.50947-1.41989,1.02389-2.83802,1.53782-4.25632,.48956-1.35113,1.3685-2.01344,2.43175-1.81022,1.01265,.19355,1.77819,1.0203,1.75842,2.47427-.03033,2.22923,.09518,4.46052,.14929,6.69106,.00793,.32734,.02061,.66039-.02704,.98218-.15801,1.0671-1.18384,1.93213-2.16288,1.69612-1.75939-.42412-3.38934-1.17848-4.95692-2.20441Z"/>
  <path class="uuid-97d251be-7cda-4a77-8820-4aa8582ea8ef" d="M136.84955,368.70901c1.10277-.93206,2.12817-1.80107,3.15617-2.66698,1.15597-.97368,2.30928-1.9506,3.47314-2.91477,.95662-.79249,1.93763-.83301,2.76835-.13792,.79952,.66898,.91467,1.69689,.33292,2.76617-1.16139,2.13466-2.31825,4.27183-3.46401,6.41488-.30637,.57302-.68727,1.03596-1.33784,1.22382-.72301,.2088-1.40363,.10166-1.91515-.44128-1.17305-1.24512-2.19159-2.60892-3.01358-4.24394Z"/>
  <path class="uuid-97d251be-7cda-4a77-8820-4aa8582ea8ef" d="M137.6697,350.24386c2.84755,1.02818,5.59483,2.0026,8.32757,3.01628,.97229,.36067,1.45895,1.30539,1.28605,2.29127-.16366,.93313-.90719,1.6283-1.92475,1.6649-2.58949,.09312-5.18038,.15194-7.77117,.20143-1.63671,.03127-2.4996-1.50566-1.97943-2.84356,.5709-1.46831,1.14003-2.92439,2.06173-4.33032Z"/>
  <path class="uuid-01fcc377-c76f-44de-b600-bbaebcceb276" d="M144.6641,343.86311c.16348,.14363,.29958,.23585,.40153,.35684,1.77636,2.10823,3.55512,4.21456,5.31339,6.33781,.22132,.26725,.40335,.61168,.47665,.94801,.18482,.84818-.10673,1.5626-.8172,2.06476-.71292,.50388-1.4544,.49558-2.2219,.07211-1.75225-.96683-3.516-1.91284-5.2757-2.86615-.46156-.25005-.93202-.48432-1.38692-.74582-1.45404-.83584-1.64133-2.42557-.3602-3.48391,.95879-.79205,1.9897-1.49791,3.00154-2.22396,.25899-.18584,.56737-.30286,.8688-.45968Z"/>
  <path class="uuid-01fcc377-c76f-44de-b600-bbaebcceb276" d="M134.81032,359.3684c1.46955-.27107,2.8863-.53558,4.30431-.79308,1.38945-.25232,2.77993-.49887,4.17042-.74545,1.16207-.20607,2.08531,.2782,2.46377,1.28808,.36824,.98261,.01079,1.90889-.97079,2.51177-2.01527,1.23778-4.0242,2.48615-6.05202,3.70306-.41258,.2476-.88237,.46027-1.35125,.54067-.85625,.14684-1.80043-.34292-2.00151-1.09902-.46467-1.74724-.68168-3.53317-.56294-5.40603Z"/>
  <path class="uuid-97d251be-7cda-4a77-8820-4aa8582ea8ef" d="M169.69124,351.77153c-.19077,.11696-.37543,.20095-.52529,.32645-2.06559,1.7298-4.13073,3.46024-6.18542,5.20293-.53177,.45101-1.10747,.70693-1.80811,.5646-1.33118-.27042-2.06761-1.68705-1.43451-2.89832,1.23221-2.35745,2.50228-4.69594,3.80168-7.0171,.62841-1.12255,2.06947-1.4279,2.95191-.59529,1.29395,1.22089,2.28618,2.68583,3.19974,4.41673Z"/>
  <path class="uuid-01fcc377-c76f-44de-b600-bbaebcceb276" d="M161.77076,376.5895c-1.54327-1.83152-3.00139-3.56175-4.45919-5.29223-.42312-.50226-.85987-.99391-1.26454-1.51066-.65003-.83003-.63368-1.85881,.01531-2.61797,.65989-.77191,1.62828-.93753,2.58489-.42078,2.22369,1.20122,4.44715,2.40299,6.66206,3.62027,1.46366,.8044,1.66633,2.41983,.4014,3.48016-.90347,.75733-1.87989,1.42907-2.83882,2.11807-.31381,.22547-.67501,.38504-1.10111,.62312Z"/>
  <path class="uuid-97d251be-7cda-4a77-8820-4aa8582ea8ef" d="M154.05267,341.81134c.16823,.88164,.33924,1.74538,.49706,2.61154,.32944,1.80794,.65347,3.61689,.97568,5.42614,.05176,.29056,.10705,.58387,.11872,.87758,.03694,.93042-.55255,1.76435-1.41197,2.02945-.90767,.27997-1.82688-.02013-2.32748-.82644-1.35025-2.17482-2.70028-4.35044-4.00518-6.55253-.89512-1.51057-.2189-2.89509,1.48691-3.22372,1.51855-.29255,3.03944-.48429,4.66627-.34202Z"/>
  <path class="uuid-97d251be-7cda-4a77-8820-4aa8582ea8ef" d="M152.42729,378.58966c-.24725-1.32215-.49188-2.60732-.7271-3.8942-.25956-1.42011-.51234-2.84146-.76349-4.26309-.0456-.2581-.09183-.51949-.09891-.78041-.0249-.91744,.59208-1.77096,1.43597-2.01253,.92719-.26541,1.80044,.04271,2.31761,.85733,.54514,.85871,1.05842,1.7376,1.59032,2.60478,.78938,1.28697,1.57816,2.57434,2.37679,3.85557,.36571,.58673,.52613,1.20894,.32543,1.87856-.20076,.66985-.62229,1.18243-1.32955,1.32234-1.64068,.32458-3.28918,.61549-5.12706,.43163Z"/>
  <circle class="uuid-01fcc377-c76f-44de-b600-bbaebcceb276" cx="152.23478" cy="360.18999" r="3.0202"/>
</svg>