<svg xmlns="http://www.w3.org/2000/svg" width="64.583" height="64.583" viewBox="0 0 64.583 64.583">
  <defs>
    <style>
      .cls-1 {
        fill: #ffc72c;
      }
    </style>
  </defs>
  <path id="Path_13550" data-name="Path 13550" class="cls-1" d="M488.712,11.742V5.871h-5.871a2.879,2.879,0,0,1-2.936-2.936A2.883,2.883,0,0,1,482.841,0h5.871a5.644,5.644,0,0,1,4.145,1.726,5.645,5.645,0,0,1,1.726,4.145v5.871a2.936,2.936,0,1,1-5.871,0m0,52.841h-5.871a2.936,2.936,0,1,1,0-5.871h5.871V49.905h5.871v8.807a5.889,5.889,0,0,1-5.871,5.871m-46.97,0h-5.871A5.884,5.884,0,0,1,430,58.712V52.841a2.936,2.936,0,1,1,5.871,0v5.871h5.871a2.936,2.936,0,1,1,0,5.871M430,11.742V5.871a5.653,5.653,0,0,1,1.723-4.145A5.656,5.656,0,0,1,435.871,0h5.871a2.833,2.833,0,0,1,2.09.845,2.833,2.833,0,0,1,.845,2.09,2.883,2.883,0,0,1-2.935,2.936h-5.871v5.871a2.936,2.936,0,1,1-5.871,0m39.631,26.42a2.883,2.883,0,1,1,2.09-.843,2.853,2.853,0,0,1-2.09.843m5.137-16.146h.881a5.244,5.244,0,0,0,.881-.073,18.025,18.025,0,0,0-6.13-5.284,16.917,16.917,0,0,0-8.108-1.982h-.881a4.043,4.043,0,0,0-.807.073,26.739,26.739,0,0,0,6.053,5.284,15.148,15.148,0,0,0,8.111,1.982M454.953,38.163a2.883,2.883,0,1,1,2.09-.843,2.854,2.854,0,0,1-2.09.843m-9.1-12.183a14.334,14.334,0,0,0,4.917-3.925,38.939,38.939,0,0,0,3.3-5.322,17.385,17.385,0,0,0-4.917,3.854,17.719,17.719,0,0,0-3.3,5.393m16.439,23.925a16.982,16.982,0,0,0,12.476-5.137,16.982,16.982,0,0,0,5.137-12.476,16.239,16.239,0,0,0-.185-2.457,15.971,15.971,0,0,0-.549-2.387q-1.1.22-2.2.332t-2.2.109a22.465,22.465,0,0,1-8.807-1.761,22.74,22.74,0,0,1-7.486-5.137,22.62,22.62,0,0,1-5.651,7.266,22.556,22.556,0,0,1-8.146,4.477A17.169,17.169,0,0,0,450,44.915a16.943,16.943,0,0,0,12.291,4.991m0,5.871a22.667,22.667,0,0,1-16.659-6.825,22.667,22.667,0,0,1-6.825-16.66,22.667,22.667,0,0,1,6.825-16.66,23.744,23.744,0,0,1,33.319,0,22.667,22.667,0,0,1,6.825,16.66,22.667,22.667,0,0,1-6.825,16.66,22.667,22.667,0,0,1-16.66,6.825" transform="translate(-430)"/>
</svg>
