<svg xmlns="http://www.w3.org/2000/svg" width="88.068" height="44.034" viewBox="0 0 88.068 44.034">
  <defs>
    <style>
      .cls-1 {
        fill: #ffc72c;
      }
    </style>
  </defs>
  <path id="Path_13547" data-name="Path 13547" class="cls-1" d="M190.034,12.339a3.6,3.6,0,0,0-3.67,3.67,3.67,3.67,0,1,0,7.339,0,3.61,3.61,0,0,0-3.67-3.67m0,14.678a10.621,10.621,0,0,1-7.8-3.211,10.621,10.621,0,0,1-3.211-7.8,10.621,10.621,0,0,1,3.211-7.8,11.074,11.074,0,0,1,15.6,0,10.621,10.621,0,0,1,3.211,7.8,10.621,10.621,0,0,1-3.211,7.8,10.621,10.621,0,0,1-7.8,3.211m29.356,3.67a7.354,7.354,0,0,1-7.339-7.339,7.339,7.339,0,1,1,12.52,5.185,7.067,7.067,0,0,1-5.181,2.154m-58.712,0a7.354,7.354,0,0,1-7.339-7.339,7.339,7.339,0,1,1,12.52,5.185,7.067,7.067,0,0,1-5.181,2.154m29.356,6.422a28.578,28.578,0,0,0-9.357,1.424q-4.128,1.42-4.862,3.163h28.439q-.826-1.833-4.91-3.211a29.072,29.072,0,0,0-9.31-1.376m27.521,11.926V43.163a15.2,15.2,0,0,0-2.477-8.44c.672-.121,1.361-.213,2.062-.275s1.453-.092,2.249-.092q6.605,0,10.642,2.433t4.037,6.466v2.11a3.6,3.6,0,0,1-3.67,3.67Zm-45.869,0a3.6,3.6,0,0,1-3.669-3.67v-2.2q0-5.961,6.1-9.677t15.918-3.717q9.908,0,15.962,3.717t6.055,9.677v2.2a3.6,3.6,0,0,1-3.67,3.67Zm-22.017,0a3.6,3.6,0,0,1-3.67-3.67v-2.11q0-4.035,4.036-6.466t10.642-2.433q1.194,0,2.246.092t2.066.275a13.1,13.1,0,0,0-1.883,3.945,16.507,16.507,0,0,0-.594,4.5v5.871Z" transform="translate(-146 -5)"/>
</svg>
