<svg xmlns="http://www.w3.org/2000/svg" width="58.712" height="52.841" viewBox="0 0 58.712 52.841">
  <defs>
    <style>
      .cls-1 {
        fill: #ffc72c;
      }
    </style>
  </defs>
  <path id="Path_13548" data-name="Path 13548" class="cls-1" d="M322.227,26V4.936a2.936,2.936,0,1,1,5.871,0V26l5.578-5.5a2.867,2.867,0,0,1,2.017-.843,2.727,2.727,0,0,1,2.093.843,3.019,3.019,0,0,1,0,4.11L325.163,37.227,312.54,24.6a2.877,2.877,0,0,1-.846-2.017,2.74,2.74,0,0,1,.846-2.093,3.019,3.019,0,0,1,4.11,0ZM292.871,46.034A5.884,5.884,0,0,1,287,40.163V7.871a5.654,5.654,0,0,1,1.723-4.145A5.656,5.656,0,0,1,292.871,2h20.549a2.888,2.888,0,0,1,2.936,2.936,2.883,2.883,0,0,1-2.936,2.936H292.871V40.163h46.97V34.292a2.936,2.936,0,1,1,5.871,0v5.871a5.889,5.889,0,0,1-5.871,5.871h-8.807l2.055,2.055a2.938,2.938,0,0,1,.66.992,3.031,3.031,0,0,1,.22,1.136v1.688a2.883,2.883,0,0,1-2.936,2.936H301.678a2.879,2.879,0,0,1-2.936-2.936V50.217a3.032,3.032,0,0,1,.22-1.136,2.94,2.94,0,0,1,.66-.992l2.055-2.055Z" transform="translate(-287 -2)"/>
</svg>
