<?xml version="1.0" encoding="UTF-8"?><svg id="b" xmlns="http://www.w3.org/2000/svg" viewBox="0 0 119.52 91.26"><defs><style>.d{fill:#fff;}.e{fill:#ffc72c;}</style></defs><g id="c"><g><g><path class="d" d="m110.35,23.63v47.32c0,5.57-4.53,10.09-10.09,10.09H25.41c-5.57,0-10.09-4.53-10.09-10.09v-6.13h3.61v6.13c0,3.57,2.91,6.48,6.48,6.48h74.84c3.57,0,6.48-2.91,6.48-6.48V23.63c0-3.57-2.91-6.48-6.48-6.48h-10.94v-3.61h10.94c5.57,0,10.09,4.53,10.09,10.09Z"/><rect class="d" x="60.22" y="72.83" width="5.22" height="1.64"/><rect class="d" x="17.12" y="67.74" width="91.41" height="1.64"/><polygon class="d" points="55.81 79.27 55.65 81.04 55.04 87.65 54.87 89.52 53.24 89.38 53.4 87.65 54.01 81.04 54.19 79.12 55.81 79.27"/><polygon class="d" points="72.43 89.38 70.8 89.52 70.63 87.65 70.01 81.04 69.85 79.27 71.48 79.12 71.66 81.04 72.27 87.65 72.43 89.38"/><path class="d" d="m82.43,89.45c0,1-.81,1.81-1.81,1.81h-35.59c-1,0-1.81-.81-1.81-1.81s.81-1.81,1.81-1.81h35.59c1,0,1.81.81,1.81,1.81Z"/><path class="d" d="m60.47,13.53v3.61H25.41c-3.57,0-6.48,2.91-6.48,6.48v27.91h-3.61v-27.91c0-5.57,4.53-10.09,10.09-10.09h35.06Z"/></g><g><g><path class="d" d="m26.29,43.07l-1.41,1.41-1.16,1.16-4.79,4.79-13.32,13.32-1.16,1.16-1.74,1.73c-1.22,1.22-1.22,3.2,0,4.43l1.82,1.82c1.22,1.22,3.2,1.22,4.43,0l23.57-23.57.78-7.22-7.03.97Zm-18.6,28.54c-.5.5-1.37.5-1.87,0l-1.82-1.82c-.52-.52-.52-1.36,0-1.87l1.74-1.73,3.69,3.69-1.74,1.73Zm2.89-2.89l-3.69-3.69,18.11-18.11,3.69,3.69-18.11,18.11Zm20.23-20.23l-.96.96-3.69-3.69.98-.98,4.13-.57-.46,4.29Z"/><path class="d" d="m34.58,40.8c-.4-.39-.97-.57-1.51-.49l-7.03.97c-.39.05-.75.23-1.03.51l-6.08,6.08-3.61,3.61-13.87,13.88c-1.93,1.93-1.93,5.06,0,6.98l1.82,1.82c.93.94,2.17,1.45,3.48,1.45s2.56-.52,3.49-1.45l5.08-5.08,3.61-3.61,14.88-14.88c.29-.29.47-.68.51-1.08l.78-7.22c.06-.56-.13-1.1-.54-1.49Zm-4.72,8.64l-1.16,1.16-18.11,18.11-1.16,1.16-1.73,1.74c-.5.49-1.38.49-1.87,0l-1.82-1.82c-.52-.52-.52-1.36,0-1.87l1.73-1.74,1.16-1.16,18.11-18.11,1.16-1.16.98-.98,4.13-.58-.46,4.29-.96.96Z"/></g><polygon class="d" points="31.13 50.72 29.97 51.87 23.72 45.63 24.88 44.47 31.13 50.72"/><polygon class="d" points="11.86 69.99 10.7 71.14 4.45 64.9 5.61 63.74 6.89 65.02 10.58 68.71 11.86 69.99"/></g><g><path class="d" d="m33.08,35.83c-.28,0-.56-.11-.77-.32-.43-.43-.43-1.12,0-1.54l.81-.81c.43-.43,1.12-.43,1.54,0,.43.43.43,1.12,0,1.54l-.81.81c-.21.21-.49.32-.77.32Z"/><path class="d" d="m37.44,31.46c-.28,0-.56-.11-.77-.32-.43-.43-.43-1.12,0-1.54l.81-.81c.43-.43,1.12-.43,1.54,0,.43.43.43,1.12,0,1.54l-.81.81c-.21.21-.49.32-.77.32Z"/><path class="d" d="m38.25,35.83c-.28,0-.56-.11-.77-.32l-.81-.81c-.43-.43-.42-1.12,0-1.54.43-.43,1.12-.43,1.54,0l.81.81c.43.43.42,1.12,0,1.54-.21.21-.49.32-.77.32Z"/><path class="d" d="m33.89,31.46c-.28,0-.56-.11-.77-.32l-.81-.81c-.43-.43-.42-1.12,0-1.54.43-.43,1.12-.43,1.54,0l.81.81c.43.43.42,1.12,0,1.54-.21.21-.49.32-.77.32Z"/><path class="d" d="m22.83,36c-.28,0-.56-.11-.77-.32l-.22-.22c-.43-.43-.43-1.12,0-1.54.43-.43,1.12-.43,1.54,0l.22.22c.43.43.43,1.12,0,1.54-.21.21-.49.32-.77.32Z"/><path class="d" d="m25.93,39.1c-.28,0-.56-.11-.77-.32l-.22-.22c-.43-.43-.43-1.12,0-1.54s1.12-.43,1.54,0l.22.22c.43.43.43,1.12,0,1.54-.21.21-.49.32-.77.32Z"/><path class="d" d="m22.61,39.1c-.28,0-.56-.11-.77-.32-.43-.43-.43-1.12,0-1.54l.22-.22c.43-.43,1.12-.43,1.54,0s.43,1.12,0,1.54l-.22.22c-.21.21-.49.32-.77.32Z"/><path class="d" d="m25.71,36c-.28,0-.56-.11-.77-.32-.43-.43-.43-1.12,0-1.54l.22-.22c.43-.43,1.12-.43,1.54,0s.43,1.12,0,1.54l-.22.22c-.21.21-.49.32-.77.32Z"/><path class="d" d="m39.62,45.58c-.28,0-.56-.11-.77-.32l-.22-.22c-.43-.43-.42-1.12,0-1.54.43-.43,1.12-.42,1.54,0l.22.22c.43.43.42,1.12,0,1.54-.21.21-.49.32-.77.32Z"/><path class="d" d="m42.72,48.68c-.28,0-.56-.11-.77-.32l-.22-.22c-.43-.43-.42-1.12,0-1.54.43-.43,1.12-.42,1.54,0l.22.22c.43.43.42,1.12,0,1.54-.21.21-.49.32-.77.32Z"/><path class="d" d="m39.4,48.68c-.28,0-.56-.11-.77-.32-.43-.43-.43-1.12,0-1.54l.22-.22c.42-.43,1.12-.43,1.54,0,.43.43.43,1.12,0,1.54l-.22.22c-.21.21-.49.32-.77.32Z"/><path class="d" d="m42.5,45.58c-.28,0-.56-.11-.77-.32-.43-.43-.43-1.12,0-1.54l.22-.22c.42-.43,1.11-.43,1.54,0,.43.43.43,1.12,0,1.54l-.22.22c-.21.21-.49.32-.77.32Z"/></g><path class="d" d="m74.98,42.82c-1.87,0-3.4,1.52-3.4,3.4s1.52,3.4,3.4,3.4,3.4-1.52,3.4-3.4-1.53-3.4-3.4-3.4Zm0,4.98c-.87,0-1.58-.71-1.58-1.58s.71-1.58,1.58-1.58,1.58.71,1.58,1.58-.71,1.58-1.58,1.58Zm0-4.98c-1.87,0-3.4,1.52-3.4,3.4s1.52,3.4,3.4,3.4,3.4-1.52,3.4-3.4-1.53-3.4-3.4-3.4Zm0,4.98c-.87,0-1.58-.71-1.58-1.58s.71-1.58,1.58-1.58,1.58.71,1.58,1.58-.71,1.58-1.58,1.58ZM85.75,1.54h-21.54c-1.49,0-2.7,1.21-2.7,2.7v44.12c0,1.49,1.21,2.7,2.7,2.7h21.54c1.49,0,2.7-1.21,2.7-2.7V4.24c0-1.49-1.21-2.7-2.7-2.7Zm2.47,40.22c-2.16,2.21-3.58,5.14-3.85,8.37l-.06.71h-20.1c-1.36,0-2.47-1.11-2.47-2.47v-7.12h26.48v.51Zm0-2.28h-26.48V8.98h26.48v30.5ZM61.74,7.22v-2.98c0-1.36,1.11-2.47,2.47-2.47h21.54c1.36,0,2.47,1.11,2.47,2.47v2.98h-26.48Zm9.94-1.81h6.6v-1.77h-6.6v1.77Zm3.3,44.21c1.88,0,3.4-1.52,3.4-3.4s-1.53-3.4-3.4-3.4-3.4,1.52-3.4,3.4,1.52,3.4,3.4,3.4Zm0-4.98c.87,0,1.58.71,1.58,1.58s-.71,1.58-1.58,1.58-1.58-.71-1.58-1.58.71-1.58,1.58-1.58Zm0-1.82c-1.87,0-3.4,1.52-3.4,3.4s1.52,3.4,3.4,3.4,3.4-1.52,3.4-3.4-1.53-3.4-3.4-3.4Zm0,4.98c-.87,0-1.58-.71-1.58-1.58s.71-1.58,1.58-1.58,1.58.71,1.58,1.58-.71,1.58-1.58,1.58Zm0-4.98c-1.87,0-3.4,1.52-3.4,3.4s1.52,3.4,3.4,3.4,3.4-1.52,3.4-3.4-1.53-3.4-3.4-3.4Zm0,4.98c-.87,0-1.58-.71-1.58-1.58s.71-1.58,1.58-1.58,1.58.71,1.58,1.58-.71,1.58-1.58,1.58Z"/><g><g><rect class="d" x="60.86" y="39.71" width="28.25" height="1.31"/><path class="d" d="m61.74,40.79v.23h26.48v-.23h-26.48Zm-1.11-1.31v1.77h28.7v-1.77h-28.7Zm28.24,1.31h-27.79v-.85h27.79v.85Z"/></g><g><rect class="d" x="60.86" y="7.45" width="28.25" height="1.31"/><path class="d" d="m61.74,7.22v.45h26.48v-.45h-26.48Zm-1.11,0v1.76h28.7v-1.76h-28.7Zm28.24,1.31h-27.79v-.85h27.79v.85Z"/></g><g><path class="d" d="m85.75,52.37h-21.54c-2.21,0-4.01-1.8-4.01-4.01V4.24c0-2.21,1.8-4.01,4.01-4.01h21.54c2.21,0,4.01,1.8,4.01,4.01v16.07h-1.31V4.24c0-1.49-1.21-2.7-2.7-2.7h-21.54c-1.49,0-2.7,1.21-2.7,2.7v44.12c0,1.49,1.21,2.7,2.7,2.7h21.54c1.49,0,2.7-1.21,2.7-2.7v-28.8h1.31v28.8c0,2.21-1.8,4.01-4.01,4.01Z"/><path class="d" d="m88.23,41.02v.23h.23v-.23h-.23Zm-2.47-39.71h-21.54c-1.61,0-2.92,1.32-2.92,2.93v44.12c0,1.62,1.31,2.93,2.92,2.93h21.54c1.61,0,2.92-1.31,2.92-2.93v-7.57h-.45v7.57c0,1.36-1.11,2.47-2.47,2.47h-21.54c-1.36,0-2.47-1.11-2.47-2.47V4.24c0-1.36,1.11-2.47,2.47-2.47h21.54c1.36,0,2.47,1.11,2.47,2.47v3.43h.45v-3.43c0-1.61-1.31-2.93-2.92-2.93Zm-21.54,50.84c-2.09,0-3.78-1.7-3.78-3.79v-31.22h-.23v31.22c0,2.21,1.8,4.01,4.01,4.01h16.19c.1-.08.2-.15.31-.23h-16.49ZM85.75,1.31h-21.54c-1.61,0-2.92,1.32-2.92,2.93v44.12c0,1.62,1.31,2.93,2.92,2.93h21.54c1.61,0,2.92-1.31,2.92-2.93v-7.57h-.45v7.57c0,1.36-1.11,2.47-2.47,2.47h-21.54c-1.36,0-2.47-1.11-2.47-2.47V4.24c0-1.36,1.11-2.47,2.47-2.47h21.54c1.36,0,2.47,1.11,2.47,2.47v3.43h.45v-3.43c0-1.61-1.31-2.93-2.92-2.93Zm-21.54,50.84c-2.09,0-3.78-1.7-3.78-3.79v-31.22h-.23v31.22c0,2.21,1.8,4.01,4.01,4.01h16.19c.1-.08.2-.15.31-.23h-16.49ZM85.75,1.31h-21.54c-1.61,0-2.92,1.32-2.92,2.93v44.12c0,1.62,1.31,2.93,2.92,2.93h21.54c1.61,0,2.92-1.31,2.92-2.93v-7.57h-.45v7.57c0,1.36-1.11,2.47-2.47,2.47h-21.54c-1.36,0-2.47-1.11-2.47-2.47V4.24c0-1.36,1.11-2.47,2.47-2.47h21.54c1.36,0,2.47,1.11,2.47,2.47v3.43h.45v-3.43c0-1.61-1.31-2.93-2.92-2.93Zm-25.32,47.05v-31.22h-.23v31.22c0,2.21,1.8,4.01,4.01,4.01h16.19c.1-.08.2-.15.31-.23h-16.49c-2.09,0-3.78-1.7-3.78-3.79ZM85.75,0h-21.54c-2.33,0-4.23,1.9-4.23,4.24v44.12c0,2.34,1.9,4.24,4.23,4.24h21.54c2.33,0,4.23-1.9,4.23-4.24V4.24c0-2.34-1.9-4.24-4.23-4.24Zm3.79,19.34h-.86V4.24c0-1.61-1.31-2.93-2.92-2.93h-21.54c-1.61,0-2.92,1.32-2.92,2.93v44.12c0,1.62,1.31,2.93,2.92,2.93h21.54c1.61,0,2.92-1.31,2.92-2.93v-27.83h.86v27.83c0,2.09-1.7,3.79-3.79,3.79h-21.54c-2.09,0-3.78-1.7-3.78-3.79V4.24c0-2.09,1.69-3.78,3.78-3.78h21.54c2.09,0,3.79,1.69,3.79,3.78v15.1Zm0,.45v.29h-.86v-.29h.86Zm-1.31,28.57c0,1.36-1.11,2.47-2.47,2.47h-21.54c-1.36,0-2.47-1.11-2.47-2.47V4.24c0-1.36,1.11-2.47,2.47-2.47h21.54c1.36,0,2.47,1.11,2.47,2.47v44.12Zm-24.01,3.79c-2.09,0-3.78-1.7-3.78-3.79v-31.22h-.23v31.22c0,2.21,1.8,4.01,4.01,4.01h16.19c.1-.08.2-.15.31-.23h-16.49ZM85.75,1.31h-21.54c-1.61,0-2.92,1.32-2.92,2.93v44.12c0,1.62,1.31,2.93,2.92,2.93h21.54c1.61,0,2.92-1.31,2.92-2.93v-7.57h-.45v7.57c0,1.36-1.11,2.47-2.47,2.47h-21.54c-1.36,0-2.47-1.11-2.47-2.47V4.24c0-1.36,1.11-2.47,2.47-2.47h21.54c1.36,0,2.47,1.11,2.47,2.47v3.43h.45v-3.43c0-1.61-1.31-2.93-2.92-2.93Zm-21.54,50.84c-2.09,0-3.78-1.7-3.78-3.79v-31.22h-.23v31.22c0,2.21,1.8,4.01,4.01,4.01h16.19c.1-.08.2-.15.31-.23h-16.49ZM85.75,1.31h-21.54c-1.61,0-2.92,1.32-2.92,2.93v44.12c0,1.62,1.31,2.93,2.92,2.93h21.54c1.61,0,2.92-1.31,2.92-2.93v-7.57h-.45v7.57c0,1.36-1.11,2.47-2.47,2.47h-21.54c-1.36,0-2.47-1.11-2.47-2.47V4.24c0-1.36,1.11-2.47,2.47-2.47h21.54c1.36,0,2.47,1.11,2.47,2.47v3.43h.45v-3.43c0-1.61-1.31-2.93-2.92-2.93Z"/></g><g><rect class="d" x="71.91" y="3.87" width="6.15" height="1.31"/><path class="d" d="m71.68,3.64v1.77h6.6v-1.77h-6.6Zm6.15,1.31h-5.7v-.85h5.7v.85Z"/></g><g><path class="d" d="m74.98,43.05c-1.75,0-3.17,1.42-3.17,3.17s1.42,3.17,3.17,3.17,3.17-1.43,3.17-3.17-1.43-3.17-3.17-3.17Zm0,4.98c-.99,0-1.8-.81-1.8-1.8s.81-1.8,1.8-1.8,1.8.81,1.8,1.8-.81,1.8-1.8,1.8Z"/><path class="d" d="m74.98,44.19c-1.12,0-2.03.91-2.03,2.03s.91,2.03,2.03,2.03,2.03-.91,2.03-2.03-.91-2.03-2.03-2.03Zm0,3.61c-.87,0-1.58-.71-1.58-1.58s.71-1.58,1.58-1.58,1.58.71,1.58,1.58-.71,1.58-1.58,1.58Zm0-3.61c-1.12,0-2.03.91-2.03,2.03s.91,2.03,2.03,2.03,2.03-.91,2.03-2.03-.91-2.03-2.03-2.03Zm0,3.61c-.87,0-1.58-.71-1.58-1.58s.71-1.58,1.58-1.58,1.58.71,1.58,1.58-.71,1.58-1.58,1.58Zm0-4.98c-1.87,0-3.4,1.52-3.4,3.4s1.52,3.4,3.4,3.4,3.4-1.52,3.4-3.4-1.53-3.4-3.4-3.4Zm0,6.34c-1.62,0-2.94-1.32-2.94-2.95s1.32-2.95,2.94-2.95,2.95,1.32,2.95,2.95-1.32,2.95-2.95,2.95Zm0-4.98c-1.12,0-2.03.91-2.03,2.03s.91,2.03,2.03,2.03,2.03-.91,2.03-2.03-.91-2.03-2.03-2.03Zm0,3.61c-.87,0-1.58-.71-1.58-1.58s.71-1.58,1.58-1.58,1.58.71,1.58,1.58-.71,1.58-1.58,1.58Zm0-3.61c-1.12,0-2.03.91-2.03,2.03s.91,2.03,2.03,2.03,2.03-.91,2.03-2.03-.91-2.03-2.03-2.03Zm0,3.61c-.87,0-1.58-.71-1.58-1.58s.71-1.58,1.58-1.58,1.58.71,1.58,1.58-.71,1.58-1.58,1.58Zm0-3.61c-1.12,0-2.03.91-2.03,2.03s.91,2.03,2.03,2.03,2.03-.91,2.03-2.03-.91-2.03-2.03-2.03Zm0,3.61c-.87,0-1.58-.71-1.58-1.58s.71-1.58,1.58-1.58,1.58.71,1.58,1.58-.71,1.58-1.58,1.58Z"/></g></g><path class="e" d="m119.52,56.26c0,4.71-3.82,8.53-8.53,8.53h-26.29c-3.41,0-6.31-2.47-6.86-5.84-.39-2.45.55-4.82,2.29-6.35.09-.08.17-.15.27-.23.1-.08.2-.15.31-.23.5-.35,1.05-.64,1.65-.86.25-.09.52-.17.79-.23.15-.04.29-.07.45-.09l.72-.11v-.03l.06-.71c.27-3.23,1.69-6.16,3.85-8.37.07-.08.15-.15.23-.23.07-.07.15-.15.22-.21.03-.02.05-.04.07-.06.08-.08.16-.15.25-.23h0s.07-.07.11-.1c.07-.06.15-.13.23-.19.06-.06.13-.11.2-.16.07-.07.15-.12.22-.18,0,0,0,0,0,0,.07-.05.15-.11.22-.16,2.23-1.63,4.96-2.59,7.86-2.59,3.36.02,6.49,1.26,8.89,3.38,1.55,1.36,2.8,3.08,3.61,5.07.13.33.26.67.37,1.02l.19.61.64.04c4.49.29,7.97,4.01,7.97,8.51Z"/></g></g></svg>