<svg width="91" height="91" viewBox="0 0 91 91" fill="none" xmlns="http://www.w3.org/2000/svg">
<g opacity="0.9">
<path d="M45.4761 91C20.3924 91 0 70.6076 0 45.5239C0 20.3924 20.3924 0 45.4761 0C70.5597 0 90.9521 20.3924 90.9521 45.4761C91 70.5597 70.6076 91 45.4761 91ZM45.4761 3.59022C22.3551 3.59022 3.59022 22.4029 3.59022 45.4761C3.59022 68.5492 22.4029 87.3619 45.4761 87.3619C68.5492 87.3619 87.3619 68.5492 87.3619 45.4761C87.3619 22.4029 68.597 3.59022 45.4761 3.59022Z" fill="#1B709A"/>
<path d="M47.6303 72.2828C47.1995 72.2828 46.7687 72.2828 46.3857 72.2349C42.0296 72.4743 32.1206 69.8893 28.6261 58.3527C28.2431 57.1081 28.9612 55.7678 30.2058 55.3848C31.4983 55.0019 32.7907 55.7199 33.1737 56.9645C36.4288 67.7352 46.0027 67.448 46.4814 67.4958C47.1516 67.5437 55.6724 68.166 58.2095 60.2197C58.8318 58.1613 58.6882 56.3901 57.7786 54.6668C55.0501 49.7362 46.9123 47.5342 46.8165 47.5342C46.1942 47.3427 30.7802 43.3696 30.7802 32.8383C30.7802 23.9345 36.5246 18.8125 46.5293 18.8125C56.4383 18.8125 61.4167 29.0566 61.6561 29.4874C62.2305 30.6841 61.7039 32.1202 60.5551 32.6947C59.3583 33.2691 57.9223 32.7904 57.3478 31.5937C57.3 31.4979 53.4225 23.6473 46.5293 23.6473C39.1574 23.6473 35.5672 26.6631 35.5672 32.8861C35.5672 39.5879 47.8697 42.8909 48.0133 42.8909C48.4441 42.9866 58.2095 45.6194 61.9433 52.3212C63.523 55.1934 63.8102 58.3049 62.7571 61.6079C60.0764 70.1287 52.3215 72.2828 47.6303 72.2828Z" fill="#056290"/>
<path d="M45.8112 22.882C44.806 22.882 43.9922 22.0682 43.9922 21.063V13.8825C43.9922 12.8773 44.806 12.0635 45.8112 12.0635C46.8165 12.0635 47.5824 12.8773 47.5824 13.8825V21.1108C47.5824 22.1161 46.7686 22.882 45.8112 22.882Z" fill="#1B709A"/>
<path d="M45.8112 79.3195C44.806 79.3195 43.9922 78.5057 43.9922 77.5005V70.2722C43.9922 69.2669 44.806 68.4531 45.8112 68.4531C46.8165 68.4531 47.6303 69.2669 47.6303 70.2722V77.5005C47.5824 78.5057 46.7686 79.3195 45.8112 79.3195Z" fill="#1B709A"/>
</g>
</svg>
