<svg width="348" height="371" viewBox="0 0 348 371" fill="none" xmlns="http://www.w3.org/2000/svg">
<path d="M298.844 5.79513L293.171 1.58162C288.704 -2.1884 282.461 4.02099 278.69 8.45631L0 335.783L12.8968 346.776L298.844 5.79513Z" fill="#64AEE0"/>
<path d="M299.7 17.796C302.74 14.2256 302.316 8.87157 298.751 5.83749C295.187 2.8034 289.832 3.23815 286.792 6.80859L12.235 329.231C9.19458 332.802 9.61954 338.156 13.1841 341.19C16.7486 344.224 22.1028 343.789 25.1432 340.218L299.7 17.796Z" fill="#4C90BE"/>
<path d="M259.806 51.638L259.791 51.6657C258.668 53.6841 259.394 56.2303 261.413 57.3528L294.257 75.6147C296.276 76.7372 298.823 76.011 299.945 73.9925L299.961 73.9648C301.084 71.9464 300.357 69.4001 298.338 68.2776L265.495 50.0157C263.476 48.8932 260.929 49.6195 259.806 51.638Z" fill="#64AEE0"/>
<path d="M238.619 76.8909L238.603 76.9186C237.48 78.937 238.207 81.4832 240.226 82.6058L273.07 100.868C275.088 101.99 277.635 101.264 278.758 99.2455L278.773 99.2178C279.896 97.1993 279.17 94.653 277.151 93.5305L244.307 75.2687C242.288 74.1461 239.741 74.8724 238.619 76.8909Z" fill="#64AEE0"/>
<path d="M217.4 102.14L217.384 102.168C216.262 104.186 216.988 106.732 219.007 107.855L251.851 126.117C253.87 127.239 256.417 126.513 257.539 124.494L257.555 124.467C258.677 122.448 257.951 119.902 255.932 118.78L223.088 100.518C221.069 99.3952 218.523 100.121 217.4 102.14Z" fill="#64AEE0"/>
<path d="M196.212 127.39L196.197 127.418C195.074 129.436 195.801 131.982 197.82 133.105L230.663 151.367C232.682 152.489 235.229 151.763 236.352 149.744L236.367 149.717C237.49 147.698 236.763 145.152 234.745 144.03L201.901 125.768C199.882 124.645 197.335 125.371 196.212 127.39Z" fill="#64AEE0"/>
<path d="M280.994 26.3888L280.978 26.4166C279.856 28.435 280.582 30.9813 282.601 32.1038L315.445 50.3657C317.463 51.4882 320.01 50.7619 321.133 48.7435L321.148 48.7157C322.271 46.6973 321.545 44.151 319.526 43.0285L286.682 24.7666C284.663 23.6441 282.116 24.3704 280.994 26.3888Z" fill="#64AEE0"/>
<path d="M175.025 152.642L175.01 152.669C173.887 154.688 174.613 157.234 176.632 158.357L209.476 176.619C211.495 177.741 214.041 177.015 215.164 174.996L215.18 174.969C216.302 172.95 215.576 170.404 213.557 169.281L180.713 151.02C178.694 149.897 176.148 150.623 175.025 152.642Z" fill="#64AEE0"/>
<path d="M153.806 177.895L153.791 177.922C152.668 179.941 153.394 182.487 155.413 183.61L188.257 201.872C190.276 202.994 192.823 202.268 193.946 200.249L193.961 200.222C195.084 198.203 194.357 195.657 192.338 194.534L159.495 176.273C157.476 175.15 154.929 175.876 153.806 177.895Z" fill="#64AEE0"/>
<path d="M132.619 203.148L132.603 203.175C131.481 205.194 132.207 207.74 134.226 208.863L167.07 227.124C169.088 228.247 171.635 227.521 172.758 225.502L172.773 225.475C173.896 223.456 173.17 220.91 171.151 219.787L138.307 201.526C136.288 200.403 133.741 201.129 132.619 203.148Z" fill="#64AEE0"/>
<path d="M111.431 228.394L111.416 228.421C110.293 230.44 111.019 232.986 113.038 234.109L145.882 252.371C147.901 253.493 150.448 252.767 151.571 250.748L151.586 250.721C152.709 248.702 151.982 246.156 149.963 245.033L117.12 226.772C115.101 225.649 112.554 226.375 111.431 228.394Z" fill="#64AEE0"/>
<path d="M90.2124 253.643L90.197 253.67C89.0743 255.689 89.8007 258.235 91.8196 259.358L124.663 277.62C126.682 278.742 129.229 278.016 130.352 275.997L130.367 275.97C131.49 273.951 130.763 271.405 128.745 270.282L95.9008 252.021C93.882 250.898 91.3352 251.624 90.2124 253.643Z" fill="#64AEE0"/>
<path d="M69.0249 278.863L69.0095 278.891C67.8868 280.91 68.6132 283.456 70.6321 284.578L103.476 302.84C105.495 303.963 108.042 303.237 109.164 301.218L109.18 301.19C110.302 299.172 109.576 296.626 107.557 295.503L74.7133 277.241C72.6945 276.119 70.1477 276.845 69.0249 278.863Z" fill="#64AEE0"/>
<path d="M47.8374 304.112L47.822 304.14C46.6993 306.159 47.4257 308.705 49.4446 309.827L82.2883 328.089C84.3072 329.212 86.854 328.485 87.9768 326.467L87.9922 326.439C89.115 324.421 88.3885 321.875 86.3697 320.752L53.5259 302.49C51.507 301.368 48.9602 302.094 47.8374 304.112Z" fill="#64AEE0"/>
<path d="M26.6499 329.365L26.6345 329.393C25.5118 331.412 26.2381 333.958 28.257 335.08L61.1008 353.342C63.1197 354.465 65.6665 353.739 66.7893 351.72L66.8047 351.692C67.9275 349.674 67.201 347.128 65.1822 346.005L32.3383 327.743C30.3194 326.621 27.7727 327.347 26.6499 329.365Z" fill="#64AEE0"/>
<path d="M341.555 29.6839L335.851 25.4703C331.415 21.7003 325.172 27.9097 321.401 32.3451L42.7109 359.672L55.6076 370.665L341.555 29.6839Z" fill="#64AEE0"/>
<path d="M342.403 41.6808C345.443 38.1104 345.019 32.7563 341.454 29.7222C337.89 26.6881 332.535 27.123 329.495 30.6934L54.9382 353.116C51.8978 356.686 52.3226 362.04 55.8872 365.075C59.4517 368.109 64.806 367.674 67.8464 364.103L342.403 41.6808Z" fill="#4C90BE"/>
</svg>
