<svg width="1248" height="550" viewBox="0 0 1248 550" fill="none" xmlns="http://www.w3.org/2000/svg">
<mask id="mask0_2436_2822" style="mask-type:alpha" maskUnits="userSpaceOnUse" x="0" y="0" width="1248" height="550">
<rect width="1248" height="550" rx="16" fill="#1E3995"/>
</mask>
<g mask="url(#mask0_2436_2822)">
</g>
<g clip-path="url(#clip0_2436_2822)">
<path d="M1020 171.756H869.794V178.833H1020V171.756Z" fill="#0070CA"/>
<path d="M1020 247.1H869.794V254.177H1020V247.1Z" fill="#0070CA"/>
<path d="M1020 322.445H869.794V523.352H1020V322.445Z" fill="#0070CA"/>
<path d="M1010.53 514.774H879.261V333.443H1010.53V514.774ZM882.474 511.561H1007.32V336.656H882.474V511.561Z" fill="#218EFF"/>
<path d="M1020 171.758H1012.53V325.982H1020V171.758Z" fill="#0070CA"/>
<path d="M877.264 171.758H869.794V325.982H877.264V171.758Z" fill="#0070CA"/>
<path d="M946.7 336.654H943.092V511.56H946.7V336.654Z" fill="#218EFF"/>
<path d="M960.905 436.241C961.322 433.672 959.578 431.252 957.009 430.835C954.44 430.418 952.019 432.162 951.602 434.731C951.185 437.3 952.93 439.721 955.499 440.138C958.068 440.555 960.488 438.81 960.905 436.241Z" fill="#218EFF"/>
<path d="M936.805 438.797C938.645 436.957 938.645 433.973 936.805 432.133C934.964 430.292 931.981 430.292 930.14 432.133C928.3 433.973 928.3 436.957 930.14 438.797C931.981 440.637 934.964 440.637 936.805 438.797Z" fill="#218EFF"/>
<path d="M1005.1 289.118H996.701V285.787H997.19C997.837 285.787 998.366 285.258 998.366 284.611V283.926C998.366 283.281 997.837 282.75 997.19 282.75H990.53C989.883 282.75 989.354 283.279 989.354 283.926V284.611C989.354 285.258 989.883 285.787 990.53 285.787H991.069V289.118H984.8V285.787H985.289C985.936 285.787 986.465 285.258 986.465 284.611V283.926C986.465 283.281 985.936 282.75 985.289 282.75H978.629C977.982 282.75 977.453 283.279 977.453 283.926V284.611C977.453 285.258 977.982 285.787 978.629 285.787H979.168V289.118H972.899V285.787H973.388C974.036 285.787 974.564 285.258 974.564 284.611V283.926C974.564 283.281 974.036 282.75 973.388 282.75H966.728C966.081 282.75 965.552 283.279 965.552 283.926V284.611C965.552 285.258 966.081 285.787 966.728 285.787H967.267V289.118H957.62C957.296 289.118 957.032 289.38 957.032 289.706C957.032 290.032 957.296 290.294 957.62 290.294H960.289V320.434H958.722C958.114 320.434 957.62 320.929 957.62 321.537C957.62 322.144 958.114 322.639 958.722 322.639H1004C1004.61 322.639 1005.1 322.144 1005.1 321.537C1005.1 320.929 1004.61 320.434 1004 320.434H1002.43V290.294H1005.1C1005.43 290.294 1005.69 290.032 1005.69 289.706C1005.69 289.38 1005.43 289.118 1005.1 289.118H1005.1ZM1001.41 320.434H961.322V290.294H967.272V315.636C967.272 317.19 968.532 318.45 970.087 318.45C971.641 318.45 972.901 317.19 972.901 315.636V290.294H979.17V315.636C979.17 317.19 980.431 318.45 981.988 318.45C983.544 318.45 984.802 317.19 984.802 315.636V290.294H991.071V315.636C991.071 317.19 992.332 318.45 993.888 318.45C995.445 318.45 996.703 317.19 996.703 315.636V290.294H1001.41V320.434H1001.41Z" fill="#218EFF"/>
<path d="M932.894 213.583H924.49V210.252H924.979C925.626 210.252 926.155 209.723 926.155 209.076V208.389C926.155 207.741 925.626 207.215 924.979 207.215H918.319C917.672 207.215 917.143 207.744 917.143 208.389V209.076C917.143 209.723 917.672 210.252 918.319 210.252H918.858V213.583H912.589V210.252H913.078C913.725 210.252 914.254 209.723 914.254 209.076V208.389C914.254 207.741 913.725 207.215 913.078 207.215H906.418C905.771 207.215 905.242 207.744 905.242 208.389V209.076C905.242 209.723 905.771 210.252 906.418 210.252H906.957V213.583H900.688V210.252H901.177C901.825 210.252 902.353 209.723 902.353 209.076V208.389C902.353 207.741 901.825 207.215 901.177 207.215H894.517C893.87 207.215 893.341 207.744 893.341 208.389V209.076C893.341 209.723 893.87 210.252 894.517 210.252H895.056V213.583H885.409C885.085 213.583 884.821 213.845 884.821 214.171C884.821 214.497 885.085 214.759 885.409 214.759H888.078V244.899H886.511C885.903 244.899 885.409 245.394 885.409 246.001C885.409 246.609 885.903 247.104 886.511 247.104H931.789C932.397 247.104 932.891 246.609 932.891 246.001C932.891 245.394 932.397 244.899 931.789 244.899H930.223V214.759H932.891C933.215 214.759 933.48 214.497 933.48 214.171C933.48 213.845 933.215 213.583 932.891 213.583H932.894ZM929.197 244.899H889.111V214.759H895.061V240.1C895.061 241.655 896.321 242.915 897.876 242.915C899.43 242.915 900.69 241.655 900.69 240.1V214.759H906.96V240.1C906.96 241.655 908.22 242.915 909.774 242.915C911.328 242.915 912.589 241.655 912.589 240.1V214.759H918.858V240.1C918.858 241.655 920.118 242.915 921.675 242.915C923.232 242.915 924.49 241.655 924.49 240.1V214.759H929.197V244.899Z" fill="#0070CA"/>
<path d="M991.207 243.669L980.374 225.702V219.215C980.905 219.215 981.335 218.785 981.335 218.254V218.088C981.335 217.557 980.905 217.127 980.374 217.127H974.611C974.08 217.127 973.65 217.557 973.65 218.088V218.254C973.65 218.785 974.08 219.215 974.611 219.215V225.702L963.778 243.669C962.866 245.182 963.963 247.104 965.737 247.104H989.25C991.024 247.104 992.121 245.182 991.21 243.669H991.207Z" fill="#0070CA"/>
<path d="M974.512 243.556L963.521 225.005V211.033C964.059 211.033 964.494 210.596 964.494 210.06V209.854C964.494 209.316 964.057 208.881 963.521 208.881H957.674C957.135 208.881 956.7 209.318 956.7 209.854V210.06C956.7 210.598 957.138 211.033 957.674 211.033V225.005L946.683 243.556C945.758 245.117 946.87 247.102 948.669 247.102H972.523C974.324 247.102 975.436 245.117 974.51 243.556H974.512Z" fill="#218EFF"/>
<path d="M1010.84 242.677L998.739 219.535V202.106C999.332 202.106 999.811 201.627 999.811 201.034V200.492C999.811 199.899 999.332 199.42 998.739 199.42H992.302C991.709 199.42 991.229 199.899 991.229 200.492V201.034C991.229 201.627 991.709 202.106 992.302 202.106V219.535L980.198 242.677C979.18 244.624 980.406 247.1 982.388 247.1H1008.66C1010.64 247.1 1011.86 244.624 1010.84 242.677H1010.84Z" fill="#218EFF"/>
<path d="M275.562 292.53L243.734 312.744L244.465 313.896L276.293 293.682L275.562 292.53Z" fill="#218EFF"/>
<path d="M279.98 299.043L248.981 318.723L249.712 319.874L280.711 300.194L279.98 299.043Z" fill="#218EFF"/>
<path d="M280.645 308.091L255.62 323.984L256.351 325.136L281.377 309.242L280.645 308.091Z" fill="#218EFF"/>
<path d="M279.841 317.893L265.263 327.148L265.994 328.3L280.572 319.045L279.841 317.893Z" fill="#218EFF"/>
<path d="M289.61 330.58L272.201 341.637L272.932 342.788L290.341 331.731L289.61 330.58Z" fill="#218EFF"/>
<path d="M299.018 333.999L271.299 351.604L272.031 352.755L299.749 335.151L299.018 333.999Z" fill="#218EFF"/>
<path d="M305.306 339.401L273.478 359.615L274.209 360.767L306.037 340.553L305.306 339.401Z" fill="#218EFF"/>
<path d="M309.558 346.098L277.73 366.312L278.462 367.464L310.289 347.25L309.558 346.098Z" fill="#218EFF"/>
<path d="M312.87 353.388L282.919 372.41L283.651 373.562L313.601 354.54L312.87 353.388Z" fill="#218EFF"/>
<path d="M313.028 362.68L291.278 376.494L292.009 377.646L313.76 363.832L313.028 362.68Z" fill="#218EFF"/>
<path d="M310.423 373.666L302.663 378.59L303.394 379.742L311.153 374.817L310.423 373.666Z" fill="#218EFF"/>
<path d="M315.696 379.703L305.954 385.889L306.685 387.04L316.427 380.855L315.696 379.703Z" fill="#218EFF"/>
<path d="M325.485 382.952L303.806 396.721L304.537 397.872L326.216 384.103L325.485 382.952Z" fill="#218EFF"/>
<path d="M333.738 387.105L304.568 405.631L305.299 406.782L334.469 388.256L333.738 387.105Z" fill="#218EFF"/>
<path d="M339.319 392.956L307.492 413.17L308.223 414.321L340.051 394.107L339.319 392.956Z" fill="#218EFF"/>
<path d="M273.252 326.655C248.736 324.839 244.468 308.67 244.246 308.04C244.164 306.883 243.159 306.014 242.005 306.095C240.848 306.177 239.978 307.182 240.062 308.339C240.08 308.569 240.131 308.791 240.22 309.004C240.421 309.794 245.197 328.79 272.891 330.819C292.423 332.269 299.997 334.552 306.595 345.077L307.207 346.056C313.793 356.563 312.508 364.426 305.356 382.603C295.168 408.379 310.103 420.982 310.758 421.513C311.448 422.064 312.404 422.126 313.158 421.667C313.351 421.543 313.521 421.387 313.659 421.202C314.359 420.317 314.235 419.04 313.38 418.306C313.291 418.163 300.1 407.117 309.251 384.071C316.306 366.252 318.745 356.476 310.798 343.802L310.185 342.823C302.327 330.092 292.376 328.086 273.252 326.652V326.655Z" fill="#3F964F"/>
<path d="M279.877 326.441C290.082 300.652 275.12 288.042 274.475 287.531C273.743 286.631 272.421 286.495 271.524 287.227C270.625 287.958 270.489 289.28 271.22 290.18C271.396 290.397 271.613 290.575 271.86 290.706C272.406 291.18 285.071 302.061 275.99 324.941C268.947 342.777 266.488 352.565 274.435 365.24L275.048 366.218C282.995 378.893 292.875 380.946 311.986 382.36C336.468 384.198 340.748 400.31 341.002 400.992C341.289 402.081 342.386 402.749 343.486 402.504C343.71 402.46 343.925 402.376 344.121 402.254C344.859 401.775 345.223 400.885 345.028 400.028C344.835 399.208 340.051 380.242 312.357 378.213C292.815 376.745 285.241 374.462 278.653 363.955L278.041 362.976C271.388 352.486 272.668 344.65 279.874 326.438L279.877 326.441Z" fill="#3F964F"/>
<path d="M724.823 143.329V332.366C724.823 340.595 718.151 347.267 709.92 347.267H306.3C298.069 347.267 291.397 340.595 291.397 332.366V143.329C291.397 135.1 298.069 128.428 306.3 128.428H709.92C718.151 128.428 724.823 135.1 724.823 143.329Z" fill="#0069BE"/>
<path d="M650.475 289.046H641.206V272.189C641.206 269.628 643.281 267.553 645.841 267.553C648.401 267.553 650.475 269.628 650.475 272.189V289.046Z" fill="#4476C7"/>
<path d="M675.841 289.045H666.572V261.969C666.572 259.409 668.648 257.336 671.208 257.336C673.768 257.336 675.843 259.412 675.843 261.969V289.045H675.841Z" fill="#4476C7"/>
<path d="M663.461 289.046H654.191V251.45C654.191 248.89 656.267 246.814 658.825 246.814C661.385 246.814 663.461 248.89 663.461 251.45V289.046Z" fill="#4476C7"/>
<path d="M690.324 289.045H681.146V239.124C681.146 236.589 683.2 234.535 685.735 234.535C688.271 234.535 690.324 236.589 690.324 239.124V289.045Z" fill="#4476C7"/>
<path d="M705.897 289.045H696.719V226.155C696.719 223.62 698.773 221.566 701.308 221.566C703.843 221.566 705.897 223.62 705.897 226.155V289.045Z" fill="#4476C7"/>
<path d="M636.971 253.893C636.543 253.893 636.121 253.71 635.829 253.357C635.305 252.727 635.394 251.79 636.024 251.269L657.076 233.823C657.619 233.373 658.403 233.368 658.954 233.811L668.25 241.298L693.159 214.042C693.712 213.436 694.649 213.394 695.254 213.948C695.86 214.501 695.902 215.438 695.348 216.043L669.498 244.328C668.969 244.906 668.082 244.973 667.472 244.481L658.034 236.88L637.917 253.552C637.64 253.782 637.304 253.893 636.971 253.893Z" fill="#4476C7"/>
<path d="M695.496 221.823L693.015 216.394L687.386 214.412L700.226 208.506L695.496 221.823Z" fill="#4476C7"/>
<path d="M476.195 175.384C476.195 175.384 486.663 163.189 487.29 163.189C487.29 163.189 496.859 163.169 500.13 163.164L507.134 175.293L499.293 188.876C499.186 189.059 499.186 189.287 499.293 189.469L507.62 203.893C507.727 204.076 507.922 204.19 508.134 204.19H523.772L531.252 217.146C531.358 217.329 531.553 217.442 531.766 217.442H548.423C548.636 217.442 548.831 217.329 548.937 217.146L556.417 204.19H571.854C572.067 204.19 572.262 204.076 572.368 203.893L580.696 189.469C580.802 189.287 580.802 189.059 580.696 188.876L573.186 175.868L582.769 163.943C583.276 163.31 583.175 162.379 582.547 161.87C582.283 161.66 581.954 161.543 581.62 161.543C581.171 161.543 580.75 161.744 580.469 162.092L570.775 174.156H555.197C554.984 174.156 554.789 174.27 554.683 174.452L547.203 187.411H532.786L525.301 174.452C525.195 174.27 525 174.156 524.787 174.156H509.884L502.285 160.997C502.036 160.528 501.544 160.209 500.98 160.209L486.22 160.234L473.927 173.486C473.588 173.887 473.492 174.445 473.675 174.942C473.764 175.184 473.914 175.399 474.112 175.564C474.737 176.086 475.671 176.002 476.193 175.382L476.195 175.384ZM570.493 201.244H556.749L549.691 189.017L556.563 177.111H570.495L577.459 189.178L570.495 201.244H570.493ZM526.164 202.435L533.127 190.369H546.871L553.929 202.596L547.057 214.499H533.125L526.161 202.435H526.164ZM502.53 189.178L509.493 177.111H523.426L530.394 189.178L523.426 201.244H509.493L502.53 189.178Z" fill="#2A9AD5"/>
<path d="M524.184 186.685C524.448 186.23 524.938 185.951 525.459 185.951C525.723 185.951 525.98 186.023 526.2 186.154C526.9 186.562 527.139 187.466 526.732 188.17L520.428 199.026C520.166 199.478 519.677 199.76 519.153 199.76C518.891 199.76 518.634 199.691 518.409 199.56C517.71 199.152 517.47 198.247 517.878 197.543L524.181 186.688L524.184 186.685Z" fill="#2A9AD5"/>
<path d="M566.091 197.3L572.311 186.511C572.578 186.059 573.067 185.777 573.594 185.777C573.853 185.777 574.105 185.847 574.328 185.975C575.027 186.383 575.269 187.285 574.866 187.991L568.646 198.778C568.382 199.23 567.89 199.512 567.369 199.512C567.109 199.512 566.855 199.443 566.63 199.314C565.931 198.906 565.689 198.004 566.091 197.298V197.3Z" fill="#2A9AD5"/>
<path d="M456.564 180.292V174.589C456.564 173.934 457.108 173.391 457.763 173.391C458.418 173.391 458.961 173.934 458.961 174.589V183.663C458.961 184.479 458.482 184.894 457.731 184.894C457.284 184.894 456.804 184.575 456.31 183.952L451.612 178.024V183.695C451.612 184.35 451.069 184.894 450.414 184.894C449.759 184.894 449.215 184.35 449.215 183.695V174.621C449.215 173.934 449.648 173.391 450.397 173.391C450.955 173.391 451.276 173.598 451.835 174.3L456.564 180.29V180.292Z" fill="#2A9AD5"/>
<path d="M468.467 174.589C468.467 173.934 469.026 173.391 469.745 173.391C470.464 173.391 471.023 173.934 471.023 174.589V183.695C471.023 184.35 470.464 184.894 469.745 184.894C469.026 184.894 468.467 184.35 468.467 183.695V180.228H464.393V183.695C464.393 184.35 463.834 184.894 463.115 184.894C462.396 184.894 461.837 184.35 461.837 183.695V174.589C461.837 173.934 462.396 173.391 463.115 173.391C463.834 173.391 464.393 173.934 464.393 174.589V177.831H468.467V174.589Z" fill="#2A9AD5"/>
<path d="M477.598 184.304C478.893 184.598 479.617 185.584 479.617 186.893C479.617 187.897 479.279 188.682 478.584 189.268C477.89 189.868 477.013 190.163 475.948 190.163C474.729 190.163 473.79 189.868 473.143 189.268C472.649 188.836 472.542 188.112 472.911 187.635C473.326 187.096 474.005 187.079 474.482 187.402C474.929 187.694 475.362 187.85 475.792 187.85C476.672 187.85 477.149 187.402 477.149 186.802C477.149 186.001 476.672 185.598 475.715 185.598C474.976 185.598 474.435 185.213 474.435 184.457C474.435 183.701 474.959 183.315 475.639 183.315C476.256 183.315 476.733 182.915 476.733 182.22C476.733 181.711 476.424 181.311 475.747 181.311C475.347 181.311 474.976 181.402 474.653 181.588C474.097 181.911 473.42 181.82 473.096 181.279C472.881 180.94 472.772 180.216 473.42 179.722C474.067 179.245 474.915 178.998 475.962 178.998C476.919 178.998 477.705 179.245 478.305 179.737C478.905 180.246 479.2 180.908 479.2 181.756C479.2 183.004 478.691 183.79 477.596 184.299L477.598 184.304Z" fill="#2A9AD5"/>
<path d="M303.672 176.961H391.231C393.44 176.961 395.231 178.755 395.231 180.962V239.221C395.231 241.43 393.437 243.222 391.231 243.222H303.672C301.462 243.222 299.671 241.428 299.671 239.221V180.96C299.671 178.751 301.465 176.959 303.672 176.959V176.961Z" fill="#2F538C"/>
<path d="M309.202 189.348H376.722C379.097 189.348 381.025 191.275 381.025 193.65V195.046C381.025 197.421 379.097 199.348 376.722 199.348H309.202C306.827 199.348 304.899 197.421 304.899 195.046V193.65C304.899 191.275 306.827 189.348 309.202 189.348Z" fill="#78A5FF"/>
<path d="M306.57 207.49H349.16C350.081 207.49 350.83 208.239 350.83 209.161V210.819C350.83 211.741 350.081 212.489 349.16 212.489H306.57C305.648 212.489 304.899 211.741 304.899 210.819V209.161C304.899 208.239 305.648 207.49 306.57 207.49Z" fill="#78A5FF"/>
<path d="M306.31 227.627H336.26C337.039 227.627 337.671 228.26 337.671 229.038V231.215C337.671 231.993 337.039 232.626 336.26 232.626H306.31C305.532 232.626 304.899 231.993 304.899 231.215V229.038C304.899 228.26 305.532 227.627 306.31 227.627Z" fill="#78A5FF"/>
<path d="M306.738 216.924H358.661C359.677 216.924 360.499 217.747 360.499 218.762V220.087C360.499 221.102 359.677 221.925 358.661 221.925H306.738C305.722 221.925 304.899 221.102 304.899 220.087V218.762C304.899 217.747 305.722 216.924 306.738 216.924Z" fill="#78A5FF"/>
<path d="M393.713 188.828C392.987 188.828 392.258 188.791 391.524 188.715C380.004 187.531 371.594 177.194 372.78 165.671C372.988 163.665 374.782 162.207 376.786 162.412C378.793 162.62 380.251 164.411 380.046 166.418C379.272 173.932 384.758 180.674 392.273 181.447C395.913 181.823 399.481 180.755 402.32 178.447C405.16 176.139 406.929 172.862 407.302 169.222C408.075 161.708 402.59 154.967 395.075 154.193C392.362 153.914 389.661 154.44 387.264 155.71C385.482 156.657 383.27 155.98 382.326 154.198C381.38 152.416 382.057 150.205 383.839 149.261C387.518 147.306 391.662 146.501 395.824 146.928C407.344 148.114 415.753 158.451 414.567 169.971C413.994 175.551 411.28 180.575 406.929 184.116C403.148 187.192 398.522 188.828 393.713 188.828Z" fill="#6397FF"/>
<path d="M400.298 167.824C400.298 171.484 397.333 174.449 393.673 174.449C390.014 174.449 387.048 171.484 387.048 167.824C387.048 164.165 390.014 161.199 393.673 161.199C397.333 161.199 400.298 164.165 400.298 167.824Z" fill="#6397FF"/>
<path d="M465.369 253.002H525.377C527.789 253.002 529.746 254.96 529.746 257.371V301.649C529.746 304.061 527.789 306.018 525.377 306.018H465.369C462.957 306.018 461 304.061 461 301.649V257.369C461 254.957 462.957 253 465.369 253V253.002Z" fill="#4471B9"/>
<path d="M517.781 259.787H459.391C457.044 259.787 455.141 261.69 455.141 264.037V307.121C455.141 309.469 457.044 311.372 459.391 311.372H517.781C520.128 311.372 522.031 309.469 522.031 307.121V264.037C522.031 261.69 520.128 259.787 517.781 259.787Z" fill="#0D2C5C"/>
<path d="M462.764 270.293L449.551 257.08H415.037C414.557 257.08 414.167 256.689 414.167 256.21C414.167 255.73 414.557 255.34 415.037 255.34H450.272L463.995 269.062C464.336 269.403 464.336 269.952 463.995 270.293C463.653 270.634 463.105 270.634 462.764 270.293Z" fill="#2C2858"/>
<path d="M437.4 252.73H414.869C414.389 252.73 413.999 252.339 413.999 251.86C413.999 251.381 414.389 250.99 414.869 250.99H437.4C437.88 250.99 438.27 251.381 438.27 251.86C438.27 252.339 437.88 252.73 437.4 252.73Z" fill="#2C2858"/>
<path d="M453.399 323.515L467.066 323.164L478.792 310.818C479.123 310.47 479.108 309.919 478.76 309.588C478.584 309.422 478.362 309.343 478.139 309.348C477.917 309.353 477.697 309.444 477.532 309.617L466.303 321.439L453.357 321.773C452.877 321.785 452.497 322.185 452.509 322.665C452.521 323.144 452.922 323.525 453.401 323.512L453.399 323.515Z" fill="#2C2858"/>
<path d="M461.665 286.256C461.665 291.124 463.199 295.629 465.796 299.335L465.828 299.313C463.216 295.602 461.665 291.099 461.665 286.258V286.256Z" fill="#AA62CC"/>
<path d="M487.794 263.674C488.442 263.768 489.087 263.881 489.722 264.032C489.089 263.884 488.444 263.768 487.794 263.674Z" fill="#AA62CC"/>
<path d="M477.164 307.851C477.04 307.809 476.912 307.779 476.788 307.734C477.396 307.952 478.014 308.145 478.646 308.313C478.562 308.29 478.478 308.258 478.394 308.234C477.979 308.117 477.569 307.991 477.164 307.851Z" fill="#AA62CC"/>
<path d="M475.123 307.038C474.821 306.902 474.515 306.783 474.221 306.635C474.863 306.958 475.521 307.255 476.195 307.519C476.094 307.48 476 307.428 475.899 307.386C475.637 307.277 475.38 307.156 475.123 307.038Z" fill="#AA62CC"/>
<path d="M492.917 265.031C493.663 265.328 494.395 265.656 495.109 266.032C494.4 265.659 493.668 265.33 492.917 265.031Z" fill="#AA62CC"/>
<path d="M500.387 286.257H507.353C507.353 277.524 502.448 269.94 495.247 266.098L491.973 272.246C496.98 274.917 500.387 280.188 500.387 286.257Z" fill="#0E6A41"/>
<path d="M484.508 263.412C471.891 263.412 461.665 273.64 461.665 286.255C461.665 273.724 471.977 263.412 484.508 263.412Z" fill="#AA62CC"/>
<path d="M490.431 264.215C491.066 264.385 491.694 264.583 492.312 264.808C491.696 264.583 491.071 264.385 490.431 264.215Z" fill="#AA62CC"/>
<path d="M484.508 263.412C485.385 263.412 486.255 263.474 487.122 263.573C486.262 263.474 485.392 263.412 484.508 263.412Z" fill="#AA62CC"/>
<path d="M473.875 306.466C473.106 306.061 472.36 305.616 471.641 305.127C472.357 305.616 473.104 306.059 473.875 306.466Z" fill="#AA62CC"/>
<path d="M471.504 305.026C470.872 304.586 470.261 304.112 469.673 303.607C470.259 304.109 470.869 304.584 471.504 305.026Z" fill="#AA62CC"/>
<path d="M484.508 309.101C497.125 309.101 507.351 298.873 507.351 286.258C507.351 298.789 497.039 309.101 484.508 309.101Z" fill="#AA62CC"/>
<path d="M481.905 308.941C482.76 309.038 483.625 309.1 484.507 309.1C483.64 309.1 482.787 309.04 481.945 308.944C481.932 308.944 481.92 308.944 481.908 308.944L481.905 308.941Z" fill="#AA62CC"/>
<path d="M479.477 308.517C479.427 308.508 479.378 308.503 479.329 308.49C479.959 308.636 480.599 308.75 481.246 308.844C481.192 308.836 481.14 308.821 481.086 308.814C480.544 308.73 480.006 308.638 479.479 308.517H479.477Z" fill="#AA62CC"/>
<path d="M467.272 301.218C466.852 300.734 466.451 300.227 466.068 299.703C466.449 300.225 466.847 300.731 467.272 301.218Z" fill="#AA62CC"/>
<path d="M469.098 303.086C468.665 302.691 468.245 302.278 467.842 301.846C468.245 302.276 468.665 302.688 469.098 303.086Z" fill="#AA62CC"/>
<path d="M492.312 264.809C492.514 264.883 492.719 264.952 492.917 265.031C492.717 264.952 492.514 264.883 492.312 264.809Z" fill="#D48FFF"/>
<path d="M489.721 264.033C489.958 264.09 490.193 264.152 490.43 264.216C490.196 264.152 489.961 264.09 489.721 264.033Z" fill="#D48FFF"/>
<path d="M495.248 266.093C495.203 266.069 495.156 266.054 495.111 266.031C495.156 266.054 495.203 266.073 495.248 266.096V266.093Z" fill="#D48FFF"/>
<path d="M487.122 263.572C487.349 263.597 487.569 263.641 487.794 263.676C487.569 263.644 487.347 263.599 487.122 263.572Z" fill="#D48FFF"/>
<path d="M477.164 307.852C477.569 307.992 477.979 308.118 478.394 308.235C477.979 308.118 477.571 307.99 477.164 307.852Z" fill="#D48FFF"/>
<path d="M484.507 309.101C483.645 309.101 482.79 309.039 481.945 308.945C482.787 309.042 483.64 309.101 484.507 309.101Z" fill="#D48FFF"/>
<path d="M471.5 295.347C461.969 281.931 477.47 264.401 491.971 272.245L495.245 266.096C474.389 254.85 452.069 280.105 465.829 299.313L471.502 295.347H471.5Z" fill="#3F964F"/>
<path d="M475.122 307.039C475.382 307.158 475.636 307.279 475.898 307.387C475.636 307.281 475.379 307.155 475.122 307.039Z" fill="#D48FFF"/>
<path d="M479.477 308.516C480.005 308.637 480.542 308.728 481.083 308.812C480.542 308.731 480.005 308.637 479.477 308.516Z" fill="#D48FFF"/>
<path d="M467.842 301.846C467.65 301.639 467.457 301.431 467.271 301.219C467.457 301.434 467.647 301.639 467.842 301.846Z" fill="#32186C"/>
<path d="M469.673 303.608C469.476 303.44 469.288 303.259 469.098 303.084C469.29 303.259 469.476 303.44 469.673 303.608Z" fill="#32186C"/>
<path d="M471.641 305.129C471.594 305.097 471.552 305.06 471.507 305.027C471.554 305.06 471.596 305.097 471.641 305.129Z" fill="#32186C"/>
<path d="M481.905 308.941C481.683 308.916 481.466 308.872 481.246 308.84C481.466 308.872 481.683 308.914 481.905 308.941Z" fill="#32186C"/>
<path d="M479.329 308.488C479.099 308.436 478.874 308.374 478.646 308.312C478.874 308.372 479.099 308.434 479.329 308.488Z" fill="#32186C"/>
<path d="M465.785 299.343C465.874 299.47 465.98 299.579 466.072 299.705C465.98 299.581 465.884 299.462 465.797 299.336L465.787 299.343H465.785Z" fill="#32186C"/>
<path d="M465.829 299.312L465.796 299.335C465.885 299.461 465.982 299.579 466.071 299.703C466.454 300.227 466.852 300.733 467.274 301.218C467.459 301.43 467.652 301.638 467.845 301.845C468.248 302.275 468.668 302.688 469.1 303.086C469.291 303.261 469.478 303.442 469.676 303.61C470.264 304.114 470.875 304.588 471.507 305.028C471.554 305.06 471.596 305.097 471.641 305.129C472.36 305.619 473.106 306.064 473.874 306.469C473.988 306.528 474.107 306.578 474.22 306.634C474.514 306.783 474.823 306.904 475.122 307.037C471.384 305.33 468.174 302.646 465.829 299.312Z" fill="#32186C"/>
<path d="M481.085 308.811C481.14 308.818 481.192 308.833 481.246 308.841C481.466 308.873 481.683 308.917 481.906 308.942C481.918 308.942 481.931 308.942 481.943 308.942C481.654 308.91 481.37 308.853 481.083 308.809L481.085 308.811Z" fill="#32186C"/>
<path d="M475.901 307.383C476.002 307.425 476.096 307.477 476.197 307.516C476.393 307.593 476.593 307.662 476.79 307.734C476.914 307.778 477.043 307.808 477.166 307.85C476.741 307.704 476.316 307.553 475.901 307.383Z" fill="#32186C"/>
<path d="M478.394 308.234C478.478 308.259 478.562 308.291 478.646 308.313C478.873 308.373 479.098 308.435 479.328 308.489C479.378 308.501 479.427 308.506 479.476 308.516C479.111 308.432 478.752 308.336 478.394 308.234Z" fill="#32186C"/>
<path d="M507.351 286.256H500.385C500.701 301.574 479.82 307.908 471.5 295.347L465.826 299.313C478.286 317.503 507.474 308.278 507.351 286.258V286.256Z" fill="#0C5C38"/>
<path d="M724.823 143.329V182.13H611.273C606.993 182.13 603.526 178.663 603.526 174.383V128.428H709.92C718.151 128.428 724.823 135.1 724.823 143.329Z" fill="#233A67"/>
<path d="M744.921 100H615.348C611.069 100 607.601 103.468 607.601 107.747V169.718C607.601 173.996 611.069 177.464 615.348 177.464H744.921C749.199 177.464 752.668 173.996 752.668 169.718V107.747C752.668 103.468 749.199 100 744.921 100Z" fill="#9CC2FF"/>
<path d="M752.668 107.749V119.201H607.601V107.749C607.601 103.469 611.068 100 615.348 100H744.923C749.203 100 752.67 103.469 752.67 107.749H752.668Z" fill="#78A5FF"/>
<path d="M621.088 116.374C624.514 116.374 627.291 113.597 627.291 110.171C627.291 106.746 624.514 103.969 621.088 103.969C617.663 103.969 614.886 106.746 614.886 110.171C614.886 113.597 617.663 116.374 621.088 116.374Z" fill="#E62552"/>
<path d="M644.9 110.171C644.9 113.596 642.123 116.374 638.698 116.374C635.273 116.374 632.495 113.596 632.495 110.171C632.495 106.746 635.273 103.969 638.698 103.969C642.123 103.969 644.9 106.746 644.9 110.171Z" fill="#9CC2FF"/>
<path d="M662.511 110.171C662.511 113.596 659.734 116.374 656.309 116.374C652.884 116.374 650.106 113.596 650.106 110.171C650.106 106.746 652.884 103.969 656.309 103.969C659.734 103.969 662.511 106.746 662.511 110.171Z" fill="#9CC2FF"/>
<path d="M644.71 130.6H622.269C620.3 130.6 618.704 132.196 618.704 134.165V156.606C618.704 158.575 620.3 160.171 622.269 160.171H644.71C646.679 160.171 648.275 158.575 648.275 156.606V134.165C648.275 132.196 646.679 130.6 644.71 130.6Z" fill="#E3EAFF"/>
<path d="M667.789 130.6H690.23C692.197 130.6 693.795 132.196 693.795 134.165V156.606C693.795 158.573 692.197 160.171 690.23 160.171H667.789C665.822 160.171 664.224 158.573 664.224 156.606V134.165C664.224 132.198 665.82 130.6 667.789 130.6Z" fill="#E3EAFF"/>
<path d="M735.753 130.6H713.313C711.344 130.6 709.747 132.196 709.747 134.165V156.606C709.747 158.575 711.344 160.171 713.313 160.171H735.753C737.722 160.171 739.319 158.575 739.319 156.606V134.165C739.319 132.196 737.722 130.6 735.753 130.6Z" fill="#E3EAFF"/>
<path d="M612.094 303.798L627.118 297.195C628.368 298.814 645.716 303.469 653.191 338.962C654.75 346.366 642.229 366.517 634.497 372.661C626.765 378.804 622.564 365.388 622.564 365.388L633.417 340.235L612.094 303.798Z" fill="#CFDAFF"/>
<path d="M598.315 505.637C590.808 516.196 572.376 509.717 572.986 523.997C601.019 523.814 612.668 523.997 612.668 523.997C612.631 520.718 612.077 512.931 611.43 509.885L598.315 505.637Z" fill="black"/>
<path d="M641.804 505.637C634.296 516.196 615.864 509.717 616.475 523.997C644.507 523.814 656.156 523.997 656.156 523.997C656.119 520.718 655.565 512.931 654.918 509.885L641.804 505.637Z" fill="black"/>
<path d="M613.76 297.403L598.281 296.153L596.786 280.918L610.429 273.648L613.76 297.403Z" fill="#EEA886"/>
<path d="M597.663 249.588C589.447 249.588 583.165 257.127 581.695 265.213C579.038 279.837 587.682 289.271 589.961 290.06C594.265 291.55 603.599 286.877 603.599 286.877C603.599 286.877 614.328 277.106 614.328 271.015C614.328 262.798 605.88 249.588 597.663 249.588Z" fill="#EEA886"/>
<path d="M622.943 263.605C626.795 257.686 624.003 253.812 618.766 251.81C613.53 249.808 612.925 247.229 610.763 243.774C608.712 240.497 599.217 237.001 594.861 242.094C588.364 249.687 587.035 243.421 581.364 249.097C576.246 254.217 577.487 260.412 579.703 263.274C581.86 266.056 587.018 261.077 586.662 264.734C586.383 267.586 590.581 267.662 591.95 270.578C592.985 272.787 594.809 273.707 594.525 275.1C593.969 277.814 591.886 281.799 597.394 285.625C600.535 287.804 602.321 284.634 605.83 286.722C612.495 290.688 614.842 285.919 618.485 281.997C622.125 278.075 626.793 278.295 623.012 271.712C622.868 271.465 620.088 267.993 622.943 263.605Z" fill="#2C2858"/>
<path d="M590.675 269.083C589.219 271.186 589.437 273.855 591.157 275.046C592.876 276.237 595.451 275.496 596.904 273.393C598.357 271.29 598.142 268.621 596.423 267.43C594.703 266.239 592.128 266.98 590.675 269.083Z" fill="#EEA886"/>
<path d="M593.376 273.844C593.292 273.832 593.213 273.8 593.139 273.745C592.091 272.994 591.673 271.912 592.024 270.849C592.383 269.762 593.44 268.981 594.535 268.998C594.844 269.003 595.091 269.258 595.086 269.567C595.081 269.876 594.826 270.123 594.52 270.118C593.92 270.108 593.289 270.585 593.087 271.2C592.892 271.791 593.141 272.374 593.791 272.838C594.043 273.019 594.1 273.367 593.92 273.619C593.791 273.797 593.579 273.879 593.376 273.847V273.844Z" fill="#D6916F"/>
<path d="M630.825 387.847C630.825 387.847 638.073 424.084 642.684 449.778C647.478 457.807 657.169 498.232 657.09 510.859L636.152 509.357C636.152 509.357 623.421 471.924 620.283 459.989C616.371 445.12 607.448 424.296 603.536 394.386L602.592 386.023L630.825 387.85V387.847Z" fill="#201D40"/>
<path d="M587.108 397.332L612.958 398.375L610.07 451.427C612.944 460.153 616.416 499.33 613.537 511.485L591.89 509.938C591.89 509.938 580.093 432.978 587.106 397.332H587.108Z" fill="#2C2858"/>
<path d="M587.978 294.394C587.978 294.394 623.594 293.667 628.05 297.858C644.638 313.473 632.122 362.663 648.046 437.237C643.284 435.581 626.995 423.935 607.031 432.68C593.741 438.502 584.642 440.867 572.85 436.668C567.448 390.226 582.623 328.196 582.623 328.196L587.978 294.394Z" fill="white"/>
<path d="M520.991 308.826C523.295 308.967 526.141 307.828 527.028 309.894L531.573 307.68L531.847 304.939C527.943 298.685 518.426 296.908 517.485 296.827C515.036 296.612 513.899 296.36 513.709 296.686C513.519 297.012 512.918 299.191 516.469 299.619C520.927 300.155 517.967 303.718 508.925 300.326C506.662 299.476 502.399 300.578 503.941 302.233C505.638 304.057 510.519 308.189 520.994 308.829L520.991 308.826Z" fill="#EEA886"/>
<path d="M525.292 309.916C526.28 316.783 537.207 348.11 546.313 352.118C551.535 348.233 553.025 339.453 551.535 333.298C548.742 321.763 531.845 304.939 531.845 304.939L525.289 309.919L525.292 309.916Z" fill="white"/>
<path d="M588.176 294.431C588.176 294.431 598.251 298.536 592.98 311.712C587.709 324.888 561.337 359.019 545.828 351.872C536.586 334.019 580.33 293.883 588.176 294.431Z" fill="white"/>
<path d="M593.526 294.65C596.247 292.523 604.834 288.843 614.629 289.834C615.768 291.962 615.709 295.377 615.709 295.377L593.526 294.653V294.65Z" fill="white"/>
<path d="M435.643 268.564C433.955 270.575 432.651 272.972 429.171 272.91C429.171 272.91 426.191 280.754 423.068 286.885C423.068 286.885 419.551 275.75 419.556 275.742C421.091 273.392 423.552 268.756 424.375 265.868C424.587 265.117 424.763 264.353 424.968 263.599C425.43 261.748 425.749 259.818 427.676 258.163C430.837 255.45 434.415 250.243 435.146 250.1C436.424 249.793 435.969 253.584 434.005 255.474C430.864 258.491 431.959 259.821 431.959 259.821C431.959 259.821 435.267 260.607 435.875 262.156C436.15 262.86 437.62 266.209 435.648 268.561L435.643 268.564Z" fill="#EEA886"/>
<path d="M382.687 441.1L364.959 441.759C364.959 441.759 361.635 455.674 360.696 467.617C359.923 477.45 363.259 493.598 363.254 506.404C363.254 508.771 361.598 512.498 361.319 514.292C360.308 520.763 379.04 517.45 379.04 517.45C377.876 516.859 372.899 510.251 372.738 507.98C372.204 500.508 375.303 482.839 378.348 467.578C381.049 454.031 382.692 441.102 382.692 441.102L382.687 441.1Z" fill="#EEA886"/>
<path d="M332.168 433.62C332.168 433.62 328.567 455.613 327.626 467.555C326.852 477.386 329.062 491.854 329.057 504.657C329.057 507.024 327.401 510.753 327.122 512.545C326.111 519.016 329.914 514.294 331.708 516.088C333.502 517.882 336.079 516.773 336.079 516.773L345.769 516.973C345.769 516.973 345.41 516.451 343.34 515.663C342.371 515.127 338.602 508.507 338.541 506.231C337.804 479.367 361.181 436.069 361.181 436.069L332.17 433.617L332.168 433.62Z" fill="#EEA886"/>
<path d="M337.74 515.84C334.058 516.174 331.627 513.765 328.708 511.887C328.842 514.086 328.689 514.971 328.693 517.17C330.231 518.198 331.286 519.441 331.839 520.192C332.158 520.627 332.647 520.899 333.183 520.941L341.588 521.596C341.588 521.596 338.919 515.734 337.743 515.84H337.74Z" fill="#18161A"/>
<path d="M343.135 515.527C343.135 515.527 342.92 515.902 342.245 515.692C340.221 515.062 337.713 513.031 335.027 511.138C332.996 509.707 330.287 507.483 328.53 507.696C327.265 507.849 325.202 510.938 325.535 513.893C325.676 515.139 326.047 516.08 327.275 517.538C328.503 518.996 329.24 523.857 329.24 523.857L330.678 523.812C330.678 523.812 330.678 515.235 335.2 517.202C338.464 518.623 339.196 522.216 342.097 521.517C344.467 520.753 347.301 519.266 346.827 517.558C346.56 516.594 345.598 516.28 343.137 515.532L343.135 515.527Z" fill="#E62552"/>
<path d="M371.936 517.59C368.254 517.924 365.822 515.515 362.904 513.637C363.037 515.836 362.884 516.721 362.889 518.917C364.426 519.945 365.481 521.188 366.035 521.94C366.353 522.375 366.843 522.646 367.379 522.688L376.527 523.232C376.527 523.232 373.114 517.482 371.938 517.59H371.936Z" fill="#18161A"/>
<path d="M380.916 518.13C379.332 517.601 378.963 517.404 378.963 517.404C376.715 518.15 372.383 515.108 369.222 512.884C367.193 511.453 364.404 509.182 362.649 509.395C361.384 509.548 359.558 513.657 359.283 515.528C359.101 516.769 359.553 518.056 360.252 519.778C361.302 522.366 362.555 525.684 362.555 525.684L363.993 525.64C363.993 525.64 363.993 517.063 368.518 519.03C371.782 520.451 372.205 523.203 376.295 523.263C380.649 523.327 387.528 520.337 380.918 518.133L380.916 518.13Z" fill="#E62552"/>
<path d="M365.768 259.746C363.418 255.045 360.015 253.242 360.015 253.242L359.417 253.049L334.533 258.508C334.533 258.508 344.004 277.612 344.486 278.094C344.968 278.575 359.446 292.401 359.446 292.401C359.446 292.401 366.647 294.2 369.368 288.134C374.323 277.08 368.118 264.448 365.768 259.748V259.746Z" fill="#EEA886"/>
<path d="M344.701 317.357L328.09 319.757C327.514 321.195 320.318 346 322.043 351.464C323.768 356.927 335.723 369.263 342.623 372.14C349.522 375.013 349.811 364.378 349.811 364.378L336.707 348.303L344.701 317.36V317.357Z" fill="#CFDAFF"/>
<path d="M398.245 380.248C394.991 360.069 389.626 350.365 389.626 350.365C388.101 339.981 387.249 321.379 384.268 314.936L365.157 296.307L336.292 299.527C336.292 299.527 343.28 361.907 343.394 361.996C333.223 379.593 329.054 397.355 325.335 407.914C319.718 423.858 306.574 439.268 306.574 439.268C319.399 434.138 336.959 450.932 351.618 452.765C366.276 454.599 377.194 451.994 383.038 451.124C392.3 449.743 398.554 456.511 398.554 456.511C399.283 455.263 403.056 410.077 398.245 380.25V380.248Z" fill="white"/>
<path d="M421.004 267.541L401.48 299.829C401.48 299.829 380.278 296.023 374.239 295.593C365.987 295.003 364.31 296.826 364.31 296.826C364.31 296.826 365.98 321.223 379.213 321.864C378.259 319.8 404.048 318.589 411.555 313.709C419.065 308.828 430.115 277.996 429.999 277.522C422.181 272.505 420.999 267.541 420.999 267.541H421.004Z" fill="white"/>
<path d="M356.039 247.804C348.922 249.133 339.129 241.228 329.205 249.464C316.204 260.253 326.6 273.501 317.237 281.428C309.214 288.224 279.128 301.088 297.671 316.983C290.48 319.254 286.128 338.931 306.565 338.741C304.862 344.607 316.405 357.662 334.567 342.905C344.217 357.284 360.679 336.472 360.299 322.659C360.168 317.897 358.406 311.875 356.325 306.577C370.139 313.956 366.165 284.06 362.142 269.849C366.165 269.303 377.705 243.759 356.036 247.806L356.039 247.804Z" fill="#062440"/>
<path d="M511.569 457.917C509.061 458.713 506.372 457.316 505.577 454.808C504.781 452.3 506.177 449.611 508.685 448.816C511.193 448.02 513.882 449.416 514.678 451.924C515.473 454.433 514.077 457.121 511.569 457.917ZM512.419 460.603C516.417 459.338 518.629 455.07 517.364 451.074C516.098 447.076 511.831 444.864 507.835 446.13C503.837 447.395 501.625 451.663 502.89 455.658C504.156 459.657 508.423 461.868 512.419 460.603Z" fill="#49DEFF"/>
<path d="M840.971 361.3C837.976 362.248 834.766 360.583 833.817 357.588C832.868 354.593 834.534 351.383 837.529 350.434C840.524 349.485 843.733 351.151 844.682 354.146C845.631 357.141 843.966 360.351 840.971 361.3ZM841.986 364.507C846.758 362.995 849.402 357.902 847.89 353.13C846.378 348.358 841.285 345.714 836.513 347.227C831.741 348.739 829.097 353.832 830.609 358.604C832.122 363.375 837.215 366.019 841.986 364.507Z" fill="white"/>
<path d="M863.959 297.573C856.736 300.039 833.13 342.473 833.13 342.473L851.322 343.666L870.807 323.92L863.962 297.57L863.959 297.573Z" fill="#CFDAFF"/>
<path d="M888.28 507.502C881.551 516.48 865.024 510.971 865.57 523.112C890.702 522.956 901.147 523.112 901.147 523.112C901.115 520.325 900.618 513.704 900.037 511.115L888.28 507.504V507.502Z" fill="black"/>
<path d="M925.881 507.738C919.152 516.713 902.625 511.208 903.171 523.348C928.303 523.193 938.748 523.348 938.748 523.348C938.716 520.561 938.219 513.941 937.638 511.351L925.881 507.741V507.738Z" fill="black"/>
<path d="M873.829 370.088C873.829 370.088 869.794 427.917 871.452 440.707C873.11 453.498 881.752 469.975 881.087 512.281C889.279 514.265 901.147 512.281 901.147 512.281C901.147 512.281 902.907 464.445 894.246 443.077C897.767 422.322 909.067 374.785 909.067 374.785L873.827 370.088H873.829Z" fill="#201D40"/>
<path d="M898.753 372.114C898.753 372.114 899.129 435.957 903.161 448.207C907.194 460.458 915.033 469.196 922.335 510.874C930.754 511.282 942.877 511.455 942.877 511.455C942.877 511.455 938.565 457.891 925.453 445.869C925.008 424.823 930.418 371.711 930.418 371.711L898.753 372.114Z" fill="#2C2858"/>
<path d="M878.527 288.843L889.41 285.258L900.853 285.794L891.589 301.043L878.527 288.843Z" fill="#95A6DB"/>
<path d="M882.422 295.949C887.806 298.63 894.56 297.936 899.309 293.599L897.132 276.42L881.179 278.775L882.422 295.952V295.949Z" fill="#EEA886"/>
<path d="M905.071 291.098L901.478 290.549L900.853 285.795L893.395 295.23L890.909 296.23L888.245 295.931L878.531 288.842L879.204 293.591L876.431 294.842L866.334 298.941L878.418 357.423L878.791 376.853C893.763 378.294 909.613 377.201 924.425 371.59L919.359 351.83L917.194 292.467L905.076 291.098H905.071Z" fill="#95A6DB"/>
<path d="M888.936 302.647L890.707 348.694L895.331 353.103L899.423 348.533L892.459 302.373L888.936 302.647Z" fill="#E62552"/>
<path d="M885.555 297.363L889.639 295.996L894.394 296.461L892.471 302.461L888.943 302.802L885.555 297.363Z" fill="#E62552"/>
<path d="M877.842 291.066L884.018 342.616L883.336 413.883C883.336 413.883 881.379 418.87 872.972 413.883L863.821 297.59L877.842 291.066Z" fill="white"/>
<path d="M878.035 290.492L884.529 346.181L871.479 303.871L878.035 290.492Z" fill="#D4DEFF"/>
<path d="M901.219 286.269L911.815 414.475C911.815 414.475 935.772 419.815 942.877 413.882L931.529 359.302L916.527 286.143L901.219 286.269Z" fill="white"/>
<path d="M901.017 286.109L905.843 342.231L910.627 297.089L901.017 286.109Z" fill="#D4DEFF"/>
<path d="M900.875 262.467C901.006 274.487 893.457 284.312 884.018 284.416C874.578 284.517 866.821 274.857 866.69 262.838C866.559 250.818 874.106 240.993 883.548 240.889C892.988 240.788 900.745 250.448 900.875 262.467Z" fill="#EEA886"/>
<path d="M872.089 266.723C871.239 267.205 870.159 266.906 869.678 266.056C869.196 265.206 869.495 264.126 870.345 263.644C871.195 263.162 872.275 263.461 872.757 264.312C873.238 265.162 872.939 266.241 872.089 266.723Z" fill="black"/>
<path d="M885.26 263.556C884.998 264.503 884.02 265.056 883.073 264.797C882.127 264.535 881.571 263.556 881.833 262.61C882.095 261.664 883.073 261.108 884.02 261.369C884.966 261.631 885.522 262.61 885.26 263.556Z" fill="black"/>
<path d="M875.814 263.963C875.221 267.059 874.425 270.865 874.425 270.865C874.425 270.865 876.355 273.141 879.839 271.833C878.136 271.796 876.3 271.369 876.142 269.182C875.982 266.992 875.814 263.963 875.814 263.963Z" fill="#C07D5C"/>
<path d="M886.891 260.147C886.595 260.369 886.175 260.367 885.878 260.12C885.809 260.063 884.091 258.682 882.619 259.769C882.255 260.038 881.741 259.959 881.472 259.596C881.203 259.233 881.282 258.716 881.645 258.449C883.654 256.964 885.979 258.069 886.928 258.862C887.277 259.151 887.321 259.667 887.032 260.016C886.99 260.065 886.943 260.11 886.894 260.149L886.891 260.147Z" fill="#2C2858"/>
<path d="M867.8 264.173C868.163 264.242 868.541 264.06 868.702 263.706C868.739 263.625 869.685 261.633 871.482 261.972C871.926 262.056 872.354 261.764 872.438 261.319C872.522 260.874 872.225 260.444 871.786 260.363C869.329 259.901 867.718 261.907 867.209 263.032C867.024 263.444 867.207 263.929 867.617 264.116C867.676 264.144 867.738 264.163 867.8 264.176V264.173Z" fill="#2C2858"/>
<path d="M899.217 263.338C897.772 259.222 894.493 261.354 892.204 256.059C889.916 250.763 887.952 246.827 883.116 249.53C878.277 252.233 876.619 251.452 874.111 250.963C866.569 249.493 866.705 261.737 866.705 261.737C866.705 261.737 859.608 253.499 863.554 247.205C867.931 240.226 870.498 243.743 874.837 238.405C879.177 233.067 887.939 232.566 890.741 235.375C893.697 238.338 894.893 240.78 900.591 241.583C906.29 242.386 910.157 245.695 907.471 252.429C904.785 259.162 913.505 260.301 907.624 267.705C905.343 270.576 900.436 272.788 899.259 272.017C897.683 270.984 900.151 265.992 899.22 263.338H899.217Z" fill="#2C2858"/>
<path d="M867.518 269.252C867.518 269.252 869.69 274.742 871.36 276.183C871.185 273.418 875.591 274.985 877.481 274.419C882.053 273.052 887.811 268.211 891.485 274.335C897.507 273.638 897.693 260.309 897.693 260.309C903.655 272.78 898.293 283.631 884.074 287.493C874.706 290.039 867.468 279.121 867.515 269.252H867.518Z" fill="#2C2858"/>
<path d="M896.761 260.876C895.298 263.406 895.789 266.429 897.858 267.625C899.929 268.823 902.793 267.743 904.258 265.213C905.721 262.682 905.229 259.66 903.158 258.462C901.087 257.263 898.223 258.343 896.761 260.874V260.876Z" fill="#EEA886"/>
<path d="M900.277 266.056C900.18 266.049 900.084 266.019 899.998 265.967C898.735 265.209 898.159 264.013 898.461 262.767C898.769 261.495 899.901 260.509 901.152 260.427C901.505 260.405 901.809 260.672 901.831 261.023C901.853 261.376 901.586 261.68 901.236 261.702C900.551 261.747 899.876 262.347 899.701 263.069C899.533 263.761 899.872 264.401 900.655 264.873C900.956 265.053 901.055 265.446 900.872 265.75C900.744 265.965 900.509 266.076 900.274 266.059L900.277 266.056Z" fill="#C07D5C"/>
<path d="M881.173 278.21C880.81 278.381 880.432 278.514 880.039 278.613C877.153 279.337 874.632 277.81 874.528 277.743C874.202 277.541 874.101 277.111 874.301 276.784C874.504 276.458 874.931 276.357 875.257 276.557C875.279 276.569 877.402 277.845 879.71 277.259C881.215 276.876 882.498 275.786 883.521 274.014C883.713 273.681 884.138 273.567 884.472 273.76C884.806 273.953 884.919 274.378 884.727 274.711C883.755 276.387 882.562 277.56 881.168 278.21H881.173Z" fill="#EEA886"/>
<path d="M889.639 295.998L898.533 302.28L903.285 288.955L900.853 285.795L889.639 295.998Z" fill="white"/>
<path d="M889.639 295.998L884.166 303.297L877.032 292.541L878.527 288.844L889.639 295.998Z" fill="white"/>
<path d="M771.957 455.168H779.881V520.694C779.881 522.81 778.164 524.527 776.049 524.527H775.787C773.672 524.527 771.954 522.81 771.954 520.694V455.168H771.957Z" fill="#768FDB"/>
<path d="M799.762 455.168H807.687V520.694C807.687 522.81 805.969 524.527 803.854 524.527H803.592C801.477 524.527 799.759 522.81 799.759 520.694V455.168H799.762Z" fill="#768FDB"/>
<path d="M844.17 520.82C844.17 522.867 842.395 524.527 840.206 524.527C838.016 524.527 836.242 522.869 836.242 520.82V455.168H844.167V520.82H844.17Z" fill="#768FDB"/>
<path d="M864.05 455.168H871.975V520.694C871.975 522.81 870.258 524.527 868.143 524.527H867.881C865.765 524.527 864.048 522.81 864.048 520.694V455.168H864.05Z" fill="#768FDB"/>
<path d="M824.171 350.972V434.52C824.171 435.471 823.4 436.242 822.449 436.242H770.647C765.421 436.242 761.185 440.48 761.185 445.704C761.185 450.931 765.421 455.166 770.647 455.166H833.633C838.86 455.166 843.095 450.931 843.095 445.704V350.972C843.095 345.745 838.857 341.51 833.633 341.51C828.407 341.51 824.171 345.745 824.171 350.972Z" fill="#95A6DB"/>
<path d="M874.589 341.51H833.633V437.777H874.589V341.51Z" fill="#5E74BA"/>
<path d="M865.125 350.972V434.52C865.125 435.471 864.354 436.242 863.403 436.242H811.601C806.375 436.242 802.139 440.48 802.139 445.704C802.139 450.931 806.377 455.166 811.601 455.166H874.587C879.814 455.166 884.049 450.931 884.049 445.704V350.972C884.049 345.745 879.811 341.51 874.587 341.51C869.361 341.51 865.125 345.745 865.125 350.972Z" fill="#768FDB"/>
<path d="M800.51 337.98C790.072 341.151 784.878 363.127 780.433 386.128C774.428 394.01 767.988 398.337 758.576 407.631C764.954 409.077 771.702 407.384 771.702 407.384C771.702 407.384 789.042 407.532 796.564 391.139C798.286 387.388 798.872 379.839 799.848 376.483C800.276 365.963 800.508 337.983 800.508 337.983L800.51 337.98Z" fill="#CFDAFF"/>
<path d="M739.449 513.193L730.049 515.576L726.209 507.201C726.609 506.907 727.225 501.34 727.603 497.102L742.778 499.195C742.034 503.47 740.779 509.062 739.452 513.193H739.449Z" fill="#EEA886"/>
<path d="M722.858 518.131C722.858 518.131 719.606 512.665 715.487 512.322C715.487 512.322 707.713 512.767 704.987 516.036C704.13 517.061 704.461 519.253 704.8 520.657C705.012 521.532 705.753 522.483 708.052 523.207C711.444 524.275 716.021 524.929 724.455 522.742C734.572 520.121 736.185 521.2 739.924 519.995C743.799 518.747 742.553 514.01 741.496 509.398C741.496 509.398 738.676 515.042 722.861 518.131H722.858Z" fill="#201D40"/>
<path d="M725.955 506.381C725.955 506.381 721.44 509.117 715.537 510.471C712.233 511.23 703.431 512.937 704.849 518.806C705.062 519.681 705.803 520.632 708.101 521.356C711.494 522.424 716.073 523.079 724.504 520.892C734.621 518.27 736.235 519.35 739.974 518.144C743.848 516.896 742.059 511.521 741.004 506.908C740.908 508.079 740.366 511.151 733.339 513.903C731.241 514.726 732.956 505.472 725.96 506.381H725.955Z" fill="#2C2858"/>
<path d="M727.27 513.452C726.934 513.429 726.635 513.192 726.548 512.846C725.834 509.975 722.866 509.772 722.743 509.765C722.303 509.74 721.967 509.364 721.989 508.925C722.011 508.485 722.384 508.149 722.824 508.171C724.299 508.24 727.297 509.234 728.1 512.463C728.206 512.891 727.947 513.323 727.517 513.429C727.435 513.449 727.351 513.457 727.27 513.452Z" fill="#494C7F"/>
<path d="M723.56 514.94C723.224 514.918 722.925 514.681 722.839 514.335C722.124 511.463 719.157 511.261 719.031 511.253C718.593 511.229 718.255 510.853 718.277 510.413C718.302 509.973 718.672 509.637 719.112 509.657C720.587 509.726 723.582 510.72 724.385 513.949C724.492 514.377 724.232 514.812 723.805 514.918C723.723 514.938 723.639 514.945 723.558 514.94H723.56Z" fill="#494C7F"/>
<path d="M776.175 516.736L766.965 519.773L762.544 511.69C762.923 511.366 764.245 505.487 764.324 501.234L778.508 502.539C778.066 506.856 777.211 512.522 776.175 516.736Z" fill="#EEA886"/>
<path d="M791.464 411.884C770.464 415.72 740.638 429.323 737.697 432.417C731.621 438.81 728.646 460.793 725.779 499.948L744.157 501.173C750.94 470.586 757.323 457.249 758.366 444.827C758.366 444.827 774.47 445.941 798.704 436.588C810.65 431.977 823.099 426.6 819.516 415.806C816.662 407.207 811.487 408.225 791.464 411.882V411.884Z" fill="#201D40"/>
<path d="M814.952 413.716C797.504 415.517 774.233 435.484 771.29 438.578C765.214 444.971 764.448 466.798 761.581 505.953L779.872 507.641C782.833 487.355 791.489 464.114 791.464 449.218C791.464 449.218 807.835 445.67 833.179 439.969C847.042 436.851 851.201 434.703 853.852 425.651C854.754 422.572 855.978 415.436 854.594 413.844C848.473 406.799 831.464 412.011 814.95 413.718L814.952 413.716Z" fill="#2C2858"/>
<path d="M759.975 522.828C759.975 522.828 756.348 517.604 752.213 517.549C752.213 517.549 744.491 518.54 742 521.992C741.217 523.077 741.701 525.239 742.136 526.616C742.408 527.476 743.216 528.37 745.559 528.929C749.018 529.754 753.632 530.085 761.888 527.313C771.794 523.986 773.48 524.948 777.125 523.485C780.903 521.968 779.326 517.329 777.947 512.805C777.947 512.805 775.531 518.634 759.973 522.828H759.975Z" fill="#201D40"/>
<path d="M762.234 510.89C762.234 510.89 757.922 513.935 752.129 515.704C748.887 516.692 740.226 519.015 742.055 524.77C742.326 525.63 743.134 526.525 745.477 527.086C748.937 527.911 753.55 528.242 761.806 525.47C771.713 522.144 773.398 523.105 777.043 521.642C780.821 520.125 778.659 514.888 777.28 510.361C777.268 511.535 776.942 514.639 770.126 517.878C768.09 518.845 769.15 509.496 762.236 510.895L762.234 510.89Z" fill="#2C2858"/>
<path d="M765.587 518.159C765.251 518.137 764.952 517.899 764.865 517.553C764.151 514.682 761.183 514.479 761.06 514.472C760.62 514.447 760.284 514.072 760.306 513.632C760.328 513.192 760.702 512.856 761.141 512.878C762.617 512.947 765.614 513.941 766.417 517.17C766.524 517.598 766.264 518.033 765.834 518.137C765.75 518.156 765.669 518.164 765.587 518.159Z" fill="#494C7F"/>
<path d="M761.88 519.647C761.544 519.624 761.245 519.387 761.158 519.044C760.444 516.172 757.476 515.97 757.35 515.962C756.911 515.937 756.575 515.562 756.597 515.122C756.621 514.682 756.992 514.346 757.432 514.368C758.907 514.437 761.905 515.431 762.708 518.661C762.814 519.088 762.555 519.521 762.125 519.629C762.043 519.649 761.959 519.656 761.877 519.651L761.88 519.647Z" fill="#494C7F"/>
<path d="M826.472 320.393H826.465L819.504 320.417L817.925 336.86L826.052 341.15L834.718 336.907L833.317 320.417L826.472 320.393Z" fill="#EEA886"/>
<path d="M827.135 318.115C833.261 319.835 837.775 312.375 837.775 312.375C841.697 312.343 841.65 308.433 841.65 308.433C843.55 308.161 846.273 306.592 846.039 303.009C845.839 299.975 842.942 299.663 843.11 296.172C843.246 293.372 846.281 286.93 837.573 285.029C837.573 285.029 838.158 279.877 833.07 277.826C826.831 275.313 824.622 278.95 821.674 279.205C818.382 279.489 812.024 275.506 809.985 282.704C809.985 282.704 805.443 282.101 802.846 285.069C800.427 287.834 800.948 291.934 802.026 293.579C802.026 293.579 798.203 294.247 796.831 297.553C795.912 299.77 796.342 302.891 798.411 304.695C799.728 305.844 801.102 306.145 801.102 306.145C802.547 306.62 802.018 310.603 803.202 311.574C805.105 313.133 807.245 314.359 809.451 315.409L827.132 318.115H827.135Z" fill="#2C2858"/>
<path d="M838.549 308.412C838.148 319.937 829.119 329.868 820.067 329.554C811.016 329.241 805.372 318.795 805.772 307.272C806.172 295.747 813.835 286.661 822.887 286.975C831.939 287.289 838.952 296.886 838.549 308.412Z" fill="#EEA886"/>
<path d="M811.038 311.464C810.813 312.304 809.948 312.804 809.108 312.579C808.268 312.354 807.768 311.489 807.993 310.649C808.218 309.809 809.083 309.31 809.923 309.534C810.763 309.759 811.263 310.624 811.038 311.464Z" fill="black"/>
<path d="M824.058 310.984C823.813 311.893 822.879 312.434 821.97 312.19C821.06 311.945 820.519 311.011 820.764 310.102C821.009 309.192 821.943 308.654 822.852 308.896C823.761 309.14 824.303 310.075 824.058 310.984Z" fill="black"/>
<path d="M816.072 311.406C814.639 313.707 812.82 316.517 812.82 316.517C812.82 316.517 813.665 318.941 816.865 318.97C815.511 318.412 814.169 317.502 814.72 315.696C815.269 313.89 816.074 311.406 816.074 311.406H816.072Z" fill="#C07D5C"/>
<path d="M825.573 307.745C825.63 307.725 825.684 307.698 825.739 307.664C826.102 307.426 826.203 306.94 825.966 306.576C825.316 305.585 823.49 303.922 821.231 304.723C820.821 304.876 820.609 305.319 820.754 305.726C820.9 306.134 821.35 306.349 821.758 306.203C823.431 305.61 824.639 307.416 824.651 307.436C824.854 307.748 825.24 307.866 825.576 307.745H825.573Z" fill="#2C2858"/>
<path d="M810.61 307.32C810.716 307.283 810.813 307.217 810.892 307.123C811.124 306.846 811.087 306.431 810.808 306.201C810.763 306.164 809.725 305.314 808.421 305.529C807.529 305.675 806.763 306.26 806.145 307.269C805.957 307.577 806.053 307.98 806.36 308.171C806.669 308.358 807.071 308.262 807.262 307.953C807.672 307.283 808.134 306.903 808.631 306.821C809.34 306.705 809.96 307.202 809.968 307.207C810.153 307.36 810.398 307.397 810.61 307.32Z" fill="#2C2858"/>
<path d="M802.92 295.776L822.284 283.074L842.34 297.424L837.296 312.688C837.835 305.366 833.046 307.034 831.074 304.57C829.075 302.075 828.568 298.573 822.657 300.711C822.657 300.711 818.681 296.989 815.758 300.95C813.497 304.012 811.204 303.014 808.797 302.831C805.957 302.613 806.214 305.443 804.512 305.097L802.918 295.776H802.92Z" fill="#2C2858"/>
<path d="M835.999 307.507C834.225 309.558 834.148 312.397 835.826 313.848C837.504 315.301 840.304 314.814 842.078 312.763C843.852 310.712 843.929 307.873 842.251 306.422C840.573 304.971 837.773 305.456 835.999 307.507Z" fill="#EEA886"/>
<path d="M838.302 312.839C838.215 312.817 838.134 312.772 838.062 312.708C837.044 311.796 836.728 310.608 837.217 309.525C837.719 308.418 838.922 307.719 840.076 307.86C840.4 307.899 840.632 308.196 840.593 308.522C840.553 308.846 840.257 309.078 839.933 309.038C839.3 308.959 838.581 309.389 838.297 310.017C838.023 310.62 838.22 311.26 838.853 311.826C839.098 312.043 839.117 312.419 838.9 312.664C838.744 312.837 838.512 312.898 838.302 312.839Z" fill="#C07D5C"/>
<path d="M813.323 323.351C813.01 323.015 813.244 322.469 813.707 322.472C814.875 322.479 816.805 322.449 818.624 322.244C820.445 322.037 822.331 321.634 823.467 321.365C823.915 321.258 824.268 321.738 824.036 322.136C823.327 323.359 821.792 325.269 819.002 325.585C816.212 325.902 814.287 324.384 813.323 323.351Z" fill="white"/>
<path d="M821.941 314.414C819.828 314.414 818.017 313.109 817.718 311.248C817.552 310.215 817.871 309.173 818.612 308.315C819.334 307.48 820.376 306.919 821.545 306.731C822.714 306.543 823.881 306.753 824.827 307.322C825.801 307.905 826.428 308.797 826.594 309.83C826.93 311.93 825.212 313.957 822.764 314.35C822.487 314.394 822.21 314.416 821.938 314.416L821.941 314.414ZM822.383 307.653C822.158 307.653 821.933 307.67 821.706 307.707C820.764 307.858 819.934 308.303 819.363 308.963C818.815 309.598 818.578 310.354 818.696 311.095C818.946 312.657 820.703 313.68 822.61 313.376C824.521 313.069 825.87 311.552 825.62 309.99C825.502 309.249 825.039 308.604 824.32 308.172C823.754 307.833 823.082 307.655 822.383 307.655V307.653Z" fill="black"/>
<path d="M810.03 314.979C809.738 314.979 809.444 314.955 809.147 314.905C807.964 314.707 806.911 314.129 806.187 313.279C805.441 312.404 805.127 311.347 805.302 310.301C805.658 308.176 807.961 306.785 810.437 307.2C811.621 307.398 812.674 307.976 813.398 308.826C814.144 309.701 814.458 310.759 814.282 311.804C814.107 312.849 813.467 313.749 812.476 314.332C811.754 314.759 810.907 314.979 810.03 314.979ZM809.56 308.115C807.912 308.115 806.508 309.076 806.276 310.465C806.15 311.218 806.385 311.989 806.938 312.639C807.512 313.314 808.354 313.771 809.311 313.932C810.267 314.092 811.211 313.932 811.974 313.482C812.708 313.047 813.183 312.395 813.309 311.641C813.435 310.89 813.2 310.116 812.647 309.466C812.073 308.792 811.231 308.334 810.274 308.174C810.032 308.134 809.795 308.115 809.56 308.115Z" fill="black"/>
<path d="M818.177 310.043H813.677V311.031H818.177V310.043Z" fill="black"/>
<path d="M826.107 310.402C825.838 310.402 825.615 310.185 825.613 309.915C825.61 309.658 825.803 309.446 826.053 309.419C826.549 309.32 832.327 307.568 836.118 306.406C836.379 306.327 836.654 306.473 836.735 306.735C836.814 306.997 836.669 307.271 836.407 307.353C826.46 310.4 826.198 310.405 826.112 310.405C826.112 310.405 826.107 310.405 826.105 310.405L826.107 310.402ZM826.1 309.414C826.1 309.414 826.077 309.414 826.06 309.414C826.072 309.414 826.087 309.414 826.1 309.414Z" fill="black"/>
<path d="M854.592 414.158C854.592 414.158 840.024 415.66 826.371 415.752C812.721 415.65 798.151 413.004 798.151 413.004C798.151 413.004 799.985 387.934 799.8 378.305C799.533 367.249 800.509 352.59 800.509 337.981C800.509 337.981 810.191 336.422 815.654 335.749C816.541 335.638 817.317 335.554 817.923 335.502C817.923 335.502 821.034 342.031 834.595 335.502C835.307 335.431 836.189 335.436 837.175 335.492C842.871 335.833 852.046 337.983 852.046 337.983C852.046 352.553 852.634 366.834 852.439 377.889C853.045 387.752 854.589 414.16 854.589 414.16L854.592 414.158Z" fill="#55699F"/>
<path d="M815.098 335.818C814.841 337.222 803.723 413.881 803.723 413.881L798.153 413.004L800.511 337.981C800.511 337.981 807.138 336.014 815.098 335.818Z" fill="white"/>
<path d="M852.051 337.979C852.051 337.979 846.461 336.202 837.18 335.488C837.18 336.202 830.935 449.846 830.935 449.846L859.832 447.637L852.048 337.979H852.051Z" fill="white"/>
<path d="M818.676 369.564L815.37 367.649C815.37 367.649 814.456 362.961 809.148 362.848C809.755 364.815 810.63 367.649 810.63 367.649C810.63 367.649 808.018 369.678 801.823 366.206C795.767 364.844 798.354 369.26 796.347 369.579C793.384 370.046 798.507 375.868 804.554 376.758C812.38 377.909 813.306 376.308 813.306 376.308L817.735 377.855L818.676 369.564Z" fill="#EEA886"/>
<path d="M849.261 374.57C838.215 373.799 819.37 368.343 819.37 368.343C816.356 372.969 817.188 379.112 817.188 379.112C834.343 394.151 860.161 399.014 868.084 395.394C875.316 392.09 870.211 348.065 852.051 337.98L851.421 338.04C845.196 348.572 849.259 374.573 849.259 374.573L849.261 374.57Z" fill="#CFDAFF"/>
<path d="M837.18 335.489C836.236 337.066 834.901 338.257 833.021 339.203C830.041 340.706 825.99 341.346 823.497 341.15C821.523 340.995 819.333 340.189 817.93 339.077C816.44 337.893 815.792 336.386 815.659 335.746C816.546 335.635 817.458 335.499 818.066 335.445C818.066 335.445 821.041 342.028 834.602 335.497C835.314 335.425 836.196 335.43 837.182 335.487L837.18 335.489Z" fill="#173D7A"/>
<path d="M428.866 412.734H428.707C426.31 412.734 424.366 414.678 424.366 417.076V520.183C424.366 522.581 426.31 524.525 428.707 524.525H428.866C431.264 524.525 433.207 522.581 433.207 520.183V417.076C433.207 414.678 431.264 412.734 428.866 412.734Z" fill="#2C4695"/>
<path d="M904.209 412.734H904.37C906.766 412.734 908.711 414.679 908.711 417.076V520.183C908.711 522.58 906.766 524.525 904.37 524.525H904.211C901.814 524.525 899.87 522.58 899.87 520.183V417.076C899.87 414.679 901.814 412.734 904.211 412.734H904.209Z" fill="#4F66AC"/>
<path d="M910.666 415.751H415.472C412.672 415.751 410.401 413.48 410.401 410.68C410.401 407.88 412.672 405.609 415.472 405.609H910.666C913.466 405.609 915.737 407.88 915.737 410.68C915.737 413.48 913.466 415.751 910.666 415.751Z" fill="#2D4797"/>
<path d="M804.884 405.702H746.494L734.969 369.056C734.438 367.363 735.701 365.641 737.475 365.641H790.359C791.506 365.641 792.521 366.384 792.865 367.479L804.887 405.702H804.884Z" fill="#B5B5B5"/>
<path d="M800.457 405.702H742.067L730.541 369.056C730.01 367.363 731.273 365.641 733.047 365.641H785.931C787.078 365.641 788.094 366.384 788.437 367.479L800.459 405.702H800.457Z" fill="#D2D2D2"/>
<path d="M766.081 386.394C766.723 388.657 765.579 390.965 763.523 391.551C761.467 392.134 759.28 390.772 758.638 388.509C757.995 386.245 759.139 383.937 761.195 383.352C763.251 382.769 765.438 384.13 766.083 386.394H766.081Z" fill="white"/>
<path d="M838.059 401.879H800.457V405.613H841.793C841.793 403.549 840.12 401.879 838.059 401.879Z" fill="#B5B5B5"/>
<path d="M865.769 367.824C868.381 366.576 871.299 365.842 872.188 362.113C872.188 362.113 879.256 360.235 886.659 358.587C886.659 358.587 877.645 350.326 877.637 350.328C874.707 351.319 869.3 354.971 865.991 355.055C865.131 355.078 864.269 355.055 863.406 355.065C861.303 355.048 859.114 354.801 856.86 356.461C848.154 362.876 844.749 361.787 844.396 362.528C844.104 363.682 846.447 365.889 850.883 363.67C855.175 361.522 857.453 361.488 857.453 361.488C857.453 361.488 857.382 365.234 858.869 366.309C859.546 366.796 862.717 369.284 865.769 367.826V367.824Z" fill="#EEA886"/>
<path d="M874.307 350.022C874.307 350.022 897.412 338.879 914.976 335.272C912.55 326.482 916.511 285.869 916.511 285.869C916.511 285.869 928.375 288.78 934.266 310.778C940.157 332.776 926.647 355.164 926.647 355.164C926.647 355.164 890.221 365.288 877.193 361.584C875.149 361.003 874.312 350.022 874.312 350.022H874.307Z" fill="#CFDAFF"/>
<path opacity="0.5" d="M676.677 371.194C686.877 371.194 695.146 362.925 695.146 352.725C695.146 342.525 686.877 334.256 676.677 334.256C666.476 334.256 658.208 342.525 658.208 352.725C658.208 362.925 666.476 371.194 676.677 371.194Z" fill="white"/>
<path d="M693.302 352.725C693.302 361.907 685.859 369.35 676.676 369.35C667.494 369.35 660.051 361.907 660.051 352.725H693.302Z" fill="#F5A3B7"/>
<path d="M695.054 363.852H660.5C659.517 363.852 658.719 363.054 658.719 362.071C658.719 361.087 659.517 360.289 660.5 360.289H695.054C696.038 360.289 696.836 361.087 696.836 362.071C696.836 363.054 696.038 363.852 695.054 363.852Z" fill="#201D40"/>
<path d="M646.966 405.731C646.808 405.731 646.648 405.706 646.489 405.654C645.681 405.392 645.241 404.525 645.503 403.717L660.464 363.376C660.725 362.568 661.595 362.128 662.401 362.39C663.209 362.652 663.649 363.519 663.387 364.327L648.427 404.668C648.214 405.318 647.614 405.731 646.966 405.731Z" fill="#201D40"/>
<path d="M707.877 405.731C707.237 405.731 706.639 405.328 706.421 404.69L690.747 364.349C690.473 363.546 690.902 362.671 691.706 362.397C692.509 362.123 693.384 362.553 693.658 363.356L709.332 403.697C709.606 404.5 709.176 405.375 708.373 405.649C708.21 405.706 708.042 405.731 707.877 405.731Z" fill="#201D40"/>
<path d="M677.776 405.633C676.926 405.633 676.239 404.944 676.239 404.096V362.072C676.239 361.222 676.929 360.535 677.776 360.535C678.624 360.535 679.313 361.225 679.313 362.072V404.096C679.313 404.946 678.624 405.633 677.776 405.633Z" fill="#201D40"/>
<g opacity="0.5">
<path d="M697.699 324.021L689.32 319.199L680.13 335.168L688.509 339.99L697.699 324.021Z" fill="white"/>
<path d="M696.934 324.839L689 320.379C688.026 319.831 687.68 318.597 688.226 317.624L688.315 317.463C688.864 316.49 690.097 316.144 691.07 316.692L699.005 321.153C699.979 321.699 700.325 322.934 699.779 323.908L699.69 324.069C699.141 325.042 697.908 325.388 696.934 324.842V324.839Z" fill="white"/>
</g>
<path d="M671.903 345.068C671.903 345.758 671.344 346.316 670.655 346.316C669.965 346.316 669.407 345.758 669.407 345.068C669.407 344.379 669.965 343.82 670.655 343.82C671.344 343.82 671.903 344.379 671.903 345.068Z" fill="#F5A3B7"/>
<path d="M677.398 338.722C677.398 339.119 677.074 339.443 676.676 339.443C676.278 339.443 675.955 339.119 675.955 338.722C675.955 338.324 676.278 338 676.676 338C677.074 338 677.398 338.324 677.398 338.722Z" fill="#F5A3B7"/>
<path d="M691.387 329.505C691.387 329.903 691.063 330.226 690.665 330.226C690.267 330.226 689.943 329.903 689.943 329.505C689.943 329.107 690.267 328.783 690.665 328.783C691.063 328.783 691.387 329.107 691.387 329.505Z" fill="#F5A3B7"/>
<path d="M688.279 347.061C688.279 347.459 687.955 347.783 687.557 347.783C687.159 347.783 686.835 347.459 686.835 347.061C686.835 346.664 687.159 346.34 687.557 346.34C687.955 346.34 688.279 346.664 688.279 347.061Z" fill="#F5A3B7"/>
<path d="M676.239 349.404C676.239 349.99 675.764 350.464 675.179 350.464C674.593 350.464 674.119 349.99 674.119 349.404C674.119 348.818 674.593 348.344 675.179 348.344C675.764 348.344 676.239 348.818 676.239 349.404Z" fill="#F5A3B7"/>
<path d="M686.195 334.583C686.195 335.179 685.713 335.661 685.117 335.661C684.522 335.661 684.04 335.179 684.04 334.583C684.04 333.988 684.522 333.506 685.117 333.506C685.713 333.506 686.195 333.988 686.195 334.583Z" fill="#F5A3B7"/>
<path d="M683.702 345.07C683.702 345.789 683.119 346.373 682.397 346.373C681.675 346.373 681.092 345.789 681.092 345.07C681.092 344.351 681.675 343.766 682.397 343.766C683.119 343.766 683.702 344.349 683.702 345.07Z" fill="#F5A3B7"/>
<path opacity="0.5" d="M546.565 399.9L531.21 370.541V348.43C531.961 348.43 532.571 347.822 532.571 347.068V346.381C532.571 345.63 531.961 345.02 531.21 345.02H523.043C522.291 345.02 521.681 345.63 521.681 346.381V347.068C521.681 347.819 522.291 348.43 523.043 348.43V370.541L507.687 399.9C506.395 402.372 507.949 405.512 510.465 405.512H543.788C546.303 405.512 547.858 402.372 546.565 399.9Z" fill="white"/>
<path d="M536.164 384.635H518.088L510.922 398.337C509.845 400.396 511.139 403.015 513.237 403.015H541.015C543.111 403.015 544.408 400.398 543.331 398.337L536.164 384.635Z" fill="#3F964F"/>
<path d="M525.408 341.87H528.805C529.631 341.87 530.3 342.539 530.3 343.365V345.018H523.91V343.365C523.91 342.539 524.58 341.867 525.408 341.867V341.87Z" fill="#F37A50"/>
<path opacity="0.5" d="M492.868 381.967L479.749 352.479V341.833C480.391 341.833 480.913 341.126 480.913 340.257V339.985C480.913 339.115 480.391 338.408 479.749 338.408H472.77C472.128 338.408 471.607 339.115 471.607 339.985V340.257C471.607 341.126 472.128 341.833 472.77 341.833V352.479L459.651 381.967C458.547 384.448 459.876 387.601 462.024 387.601H490.493C492.643 387.601 493.97 384.448 492.865 381.967H492.868Z" fill="white"/>
<path d="M485.737 371.74H466.267L462.417 380.394C461.498 382.462 462.605 385.092 464.394 385.092H488.126C489.918 385.092 491.025 382.462 490.103 380.394L485.734 371.74H485.737Z" fill="#3F964F"/>
<path d="M473.799 368.181C473.799 369.071 473.077 369.793 472.187 369.793C471.298 369.793 470.576 369.071 470.576 368.181C470.576 367.292 471.298 366.57 472.187 366.57C473.077 366.57 473.799 367.292 473.799 368.181Z" fill="#8CBF95"/>
<path d="M477.184 363.598C477.184 364.107 476.772 364.522 476.26 364.522C475.749 364.522 475.336 364.11 475.336 363.598C475.336 363.087 475.749 362.674 476.26 362.674C476.772 362.674 477.184 363.089 477.184 363.598Z" fill="#8CBF95"/>
<path d="M481.684 370.446C481.684 370.957 481.271 371.37 480.76 371.37C480.248 371.37 479.835 370.957 479.835 370.446C479.835 369.934 480.248 369.521 480.76 369.521C481.271 369.521 481.684 369.934 481.684 370.446Z" fill="#8CBF95"/>
<path d="M475.336 358.504C475.336 359.016 474.921 359.428 474.411 359.428C473.902 359.428 473.487 359.016 473.487 358.504C473.487 357.993 473.9 357.58 474.411 357.58C474.923 357.58 475.336 357.993 475.336 358.504Z" fill="#8CBF95"/>
<path d="M453.115 405.552H496.241C499.276 405.552 501.737 403.091 501.737 400.056C501.737 397.019 499.276 394.561 496.241 394.561H453.115C450.081 394.561 447.62 397.022 447.62 400.056C447.62 403.091 450.081 405.552 453.115 405.552Z" fill="#201D40"/>
<path d="M455.68 397.941H452.668C452.45 397.941 452.272 397.763 452.272 397.546V338.242C452.272 337.216 453.105 336.386 454.128 336.386H454.219C455.245 336.386 456.075 337.219 456.075 338.242V397.546C456.075 397.763 455.897 397.941 455.68 397.941Z" fill="#201D40"/>
<path d="M449.31 347.24H487.363C488.297 347.24 489.053 346.484 489.053 345.55C489.053 344.616 488.297 343.859 487.363 343.859H449.31C448.376 343.859 447.62 344.616 447.62 345.55C447.62 346.484 448.376 347.24 449.31 347.24Z" fill="#201D40"/>
<path d="M449.759 345.723C449.759 348.058 451.652 349.953 453.987 349.953C456.323 349.953 458.218 348.06 458.218 345.723C458.218 343.385 456.325 341.492 453.987 341.492C451.65 341.492 449.759 343.385 449.759 345.723Z" fill="#201D40"/>
<path d="M510.504 364.332H513.902C514.727 364.332 515.399 365.002 515.399 365.83V367.483H509.009V365.83C509.009 365.004 509.678 364.335 510.504 364.335V364.332Z" fill="#F37A50"/>
<path opacity="0.5" d="M529.602 401.156L515.858 378.36V370.131C516.53 370.131 517.076 369.585 517.076 368.913V368.703C517.076 368.031 516.53 367.484 515.858 367.484H508.549C507.876 367.484 507.33 368.031 507.33 368.703V368.913C507.33 369.585 507.876 370.131 508.549 370.131V378.36L494.804 401.156C493.648 403.073 495.039 405.512 497.29 405.512H527.119C529.37 405.512 530.761 403.073 529.605 401.156H529.602Z" fill="white"/>
<path d="M520.291 389.303H504.11L497.695 399.941C496.732 401.54 497.891 403.571 499.769 403.571H524.633C526.509 403.571 527.67 401.54 526.704 399.941L520.289 389.303H520.291Z" fill="#E62552"/>
<path d="M435.173 354.201H438.571C439.396 354.201 440.066 354.871 440.066 355.696V357.349H433.675V355.696C433.675 354.871 434.345 354.201 435.17 354.201H435.173Z" fill="#F37A50"/>
<path opacity="0.5" d="M454.524 401.342L440.58 377.809V360.084C441.262 360.084 441.815 359.531 441.815 358.849V358.589C441.815 357.907 441.262 357.354 440.58 357.354H433.164C432.482 357.354 431.928 357.907 431.928 358.589V358.849C431.928 359.531 432.482 360.084 433.164 360.084V377.809L419.219 401.342C418.046 403.321 419.457 405.839 421.742 405.839H452.004C454.287 405.839 455.698 403.321 454.527 401.342H454.524Z" fill="white"/>
<path d="M445.079 389.105H428.664L422.157 400.087C421.179 401.738 422.355 403.836 424.26 403.836H449.485C451.388 403.836 452.564 401.738 451.588 400.087L445.082 389.105H445.079Z" fill="#F5A3B7"/>
<path d="M702.504 356.426H700.557C699.825 356.426 699.232 357.019 699.232 357.75V361.022H703.829V357.75C703.829 357.019 703.236 356.426 702.504 356.426Z" fill="#F37A50"/>
<path opacity="0.5" d="M705.274 360.775H697.787C697.06 360.775 696.465 361.371 696.465 362.097V362.868C696.465 363.595 697.06 364.19 697.787 364.19H698.392V397.743C698.392 399.49 699.811 400.909 701.558 400.909C703.305 400.909 704.723 399.493 704.723 397.743V364.19H705.274C706.001 364.19 706.596 363.595 706.596 362.868V362.097C706.596 361.371 706.001 360.775 705.274 360.775Z" fill="white"/>
<path d="M699.106 382.553V397.535C699.106 398.872 700.191 399.957 701.528 399.957C702.865 399.957 703.95 398.872 703.95 397.535V382.553H699.106Z" fill="#2BBF86"/>
<path d="M729.027 356.426H727.079C726.348 356.426 725.755 357.019 725.755 357.75V361.022H730.351V357.75C730.351 357.019 729.758 356.426 729.027 356.426Z" fill="#F37A50"/>
<path opacity="0.5" d="M732.026 360.775H724.539C723.812 360.775 723.217 361.371 723.217 362.097V362.868C723.217 363.595 723.812 364.19 724.539 364.19H725.144V397.743C725.144 399.49 726.56 400.909 728.31 400.909C730.059 400.909 731.475 399.493 731.475 397.743V364.19H732.026C732.753 364.19 733.348 363.595 733.348 362.868V362.097C733.348 361.371 732.753 360.775 732.026 360.775Z" fill="white"/>
<path d="M725.807 380.098L725.861 397.534C725.861 398.871 726.946 399.956 728.283 399.956C729.62 399.956 730.704 398.871 730.704 397.534L730.65 380.098H725.807Z" fill="#2BBF86"/>
<path opacity="0.5" d="M718.65 360.773H711.162C710.436 360.773 709.84 361.369 709.84 362.095V362.866C709.84 363.593 710.436 364.189 711.162 364.189H711.768V397.741C711.768 399.488 713.186 400.907 714.933 400.907C716.68 400.907 718.099 399.491 718.099 397.741V364.189H718.65C719.376 364.189 719.972 363.593 719.972 362.866V362.095C719.972 361.369 719.376 360.773 718.65 360.773Z" fill="white"/>
<path d="M712.539 375.018L712.485 397.534C712.485 398.871 713.57 399.956 714.907 399.956C716.243 399.956 717.328 398.871 717.328 397.534L717.383 375.018H712.539Z" fill="#FF5566"/>
<path d="M715.907 356.096H713.96C713.229 356.096 712.636 356.689 712.636 357.42V360.692H717.232V357.42C717.232 356.689 716.639 356.096 715.907 356.096Z" fill="#F37A50"/>
<path d="M740.922 369.251H687.546C687.18 369.251 686.886 368.955 686.886 368.591C686.886 368.226 687.183 367.932 687.546 367.932H740.922C741.288 367.932 741.582 368.228 741.582 368.591C741.582 368.957 741.285 369.251 740.922 369.251Z" fill="#201D40"/>
<path d="M691.703 369.254H690.546V403.135H691.703V369.254Z" fill="#201D40"/>
<path d="M737.923 369.254H736.766V403.135H737.923V369.254Z" fill="#201D40"/>
<path d="M739.684 405.611H688.784C688.099 405.611 687.546 405.057 687.546 404.373C687.546 403.688 688.099 403.135 688.784 403.135H739.684C740.368 403.135 740.922 403.688 740.922 404.373C740.922 405.057 740.368 405.611 739.684 405.611Z" fill="#201D40"/>
</g>
<path d="M302.545 69.5586C301.842 69.5586 301.227 69.5176 300.699 69.4355C300.16 69.3652 299.703 69.2773 299.328 69.1719V64.6367C299.703 64.7188 300.107 64.7949 300.541 64.8652C300.963 64.9473 301.414 64.9883 301.895 64.9883C302.527 64.9883 303.096 64.8652 303.6 64.6191C304.104 64.3848 304.502 63.9336 304.795 63.2656C305.088 62.5977 305.234 61.6367 305.234 60.3828V36.3008H310.684V60.3477C310.684 62.5508 310.338 64.3262 309.646 65.6738C308.967 67.0332 308.012 68.0176 306.781 68.627C305.562 69.248 304.15 69.5586 302.545 69.5586ZM334.766 42.3477V62H330.652L329.932 59.4863H329.65C329.229 60.1543 328.701 60.6992 328.068 61.1211C327.436 61.543 326.738 61.8535 325.977 62.0527C325.215 62.252 324.424 62.3516 323.604 62.3516C322.197 62.3516 320.973 62.1055 319.93 61.6133C318.887 61.1094 318.072 60.3301 317.486 59.2754C316.912 58.2207 316.625 56.8496 316.625 55.1621V42.3477H321.986V53.8262C321.986 55.2324 322.238 56.293 322.742 57.0078C323.246 57.7227 324.049 58.0801 325.15 58.0801C326.24 58.0801 327.096 57.834 327.717 57.3418C328.338 56.8379 328.771 56.1055 329.018 55.1445C329.275 54.1719 329.404 52.9883 329.404 51.5938V42.3477H334.766ZM354.102 56.1641C354.102 57.5 353.785 58.6309 353.152 59.5566C352.531 60.4707 351.6 61.168 350.357 61.6484C349.115 62.1172 347.568 62.3516 345.717 62.3516C344.346 62.3516 343.168 62.2637 342.184 62.0879C341.211 61.9121 340.227 61.6191 339.23 61.209V56.7793C340.297 57.2598 341.439 57.6582 342.658 57.9746C343.889 58.2793 344.967 58.4316 345.893 58.4316C346.936 58.4316 347.68 58.2793 348.125 57.9746C348.582 57.6582 348.811 57.248 348.811 56.7441C348.811 56.416 348.717 56.123 348.529 55.8652C348.354 55.5957 347.967 55.2969 347.369 54.9688C346.771 54.6289 345.834 54.1895 344.557 53.6504C343.326 53.1348 342.312 52.6133 341.516 52.0859C340.73 51.5586 340.145 50.9375 339.758 50.2227C339.383 49.4961 339.195 48.5762 339.195 47.4629C339.195 45.6465 339.898 44.2812 341.305 43.3672C342.723 42.4414 344.615 41.9785 346.982 41.9785C348.201 41.9785 349.361 42.1016 350.463 42.3477C351.576 42.5938 352.719 42.9863 353.891 43.5254L352.273 47.3926C351.301 46.9707 350.381 46.625 349.514 46.3555C348.658 46.0859 347.785 45.9512 346.895 45.9512C346.109 45.9512 345.518 46.0566 345.119 46.2676C344.721 46.4785 344.521 46.8008 344.521 47.2344C344.521 47.5508 344.621 47.832 344.82 48.0781C345.031 48.3242 345.43 48.5996 346.016 48.9043C346.613 49.1973 347.486 49.5781 348.635 50.0469C349.748 50.5039 350.715 50.9844 351.535 51.4883C352.355 51.9805 352.988 52.5957 353.434 53.334C353.879 54.0605 354.102 55.0039 354.102 56.1641ZM366.564 58.0801C367.15 58.0801 367.719 58.0215 368.27 57.9043C368.832 57.7871 369.389 57.6406 369.939 57.4648V61.4551C369.365 61.7129 368.65 61.9238 367.795 62.0879C366.951 62.2637 366.025 62.3516 365.018 62.3516C363.846 62.3516 362.791 62.1641 361.854 61.7891C360.928 61.4023 360.195 60.7402 359.656 59.8027C359.129 58.8535 358.865 57.5352 358.865 55.8477V46.373H356.299V44.1055L359.252 42.3125L360.799 38.1641H364.227V42.3477H369.729V46.373H364.227V55.8477C364.227 56.5977 364.438 57.1602 364.859 57.5352C365.293 57.8984 365.861 58.0801 366.564 58.0801ZM384.266 62H378.816V40.8359H371.838V36.3008H391.244V40.8359H384.266V62ZM405.746 41.9785C406.016 41.9785 406.326 41.9961 406.678 42.0312C407.041 42.0547 407.334 42.0898 407.557 42.1367L407.152 47.1641C406.977 47.1055 406.725 47.0645 406.396 47.041C406.08 47.0059 405.805 46.9883 405.57 46.9883C404.879 46.9883 404.205 47.0762 403.549 47.252C402.904 47.4277 402.324 47.7148 401.809 48.1133C401.293 48.5 400.883 49.0156 400.578 49.6602C400.285 50.293 400.139 51.0723 400.139 51.998V62H394.777V42.3477H398.838L399.629 45.6523H399.893C400.279 44.9844 400.76 44.375 401.334 43.8242C401.92 43.2617 402.582 42.8164 403.32 42.4883C404.07 42.1484 404.879 41.9785 405.746 41.9785ZM419.176 41.9434C421.812 41.9434 423.834 42.5176 425.24 43.666C426.646 44.8145 427.35 46.5605 427.35 48.9043V62H423.605L422.568 59.3281H422.428C421.865 60.0312 421.291 60.6055 420.705 61.0508C420.119 61.4961 419.445 61.8242 418.684 62.0352C417.922 62.2461 416.996 62.3516 415.906 62.3516C414.746 62.3516 413.703 62.1289 412.777 61.6836C411.863 61.2383 411.143 60.5586 410.615 59.6445C410.088 58.7188 409.824 57.5469 409.824 56.1289C409.824 54.043 410.557 52.5078 412.021 51.5234C413.486 50.5273 415.684 49.9766 418.613 49.8711L422.023 49.7656V48.9043C422.023 47.873 421.754 47.1172 421.215 46.6367C420.676 46.1562 419.926 45.916 418.965 45.916C418.016 45.916 417.084 46.0508 416.17 46.3203C415.256 46.5898 414.342 46.9297 413.428 47.3398L411.652 43.7188C412.695 43.168 413.861 42.7344 415.15 42.418C416.451 42.1016 417.793 41.9434 419.176 41.9434ZM422.023 52.8945L419.949 52.9648C418.215 53.0117 417.008 53.3223 416.328 53.8965C415.66 54.4707 415.326 55.2266 415.326 56.1641C415.326 56.9844 415.566 57.5703 416.047 57.9219C416.527 58.2617 417.154 58.4316 417.928 58.4316C419.076 58.4316 420.043 58.0918 420.828 57.4121C421.625 56.7324 422.023 55.7656 422.023 54.5117V52.8945ZM440.867 62.3516C438.922 62.3516 437.264 62 435.893 61.2969C434.521 60.582 433.479 59.4805 432.764 57.9922C432.049 56.5039 431.691 54.5996 431.691 52.2793C431.691 49.877 432.096 47.9199 432.904 46.4082C433.725 44.8848 434.855 43.7656 436.297 43.0508C437.75 42.3359 439.432 41.9785 441.342 41.9785C442.701 41.9785 443.873 42.1133 444.857 42.3828C445.854 42.6406 446.721 42.9512 447.459 43.3145L445.877 47.4629C445.033 47.123 444.248 46.8477 443.521 46.6367C442.795 46.4141 442.068 46.3027 441.342 46.3027C440.404 46.3027 439.625 46.5254 439.004 46.9707C438.383 47.4043 437.92 48.0605 437.615 48.9395C437.311 49.8184 437.158 50.9199 437.158 52.2441C437.158 53.5449 437.322 54.623 437.65 55.4785C437.979 56.334 438.453 56.9727 439.074 57.3945C439.695 57.8047 440.451 58.0098 441.342 58.0098C442.455 58.0098 443.445 57.8633 444.312 57.5703C445.18 57.2656 446.023 56.8438 446.844 56.3047V60.8926C446.023 61.4082 445.162 61.7773 444.26 62C443.369 62.2344 442.238 62.3516 440.867 62.3516ZM456.775 34.6484V46.8828C456.775 47.6211 456.746 48.3594 456.688 49.0977C456.629 49.8359 456.564 50.5742 456.494 51.3125H456.564C456.928 50.7969 457.297 50.2871 457.672 49.7832C458.059 49.2793 458.469 48.793 458.902 48.3242L464.404 42.3477H470.451L462.646 50.873L470.926 62H464.738L459.078 54.0371L456.775 55.8828V62H451.414V34.6484H456.775ZM481.842 41.9785C483.658 41.9785 485.223 42.3301 486.535 43.0332C487.848 43.7246 488.861 44.7324 489.576 46.0566C490.291 47.3809 490.648 48.998 490.648 50.9082V53.5098H477.975C478.033 55.0215 478.484 56.2109 479.328 57.0781C480.184 57.9336 481.367 58.3613 482.879 58.3613C484.133 58.3613 485.281 58.2324 486.324 57.9746C487.367 57.7168 488.439 57.3301 489.541 56.8145V60.9629C488.568 61.4434 487.549 61.7949 486.482 62.0176C485.428 62.2402 484.145 62.3516 482.633 62.3516C480.664 62.3516 478.918 61.9883 477.395 61.2617C475.883 60.5352 474.693 59.4277 473.826 57.9395C472.971 56.4512 472.543 54.5762 472.543 52.3145C472.543 50.0176 472.93 48.1074 473.703 46.584C474.488 45.0488 475.578 43.9004 476.973 43.1387C478.367 42.3652 479.99 41.9785 481.842 41.9785ZM481.877 45.793C480.834 45.793 479.967 46.127 479.275 46.7949C478.596 47.4629 478.203 48.5117 478.098 49.9414H485.621C485.609 49.1445 485.463 48.4355 485.182 47.8145C484.912 47.1934 484.502 46.7012 483.951 46.3379C483.412 45.9746 482.721 45.793 481.877 45.793ZM505.977 41.9785C506.246 41.9785 506.557 41.9961 506.908 42.0312C507.271 42.0547 507.564 42.0898 507.787 42.1367L507.383 47.1641C507.207 47.1055 506.955 47.0645 506.627 47.041C506.311 47.0059 506.035 46.9883 505.801 46.9883C505.109 46.9883 504.436 47.0762 503.779 47.252C503.135 47.4277 502.555 47.7148 502.039 48.1133C501.523 48.5 501.113 49.0156 500.809 49.6602C500.516 50.293 500.369 51.0723 500.369 51.998V62H495.008V42.3477H499.068L499.859 45.6523H500.123C500.51 44.9844 500.99 44.375 501.564 43.8242C502.15 43.2617 502.812 42.8164 503.551 42.4883C504.301 42.1484 505.109 41.9785 505.977 41.9785ZM525.066 56.1641C525.066 57.5 524.75 58.6309 524.117 59.5566C523.496 60.4707 522.564 61.168 521.322 61.6484C520.08 62.1172 518.533 62.3516 516.682 62.3516C515.311 62.3516 514.133 62.2637 513.148 62.0879C512.176 61.9121 511.191 61.6191 510.195 61.209V56.7793C511.262 57.2598 512.404 57.6582 513.623 57.9746C514.854 58.2793 515.932 58.4316 516.857 58.4316C517.9 58.4316 518.645 58.2793 519.09 57.9746C519.547 57.6582 519.775 57.248 519.775 56.7441C519.775 56.416 519.682 56.123 519.494 55.8652C519.318 55.5957 518.932 55.2969 518.334 54.9688C517.736 54.6289 516.799 54.1895 515.521 53.6504C514.291 53.1348 513.277 52.6133 512.48 52.0859C511.695 51.5586 511.109 50.9375 510.723 50.2227C510.348 49.4961 510.16 48.5762 510.16 47.4629C510.16 45.6465 510.863 44.2812 512.27 43.3672C513.688 42.4414 515.58 41.9785 517.947 41.9785C519.166 41.9785 520.326 42.1016 521.428 42.3477C522.541 42.5938 523.684 42.9863 524.855 43.5254L523.238 47.3926C522.266 46.9707 521.346 46.625 520.479 46.3555C519.623 46.0859 518.75 45.9512 517.859 45.9512C517.074 45.9512 516.482 46.0566 516.084 46.2676C515.686 46.4785 515.486 46.8008 515.486 47.2344C515.486 47.5508 515.586 47.832 515.785 48.0781C515.996 48.3242 516.395 48.5996 516.98 48.9043C517.578 49.1973 518.451 49.5781 519.6 50.0469C520.713 50.5039 521.68 50.9844 522.5 51.4883C523.32 51.9805 523.953 52.5957 524.398 53.334C524.844 54.0605 525.066 55.0039 525.066 56.1641ZM547.443 45.0195H542.645V62H539.727V45.0195H536.316V43.6133L539.727 42.6465V41.3633C539.727 39.7461 539.967 38.4336 540.447 37.4258C540.928 36.4062 541.625 35.6562 542.539 35.1758C543.453 34.6953 544.566 34.4551 545.879 34.4551C546.617 34.4551 547.291 34.5195 547.9 34.6484C548.521 34.7773 549.066 34.9238 549.535 35.0879L548.779 37.3906C548.381 37.2617 547.93 37.1445 547.426 37.0391C546.934 36.9219 546.43 36.8633 545.914 36.8633C544.801 36.8633 543.975 37.2266 543.436 37.9531C542.908 38.668 542.645 39.793 542.645 41.3281V42.7344H547.443V45.0195ZM567.605 52.332C567.605 53.9141 567.4 55.3262 566.99 56.5684C566.58 57.8105 565.988 58.8594 565.215 59.7148C564.441 60.5703 563.504 61.2266 562.402 61.6836C561.312 62.1289 560.076 62.3516 558.693 62.3516C557.404 62.3516 556.221 62.1289 555.143 61.6836C554.076 61.2266 553.15 60.5703 552.365 59.7148C551.592 58.8594 550.988 57.8105 550.555 56.5684C550.133 55.3262 549.922 53.9141 549.922 52.332C549.922 50.2227 550.279 48.4297 550.994 46.9531C551.709 45.4648 552.729 44.334 554.053 43.5605C555.389 42.7754 556.977 42.3828 558.816 42.3828C560.574 42.3828 562.109 42.7754 563.422 43.5605C564.746 44.3457 565.771 45.4824 566.498 46.9707C567.236 48.4473 567.605 50.2344 567.605 52.332ZM552.945 52.332C552.945 53.8789 553.15 55.2207 553.561 56.3574C553.971 57.4941 554.604 58.373 555.459 58.9941C556.314 59.6152 557.416 59.9258 558.764 59.9258C560.1 59.9258 561.195 59.6152 562.051 58.9941C562.918 58.373 563.557 57.4941 563.967 56.3574C564.377 55.2207 564.582 53.8789 564.582 52.332C564.582 50.7969 564.377 49.4727 563.967 48.3594C563.557 47.2344 562.924 46.3672 562.068 45.7578C561.213 45.1484 560.105 44.8438 558.746 44.8438C556.742 44.8438 555.271 45.5059 554.334 46.8301C553.408 48.1543 552.945 49.9883 552.945 52.332ZM581.404 42.3828C581.791 42.3828 582.195 42.4062 582.617 42.4531C583.039 42.4883 583.414 42.541 583.742 42.6113L583.373 45.3184C583.057 45.2363 582.705 45.1719 582.318 45.125C581.932 45.0781 581.568 45.0547 581.229 45.0547C580.455 45.0547 579.723 45.2129 579.031 45.5293C578.352 45.834 577.754 46.2793 577.238 46.8652C576.723 47.4395 576.318 48.1367 576.025 48.957C575.732 49.7656 575.586 50.668 575.586 51.6641V62H572.65V42.7344H575.076L575.393 46.2852H575.516C575.914 45.5703 576.395 44.9199 576.957 44.334C577.52 43.7363 578.17 43.2617 578.908 42.9102C579.658 42.5586 580.49 42.3828 581.404 42.3828ZM608.158 38.5684C606.74 38.5684 605.463 38.8145 604.326 39.3066C603.201 39.7871 602.24 40.4902 601.443 41.416C600.658 42.3301 600.055 43.4375 599.633 44.7383C599.211 46.0391 599 47.5039 599 49.1328C599 51.2891 599.334 53.1641 600.002 54.7578C600.682 56.3398 601.689 57.5645 603.025 58.4316C604.373 59.2988 606.055 59.7324 608.07 59.7324C609.219 59.7324 610.297 59.6387 611.305 59.4512C612.324 59.252 613.314 59.0059 614.275 58.7129V61.3145C613.338 61.666 612.354 61.9238 611.322 62.0879C610.291 62.2637 609.066 62.3516 607.648 62.3516C605.035 62.3516 602.85 61.8125 601.092 60.7344C599.346 59.6445 598.033 58.1094 597.154 56.1289C596.287 54.1484 595.854 51.8105 595.854 49.1152C595.854 47.1699 596.123 45.3945 596.662 43.7891C597.213 42.1719 598.01 40.7773 599.053 39.6055C600.107 38.4336 601.396 37.5312 602.92 36.8984C604.455 36.2539 606.213 35.9316 608.193 35.9316C609.494 35.9316 610.748 36.0605 611.955 36.3184C613.162 36.5762 614.252 36.9453 615.225 37.4258L614.029 39.957C613.209 39.582 612.307 39.2598 611.322 38.9902C610.35 38.709 609.295 38.5684 608.158 38.5684ZM622.344 62H619.408V34.6484H622.344V62ZM631.432 42.7344V62H628.514V42.7344H631.432ZM630.008 35.5273C630.488 35.5273 630.898 35.6855 631.238 36.002C631.59 36.3066 631.766 36.7871 631.766 37.4434C631.766 38.0879 631.59 38.5684 631.238 38.8848C630.898 39.2012 630.488 39.3594 630.008 39.3594C629.504 39.3594 629.082 39.2012 628.742 38.8848C628.414 38.5684 628.25 38.0879 628.25 37.4434C628.25 36.7871 628.414 36.3066 628.742 36.002C629.082 35.6855 629.504 35.5273 630.008 35.5273ZM646.742 42.3828C649.027 42.3828 650.756 42.9453 651.928 44.0703C653.1 45.1836 653.686 46.9766 653.686 49.4492V62H650.803V49.6426C650.803 48.0371 650.434 46.8359 649.695 46.0391C648.969 45.2422 647.85 44.8438 646.338 44.8438C644.205 44.8438 642.705 45.4473 641.838 46.6543C640.971 47.8613 640.537 49.6133 640.537 51.9102V62H637.619V42.7344H639.975L640.414 45.5117H640.572C640.982 44.832 641.504 44.2637 642.137 43.8066C642.77 43.3379 643.479 42.9863 644.264 42.752C645.049 42.5059 645.875 42.3828 646.742 42.3828ZM662.615 42.7344V62H659.697V42.7344H662.615ZM661.191 35.5273C661.672 35.5273 662.082 35.6855 662.422 36.002C662.773 36.3066 662.949 36.7871 662.949 37.4434C662.949 38.0879 662.773 38.5684 662.422 38.8848C662.082 39.2012 661.672 39.3594 661.191 39.3594C660.688 39.3594 660.266 39.2012 659.926 38.8848C659.598 38.5684 659.434 38.0879 659.434 37.4434C659.434 36.7871 659.598 36.3066 659.926 36.002C660.266 35.6855 660.688 35.5273 661.191 35.5273ZM676.52 62.3516C674.785 62.3516 673.256 61.9941 671.932 61.2793C670.607 60.5645 669.576 59.4746 668.838 58.0098C668.1 56.5449 667.73 54.6992 667.73 52.4727C667.73 50.1406 668.117 48.2363 668.891 46.7598C669.676 45.2715 670.754 44.1699 672.125 43.4551C673.496 42.7402 675.055 42.3828 676.801 42.3828C677.762 42.3828 678.688 42.4824 679.578 42.6816C680.48 42.8691 681.219 43.1094 681.793 43.4023L680.914 45.8457C680.328 45.6113 679.648 45.4004 678.875 45.2129C678.113 45.0254 677.398 44.9316 676.73 44.9316C675.395 44.9316 674.281 45.2188 673.391 45.793C672.512 46.3672 671.85 47.2109 671.404 48.3242C670.971 49.4375 670.754 50.8086 670.754 52.4375C670.754 53.9961 670.965 55.3262 671.387 56.4277C671.82 57.5293 672.459 58.373 673.303 58.959C674.158 59.5332 675.225 59.8203 676.502 59.8203C677.521 59.8203 678.441 59.7148 679.262 59.5039C680.082 59.2812 680.826 59.0234 681.494 58.7305V61.332C680.85 61.6602 680.129 61.9121 679.332 62.0879C678.547 62.2637 677.609 62.3516 676.52 62.3516ZM693.271 42.418C695.568 42.418 697.273 42.9336 698.387 43.9648C699.5 44.9961 700.057 46.6426 700.057 48.9043V62H697.93L697.367 59.1523H697.227C696.688 59.8555 696.125 60.4473 695.539 60.9277C694.953 61.3965 694.273 61.7539 693.5 62C692.738 62.2344 691.801 62.3516 690.688 62.3516C689.516 62.3516 688.473 62.1465 687.559 61.7363C686.656 61.3262 685.941 60.7051 685.414 59.873C684.898 59.041 684.641 57.9863 684.641 56.709C684.641 54.7871 685.402 53.3105 686.926 52.2793C688.449 51.248 690.77 50.6855 693.887 50.5918L697.209 50.4512V49.2734C697.209 47.6094 696.852 46.4434 696.137 45.7754C695.422 45.1074 694.414 44.7734 693.113 44.7734C692.105 44.7734 691.145 44.9199 690.23 45.2129C689.316 45.5059 688.449 45.8516 687.629 46.25L686.732 44.0352C687.6 43.5898 688.596 43.209 689.721 42.8926C690.846 42.5762 692.029 42.418 693.271 42.418ZM697.174 52.5078L694.238 52.6309C691.836 52.7246 690.143 53.1172 689.158 53.8086C688.174 54.5 687.682 55.4785 687.682 56.7441C687.682 57.8457 688.016 58.6602 688.684 59.1875C689.352 59.7148 690.236 59.9785 691.338 59.9785C693.049 59.9785 694.449 59.5039 695.539 58.5547C696.629 57.6055 697.174 56.1816 697.174 54.2832V52.5078ZM709.004 62H706.068V34.6484H709.004V62ZM724.965 62V36.3008H727.953V59.3281H739.361V62H724.965ZM750.541 42.418C752.838 42.418 754.543 42.9336 755.656 43.9648C756.77 44.9961 757.326 46.6426 757.326 48.9043V62H755.199L754.637 59.1523H754.496C753.957 59.8555 753.395 60.4473 752.809 60.9277C752.223 61.3965 751.543 61.7539 750.77 62C750.008 62.2344 749.07 62.3516 747.957 62.3516C746.785 62.3516 745.742 62.1465 744.828 61.7363C743.926 61.3262 743.211 60.7051 742.684 59.873C742.168 59.041 741.91 57.9863 741.91 56.709C741.91 54.7871 742.672 53.3105 744.195 52.2793C745.719 51.248 748.039 50.6855 751.156 50.5918L754.479 50.4512V49.2734C754.479 47.6094 754.121 46.4434 753.406 45.7754C752.691 45.1074 751.684 44.7734 750.383 44.7734C749.375 44.7734 748.414 44.9199 747.5 45.2129C746.586 45.5059 745.719 45.8516 744.898 46.25L744.002 44.0352C744.869 43.5898 745.865 43.209 746.99 42.8926C748.115 42.5762 749.299 42.418 750.541 42.418ZM754.443 52.5078L751.508 52.6309C749.105 52.7246 747.412 53.1172 746.428 53.8086C745.443 54.5 744.951 55.4785 744.951 56.7441C744.951 57.8457 745.285 58.6602 745.953 59.1875C746.621 59.7148 747.506 59.9785 748.607 59.9785C750.318 59.9785 751.719 59.5039 752.809 58.5547C753.898 57.6055 754.443 56.1816 754.443 54.2832V52.5078ZM766.256 34.6484V41.4863C766.256 42.2715 766.232 43.0332 766.186 43.7715C766.15 44.5098 766.121 45.084 766.098 45.4941H766.256C766.783 44.627 767.545 43.8945 768.541 43.2969C769.537 42.6992 770.809 42.4004 772.355 42.4004C774.77 42.4004 776.691 43.2383 778.121 44.9141C779.562 46.5781 780.283 49.0566 780.283 52.3496C780.283 54.5176 779.955 56.3457 779.299 57.834C778.643 59.3223 777.717 60.4473 776.521 61.209C775.326 61.9707 773.914 62.3516 772.285 62.3516C770.762 62.3516 769.508 62.0703 768.523 61.5078C767.551 60.9336 766.801 60.2363 766.273 59.416H766.045L765.447 62H763.338V34.6484H766.256ZM771.881 44.8438C770.486 44.8438 769.379 45.1191 768.559 45.6699C767.738 46.209 767.146 47.0293 766.783 48.1309C766.432 49.2207 766.256 50.6035 766.256 52.2793V52.4375C766.256 54.8633 766.66 56.7207 767.469 58.0098C768.277 59.2871 769.748 59.9258 771.881 59.9258C773.674 59.9258 775.016 59.2695 775.906 57.957C776.809 56.6445 777.26 54.7695 777.26 52.332C777.26 49.8477 776.814 47.9785 775.924 46.7246C775.045 45.4707 773.697 44.8438 771.881 44.8438ZM801.992 52.332C801.992 53.9141 801.787 55.3262 801.377 56.5684C800.967 57.8105 800.375 58.8594 799.602 59.7148C798.828 60.5703 797.891 61.2266 796.789 61.6836C795.699 62.1289 794.463 62.3516 793.08 62.3516C791.791 62.3516 790.607 62.1289 789.529 61.6836C788.463 61.2266 787.537 60.5703 786.752 59.7148C785.979 58.8594 785.375 57.8105 784.941 56.5684C784.52 55.3262 784.309 53.9141 784.309 52.332C784.309 50.2227 784.666 48.4297 785.381 46.9531C786.096 45.4648 787.115 44.334 788.439 43.5605C789.775 42.7754 791.363 42.3828 793.203 42.3828C794.961 42.3828 796.496 42.7754 797.809 43.5605C799.133 44.3457 800.158 45.4824 800.885 46.9707C801.623 48.4473 801.992 50.2344 801.992 52.332ZM787.332 52.332C787.332 53.8789 787.537 55.2207 787.947 56.3574C788.357 57.4941 788.99 58.373 789.846 58.9941C790.701 59.6152 791.803 59.9258 793.15 59.9258C794.486 59.9258 795.582 59.6152 796.438 58.9941C797.305 58.373 797.943 57.4941 798.354 56.3574C798.764 55.2207 798.969 53.8789 798.969 52.332C798.969 50.7969 798.764 49.4727 798.354 48.3594C797.943 47.2344 797.311 46.3672 796.455 45.7578C795.6 45.1484 794.492 44.8438 793.133 44.8438C791.129 44.8438 789.658 45.5059 788.721 46.8301C787.795 48.1543 787.332 49.9883 787.332 52.332ZM815.791 42.3828C816.178 42.3828 816.582 42.4062 817.004 42.4531C817.426 42.4883 817.801 42.541 818.129 42.6113L817.76 45.3184C817.443 45.2363 817.092 45.1719 816.705 45.125C816.318 45.0781 815.955 45.0547 815.615 45.0547C814.842 45.0547 814.109 45.2129 813.418 45.5293C812.738 45.834 812.141 46.2793 811.625 46.8652C811.109 47.4395 810.705 48.1367 810.412 48.957C810.119 49.7656 809.973 50.668 809.973 51.6641V62H807.037V42.7344H809.463L809.779 46.2852H809.902C810.301 45.5703 810.781 44.9199 811.344 44.334C811.906 43.7363 812.557 43.2617 813.295 42.9102C814.045 42.5586 814.877 42.3828 815.791 42.3828ZM828.975 42.418C831.271 42.418 832.977 42.9336 834.09 43.9648C835.203 44.9961 835.76 46.6426 835.76 48.9043V62H833.633L833.07 59.1523H832.93C832.391 59.8555 831.828 60.4473 831.242 60.9277C830.656 61.3965 829.977 61.7539 829.203 62C828.441 62.2344 827.504 62.3516 826.391 62.3516C825.219 62.3516 824.176 62.1465 823.262 61.7363C822.359 61.3262 821.645 60.7051 821.117 59.873C820.602 59.041 820.344 57.9863 820.344 56.709C820.344 54.7871 821.105 53.3105 822.629 52.2793C824.152 51.248 826.473 50.6855 829.59 50.5918L832.912 50.4512V49.2734C832.912 47.6094 832.555 46.4434 831.84 45.7754C831.125 45.1074 830.117 44.7734 828.816 44.7734C827.809 44.7734 826.848 44.9199 825.934 45.2129C825.02 45.5059 824.152 45.8516 823.332 46.25L822.436 44.0352C823.303 43.5898 824.299 43.209 825.424 42.8926C826.549 42.5762 827.732 42.418 828.975 42.418ZM832.877 52.5078L829.941 52.6309C827.539 52.7246 825.846 53.1172 824.861 53.8086C823.877 54.5 823.385 55.4785 823.385 56.7441C823.385 57.8457 823.719 58.6602 824.387 59.1875C825.055 59.7148 825.939 59.9785 827.041 59.9785C828.752 59.9785 830.152 59.5039 831.242 58.5547C832.332 57.6055 832.877 56.1816 832.877 54.2832V52.5078ZM847.994 59.9609C848.475 59.9609 848.967 59.9199 849.471 59.8379C849.975 59.7559 850.385 59.6562 850.701 59.5391V61.8066C850.361 61.959 849.887 62.0879 849.277 62.1934C848.68 62.2988 848.094 62.3516 847.52 62.3516C846.5 62.3516 845.574 62.1758 844.742 61.8242C843.91 61.4609 843.242 60.8516 842.738 59.9961C842.246 59.1406 842 57.957 842 56.4453V45.0195H839.258V43.5957L842.018 42.4531L843.178 38.2695H844.936V42.7344H850.578V45.0195H844.936V56.3574C844.936 57.5645 845.211 58.4668 845.762 59.0645C846.324 59.6621 847.068 59.9609 847.994 59.9609ZM871.215 52.332C871.215 53.9141 871.01 55.3262 870.6 56.5684C870.189 57.8105 869.598 58.8594 868.824 59.7148C868.051 60.5703 867.113 61.2266 866.012 61.6836C864.922 62.1289 863.686 62.3516 862.303 62.3516C861.014 62.3516 859.83 62.1289 858.752 61.6836C857.686 61.2266 856.76 60.5703 855.975 59.7148C855.201 58.8594 854.598 57.8105 854.164 56.5684C853.742 55.3262 853.531 53.9141 853.531 52.332C853.531 50.2227 853.889 48.4297 854.604 46.9531C855.318 45.4648 856.338 44.334 857.662 43.5605C858.998 42.7754 860.586 42.3828 862.426 42.3828C864.184 42.3828 865.719 42.7754 867.031 43.5605C868.355 44.3457 869.381 45.4824 870.107 46.9707C870.846 48.4473 871.215 50.2344 871.215 52.332ZM856.555 52.332C856.555 53.8789 856.76 55.2207 857.17 56.3574C857.58 57.4941 858.213 58.373 859.068 58.9941C859.924 59.6152 861.025 59.9258 862.373 59.9258C863.709 59.9258 864.805 59.6152 865.66 58.9941C866.527 58.373 867.166 57.4941 867.576 56.3574C867.986 55.2207 868.191 53.8789 868.191 52.332C868.191 50.7969 867.986 49.4727 867.576 48.3594C867.166 47.2344 866.533 46.3672 865.678 45.7578C864.822 45.1484 863.715 44.8438 862.355 44.8438C860.352 44.8438 858.881 45.5059 857.943 46.8301C857.018 48.1543 856.555 49.9883 856.555 52.332ZM885.014 42.3828C885.4 42.3828 885.805 42.4062 886.227 42.4531C886.648 42.4883 887.023 42.541 887.352 42.6113L886.982 45.3184C886.666 45.2363 886.314 45.1719 885.928 45.125C885.541 45.0781 885.178 45.0547 884.838 45.0547C884.064 45.0547 883.332 45.2129 882.641 45.5293C881.961 45.834 881.363 46.2793 880.848 46.8652C880.332 47.4395 879.928 48.1367 879.635 48.957C879.342 49.7656 879.195 50.668 879.195 51.6641V62H876.26V42.7344H878.686L879.002 46.2852H879.125C879.523 45.5703 880.004 44.9199 880.566 44.334C881.129 43.7363 881.779 43.2617 882.518 42.9102C883.268 42.5586 884.1 42.3828 885.014 42.3828ZM893.908 42.7344V62H890.99V42.7344H893.908ZM892.484 35.5273C892.965 35.5273 893.375 35.6855 893.715 36.002C894.066 36.3066 894.242 36.7871 894.242 37.4434C894.242 38.0879 894.066 38.5684 893.715 38.8848C893.375 39.2012 892.965 39.3594 892.484 39.3594C891.98 39.3594 891.559 39.2012 891.219 38.8848C890.891 38.5684 890.727 38.0879 890.727 37.4434C890.727 36.7871 890.891 36.3066 891.219 36.002C891.559 35.6855 891.98 35.5273 892.484 35.5273ZM907.514 42.3828C909.154 42.3828 910.561 42.7461 911.732 43.4727C912.904 44.1992 913.801 45.2188 914.422 46.5312C915.043 47.832 915.354 49.3555 915.354 51.1016V52.9121H902.047C902.082 55.1738 902.645 56.8965 903.734 58.0801C904.824 59.2637 906.359 59.8555 908.34 59.8555C909.559 59.8555 910.637 59.7441 911.574 59.5215C912.512 59.2988 913.484 58.9707 914.492 58.5371V61.1035C913.52 61.5371 912.553 61.8535 911.592 62.0527C910.643 62.252 909.518 62.3516 908.217 62.3516C906.365 62.3516 904.748 61.9766 903.365 61.2266C901.994 60.4648 900.928 59.3516 900.166 57.8867C899.404 56.4219 899.023 54.6289 899.023 52.5078C899.023 50.4336 899.369 48.6406 900.061 47.1289C900.764 45.6055 901.748 44.4336 903.014 43.6133C904.291 42.793 905.791 42.3828 907.514 42.3828ZM907.479 44.7734C905.92 44.7734 904.678 45.2832 903.752 46.3027C902.826 47.3223 902.275 48.7461 902.1 50.5742H912.295C912.283 49.4258 912.102 48.418 911.75 47.5508C911.41 46.6719 910.889 45.9922 910.186 45.5117C909.482 45.0195 908.58 44.7734 907.479 44.7734ZM932.773 56.7266C932.773 57.957 932.463 58.9941 931.842 59.8379C931.232 60.6699 930.354 61.2969 929.205 61.7188C928.068 62.1406 926.709 62.3516 925.127 62.3516C923.779 62.3516 922.613 62.2461 921.629 62.0352C920.645 61.8242 919.783 61.5254 919.045 61.1387V58.4492C919.83 58.8359 920.768 59.1875 921.857 59.5039C922.947 59.8203 924.061 59.9785 925.197 59.9785C926.861 59.9785 928.068 59.709 928.818 59.1699C929.568 58.6309 929.943 57.8984 929.943 56.9727C929.943 56.4453 929.791 55.9824 929.486 55.584C929.193 55.1738 928.695 54.7812 927.992 54.4062C927.289 54.0195 926.316 53.5977 925.074 53.1406C923.844 52.6719 922.777 52.209 921.875 51.752C920.984 51.2832 920.293 50.7148 919.801 50.0469C919.32 49.3789 919.08 48.5117 919.08 47.4453C919.08 45.8164 919.736 44.5684 921.049 43.7012C922.373 42.8223 924.107 42.3828 926.252 42.3828C927.412 42.3828 928.496 42.5 929.504 42.7344C930.523 42.957 931.473 43.2617 932.352 43.6484L931.367 45.9863C930.57 45.6465 929.721 45.3594 928.818 45.125C927.916 44.8906 926.996 44.7734 926.059 44.7734C924.711 44.7734 923.674 44.9961 922.947 45.4414C922.232 45.8867 921.875 46.4961 921.875 47.2695C921.875 47.8672 922.039 48.3594 922.367 48.7461C922.707 49.1328 923.246 49.4961 923.984 49.8359C924.723 50.1758 925.695 50.5742 926.902 51.0312C928.109 51.4766 929.152 51.9395 930.031 52.4199C930.91 52.8887 931.584 53.4629 932.053 54.1426C932.533 54.8105 932.773 55.6719 932.773 56.7266Z" fill="white"/>
<defs>
<clipPath id="clip0_2436_2822">
<rect width="779.946" height="429.515" fill="white" transform="translate(240.057 100)"/>
</clipPath>
</defs>
</svg>
