<svg xmlns="http://www.w3.org/2000/svg" width="55.811" height="58.712" viewBox="0 0 55.811 58.712">
  <defs>
    <style>
      .cls-1 {
        fill: #ffc72c;
      }
    </style>
  </defs>
  <path id="Path_13549" data-name="Path 13549" class="cls-1" d="M8.807,47.089a27.094,27.094,0,0,1-6.494-8.918A25.744,25.744,0,0,1,0,27.42,25.479,25.479,0,0,1,7.706,8.706,25.479,25.479,0,0,1,26.421,1,26.113,26.113,0,0,1,42.678,6.393a24.533,24.533,0,0,1,9.209,14.056L55.7,35.493a2.778,2.778,0,0,1-.514,2.53,2.818,2.818,0,0,1-2.348,1.139H46.97V47.97A5.888,5.888,0,0,1,41.1,53.841H35.227v2.936a2.936,2.936,0,1,1-5.871,0V50.905a2.883,2.883,0,0,1,2.936-2.936H41.1V36.227a2.883,2.883,0,0,1,2.936-2.936h4.991L46.236,21.916a19.172,19.172,0,0,0-7.192-10.862A20.3,20.3,0,0,0,26.421,6.871a19.927,19.927,0,0,0-14.531,5.945A19.557,19.557,0,0,0,5.871,27.274a19.99,19.99,0,0,0,1.8,8.366,22,22,0,0,0,5.1,7.045l1.908,1.761v12.33a2.883,2.883,0,0,1-2.936,2.936,2.888,2.888,0,0,1-2.936-2.936ZM27.228,40.7a12.446,12.446,0,0,0,8.733-3.3,10.461,10.461,0,0,0,3.6-8,10.05,10.05,0,0,0-2.677-7.081,8.518,8.518,0,0,0-6.5-2.9,8.28,8.28,0,0,0-5.833,2.2,7.1,7.1,0,0,0-2.387,5.431,8.185,8.185,0,0,0,.479,2.751,5.587,5.587,0,0,0,1.65,2.387,2.857,2.857,0,0,0,2.348.843,3.141,3.141,0,0,0,1.908-.989,3.273,3.273,0,0,0,.845-1.946,2.473,2.473,0,0,0-.919-2.09,2.358,2.358,0,0,1-.294-.367.91.91,0,0,1-.147-.514,1.5,1.5,0,0,1,.661-1.283,2.8,2.8,0,0,1,1.688-.479,2.96,2.96,0,0,1,2.422,1.212,4.528,4.528,0,0,1,.954,2.9,4.864,4.864,0,0,1-1.87,3.854A6.881,6.881,0,0,1,27.3,34.906a7.4,7.4,0,0,1-5.833-2.789,10.133,10.133,0,0,1-2.387-6.825,11.149,11.149,0,0,1,.332-2.715,10.037,10.037,0,0,1,.989-2.5,4.86,4.86,0,0,0,.587-2.31,2.856,2.856,0,0,0-.881-2.093,2.782,2.782,0,0,0-2.128-.845A2.226,2.226,0,0,0,16.072,15.9a15.56,15.56,0,0,0-2.2,4.4,16.358,16.358,0,0,0-.734,4.917,15.71,15.71,0,0,0,4.11,10.97A13,13,0,0,0,27.228,40.7" transform="translate(0 -1)"/>
</svg>
