<svg width="98" height="87" viewBox="0 0 98 87" fill="none" xmlns="http://www.w3.org/2000/svg">
<path d="M48.9113 22.1988C42.7847 22.1988 37.7974 17.218 37.7974 11.0994C37.7974 4.98082 42.7847 0 48.9113 0C55.0379 0 60.0252 4.98082 60.0252 11.0994C60.0252 17.218 55.0379 22.1988 48.9113 22.1988ZM48.9113 2.52833C44.1771 2.52833 40.329 6.3714 40.329 11.0994C40.329 15.8274 44.1771 19.6704 48.9113 19.6704C53.6455 19.6704 57.4936 15.8274 57.4936 11.0994C57.4936 6.3714 53.6455 2.52833 48.9113 2.52833Z" fill="#056290"/>
<path d="M77.4684 87C77.3671 87 77.2405 87 77.1392 87H38.3797C37.6709 87 37.1139 86.4437 37.1139 85.7358C37.1139 81.4629 38.1772 78.3025 40.3038 76.3304C42.6582 74.156 45.3924 74.3077 45.4937 74.333H62.0253C62.3038 74.3077 62.9114 74.2572 63.2658 73.9032C63.4937 73.6756 63.6203 73.3217 63.6203 72.816C63.6203 72.2851 63.4937 71.8805 63.2405 71.653C62.8354 71.2737 62.1266 71.1979 61.924 71.2232H44.9367C41.7468 71.2232 39.1899 72.2092 37.3165 74.156C33.443 78.2267 33.7215 85.1543 33.7215 85.2301C33.7468 85.5841 33.6203 85.9128 33.3671 86.1656C33.1392 86.4185 32.7848 86.5449 32.4557 86.5449H20.1013C17.038 86.5449 14.6329 85.66 12.9114 83.9154C10.3291 81.3112 10.3544 77.7463 10.3544 77.5946C10.3544 68.8718 16.8354 66.4699 17.1139 66.3688L37.2405 58.3034V50.3897C26.0506 61.3627 13.7722 64.5484 7.21519 65.4838C7.03797 65.5091 6.86076 65.5091 6.68354 65.4586C6.60759 65.4586 6.55696 65.4586 6.48101 65.4586C2.91139 65.4586 0 62.5763 0 59.0113C0 55.8762 2.22785 53.2467 5.26582 52.6652C5.41772 52.5388 5.62025 52.4629 5.82278 52.4629C23.7468 50.9206 35.3418 32.9442 35.4684 32.7672C40.1772 25.612 48.1266 25.8901 48.481 25.8901C58.6076 25.8901 62.7089 32.5902 62.8608 32.8936C74.3291 48.1395 86.2025 51.8561 92.2532 52.6905C92.4051 52.7158 92.557 52.7663 92.7089 52.8422C95.7721 53.3984 98 56.0532 98 59.2136C98 62.9555 94.6835 65.9137 90.9873 65.6355C90.9367 65.6355 90.8861 65.6355 90.8354 65.6103C76.1772 64.1944 65.2911 55.0418 60.7848 50.592V58.4551L80.0506 66.4446C89.1899 69.9843 87.5949 78.3278 87.5696 78.4036C86.6582 85.2301 80.7342 87 77.4684 87ZM39.6709 84.4716H77.1646C77.4937 84.4716 84.1519 84.6233 85.0886 77.9485C85.1392 77.6199 86.2532 71.5266 79.1139 68.7454L59.038 60.4272C58.557 60.2249 58.2532 59.7698 58.2532 59.2641V47.3557C58.2532 46.8247 58.5823 46.3443 59.0886 46.1674C59.5949 45.9904 60.1519 46.1421 60.481 46.5466C60.6076 46.6983 73.0633 61.3374 91.0633 63.0566C91.0886 63.0566 91.1139 63.0566 91.1392 63.0566L91.4937 63.0819C93.6709 63.0819 95.443 61.3121 95.443 59.163C95.443 57.1403 93.924 55.4464 91.8987 55.2441C91.7215 55.2188 91.5443 55.1682 91.3924 55.0924C84.8101 54.0811 72.5063 49.9852 60.7089 34.2842C60.5063 33.9302 57.038 28.4185 48.3544 28.4185C48.0253 28.3932 41.4177 28.2162 37.5443 34.1325C37.0633 34.891 25.4177 53.0192 6.50633 54.9407C6.35443 55.0418 6.20253 55.0924 6.02532 55.1177C4.05063 55.2947 2.53165 56.9886 2.53165 59.0113C2.53165 61.1857 4.3038 62.9555 6.4557 62.9555C6.60759 62.9555 6.75949 62.9555 6.91139 62.9302C7.01266 62.9302 7.11392 62.9302 7.21519 62.9555C13.9747 61.9442 26.5316 58.4298 37.5443 46.4455C37.8987 46.0662 38.4557 45.9398 38.9367 46.1168C39.4177 46.2938 39.7468 46.7742 39.7468 47.3051V59.2136C39.7468 59.7192 39.443 60.1996 38.962 60.3766L17.9747 68.7454C17.7215 68.8465 12.8608 70.7175 12.8608 77.6199C12.8608 77.6451 12.8608 80.3252 14.7089 82.1456C15.9494 83.3845 17.7468 84.0165 20.1013 84.0165H31.2152C31.3165 81.5388 31.9494 76.1281 35.4937 72.4115C37.8481 69.9337 41.0127 68.6948 44.9367 68.6948H61.8481C61.9747 68.6948 63.6962 68.619 64.962 69.8073C65.4937 70.313 66.1519 71.2484 66.1519 72.816C66.1519 74.3077 65.5443 75.2179 65.0127 75.7236C63.8228 76.8866 62.1519 76.8613 61.9747 76.8613H45.3924C45.2405 76.8613 43.4937 76.7855 41.9747 78.2267C40.6329 79.5161 39.8481 81.6146 39.6709 84.4716Z" fill="#056290"/>
</svg>
