<svg width="94" height="74" viewBox="0 0 94 74" fill="none" xmlns="http://www.w3.org/2000/svg">
<path d="M93.9943 60.7275V73.1364C93.9943 73.4744 93.7038 73.7158 93.4132 73.7158H77.6266C77.2877 73.7158 77.0455 73.4261 77.0455 73.1364V60.6309C76.4644 53.002 72.0577 48.3668 69.2491 46.1457C68.7648 45.7594 69.1522 44.9869 69.7818 45.0835C95.0113 50.2498 93.9943 60.7275 93.9943 60.7275Z" fill="#056290"/>
<path d="M35.6973 35.0441C26.1518 35.0441 18.4082 27.2706 18.4082 17.6881C18.4082 8.10563 26.1518 0.283203 35.6973 0.283203C45.2428 0.283203 52.9864 8.05674 52.9864 17.6392C52.9864 27.2217 45.2428 35.0441 35.6973 35.0441ZM35.6973 3.94997C28.1485 3.94997 22.0608 10.1101 22.0608 17.6392C22.0608 25.1683 28.1972 31.3285 35.6973 31.3285C43.1974 31.3285 49.3338 25.1683 49.3338 17.6392C49.3338 10.1101 43.2461 3.94997 35.6973 3.94997Z" fill="#056290"/>
<path d="M75.0943 22.6982C73.9197 27.5335 70.4448 31.6851 65.9422 33.7852C61.3906 35.9342 56.7411 35.9342 52.8258 34.6644C52.5811 34.5667 52.4832 34.2736 52.679 34.0783C56.1538 29.8291 58.2583 24.3589 58.2583 18.4491C58.2583 12.2462 55.9581 6.53177 52.1406 2.18489C54.0494 1.40343 56.1538 1.0127 58.3073 1.0127C69.3192 1.0127 77.9329 11.2694 75.0943 22.6982Z" fill="#056290"/>
<path d="M1.85066 73.7156C1.36365 73.7156 0.925332 73.5201 0.58442 73.1778C0.243508 72.8356 0 72.3956 0 71.9067V63.1553C0 60.4664 1.02274 57.973 2.8734 56.0663C6.52603 52.3017 15.4384 45.8971 33.7016 45.1149C35.26 45.066 36.8672 45.1149 38.4256 45.2127C45.1465 45.7505 61.6076 47.8527 69.2538 56.0174C71.0071 57.9241 71.9811 60.5153 72.0298 63.3998L72.0785 71.8089C72.0785 72.2978 71.8837 72.7867 71.5428 73.1289C71.1532 73.4223 70.7149 73.6178 70.2278 73.6178L1.85066 73.7156ZM35.2113 48.7328C34.773 48.7328 34.3347 48.7328 33.8477 48.7816C16.8508 49.515 8.7663 55.284 5.45459 58.6086C4.28575 59.7819 3.65263 61.3953 3.65263 63.1065V70.0489L68.3772 69.9511V63.3509C68.3772 61.3953 67.7441 59.6841 66.6239 58.4619C59.7083 51.0306 43.101 49.2217 38.1821 48.8305C37.1594 48.7816 36.1854 48.7328 35.2113 48.7328Z" fill="#056290"/>
</svg>
