<?xml version="1.0" encoding="UTF-8"?><svg id="b" xmlns="http://www.w3.org/2000/svg" viewBox="0 0 89.6 99.88"><defs><style>.d{fill:#fff;}.e{fill:#fdc540;}</style></defs><g id="c"><g><g><path class="e" d="m80.31,22.38c-.58,1.54-1.5,2.86-2.62,3.9-1.39,1.28-3.12,2.15-4.98,2.51-1.03.19-2.09.24-3.16.11-.78-.1-1.57-.29-2.34-.58-1.27-.47-2.39-1.18-3.32-2.04-1.73-1.6-2.85-3.76-3.18-6.08-.18-1.28-.11-2.6.22-3.91.09-.35.2-.7.33-1.05.32-.86.74-1.64,1.25-2.34,2.6-3.65,7.43-5.26,11.83-3.61,3.48,1.31,5.82,4.31,6.44,7.73.32,1.74.18,3.59-.49,5.36Z"/><path class="e" d="m78.84,1.83l-1.19,3.18c-.21.55-.73.88-1.27.88-.16,0-.32-.03-.47-.09-.7-.26-1.06-1.04-.8-1.75l1.19-3.17c.26-.7,1.04-1.06,1.75-.8s1.06,1.05.79,1.75Z"/><path class="e" d="m65.28,6.16c-.19.09-.37.12-.56.12-.52,0-1.01-.29-1.24-.79l-1.4-3.08c-.32-.68-.01-1.49.67-1.8.68-.31,1.49,0,1.8.68l1.4,3.08c.31.68,0,1.49-.68,1.8Z"/><path class="e" d="m57.85,13.73c-.01.07-.03.14-.06.21-.21.55-.73.88-1.27.88-.16,0-.32-.03-.47-.09l-3.18-1.19c-.7-.27-1.06-1.05-.79-1.75.18-.47.6-.8,1.06-.87.22-.04.46-.01.68.07l3.17,1.19c.63.23.98.89.86,1.54Z"/><path class="e" d="m57.47,26.36l-3.08,1.4c-.18.08-.37.12-.56.12-.52,0-1.01-.29-1.24-.8-.31-.68,0-1.49.68-1.8l3.08-1.4c.68-.31,1.49,0,1.8.68.31.68,0,1.49-.68,1.8Z"/><path class="e" d="m66.71,33.57l-1.19,3.17c-.21.55-.73.88-1.27.88-.17,0-.32-.02-.48-.09-.7-.26-1.06-1.04-.79-1.75l1.19-3.17c.27-.7,1.05-1.06,1.75-.8.7.27,1.06,1.05.8,1.75Z"/><path class="e" d="m79.07,37.01c-.19.09-.37.12-.56.12-.52,0-1.01-.29-1.24-.8l-1.39-3.08c-.32-.68-.01-1.49.67-1.8s1.49,0,1.8.68l1.4,3.08c.31.68,0,1.49-.68,1.8Z"/><path class="e" d="m89.52,25.83c-.2.55-.72.88-1.27.88-.16,0-.32-.02-.47-.09l-2.16-.81-1.02-.38c-.7-.27-1.06-1.05-.79-1.75.22-.57.77-.91,1.34-.88.14,0,.27.03.4.08l3.18,1.19c.7.26,1.06,1.04.79,1.75Z"/><path class="e" d="m88.32,12.34l-3.08,1.4c-.18.08-.37.12-.56.12-.52,0-1.01-.3-1.24-.8-.31-.68,0-1.49.68-1.8l3.08-1.4c.68-.32,1.48-.01,1.8.67.31.68,0,1.49-.68,1.8Z"/></g><g><path class="d" d="m52.4,84.38c0,.99-.81,1.79-1.79,1.79-.92,0-1.78-.03-2.58-.09-8.76-.6-10.89-4.23-11.12-4.67-.45-.88-.11-1.96.77-2.41.86-.45,1.91-.13,2.38.7.11.16,2.14,2.89,10.55,2.89.98,0,1.79.81,1.79,1.79Z"/><path class="d" d="m81.72,61.47c-.5,1.33-1.75,2.34-3.52,2.82l-4.08.86v13.34c0,4.23-3.44,7.68-7.68,7.68h-14.82l-.91,7.56c-.11.91-.88,1.58-1.78,1.58-.07,0-.14,0-.22-.01-.98-.12-1.68-1.01-1.56-1.99l.86-7.23.23-1.91c.11-.9.87-1.58,1.78-1.58h16.41c2.26,0,4.11-1.84,4.11-4.1v-14.8c0-.85.59-1.57,1.42-1.75l5.38-1.13c.69-.19.98-.51,1.01-.61,0-.02-.01-.14-.14-.34-3.51-5.41-7.69-12.91-7.69-17.9v-1.21c.04-.77.07-1.43.07-2.09,0-2.89-.4-5.75-1.18-8.5-.12-.44-.08-.88.11-1.26.2-.45.6-.81,1.11-.95.81-.23,1.65.14,2.04.84.08.12.14.25.17.39.87,3.06,1.32,6.25,1.32,9.48,0,.74-.04,1.47-.08,2.2v1.1c0,3.17,2.6,8.99,7.12,15.95.74,1.15.91,2.42.47,3.56Z"/><path class="d" d="m64.37,17.19c-.35.34-.8.51-1.25.51s-.93-.18-1.28-.54c-.29-.29-.59-.59-.89-.87-.98-.93-2.02-1.78-3.1-2.57-1.49-1.08-3.07-2.02-4.71-2.8-4.12-1.98-8.66-3.03-13.38-3.03-3.76,0-7.38.55-10.77,1.64-.94.3-1.95-.22-2.25-1.16-.3-.94.22-1.95,1.16-2.25,3.75-1.2,7.74-1.8,11.86-1.8,8.48,0,16.47,3.02,22.77,8.58.64.56,1.26,1.15,1.86,1.76.7.7.68,1.83-.02,2.53Z"/><path class="d" d="m12.97,57.57c-.29.18-.62.27-.94.27-.6,0-1.19-.29-1.52-.84-3-4.85-5.11-10.49-5.79-15.49-.14-.98.55-1.88,1.53-2.01.99-.14,1.88.55,2.01,1.53.61,4.52,2.54,9.66,5.28,14.08.52.84.27,1.94-.58,2.47Z"/><path class="d" d="m18.6,70.94l-3.6,27.38c-.09.73-.62,1.31-1.29,1.5h-.03s-.45.06-.45.06c-.08,0-.16,0-.24-.01-.98-.13-1.67-1.03-1.54-2.01l3.59-27.38c.13-.98,1.04-1.67,2.01-1.54s1.67,1.03,1.54,2.01Z"/></g><path class="d" d="m85.15,22.81c-.65-1.02-1.77-1.71-3.05-1.78-.04-1.49-.51-2.87-1.29-4.02-1.35-1.98-3.62-3.29-6.2-3.29-3.34,0-6.27,2.23-7.2,5.44-1.55-.7-3.2-.75-4.8-.13-.7.27-1.34.67-1.89,1.16-.97.86-1.67,1.98-1.96,3.23-.2.9-.22,1.8-.04,2.7l.03.15h26.72l.04-.13c.04-.12.08-.22.1-.34.09-.32.14-.63.14-.94,0-.76-.22-1.47-.6-2.06Z"/><path class="d" d="m36.16,61.85c-.09-4.87-4.08-8.81-8.97-8.81-4.03,0-7.56,2.69-8.63,6.58-1.83-.85-3.77-.93-5.64-.24-2.39.88-4.21,2.91-4.77,5.31-.25,1.07-.27,2.16-.04,3.23l.03.13h32.12l.04-.11c.19-.53.28-1.03.28-1.52,0-2.47-1.96-4.48-4.41-4.57Z"/><g><path class="e" d="m12.65,22.55v-3.6L0,27.06v2.75l12.65,8.12v-3.64l-9.48-5.82v-.07l9.48-5.85Z"/><path class="e" d="m30.76,18.95v3.6l9.5,5.85v.11l-9.5,5.82v3.6l12.65-8.12v-2.75l-12.65-8.12Z"/><rect class="e" x="6.98" y="27.05" width="29.95" height="2.67" transform="translate(-12.63 37.96) rotate(-67.75)"/></g></g></g></svg>