<svg width="344" height="367" viewBox="0 0 344 367" fill="none" xmlns="http://www.w3.org/2000/svg">
<path d="M48.9062 6.21219L54.5041 2.05368C58.9136 -1.66704 65.0744 4.46125 68.7959 8.83857L343.998 331.884L331.27 342.734L48.9062 6.21219Z" fill="#64AEE0"/>
<path d="M318.867 336.383C321.867 339.907 327.151 340.336 330.669 337.342C334.187 334.347 334.607 329.063 331.606 325.54L60.6395 7.33338C57.6389 3.80963 52.3546 3.38055 48.8367 6.37495C45.3188 9.36936 44.8994 14.6534 47.9001 18.1771L318.867 336.383Z" fill="#4C90BE"/>
<path d="M47.8847 73.6704L47.8999 73.6978C49.008 75.6898 51.5214 76.4066 53.5139 75.2988L85.9282 57.2758C87.9207 56.1679 88.6376 53.655 87.5296 51.6629L87.5143 51.6356C86.4063 49.6435 83.8928 48.9268 81.9003 50.0346L49.486 68.0577C47.4935 69.1655 46.7766 71.6784 47.8847 73.6704Z" fill="#64AEE0"/>
<path d="M68.791 98.5884L68.8062 98.6158C69.9142 100.608 72.4276 101.325 74.4201 100.217L106.834 82.1937C108.827 81.0858 109.544 78.5729 108.436 76.5808L108.421 76.5535C107.313 74.5614 104.799 73.8446 102.807 74.9525L70.3922 92.9756C68.3998 94.0834 67.6829 96.5964 68.791 98.5884Z" fill="#64AEE0"/>
<path d="M89.7206 123.51L89.7358 123.538C90.8439 125.53 93.3574 126.246 95.3499 125.139L127.764 107.115C129.757 106.008 130.474 103.495 129.365 101.503L129.35 101.475C128.242 99.4832 125.729 98.7664 123.736 99.8743L91.322 117.897C89.3295 119.005 88.6126 121.518 89.7206 123.51Z" fill="#64AEE0"/>
<path d="M110.658 148.423L110.673 148.451C111.781 150.443 114.295 151.16 116.287 150.052L148.702 132.029C150.694 130.921 151.411 128.408 150.303 126.416L150.288 126.388C149.18 124.396 146.666 123.679 144.674 124.787L112.259 142.81C110.267 143.918 109.55 146.431 110.658 148.423Z" fill="#64AEE0"/>
<path d="M26.955 48.7486L26.9702 48.7759C28.0783 50.768 30.5917 51.4848 32.5842 50.3769L64.9984 32.3539C66.9909 31.246 67.7079 28.7331 66.5998 26.7411L66.5846 26.7137C65.4765 24.7217 62.963 24.0049 60.9706 25.1128L28.5563 43.1358C26.5638 44.2436 25.8469 46.7565 26.955 48.7486Z" fill="#64AEE0"/>
<path d="M131.557 173.34L131.572 173.368C132.68 175.36 135.193 176.077 137.186 174.969L169.6 156.946C171.593 155.838 172.309 153.325 171.201 151.333L171.186 151.305C170.078 149.313 167.565 148.597 165.572 149.704L133.158 167.727C131.165 168.835 130.448 171.348 131.557 173.34Z" fill="#64AEE0"/>
<path d="M152.486 198.262L152.501 198.29C153.61 200.282 156.123 200.998 158.115 199.891L190.53 181.868C192.522 180.76 193.239 178.247 192.131 176.255L192.116 176.227C191.008 174.235 188.494 173.519 186.502 174.626L154.088 192.649C152.095 193.757 151.378 196.27 152.486 198.262Z" fill="#64AEE0"/>
<path d="M173.424 223.18L173.439 223.208C174.547 225.2 177.061 225.916 179.053 224.809L211.467 206.785C213.46 205.678 214.177 203.165 213.069 201.173L213.053 201.145C211.945 199.153 209.432 198.436 207.439 199.544L175.025 217.567C173.033 218.675 172.316 221.188 173.424 223.18Z" fill="#64AEE0"/>
<path d="M194.322 248.098L194.337 248.126C195.445 250.118 197.959 250.834 199.951 249.726L232.366 231.704C234.358 230.596 235.075 228.083 233.967 226.091L233.952 226.063C232.844 224.071 230.33 223.355 228.338 224.462L195.924 242.485C193.931 243.593 193.214 246.106 194.322 248.098Z" fill="#64AEE0"/>
<path d="M215.26 273.02L215.275 273.047C216.383 275.039 218.896 275.756 220.889 274.648L253.303 256.625C255.296 255.517 256.013 253.004 254.905 251.012L254.889 250.985C253.781 248.993 251.268 248.276 249.275 249.384L216.861 267.407C214.869 268.515 214.152 271.028 215.26 273.02Z" fill="#64AEE0"/>
<path d="M236.189 297.933L236.205 297.96C237.313 299.952 239.826 300.669 241.818 299.562L274.233 281.538C276.225 280.431 276.942 277.918 275.834 275.926L275.819 275.898C274.711 273.906 272.197 273.189 270.205 274.297L237.791 292.32C235.798 293.428 235.081 295.941 236.189 297.933Z" fill="#64AEE0"/>
<path d="M257.096 322.887L257.111 322.915C258.219 324.907 260.732 325.623 262.725 324.516L295.139 306.492C297.132 305.385 297.849 302.872 296.74 300.88L296.725 300.852C295.617 298.86 293.104 298.143 291.111 299.251L258.697 317.274C256.705 318.382 255.988 320.895 257.096 322.887Z" fill="#64AEE0"/>
<path d="M278.025 347.805L278.041 347.833C279.149 349.825 281.662 350.541 283.654 349.434L316.069 331.41C318.061 330.303 318.778 327.79 317.67 325.798L317.655 325.77C316.547 323.778 314.033 323.061 312.041 324.169L279.627 342.192C277.634 343.3 276.917 345.813 278.025 347.805Z" fill="#64AEE0"/>
<path d="M6.75 29.7868L12.3478 25.6284C16.7573 21.9077 22.9181 28.0046 26.6396 32.4132L301.686 355.459L288.989 366.309L6.75 29.7868Z" fill="#64AEE0"/>
<path d="M276.695 359.926C279.695 363.45 284.98 363.879 288.497 360.885C292.015 357.89 292.435 352.606 289.434 349.083L18.4677 30.8764C15.4671 27.3526 10.1828 26.9235 6.66493 29.9179C3.14703 32.9123 2.72766 38.1963 5.72829 41.7201L276.695 359.926Z" fill="#4C90BE"/>
</svg>
