<?xml version="1.0" encoding="UTF-8"?><svg id="b" xmlns="http://www.w3.org/2000/svg" viewBox="0 0 124.61 109.29"><defs><style>.d{fill:none;}.e{fill:#fff;}.f{fill:#ffc72c;}</style></defs><g id="c"><g><path class="e" d="m109.72,23.04l-1.54,1.19C97.31,10.07,80.86,1.94,63.03,1.94c-9.25,0-18.23,2.26-26.22,6.42-7.99,4.16-15.01,10.2-20.33,17.78l-1.59-1.12C25.91,9.35,43.9,0,63.03,0c9.22,0,18.08,2.1,26.05,6.02,7.96,3.93,15.02,9.69,20.64,17.01Z"/><path class="e" d="m109.72,84.26c-11.02,15.67-29.01,25.03-48.14,25.03h0c-18.43,0-35.45-8.41-46.68-23.05l1.54-1.19c10.87,14.16,27.32,22.29,45.14,22.29h0c18.49,0,35.89-9.05,46.54-24.2l1.6,1.12Z"/><g><polygon class="f" points="59.11 74.01 59.11 72.68 59.78 73.35 59.11 74.01"/><path class="f" d="m77.57,77.42v21.81l-9.44-5.84-9.02,5.84v-21.19c.53.66,1.21,1.13,1.89,1.41,1.47.62,3.65.62,5.18-1.22v-2.37h3.9v2.36c1.53,1.85,3.71,1.85,5.19,1.23.74-.3,1.5-.85,2.05-1.62.1-.13.18-.26.26-.41Z"/><polygon class="f" points="77.58 72.27 77.58 74.42 76.5 73.35 77.58 72.27"/><path class="e" d="m58.21,74.91c-.12,1.21.22,2.21.78,2.97h-2.24s-2.09.02-2.09.02l-41.97.11-.52-.38C6.83,73.62,1.22,68.02.17,56.87c-.81-8.42,1.34-16.33,5.73-21.17,2.62-2.88,5.83-4.4,9.25-4.4h.41c3.21.1,6.41,1.33,9.05,3.67,3.64,3.22,6.18,8.53,6.18,15.81,0,5.02-1.05,8.99-2.99,11.67-1.78,2.45-4.29,3.83-7.41,3.91-.1,0-.21,0-.31,0-.05,0-.1,0-.15,0-.27,0-.54-.02-.82-.06-4.46-.55-8.77-4.85-8.77-11.74,0-3.98,1.19-7,2.18-8.84l.55-1.02h10.28v3.9h-7.89c-.58,1.35-1.21,3.4-1.21,5.96,0,4.87,2.88,7.81,5.71,7.9h.28c6.02-.13,6.67-8.2,6.67-11.69,0-10.23-5.91-15.58-11.75-15.58-2.91,0-5.07,1.71-6.38,3.13-3.6,3.97-5.42,10.94-4.73,18.18.88,9.28,5.25,14,9.96,17.62l35.56-.1h4.12s.02,0,.02,0h2.68s.16,0,.16,0h1.78s.82,0,.82,0l-.92.92Z"/><polygon class="e" points="66.19 75.86 70.08 75.86 70.08 77.85 69.81 77.86 66.47 77.86 66.19 77.86 66.19 75.86"/><path class="e" d="m115.01,64.48c-.12.54-.27,1.09-.45,1.65-1.21,3.88-3.88,8.49-8.29,11.31l-.47.3-24.17.07h-2.09s-2.23,0-2.23,0c.1-.13.18-.26.26-.41.38-.68.59-1.52.5-2.5l-.5-.5h0s-.48-.49-.48-.49h2.71s0,0,0,0h3.12s3.9-.02,3.9-.02l17.8-.06c2.84-1.99,4.75-5.02,5.8-7.72.34-.88.61-1.73.78-2.49l3.8.83Z"/><path class="e" d="m53.43,62.38h1.07s0,1.79,0,1.79h-2.36c-.75.62-1.2,1.35-1.42,2.1h-2.01s-1.97.01-1.97.01l-26.35.06h-1.29s0-.06,0-.06v-3.83s.84,0,.84,0h.28l7.57-.02,20.65-.05h2.17s.67,0,.67,0h2.16Z"/><path class="e" d="m75.92,62.33h1.95c-.01,1.38-.31,2.7-.85,3.89h-2.19s0,0,0,0h-2.43s-8.48.02-8.48.02h-2.44s-2.19.01-2.19.01c-.55-1.19-.86-2.51-.88-3.89h1.95s1.95-.01,1.95-.01l11.68-.03h1.95Z"/><path class="e" d="m124.61,48.6c0,8.51-3.47,13.9-6.38,16.93l-.58.59h-3.09s-4.13.02-4.13.02l-20.91.05h-1.98s-2.01.02-2.01.02c-.22-.72-.66-1.42-1.39-2.02h-2.37v-1.87h3.12s2.87,0,2.87,0l28.22-.07c2.29-2.6,4.75-6.96,4.75-13.63,0-12.31-8.17-13.63-11.68-13.63H15.56v-3.9h93.48c7.54,0,15.58,4.61,15.58,17.53Z"/><path class="f" d="m68.14,52.49c2.19,0,4.21.73,5.84,1.95h-11.68c1.63-1.22,3.65-1.95,5.84-1.95Z"/><path class="f" d="m75.35,45.04s-.06-.02-.08-.03c-1.48-.62-3.66-.62-5.19,1.22v2.37h-3.9v-2.37c-1.53-1.85-3.71-1.84-5.18-1.22-1.48.61-3.03,2.15-2.8,4.53l1.57,1.57-2.53,2.53c0-.48-.02-.96-.03-1.42-.03-.78-.07-1.56-.14-2.31-.09-1.13-.21-2.21-.37-3.25-.14-.97-.33-1.91-.54-2.81-.83-3.57-2.15-6.56-3.97-8.88-1.3-1.65-2.86-2.96-4.69-3.9l1.95-1.94h11.2c2.56,0,4.79.7,6.71,1.94,1.51.98,2.83,2.3,3.95,3.9,1.17,1.67,2.13,3.64,2.88,5.82.23.66.44,1.36.63,2.06.19.71.37,1.45.52,2.2Z"/><g><path class="e" d="m73.98,54.44c-1.63-1.22-3.65-1.95-5.84-1.95s-4.21.73-5.84,1.95c-2.36,1.78-3.9,4.61-3.9,7.79,0,.05,0,.1,0,.14.02,1.39.33,2.7.88,3.89,1.53,3.36,4.93,5.7,8.86,5.7s7.36-2.36,8.88-5.75c.54-1.19.84-2.51.85-3.89,0-.03,0-.07,0-.1,0-3.18-1.53-6.01-3.9-7.79Zm0,0c-1.63-1.22-3.65-1.95-5.84-1.95s-4.21.73-5.84,1.95c-2.36,1.78-3.9,4.61-3.9,7.79,0,.05,0,.1,0,.14.02,1.39.33,2.7.88,3.89,1.53,3.36,4.93,5.7,8.86,5.7s7.36-2.36,8.88-5.75c.54-1.19.84-2.51.85-3.89,0-.03,0-.07,0-.1,0-3.18-1.53-6.01-3.9-7.79Zm13.56,11.76c-.25-1.19-.85-2.32-1.87-3.26-.24-.22-.49-.43-.78-.63-.04-.03-.07-.05-.11-.08.33-.22.62-.45.89-.7,4.24-3.92,1.32-11.2-4.38-11.2-.44,0-.91.05-1.38.14.79-3.99-1.89-6.94-5.07-7.62-2.06-.45-4.32.06-5.98,1.86-.25.27-.49.57-.71.89-.22-.33-.46-.62-.71-.89-3.32-3.58-9.03-2.05-10.71,1.96-.31.73-.48,1.55-.48,2.43,0,.44.05.91.14,1.38-4.57-.9-7.78,2.75-7.78,6.48,0,1.64.62,3.29,2.02,4.58.27.25.56.49.89.7-.08.05-.15.1-.22.16-.24.17-.46.35-.67.55-1.05.96-1.66,2.14-1.89,3.36-.66,3.33,1.45,6.97,4.96,7.72h.02c.41.08.85.13,1.3.13s.91-.05,1.38-.14c-.29,1.45-.11,2.77.38,3.89.5,1.15,1.34,2.09,2.36,2.75,1.1.73,2.41,1.13,3.74,1.13,1.64,0,3.29-.62,4.58-2.02.25-.27.49-.56.7-.89.22.33.45.62.7.89,2.46,2.67,6.26,2.5,8.73.59.85-.65,1.54-1.51,1.97-2.53.32-.73.49-1.55.49-2.44,0-.45-.04-.91-.14-1.38,1.1.21,2.12.17,3.03-.08,2.9-.78,4.75-3.57,4.75-6.4,0-.44-.05-.88-.14-1.32Zm-2.18,3.17c-.61,1.47-2.15,3.02-4.53,2.8l-1.58-1.58-2.75,2.75,1.58,1.58c.09.98-.12,1.82-.5,2.5-.08.14-.16.28-.26.41-.54.77-1.3,1.31-2.05,1.62-1.48.61-3.66.62-5.19-1.23v-2.36h-3.89v2.36c-1.53,1.84-3.71,1.84-5.18,1.22-.68-.28-1.37-.75-1.89-1.41v-.15h-.12c-.56-.77-.9-1.76-.78-2.97l1.57-1.57-2.75-2.75-1.58,1.58c-2.37.21-3.92-1.32-4.53-2.8-.36-.88-.51-2-.19-3.08.22-.75.67-1.48,1.42-2.1h2.36v-3.89h-2.36c-1.84-1.53-1.84-3.71-1.22-5.18.61-1.48,2.15-3.03,4.53-2.8l1.58,1.58.23-.23,2.52-2.52-1.57-1.57c-.22-2.38,1.32-3.92,2.8-4.53,1.47-.61,3.65-.62,5.18,1.22v2.36h3.89v-2.36c1.53-1.85,3.71-1.84,5.19-1.23.03.01.05.02.08.03,1.45.63,2.94,2.15,2.72,4.5l-1.58,1.58,2.75,2.75,1.57-1.57c2.38-.23,3.92,1.32,4.53,2.8.61,1.48.62,3.65-1.22,5.18h-2.36v3.89h2.36c.73.6,1.17,1.3,1.39,2.02.36,1.11.21,2.27-.16,3.16Zm-11.38-14.93c-1.63-1.22-3.65-1.95-5.84-1.95s-4.21.73-5.84,1.95c-2.36,1.78-3.9,4.61-3.9,7.79,0,.05,0,.1,0,.14.02,1.39.33,2.7.88,3.89,1.53,3.36,4.93,5.7,8.86,5.7s7.36-2.36,8.88-5.75c.54-1.19.84-2.51.85-3.89,0-.03,0-.07,0-.1,0-3.18-1.53-6.01-3.9-7.79Zm0,0c-1.63-1.22-3.65-1.95-5.84-1.95s-4.21.73-5.84,1.95c-2.36,1.78-3.9,4.61-3.9,7.79,0,.05,0,.1,0,.14.02,1.39.33,2.7.88,3.89,1.53,3.36,4.93,5.7,8.86,5.7s7.36-2.36,8.88-5.75c.54-1.19.84-2.51.85-3.89,0-.03,0-.07,0-.1,0-3.18-1.53-6.01-3.9-7.79Zm0,0c-1.63-1.22-3.65-1.95-5.84-1.95s-4.21.73-5.84,1.95c-2.36,1.78-3.9,4.61-3.9,7.79,0,.05,0,.1,0,.14.02,1.39.33,2.7.88,3.89,1.53,3.36,4.93,5.7,8.86,5.7s7.36-2.36,8.88-5.75c.54-1.19.84-2.51.85-3.89,0-.03,0-.07,0-.1,0-3.18-1.53-6.01-3.9-7.79Z"/><path class="e" d="m89.52,66.19c-.21-1.36-.78-2.7-1.77-3.88-.02-.02-.04-.05-.06-.07,2.24-2.61,2.33-6.03,1.26-8.62-1.08-2.6-3.56-4.94-6.99-5.21-.27-3.43-2.6-5.91-5.2-6.98-.79-.33-1.66-.55-2.56-.63-2.05-.19-4.24.34-6.07,1.89-2.6-2.23-6.03-2.33-8.62-1.26-1.23.51-2.41,1.34-3.33,2.44-1.02,1.21-1.73,2.76-1.87,4.55-3.44.27-5.92,2.61-6.99,5.21-1.08,2.6-.98,6.01,1.25,8.62-.04.06-.09.1-.13.16-.97,1.19-1.51,2.54-1.7,3.9-.23,1.6,0,3.2.57,4.57.49,1.16,1.25,2.26,2.25,3.16,1.24,1.11,2.85,1.89,4.75,2.05.05.65.18,1.25.36,1.84.74,2.32,2.49,4.04,4.44,4.97.13.06.26.12.4.18,2.6,1.07,6.01.97,8.62-1.26,1.58,1.36,3.46,1.93,5.27,1.93,1.17,0,2.33-.24,3.36-.66.27-.12.54-.25.81-.39,1.81-.97,3.38-2.64,4.06-4.84.17-.55.29-1.14.34-1.76,1.96-.15,3.61-.98,4.87-2.15.94-.88,1.66-1.95,2.13-3.06.58-1.4.82-3.04.56-4.67Zm-8.69,5.98c-.18-.02-.36-.04-.54-.08-.64-.12-1.29.08-1.76.54-.35.35-.55.83-.57,1.32,0,.14,0,.29.04.44.03.18.06.37.08.54.09.98-.12,1.82-.5,2.5-.07.14-.16.28-.26.41-.54.78-1.3,1.32-2.05,1.62-1.48.62-3.66.62-5.19-1.23-.1-.11-.19-.23-.28-.37-.02-.02-.03-.05-.05-.07-.37-.54-.97-.86-1.62-.86s-1.25.32-1.61.86c-.02.03-.04.06-.06.08-.09.14-.18.25-.28.37-1.53,1.85-3.71,1.84-5.18,1.22-.68-.28-1.37-.75-1.89-1.41-.05-.05-.08-.1-.12-.15-.56-.77-.9-1.76-.78-2.97,0-.17.04-.35.07-.54.02-.13.03-.26.03-.38,0-.51-.2-1.01-.57-1.37-.46-.46-1.11-.66-1.75-.54-.19.04-.38.06-.55.08-2.37.22-3.92-1.32-4.53-2.8-.37-.88-.51-2-.19-3.08.22-.75.66-1.48,1.42-2.1.13-.12.28-.22.44-.34.5-.33.81-.87.85-1.46,0-.05,0-.1,0-.15,0-.65-.32-1.25-.86-1.61-.16-.11-.31-.22-.45-.34-1.85-1.53-1.84-3.71-1.22-5.19.62-1.47,2.15-3.03,4.52-2.8h0c.18.02.36.05.55.09.42.09.85.02,1.22-.16.19-.09.37-.22.53-.38.46-.46.66-1.11.54-1.75-.04-.19-.06-.38-.08-.55-.22-2.38,1.33-3.92,2.8-4.53,1.47-.62,3.65-.62,5.18,1.22.12.14.23.28.34.45.73,1.08,2.51,1.08,3.24,0,.1-.16.21-.31.33-.45,1.53-1.85,3.71-1.84,5.19-1.22.02,0,.05.02.08.03,1.45.63,2.93,2.16,2.72,4.5-.02.18-.05.36-.08.55-.13.64.07,1.29.53,1.75.46.46,1.12.66,1.76.54.18-.03.37-.06.54-.08,2.38-.23,3.92,1.33,4.53,2.8.62,1.48.62,3.66-1.22,5.19-.14.12-.28.22-.45.34-.54.36-.85.97-.85,1.61v.08c.03.62.34,1.19.85,1.53.16.11.31.22.45.34.73.6,1.17,1.3,1.39,2.02.35,1.11.21,2.27-.17,3.16-.61,1.47-2.15,3.02-4.53,2.8Z"/><path class="d" d="m77.58,77.42v-3l.5.5c.09.98-.12,1.82-.5,2.5Z"/><path class="d" d="m59.11,74.01v3.88h-.12c-.56-.77-.9-1.76-.78-2.97l.9-.9Z"/><path class="d" d="m85.52,66.2l-8.51.02c.54-1.19.84-2.51.85-3.89h3.9s0,1.85,0,1.85h2.36c.73.6,1.17,1.3,1.39,2.02Z"/><path class="d" d="m85.36,69.37c-.61,1.47-2.15,3.02-4.53,2.8l-1.58-1.58-1.68,1.68v-.3h-9.44c3.95,0,7.36-2.36,8.88-5.75l8.51-.02c.36,1.11.21,2.27-.16,3.16Z"/><path class="d" d="m77.32,77.83c-.54.77-1.3,1.31-2.05,1.62-1.48.61-3.66.62-5.19-1.23v-.37l7.24-.02Z"/><path class="d" d="m77.58,74.42v3c-.08.14-.16.28-.26.41l-7.24.02v-1.99h-3.89v2l-7.08.02v-3.88l.02-.02,17.96-.05.49.49Z"/><path class="d" d="m66.19,77.86v.36c-1.53,1.84-3.71,1.84-5.18,1.22-.68-.28-1.37-.75-1.89-1.41v-.15l7.08-.02Z"/><polygon class="d" points="77.58 72.27 76.5 73.35 77.09 73.94 59.13 73.99 59.78 73.35 59.11 72.68 59.11 71.97 77.58 71.97 77.58 72.27"/><path class="d" d="m68.14,71.97h-9.03v.71l-2.09-2.09-1.58,1.58c-2.37.21-3.92-1.32-4.53-2.8-.36-.88-.51-2-.19-3.08l8.55-.02c1.53,3.36,4.93,5.7,8.86,5.7Z"/><path class="d" d="m59.28,66.26l-8.55.02c.22-.75.67-1.48,1.42-2.1h2.36v-1.8h3.9c.02,1.38.33,2.69.88,3.88Z"/><path class="d" d="m58.4,62.23s0,.1,0,.14h-3.9s0-2.09,0-2.09h-2.36c-1.84-1.53-1.84-3.71-1.22-5.18.61-1.48,2.15-3.03,4.53-2.8l1.58,1.58.23-.23c0,.26,0,.53,0,.8h5.04c-2.36,1.78-3.9,4.61-3.9,7.79Z"/><path class="d" d="m76.24,54.44h-2.27c-1.63-1.22-3.65-1.95-5.84-1.95s-4.21.73-5.84,1.95h-5.04c0-.27,0-.54,0-.8l2.52-2.52-1.57-1.57c-.22-2.38,1.32-3.92,2.8-4.53,1.47-.61,3.65-.62,5.18,1.22v2.36h3.89v-2.36c1.53-1.85,3.71-1.84,5.19-1.23.03.01.05.02.08.03.6,2.93.9,6.11.9,9.4Z"/></g><polygon class="e" points="59.78 51.12 57.26 53.64 57.02 53.87 55.07 51.92 57.09 49.91 57.83 49.17 58.2 49.54 59.78 51.12"/><polygon class="e" points="81.2 72.54 78.44 75.29 78.07 74.92 76.5 73.35 79.25 70.59 80.83 72.17 81.2 72.54"/><polygon class="e" points="81.2 51.92 80.82 52.3 79.25 53.87 76.5 51.12 78.07 49.54 78.44 49.17 81.2 51.92"/><polygon class="e" points="59.78 73.35 57.83 75.29 56.54 74 55.07 72.54 55.45 72.17 57.02 70.59 59.78 73.35"/><rect class="e" x="81.77" y="60.28" width="3.89" height="3.89"/><rect class="e" x="50.61" y="60.28" width="3.89" height="3.89"/><rect class="e" x="66.19" y="44.7" width="3.89" height="3.89"/><rect class="e" x="66.19" y="75.86" width="3.89" height="3.89"/><g><circle class="f" cx="68.14" cy="62.23" r="7.79"/><path class="e" d="m73.98,54.44c-1.63-1.22-3.65-1.95-5.84-1.95s-4.21.73-5.84,1.95c-2.36,1.78-3.9,4.61-3.9,7.79,0,.05,0,.1,0,.14.02,1.39.33,2.7.88,3.89,1.53,3.36,4.93,5.7,8.86,5.7s7.36-2.36,8.88-5.75c.54-1.19.84-2.51.85-3.89,0-.03,0-.07,0-.1,0-3.18-1.53-6.01-3.9-7.79Zm0,7.89c-.02,1.51-.62,2.88-1.59,3.9-1.07,1.13-2.58,1.84-4.25,1.84s-3.17-.7-4.23-1.82c-.97-1.02-1.58-2.38-1.61-3.89,0-.04,0-.09,0-.13,0-3.22,2.62-5.84,5.84-5.84s5.84,2.62,5.84,5.84c0,.03,0,.07,0,.1Z"/><path class="d" d="m84.13,60.28h-2.36v2.03h-3.9s0-.05,0-.08c0-3.18-1.53-6.01-3.9-7.79h2.27c0-3.29-.29-6.47-.9-9.4,1.45.63,2.94,2.15,2.72,4.5l-1.58,1.58,2.75,2.75,1.57-1.57c2.38-.23,3.92,1.32,4.53,2.8.61,1.48.62,3.65-1.22,5.18Z"/></g></g></g></g></svg>