<svg width="110" height="73" viewBox="0 0 110 73" fill="none" xmlns="http://www.w3.org/2000/svg">
<path d="M15.5942 64.4134C14.2168 64.4134 13.1345 63.3294 13.1345 61.9497V3.41195C13.1345 2.03227 14.266 0.948242 15.5942 0.948242H106.946C108.324 0.948242 109.406 2.03227 109.406 3.41195C109.406 4.79163 108.275 5.87566 106.946 5.87566H18.0539V61.9497C18.0539 63.2801 16.9716 64.4134 15.5942 64.4134Z" fill="#056290"/>
<path d="M2.16451 61.7529H67.8869C69.0675 61.7529 70.0514 62.6891 70.0514 63.921V69.8832C70.0514 71.0657 69.1167 72.0512 67.8869 72.0512H2.16451C0.934674 71.9527 0 71.0165 0 69.8339V63.8717C0 62.6891 0.934674 61.7529 2.16451 61.7529Z" fill="#056290"/>
<path d="M106.601 63.8715H78.069C76.6916 63.8715 75.6094 62.7874 75.6094 61.4078V15.4842C75.6094 14.1045 76.6916 13.0205 78.069 13.0205H106.601C107.979 13.0205 109.061 14.1045 109.061 15.4842V61.4078C109.061 62.7874 107.929 63.8715 106.601 63.8715ZM80.4795 58.9441H104.092V17.9479H80.4795V58.9441Z" fill="#056290"/>
<path d="M106.896 58.9443H77.7247C76.5441 58.9443 75.6094 59.9298 75.6094 61.1124V69.8832C75.6094 71.0658 76.5441 72.002 77.7247 72.002H106.896C108.077 72.002 109.061 71.0658 109.061 69.8832V61.1124C109.061 59.9298 108.077 58.9443 106.896 58.9443ZM92.2367 68.6021C90.9577 68.6021 89.9246 67.5673 89.9246 66.2862C89.9246 65.0051 90.9577 63.921 92.2367 63.921C93.5158 63.921 94.5488 65.0051 94.5488 66.2862C94.5488 67.5673 93.5158 68.6021 92.2367 68.6021Z" fill="#056290"/>
</svg>
