<svg width="90" height="91" viewBox="0 0 90 91" fill="none" xmlns="http://www.w3.org/2000/svg">
<path d="M84.2697 89.1696C82.7328 89.1696 81.4608 87.737 81.0368 87.1533C80.4008 86.5165 62.1159 68.157 59.2009 65.2386V61.7895C59.2009 61.4181 59.0419 61.0997 58.8299 60.8344L57.5049 59.5079L58.5119 58.5527L59.8369 59.8262C60.1019 60.0385 60.4199 60.1977 60.7379 60.1977C60.8439 60.1977 60.8969 60.1977 61.0029 60.1977L64.1298 59.614L87.0257 81.3164C87.0787 81.3695 88.6157 82.6961 88.7217 84.5002C88.7747 85.5614 88.2447 86.6227 87.1847 87.6839C86.1777 88.639 85.2237 89.1696 84.2697 89.1696Z" fill="#056290"/>
<path d="M63.7054 61.0471L86.2303 82.3781C86.2303 82.3781 87.3433 83.3863 87.3963 84.5006C87.4493 85.1904 87.0253 85.9333 86.2303 86.7292C85.7533 87.2067 85.0113 87.8435 84.3223 87.8435C83.3683 87.8435 82.4143 86.6761 82.0963 86.3047C82.0433 86.2516 81.8313 86.0394 81.7783 85.9863L60.5784 64.7614V61.843C60.5784 61.7369 60.5784 61.6838 60.5784 61.5777C60.6314 61.5777 60.7374 61.5777 60.7904 61.5777C60.9494 61.5777 61.1084 61.5777 61.3204 61.5246L63.7054 61.0471ZM58.5114 56.749L55.6494 59.5083L57.9284 61.7899V65.8227C57.9284 65.8227 79.4993 87.419 79.9233 87.8435C80.2413 88.1619 81.8843 90.4966 84.3223 90.4966C85.4353 90.4966 86.7073 90.019 88.0853 88.6394C92.4842 84.2353 87.9263 80.3617 87.9263 80.3617L64.5534 58.1817L60.7904 58.9246L58.5114 56.749Z" fill="#056290"/>
<path d="M33.7608 68.1042C15.1579 68.1042 0 52.9284 0 34.3036C0 15.6787 15.1579 0.50293 33.7608 0.50293C52.3637 0.50293 67.5217 15.6787 67.5217 34.3036C67.5217 52.9284 52.3637 68.1042 33.7608 68.1042ZM33.7608 4.4826C17.3309 4.4826 3.97498 17.8543 3.97498 34.3036C3.97498 50.7529 17.3309 64.1246 33.7608 64.1246C50.1908 64.1246 63.5467 50.7529 63.5467 34.3036C63.5467 17.8543 50.1908 4.4826 33.7608 4.4826Z" fill="#056290"/>
</svg>
