<svg width="99" height="81" viewBox="0 0 99 81" fill="none" xmlns="http://www.w3.org/2000/svg">
<g clip-path="url(#clip0_253_24360)">
<path d="M13.3762 80.9998C12.8707 80.9998 12.4041 80.8061 12.0152 80.4573C11.2375 79.7209 11.2375 78.4807 11.9763 77.7056L42.3063 46.5845C42.6562 46.197 43.1617 46.0032 43.6672 46.0032C44.2505 46.042 44.6782 46.197 45.0671 46.5845L62.954 64.296L95.617 27.8654C96.3558 27.0515 97.5612 27.0128 98.3777 27.7104C99.1943 28.408 99.2332 29.6482 98.5333 30.462L64.5093 68.4042C64.1594 68.7917 63.6539 69.0243 63.1095 69.063C62.5262 69.0243 62.0596 68.8692 61.6708 68.4817L43.7061 50.7314L14.776 80.4185C14.3872 80.8061 13.8817 80.9998 13.3762 80.9998Z" fill="#1D719B"/>
<path d="M34.1017 24.4548C33.5184 24.4548 33.0129 24.106 32.7796 23.6021L29.7466 16.7423L22.7085 13.5643C22.1641 13.3318 21.8142 12.7892 21.853 12.2079C21.8919 11.6265 22.2419 11.1227 22.7863 10.8902L29.8244 8.09974L32.7796 0.89113C32.974 0.348546 33.5184 -0.00025737 34.1017 -0.00025737C34.6849 -0.0390134 35.2293 0.348546 35.4626 0.852374L38.5734 7.94472L45.4948 10.8902C46.0392 11.1227 46.3892 11.6265 46.3892 12.2079C46.3892 12.7892 46.0781 13.293 45.5337 13.5643L38.6123 16.7811L35.4237 23.6021C35.1904 24.1447 34.6849 24.4548 34.1017 24.4548ZM27.0247 12.3241L31.4575 14.3395C31.7686 14.4945 32.0408 14.7658 32.1963 15.0758L34.1405 19.494L36.2014 15.1146C36.357 14.8045 36.5903 14.572 36.9013 14.417L41.3731 12.3241L36.9013 10.4251C36.5514 10.2701 36.2792 9.99879 36.1237 9.64998L34.1794 5.19304L32.2741 9.76625C32.1186 10.1538 31.8464 10.4251 31.4575 10.5801L27.0247 12.3241Z" fill="#1D719B"/>
<path d="M65.3648 41.5463C64.7816 41.5463 64.2761 41.1975 64.0428 40.6936L61.0098 33.8726L53.9717 30.6171C53.4273 30.3845 53.1162 29.842 53.1162 29.2606C53.1162 28.6793 53.5051 28.1754 54.0494 27.9429L61.0875 25.1525L64.0428 17.9439C64.2761 17.4013 64.7816 17.0525 65.3648 17.0525C65.987 17.0137 66.4925 17.4013 66.7258 17.9051L69.8366 24.9975L76.758 27.9429C77.3024 28.1754 77.6523 28.6793 77.6523 29.2606C77.6523 29.842 77.3413 30.3458 76.7969 30.6171L69.8754 33.8726L66.6869 40.6936C66.4536 41.1975 65.9481 41.5463 65.3648 41.5463ZM58.2879 29.4156L62.7207 31.4309C63.0318 31.586 63.304 31.8573 63.4595 32.1673L65.4037 36.5855L67.4646 32.2061C67.6201 31.896 67.8535 31.6635 68.1645 31.5085L72.6362 29.4156L68.1645 27.5166C67.8146 27.3616 67.5424 27.0903 67.3868 26.7802L65.4037 22.2845L63.4984 26.8965C63.3428 27.2453 63.0707 27.5554 62.6818 27.7104L58.2879 29.4156Z" fill="#1D719B"/>
<path d="M12.2875 50.5371C12.2875 50.5371 12.2486 50.5371 12.2875 50.5371C11.7042 50.5371 11.1987 50.1883 10.9654 49.6844L7.93244 42.8634L0.894344 39.6466C0.311076 39.3753 0 38.8327 0 38.2514C0 37.6701 0.388845 37.1662 0.933229 36.9337L7.97133 34.1433L10.9266 26.9347C11.1599 26.4308 11.6654 26.082 12.2486 26.082C12.9097 26.082 13.3763 26.4308 13.6096 26.9347L16.7203 34.027L23.6418 36.9725C24.1862 37.205 24.5361 37.7088 24.5361 38.2902C24.5361 38.8715 24.2251 39.3753 23.6807 39.6466L16.7592 42.9021L13.6096 49.6844C13.3763 50.1883 12.8319 50.5371 12.2875 50.5371ZM5.17164 38.4064L9.60448 40.4217C9.91555 40.5768 10.1877 40.8481 10.3433 41.1581L12.2875 45.5763L14.3484 41.1969C14.5039 40.8868 14.7372 40.6543 15.0483 40.4993L19.52 38.3677L15.0483 36.4686C14.6983 36.3136 14.4262 36.0423 14.2706 35.7323L12.3264 31.2366L10.4211 35.8485C10.3044 36.1973 9.99332 36.5074 9.60448 36.6624L5.17164 38.4064Z" fill="#1D719B"/>
</g>
<defs>
<clipPath id="clip0_253_24360">
<rect width="99" height="81" fill="white"/>
</clipPath>
</defs>
</svg>
