<?xml version="1.0" encoding="UTF-8"?>
<svg id="uuid-f7a7a7bd-5482-4411-9bdc-9c6b846daeab" data-name="Layer 1" xmlns="http://www.w3.org/2000/svg" viewBox="0 0 720 720">
  <defs>
    <style>
      .uuid-bbc725e2-b4df-4990-b661-bf4036b2116b {
        fill: #fff;
      }

      .uuid-6c979f30-9b81-4ef7-a01f-22f1cc30af62 {
        fill: #0fb9ff;
      }

      .uuid-9bc0d33f-9fe4-4fe8-954f-76e66b94492b {
        fill: #394c77;
      }

      .uuid-9d50b494-9898-412c-b1b0-4c45e8a972ac {
        fill: #3b517b;
      }
    </style>
  </defs>
  <g>
    <path class="uuid-bbc725e2-b4df-4990-b661-bf4036b2116b" d="M395.37771,439.63588h-3.05741v8.9826h-1.14555v-8.9826h-3.07151v-.93399h7.27446v.93399Z"/>
    <path class="uuid-bbc725e2-b4df-4990-b661-bf4036b2116b" d="M407.34955,448.61848h-5.18004v-9.91659h5.13773v1.00451h-3.98513v3.07151h3.83077v1.00451h-3.83077v3.83155h4.02744v1.00451Z"/>
    <path class="uuid-bbc725e2-b4df-4990-b661-bf4036b2116b" d="M420.85479,447.99948c-.77806,.53908-1.67993,.80862-2.70638,.80862-1.28345,0-2.25897-.44035-2.92734-1.32106-.66758-.88071-1.00137-2.15476-1.00137-3.82372,0-1.61098,.32361-2.87406,.97003-3.78454,.64643-.91205,1.63291-1.36651,2.95868-1.36651,.47796,0,.95123,.05955,1.41979,.18178s.84623,.28364,1.13223,.4858l-.38002,.90578c-.66053-.37454-1.38453-.56259-2.172-.56259-.91362,0-1.59295,.33222-2.03801,.99511s-.66758,1.71127-.66758,3.14516c0,2.75496,.90186,4.13243,2.70559,4.13243,.76396,0,1.54672-.2335,2.34751-.70206l.35887,.90578Z"/>
    <path class="uuid-bbc725e2-b4df-4990-b661-bf4036b2116b" d="M433.4519,448.61848h-1.1526v-4.92068h-3.39433v4.92068h-1.1526v-9.91659h1.1526v3.98513h3.39433v-3.98513h1.1526v9.91659Z"/>
    <path class="uuid-bbc725e2-b4df-4990-b661-bf4036b2116b" d="M446.54891,448.61848h-1.27953l-3.55653-7.82922v7.82922h-1.1526v-9.91659h1.28659l3.57063,7.7587v-7.7587h1.13144v9.91659Z"/>
    <path class="uuid-bbc725e2-b4df-4990-b661-bf4036b2116b" d="M456.49684,438.51227c1.11029,0,1.9573,.43879,2.54026,1.31793,.58374,.87757,.87522,2.15633,.87522,3.83312,0,1.66896-.2907,2.94301-.87131,3.82372-.58139,.88071-1.42919,1.32106-2.54418,1.32106-1.10637,0-1.95104-.43879-2.534-1.31793-.58374-.87757-.87522-2.15319-.87522-3.82685,0-1.67209,.2907-2.94928,.87131-3.82998,.58139-.88071,1.42684-1.32106,2.53791-1.32106Zm0,9.28348c1.46132,0,2.19237-1.37748,2.19237-4.13243,0-2.75966-.73105-4.14027-2.19237-4.14027-.71225,0-1.25524,.3573-1.62743,1.07189s-.55867,1.73791-.55867,3.06838c0,1.34457,.18492,2.36945,.55554,3.07464,.36983,.70519,.91362,1.05779,1.63056,1.05779Z"/>
    <path class="uuid-bbc725e2-b4df-4990-b661-bf4036b2116b" d="M472.3488,448.61848h-5.39786v-9.91659h1.1526v8.91208h4.24527v1.00451Z"/>
    <path class="uuid-bbc725e2-b4df-4990-b661-bf4036b2116b" d="M482.40956,438.51227c1.11029,0,1.9573,.43879,2.54026,1.31793,.58374,.87757,.87522,2.15633,.87522,3.83312,0,1.66896-.2907,2.94301-.87131,3.82372-.58139,.88071-1.42919,1.32106-2.54418,1.32106-1.10637,0-1.95104-.43879-2.534-1.31793-.58374-.87757-.87522-2.15319-.87522-3.82685,0-1.67209,.2907-2.94928,.87131-3.82998,.58139-.88071,1.42684-1.32106,2.53791-1.32106Zm0,9.28348c1.46132,0,2.19237-1.37748,2.19237-4.13243,0-2.75966-.73105-4.14027-2.19237-4.14027-.71225,0-1.25524,.3573-1.62743,1.07189s-.55867,1.73791-.55867,3.06838c0,1.34457,.18492,2.36945,.55554,3.07464,.36983,.70519,.91362,1.05779,1.63056,1.05779Z"/>
    <path class="uuid-bbc725e2-b4df-4990-b661-bf4036b2116b" d="M498.5773,447.91642c-.81097,.59393-1.70814,.89168-2.69227,.89168-1.28815,0-2.26524-.43722-2.93047-1.31009-.66523-.87444-.99824-2.15162-.99824-3.83469,0-1.62508,.32204-2.89129,.9669-3.79551,.64408-.90421,1.63135-1.35554,2.96181-1.35554,.47796,0,.95123,.05955,1.41979,.18178s.84623,.28364,1.13223,.4858l-.38002,.90578c-.66053-.37454-1.38453-.56259-2.172-.56259-.90892,0-1.58669,.33379-2.03409,.99824-.44819,.66602-.6715,1.71284-.6715,3.14203,0,2.75496,.90186,4.13243,2.70559,4.13243,.67934,0,1.19256-.14261,1.53967-.42782v-2.44624h-1.78571v-.99824h2.93831v3.99296Z"/>
    <path class="uuid-bbc725e2-b4df-4990-b661-bf4036b2116b" d="M510.54287,448.61848h-4.5054v-1.00451h1.70814v-7.90757h-1.70814v-1.00451h4.5054v1.00451h-1.64467v7.90757h1.64467v1.00451Z"/>
    <path class="uuid-bbc725e2-b4df-4990-b661-bf4036b2116b" d="M523.95565,448.61848h-5.18004v-9.91659h5.13773v1.00451h-3.98513v3.07151h3.83077v1.00451h-3.83077v3.83155h4.02744v1.00451Z"/>
    <path class="uuid-bbc725e2-b4df-4990-b661-bf4036b2116b" d="M536.36392,439.79729c-.5908-.20059-1.15103-.30245-1.67993-.30245-.6002,0-1.08835,.1379-1.46602,.41215-.37689,.27424-.56572,.66445-.56572,1.17062,0,.59863,.49442,1.12674,1.48326,1.5812,.73105,.33693,1.2145,.57199,1.45113,.70206,.23663,.13164,.47718,.31185,.72086,.54222,.24368,.2288,.43879,.4999,.58688,.81176,.14731,.31029,.22096,.66131,.22096,1.04995,0,.96533-.32439,1.7144-.97317,2.24565s-1.4143,.79765-2.29501,.79765c-.8525,0-1.60001-.16925-2.24173-.50617l.23898-.99041c.75456,.34163,1.41274,.51244,1.97454,.51244,.65661,0,1.18237-.16925,1.57807-.50931s.59393-.80705,.59393-1.40255c0-.44035-.1285-.81332-.38629-1.12047s-.7334-.619-1.42684-.93869c-.71225-.32752-1.17297-.55162-1.3814-.67072s-.41528-.28521-.62214-.4952c-.20607-.21156-.36513-.44819-.47796-.70989-.11205-.26327-.16846-.54848-.16846-.8572,0-.82116,.2954-1.46053,.88541-1.91969,.5908-.45916,1.3383-.68796,2.24252-.68796,.66053,0,1.31636,.10029,1.96749,.30088l-.25935,.98414Z"/>
  </g>
  <path class="uuid-bbc725e2-b4df-4990-b661-bf4036b2116b" d="M196.13652,424.34734c-4.13714,3.78611-9.42765,5.67916-15.87156,5.67916-7.97339,0-14.24178-2.5575-18.80516-7.67251-4.56339-5.14008-6.84508-12.18574-6.84508-21.137,0-9.67839,2.59511-17.13777,7.78534-22.37814,4.51324-4.56339,10.25508-6.84508,17.22553-6.84508,9.32736,0,16.14736,3.05897,20.46002,9.17692,2.38199,3.43508,3.66074,6.88269,3.83625,10.34284h-11.58398c-.75221-2.6578-1.71754-4.66368-2.89599-6.01765-2.10618-2.40706-5.22783-3.61059-9.36497-3.61059-4.21236,0-7.5346,1.69873-9.96674,5.0962s-3.6482,8.20532-3.6482,14.42356,1.28502,10.87565,3.85506,13.97223,5.83587,4.64487,9.79749,4.64487c4.06191,0,7.1585-1.3289,9.28975-3.98669,1.17846-1.42919,2.15633-3.57298,2.93361-6.43137h11.47115c-1.00294,6.04273-3.56044,10.95714-7.67251,14.74325Z"/>
  <path class="uuid-bbc725e2-b4df-4990-b661-bf4036b2116b" d="M228.44379,417.72792l8.46232-30.2387h11.39593l-14.06626,40.31827c-2.70794,7.7728-4.85173,12.59319-6.43137,14.46117s-4.7389,2.80197-9.4778,2.80197c-.95279,0-1.71754-.00627-2.29423-.01881s-1.44173-.05642-2.59511-.13164v-8.57515l1.35397,.07522c1.05309,.05015,2.05603,.01254,3.00883-.11283s1.75515-.41371,2.40706-.86504c.62684-.42625,1.2098-1.31636,1.74888-2.67033s.75847-2.1814,.65818-2.48228l-15.04413-42.80055h11.92247l8.95126,30.2387Z"/>
  <path class="uuid-bbc725e2-b4df-4990-b661-bf4036b2116b" d="M276.88588,429.57517c-3.38493,0-6.10541-.67699-8.16144-2.03096-1.2286-.80235-2.5575-2.20647-3.98669-4.21236v5.15261h-10.49328v-55.36239h10.68133v19.70781c1.35397-1.90559,2.84585-3.35986,4.47563-4.3628,1.93066-1.25368,4.38787-1.88052,7.37162-1.88052,5.39081,0,9.60944,1.9432,12.65587,5.8296s4.56965,8.90111,4.56965,15.04413c0,6.36868-1.50441,11.64666-4.51324,15.83395-3.00883,4.18728-7.20865,6.28092-12.59946,6.28092Zm5.86721-20.98656c0-2.90853-.3761-5.31559-1.12831-7.22118-1.42919-3.61059-4.06191-5.41589-7.89817-5.41589-3.8864,0-6.55673,1.76769-8.011,5.30306-.75221,1.88052-1.12831,4.31265-1.12831,7.2964,0,3.5103,.77728,6.41883,2.33184,8.72559s3.92401,3.46015,7.10835,3.46015c2.75809,0,4.90188-1.11577,6.43137-3.34732s2.29423-5.16515,2.29423-8.80082Z"/>
  <path class="uuid-bbc725e2-b4df-4990-b661-bf4036b2116b" d="M336.76152,416.44917c-.27581,2.43213-1.54202,4.90188-3.79864,7.40923-3.5103,3.98669-8.42471,5.98004-14.74325,5.98004-5.2153,0-9.81629-1.67993-13.80299-5.03978-3.98669-3.35986-5.98004-8.82589-5.98004-16.3981,0-7.09581,1.79903-12.53677,5.39708-16.32288s8.268-5.67916,14.00984-5.67916c3.41,0,6.48151,.63938,9.21453,1.91813s4.98964,3.29717,6.76986,6.05526c1.60471,2.43213,2.64526,5.25291,3.12166,8.46232,.27581,1.88052,.38864,4.58846,.33849,8.12383h-28.0573c.15044,4.11206,1.44173,6.99552,3.87386,8.65037,1.47934,1.02802,3.25956,1.54202,5.34067,1.54202,2.20647,0,3.99923-.62684,5.37828-1.88052,.75221-.67699,1.41666-1.61724,1.99335-2.82077h10.9446Zm-10.60611-12.56185c-.17551-2.83331-1.03428-4.98337-2.57631-6.45017-1.54202-1.4668-3.45388-2.2002-5.73557-2.2002-2.48228,0-4.40668,.77728-5.77318,2.33184s-2.22528,3.66074-2.57631,6.31853h16.66137Z"/>
  <path class="uuid-bbc725e2-b4df-4990-b661-bf4036b2116b" d="M365.1197,397.38074c-4.31265,0-7.20865,1.40412-8.68798,4.21236-.82743,1.57963-1.24114,4.01177-1.24114,7.2964v19.59498h-10.79416v-40.99525h10.23001v7.14596c1.65485-2.73302,3.09658-4.601,4.32519-5.60394,2.00588-1.67993,4.61353-2.51989,7.82295-2.51989,.20059,0,.36983,.00627,.50774,.01881s.44506,.03134,.92145,.05642v10.98221c-.67699-.07522-1.27875-.12537-1.8053-.15044s-.95279-.03761-1.27875-.03761Z"/>
  <path class="uuid-6c979f30-9b81-4ef7-a01f-22f1cc30af62" d="M380.1889,457.03541h-4.62137v-68.45079h4.62137v7.00962h.15436c.6668-1.28345,1.52714-2.4384,2.58022-3.46642,1.05231-1.02645,2.20726-1.87425,3.46642-2.54183,1.2576-.66602,2.55358-1.18002,3.88953-1.54046,1.33517-.35887,2.64448-.53908,3.92871-.53908,3.23449,0,5.98161,.53908,8.24136,1.61724,2.25897,1.07816,4.12068,2.55593,5.58435,4.43018s2.52851,4.09482,3.19688,6.66173c.6668,2.56847,1.00137,5.31559,1.00137,8.24136,0,2.77376-.36043,5.44409-1.07895,8.011-.7193,2.56847-1.81,4.81412-3.27288,6.74008-1.46367,1.92596-3.31284,3.46642-5.54596,4.62137-2.2339,1.15495-4.86584,1.73321-7.89582,1.73321-2.82391,0-5.53342-.62997-8.12618-1.88678-2.59355-1.25838-4.63469-3.12009-6.12343-5.58513v34.94469Zm0-48.3465c0,2.25975,.30793,4.40354,.92459,6.43137,.61587,2.02939,1.50206,3.80021,2.65701,5.31559,1.15573,1.51538,2.56769,2.72205,4.23665,3.61999,1.66817,.89795,3.55496,1.3477,5.66114,1.3477,2.36161,0,4.4294-.47483,6.201-1.42449,1.7716-.94966,3.22195-2.24565,4.35183-3.8911,1.12909-1.64232,1.95104-3.55418,2.46504-5.73714,.51244-2.18297,.71851-4.53204,.61587-7.0488,0-2.51519-.34633-4.73733-1.03977-6.66173-.69344-1.92596-1.65564-3.55574-2.88816-4.89248-1.23252-1.3336-2.67112-2.34908-4.31343-3.04173-1.64388-.69266-3.44134-1.04055-5.39238-1.04055-2.15633,0-4.08229,.43722-5.77632,1.31009-1.69482,.87287-3.10755,2.067-4.23665,3.58082-1.12988,1.51538-1.991,3.31284-2.58022,5.39238-.5908,2.07954-.88619,4.32675-.88619,6.74008Z"/>
  <path class="uuid-6c979f30-9b81-4ef7-a01f-22f1cc30af62" d="M440.42262,405.22249c.87287-.10186,1.91264-.25544,3.12009-.46229,1.20588-.20372,2.19472-.48737,2.96495-.84623s1.24427-.96376,1.42527-1.81156c.17943-.84623,.26954-1.62821,.26954-2.34908,0-2.36161-.75847-4.30011-2.27229-5.8155-1.51538-1.51382-4.07053-2.27229-7.66389-2.27229-1.59217,0-3.05584,.14261-4.39101,.42468-1.33595,.28208-2.50265,.76944-3.50403,1.46367-1.00137,.69266-1.82332,1.61724-2.46504,2.77219-.64251,1.15495-1.06641,2.60765-1.27092,4.35183h-4.69894c.15436-2.36161,.69344-4.3769,1.61803-6.04586,.9238-1.66896,2.11793-3.0292,3.5816-4.08229s3.1577-1.82253,5.08366-2.31147c1.92518-.48737,3.96711-.73183,6.12343-.73183,2.00275,0,3.88953,.21939,5.66114,.65505,1.7716,.43722,3.31206,1.12988,4.62215,2.07954,1.30931,.95123,2.33576,2.22214,3.08091,3.81275,.74359,1.59217,1.11656,3.54321,1.11656,5.85467v21.71996c0,1.79903,.32047,2.94144,.96298,3.42881,.64173,.48893,1.93772,.37297,3.88953-.34633v3.61999c-.35965,.10343-.88541,.25544-1.57885,.46229-.69344,.20372-1.37434,.30715-2.04114,.30715-.7193,0-1.41274-.07679-2.07954-.23036-.77023-.10343-1.38688-.34633-1.84839-.73183-.46229-.38551-.83526-.8478-1.11734-1.38688-.28286-.53908-.47561-1.12831-.57748-1.77082-.10343-.64251-.15436-1.32263-.15436-2.04193-1.95182,2.15633-4.18572,3.80021-6.70091,4.93009-2.51676,1.12831-5.23802,1.69403-8.16457,1.69403-1.74653,0-3.42802-.23036-5.04527-.69266-1.61803-.46229-3.04252-1.18159-4.27504-2.15633-1.23252-.9763-2.20882-2.16886-2.92734-3.58238-.7193-1.41195-1.07816-3.09345-1.07816-5.04605,0-6.77769,4.64644-10.78319,13.94168-12.01493l6.39297-.8478Zm7.77985,2.31147c-1.95182,.82116-3.92871,1.36024-5.93068,1.61724-2.00275,.257-4.0055,.46229-6.00825,.61587-3.54321,.257-6.30443,1.05309-8.28054,2.38826-1.97768,1.33517-2.96573,3.36299-2.96573,6.08504,0,1.23174,.24368,2.29893,.73183,3.19688,.48737,.89795,1.12909,1.64388,1.92596,2.23311,.7953,.5908,1.71989,1.02802,2.77298,1.31009,1.05152,.28208,2.11793,.42312,3.19609,.42312,1.84917,0,3.64585-.23193,5.39238-.69266,1.74496-.46229,3.29874-1.16749,4.65976-2.11871,1.36024-.94966,2.45172-2.15633,3.27367-3.61999,.82116-1.46367,1.23252-3.19688,1.23252-5.19963v-6.23861Z"/>
  <path class="uuid-6c979f30-9b81-4ef7-a01f-22f1cc30af62" d="M493.1852,401.1402c-.82194-2.97748-2.23311-5.30149-4.23586-6.97045s-4.54458-2.50422-7.62549-2.50422c-2.36318,0-4.39101,.48893-6.08504,1.46367-1.69482,.9763-3.0817,2.27229-4.15986,3.88953-1.07816,1.61881-1.87503,3.44134-2.38747,5.46917-.51401,2.02939-.77023,4.07132-.77023,6.12421,0,2.10618,.2429,4.15907,.73183,6.16182,.48737,2.00275,1.27092,3.80021,2.34908,5.39238s2.46504,2.86309,4.15907,3.81275c1.69482,.94966,3.74771,1.42449,6.16261,1.42449,3.43978,0,6.20022-.94966,8.27976-2.85055,2.08032-1.89932,3.40138-4.51794,3.96711-7.85586h4.9293c-.41136,2.20804-1.06563,4.22333-1.96357,6.04586-.89951,1.8241-2.05446,3.38963-3.46642,4.69816-1.41274,1.31009-3.09423,2.32557-5.04527,3.0433-1.95182,.71773-4.18572,1.07816-6.70091,1.07816-3.18512,0-5.93146-.53908-8.24215-1.61724s-4.21079-2.55437-5.69953-4.42862c-1.49031-1.87425-2.59355-4.09482-3.31206-6.6633-.72008-2.5669-1.07895-5.31403-1.07895-8.24136,0-2.77376,.39726-5.42999,1.19413-7.97182,.7953-2.54183,1.96436-4.78905,3.50481-6.74008s3.4531-3.5056,5.73792-4.66055c2.28483-1.15495,4.91677-1.73321,7.89582-1.73321,4.62137,0,8.35733,1.1048,11.20709,3.31284s4.63312,5.64938,5.3532,10.3209h-4.69894Z"/>
  <path class="uuid-6c979f30-9b81-4ef7-a01f-22f1cc30af62" d="M507.43559,428.48447v-55.45799h4.62137v34.50747l19.56442-18.94933h6.31618l-14.94305,14.40475,16.71465,25.4951h-5.16045l-14.94305-22.26061-7.54871,7.1632v15.09741h-4.62137Z"/>
  <path class="uuid-6c979f30-9b81-4ef7-a01f-22f1cc30af62" d="M347.16195,365.35567c-26.53143,0-48.11632-21.58489-48.11632-48.11632s21.58489-48.11632,48.11632-48.11632h28.55852c10.7841,0,19.55779,8.77325,19.55779,19.55779v28.55852c0,26.53143-21.58489,48.11632-48.11632,48.11632Zm0-91.73578c-24.05201,0-43.61946,19.56745-43.61946,43.61946s19.56745,43.61946,43.61946,43.61946,43.61946-19.56745,43.61946-43.61946v-28.55852c0-8.30425-6.75626-15.06094-15.06094-15.06094h-28.55852Z"/>
  <path class="uuid-6c979f30-9b81-4ef7-a01f-22f1cc30af62" d="M361.72326,296.37797c-.04904,.26014-.061,.47971-.13218,.67802-1.23231,3.43343-2.45561,6.87024-3.71694,10.29304-.60506,1.64191-2.06636,2.3658-3.56026,1.82293-1.15471-.4196-1.80091-1.27394-1.84067-2.48655-.11385-3.47102-.17927-6.94363-.26459-10.41559-.05119-2.08253,2.05069-3.34573,3.7026-2.67751,1.9915,.80559,4.02293,1.49523,5.81204,2.78567Z"/>
  <path class="uuid-6c979f30-9b81-4ef7-a01f-22f1cc30af62" d="M335.21388,338.11233c.58699-1.65301,1.13949-3.22191,1.70125-4.78748,.68271-1.9027,1.37205-3.80304,2.06073-5.7036,.65603-1.81056,1.83383-2.69807,3.25862-2.42575,1.35698,.25936,2.38283,1.36724,2.35634,3.3156-.04064,2.98724,.12755,5.97724,.20005,8.96622,.01063,.43864,.02762,.88494-.03623,1.31615-.21174,1.42994-1.58639,2.58912-2.89833,2.27285-2.35763-.56834-4.54182-1.5792-6.64243-2.95398Z"/>
  <path class="uuid-9d50b494-9898-412c-b1b0-4c45e8a972ac" d="M326.54528,328.6551c1.47775-1.24898,2.85181-2.41348,4.22936-3.57383,1.54904-1.30476,3.0945-2.61387,4.65411-3.90589,1.2819-1.06196,2.59648-1.11626,3.70968-.18481,1.07138,.89646,1.22569,2.27388,.44612,3.70675-1.5563,2.8605-3.10652,5.72439-4.64188,8.59614-.41055,.76786-.92096,1.38821-1.79274,1.63996-.96886,.2798-1.88091,.13623-2.56636-.59132-1.57192-1.6685-2.9368-3.49603-4.03829-5.68701Z"/>
  <path class="uuid-9bc0d33f-9fe4-4fe8-954f-76e66b94492b" d="M327.64429,303.91123c3.8158,1.37779,7.49724,2.68355,11.1592,4.04191,1.3029,.4833,1.95504,1.74926,1.72334,3.07037-.21931,1.25042-1.21566,2.18197-2.57922,2.23101-3.46999,.12479-6.94187,.2036-10.41361,.26993-2.19324,.0419-3.34954-2.01763-2.65249-3.81046,.76502-1.96758,1.52768-3.91877,2.76278-5.80277Z"/>
  <path class="uuid-6c979f30-9b81-4ef7-a01f-22f1cc30af62" d="M337.01701,295.36083c.21907,.19247,.40145,.31605,.53806,.47817,2.38038,2.82509,4.76397,5.64763,7.12011,8.49286,.29657,.35812,.5405,.81968,.63873,1.27036,.24767,1.13659-.14302,2.09393-1.09508,2.76684-.95534,.67521-1.94894,.6641-2.97741,.09663-2.34807-1.29558-4.71154-2.56326-7.0696-3.84073-.6185-.33507-1.24894-.649-1.85852-.99942-1.94846-1.12005-2.19944-3.25034-.48268-4.66855,1.2848-1.06137,2.66626-2.00724,4.02215-2.98018,.34705-.24903,.76029-.40584,1.16422-.61598Z"/>
  <path class="uuid-6c979f30-9b81-4ef7-a01f-22f1cc30af62" d="M323.81263,316.13839c1.96924-.36324,3.86773-.71769,5.7679-1.06275,1.8619-.33812,3.7252-.6685,5.58849-.99892,1.5572-.27614,2.79438,.3728,3.30153,1.72606,.49345,1.31673,.01446,2.55797-1.30089,3.36586-2.70052,1.65867-5.39256,3.33152-8.10989,4.96221-.55287,.33179-1.18241,.61677-1.81072,.72452-1.1474,.19677-2.41263-.45953-2.68208-1.47272-.62268-2.34136-.91347-4.73456-.75435-7.24425Z"/>
  <path class="uuid-9bc0d33f-9fe4-4fe8-954f-76e66b94492b" d="M370.55414,305.95836c-.25564,.15673-.50309,.26927-.70391,.43746-2.76796,2.31799-5.5353,4.63682-8.28866,6.97208-.71259,.60437-1.48404,.94731-2.42292,.75658-1.78382-.36236-2.77067-2.2607-1.92229-3.88384,1.65119-3.15906,3.35313-6.29271,5.09437-9.40313,.84208-1.50425,2.77315-1.91343,3.95565-.79771,1.73394,1.63603,3.06356,3.5991,4.28775,5.91856Z"/>
  <path class="uuid-6c979f30-9b81-4ef7-a01f-22f1cc30af62" d="M359.94046,339.2152c-2.06803-2.45429-4.02196-4.77285-5.97545-7.09175-.56699-.67305-1.15225-1.33187-1.69453-2.02433-.87106-1.11227-.84915-2.49086,.02052-3.50816,.88427-1.03438,2.18195-1.25632,3.46383-.56385,2.97981,1.60967,5.95932,3.22009,8.92737,4.85127,1.96135,1.07792,2.23293,3.24265,.53788,4.66353-1.21067,1.01485-2.51911,1.915-3.8041,2.83829-.42052,.30214-.90453,.51597-1.47552,.83501Z"/>
  <path class="uuid-9d50b494-9898-412c-b1b0-4c45e8a972ac" d="M349.59798,292.6114c.22544,1.18143,.45459,2.33887,.66608,3.49954,.44146,2.4227,.87567,4.84674,1.30744,7.27119,.06935,.38937,.14345,.78241,.15909,1.17598,.0495,1.24679-.74043,2.36429-1.89209,2.71953-1.2163,.37516-2.44807-.02697-3.11889-1.10745-1.80938-2.91433-3.61846-5.82972-5.36707-8.7806-1.19949-2.02421-.29333-3.87951,1.9925-4.31989,2.0349-.39203,4.07294-.64896,6.25295-.45832Z"/>
  <path class="uuid-9bc0d33f-9fe4-4fe8-954f-76e66b94492b" d="M347.41992,341.89548c-.33132-1.77172-.65914-3.49388-.97434-5.21835-.34782-1.90299-.68655-3.80765-1.0231-5.71267-.06111-.34586-.12306-.69613-.13255-1.04577-.03336-1.2294,.79341-2.37314,1.92424-2.69685,1.24247-.35565,2.41265,.05723,3.10566,1.14885,.73051,1.15069,1.41832,2.32843,2.13108,3.49048,1.0578,1.72458,2.11479,3.44969,3.18497,5.16659,.49007,.78623,.70504,1.62001,.43609,2.51733-.26903,.89762-.83389,1.58449-1.78164,1.77198-2.19856,.43495-4.4076,.82478-6.87042,.5784Z"/>
  <circle class="uuid-6c979f30-9b81-4ef7-a01f-22f1cc30af62" cx="347.16195" cy="317.23936" r="4.04717"/>
</svg>