<?xml version="1.0" encoding="UTF-8"?>
<svg id="uuid-5a09370f-87c7-4ed4-b185-16186af324b1" data-name="Layer 1" xmlns="http://www.w3.org/2000/svg" viewBox="0 0 720 720">
  <defs>
    <style>
      .uuid-166a13ad-e5ac-4ea1-8453-226649846bca {
        fill: #fff;
      }

      .uuid-feecd8c9-c35f-4f0a-b35e-e1f3ddb67154 {
        fill: #0fb9ff;
      }
    </style>
  </defs>
  <g>
    <path class="uuid-166a13ad-e5ac-4ea1-8453-226649846bca" d="M405.82643,444.28687h-3.07592v9.03699h-1.15248v-9.03699h-3.09011v-.93964h7.31851v.93964Z"/>
    <path class="uuid-166a13ad-e5ac-4ea1-8453-226649846bca" d="M417.87076,453.32386h-5.2114v-9.97663h5.16883v1.01059h-4.00926v3.09011h3.85396v1.01059h-3.85396v3.85475h4.05182v1.01059Z"/>
    <path class="uuid-166a13ad-e5ac-4ea1-8453-226649846bca" d="M431.45777,452.70111c-.78277,.54235-1.6901,.81352-2.72276,.81352-1.29122,0-2.27265-.44302-2.94506-1.32906-.67163-.88604-1.00744-2.1678-1.00744-3.84687,0-1.62073,.32556-2.89146,.97591-3.80745,.65034-.91757,1.6428-1.37478,2.97659-1.37478,.48086,0,.95699,.05991,1.42839,.18288s.85136,.28536,1.13908,.48874l-.38232,.91127c-.66453-.3768-1.39291-.56599-2.18515-.56599-.91915,0-1.6026,.33424-2.05035,1.00113s-.67163,1.72163-.67163,3.16421c0,2.77164,.90732,4.15746,2.72197,4.15746,.76859,0,1.55609-.23491,2.36172-.70631l.36104,.91127Z"/>
    <path class="uuid-166a13ad-e5ac-4ea1-8453-226649846bca" d="M444.13115,453.32386h-1.15958v-4.95048h-3.41488v4.95048h-1.15958v-9.97663h1.15958v4.00926h3.41488v-4.00926h1.15958v9.97663Z"/>
    <path class="uuid-166a13ad-e5ac-4ea1-8453-226649846bca" d="M457.30746,453.32386h-1.28728l-3.57806-7.87662v7.87662h-1.15958v-9.97663h1.29438l3.59225,7.80567v-7.80567h1.13829v9.97663Z"/>
    <path class="uuid-166a13ad-e5ac-4ea1-8453-226649846bca" d="M467.31562,443.15646c1.11701,0,1.96916,.44144,2.55564,1.32591,.58728,.88289,.88052,2.16938,.88052,3.85633,0,1.67906-.29246,2.96083-.87658,3.84687-.58491,.88604-1.43785,1.32906-2.55959,1.32906-1.11307,0-1.96285-.44144-2.54934-1.32591-.58728-.88289-.88052-2.16623-.88052-3.85002,0-1.68222,.29246-2.96713,.87658-3.85317,.58491-.88604,1.43548-1.32906,2.55328-1.32906Zm0,9.33969c1.47017,0,2.20564-1.38582,2.20564-4.15746,0-2.77637-.73548-4.16534-2.20564-4.16534-.71656,0-1.26284,.35946-1.63728,1.07838s-.56205,1.74843-.56205,3.08695c0,1.35271,.18604,2.3838,.5589,3.09326,.37207,.70946,.91915,1.0642,1.64044,1.0642Z"/>
    <path class="uuid-166a13ad-e5ac-4ea1-8453-226649846bca" d="M483.26357,453.32386h-5.43055v-9.97663h1.15958v8.96604h4.27097v1.01059Z"/>
    <path class="uuid-166a13ad-e5ac-4ea1-8453-226649846bca" d="M493.38525,443.15646c1.11701,0,1.96916,.44144,2.55564,1.32591,.58728,.88289,.88052,2.16938,.88052,3.85633,0,1.67906-.29246,2.96083-.87658,3.84687-.58491,.88604-1.43785,1.32906-2.55959,1.32906-1.11307,0-1.96285-.44144-2.54934-1.32591-.58728-.88289-.88052-2.16623-.88052-3.85002,0-1.68222,.29246-2.96713,.87658-3.85317,.58491-.88604,1.43548-1.32906,2.55328-1.32906Zm0,9.33969c1.47017,0,2.20564-1.38582,2.20564-4.15746,0-2.77637-.73548-4.16534-2.20564-4.16534-.71656,0-1.26284,.35946-1.63728,1.07838s-.56205,1.74843-.56205,3.08695c0,1.35271,.18604,2.3838,.5589,3.09326,.37207,.70946,.91915,1.0642,1.64044,1.0642Z"/>
    <path class="uuid-166a13ad-e5ac-4ea1-8453-226649846bca" d="M509.65088,452.61755c-.81588,.59753-1.71848,.89708-2.70857,.89708-1.29595,0-2.27895-.43987-2.94821-1.31803-.66926-.87973-1.00428-2.16465-1.00428-3.8579,0-1.63492,.32399-2.9088,.97275-3.81849,.64798-.90969,1.64123-1.36375,2.97975-1.36375,.48086,0,.95699,.05991,1.42839,.18288s.85136,.28536,1.13908,.48874l-.38232,.91127c-.66453-.3768-1.39291-.56599-2.18515-.56599-.91442,0-1.59629,.33581-2.04641,1.00428-.4509,.67005-.67557,1.72321-.67557,3.16105,0,2.77164,.90732,4.15746,2.72197,4.15746,.68345,0,1.19978-.14347,1.549-.43041v-2.46105h-1.79652v-1.00428h2.9561v4.01714Z"/>
    <path class="uuid-166a13ad-e5ac-4ea1-8453-226649846bca" d="M521.6889,453.32386h-4.53268v-1.01059h1.71848v-7.95545h-1.71848v-1.01059h4.53268v1.01059h-1.65463v7.95545h1.65463v1.01059Z"/>
    <path class="uuid-166a13ad-e5ac-4ea1-8453-226649846bca" d="M535.18289,453.32386h-5.2114v-9.97663h5.16883v1.01059h-4.00926v3.09011h3.85396v1.01059h-3.85396v3.85475h4.05182v1.01059Z"/>
    <path class="uuid-166a13ad-e5ac-4ea1-8453-226649846bca" d="M547.66629,444.44926c-.59437-.2018-1.158-.30428-1.6901-.30428-.60383,0-1.09494,.13874-1.4749,.41464-.37917,.2759-.56915,.66847-.56915,1.17771,0,.60226,.49741,1.13356,1.49224,1.59077,.73548,.33897,1.22185,.57545,1.45992,.70631,.23806,.13243,.48007,.31374,.72523,.5455,.24516,.23018,.44144,.50293,.59043,.81667,.1482,.31216,.2223,.66532,.2223,1.05631,0,.97118-.32635,1.72478-.97906,2.25925s-1.42287,.80248-2.30891,.80248c-.85766,0-1.60969-.17027-2.25531-.50924l.24043-.9964c.75913,.3437,1.42129,.51554,1.9865,.51554,.66059,0,1.18953-.17027,1.58762-.51239s.59753-.81194,.59753-1.41104c0-.44302-.12928-.81825-.38863-1.12726s-.73784-.62275-1.43548-.94437c-.71656-.32951-1.18007-.55496-1.38976-.67478s-.4178-.28694-.6259-.4982c-.20732-.21284-.36734-.4509-.48086-.71419-.11273-.26487-.16948-.5518-.16948-.86239,0-.82613,.29719-1.46938,.89077-1.93132,.59437-.46194,1.3464-.69212,2.25609-.69212,.66453,0,1.32433,.1009,1.9794,.3027l-.26092,.9901Z"/>
  </g>
  <path class="uuid-feecd8c9-c35f-4f0a-b35e-e1f3ddb67154" d="M205.37887,428.90576c-4.16219,3.80903-9.48474,5.71355-15.96766,5.71355-8.02167,0-14.32801-2.57299-18.91902-7.71896-4.59102-5.1712-6.88652-12.25953-6.88652-21.26498,0-9.73699,2.61083-17.24154,7.83248-22.51364,4.54057-4.59102,10.31717-6.88652,17.32983-6.88652,9.38384,0,16.24513,3.07749,20.5839,9.23248,2.39641,3.45587,3.6829,6.92436,3.85948,10.40546h-11.65412c-.75676-2.67389-1.72794-4.69192-2.91353-6.05409-2.11893-2.42163-5.25949-3.63245-9.42167-3.63245-4.23786,0-7.58022,1.70902-10.02708,5.12706s-3.67029,8.255-3.67029,14.51089,1.2928,10.9415,3.8784,14.05683,5.8712,4.673,9.85681,4.673c4.08651,0,7.20184-1.33694,9.346-4.01083,1.18559-1.43785,2.16938-3.59461,2.95137-6.47031h11.5406c-1.00901,6.07931-3.582,11.02348-7.71896,14.83251Z"/>
  <path class="uuid-feecd8c9-c35f-4f0a-b35e-e1f3ddb67154" d="M237.88175,422.24626l8.51356-30.42179h11.46493l-14.15143,40.56239c-2.72434,7.81986-4.88111,12.66944-6.47031,14.54873s-4.76759,2.81893-9.53519,2.81893c-.95856,0-1.72794-.00631-2.30812-.01892s-1.45046-.05676-2.61083-.13243v-8.62707l1.36217,.07568c1.05947,.05045,2.06848,.01261,3.02704-.11351s1.76578-.41622,2.42163-.87028c.63063-.42883,1.21712-1.32433,1.75947-2.6865s.76307-2.19461,.66217-2.49731l-15.13522-43.0597h11.99466l9.00546,30.42179Z"/>
  <path class="uuid-feecd8c9-c35f-4f0a-b35e-e1f3ddb67154" d="M286.61716,434.16524c-3.40542,0-6.14238-.68108-8.21086-2.04325-1.23604-.80721-2.57299-2.21983-4.01083-4.23786v5.18381h-10.55682v-55.6976h10.74601v19.82714c1.36217-1.91713,2.86308-3.3802,4.50273-4.38921,1.94235-1.26127,4.41444-1.8919,7.41626-1.8919,5.42345,0,9.66762,1.95497,12.7325,5.8649s4.59732,8.955,4.59732,15.13522c0,6.40724-1.51352,11.71718-4.54057,15.92982s-7.25229,6.31895-12.67575,6.31895Zm5.90274-21.11363c0-2.92614-.37838-5.34778-1.13514-7.2649-1.43785-3.63245-4.08651-5.44868-7.94599-5.44868-3.90993,0-6.59643,1.77839-8.0595,5.33516-.75676,1.8919-1.13514,4.33876-1.13514,7.34058,0,3.53155,.78199,6.45769,2.34596,8.77843s3.94777,3.4811,7.15139,3.4811c2.77479,0,4.93156-1.12253,6.47031-3.36759s2.30812-5.19643,2.30812-8.8541Z"/>
  <path class="uuid-feecd8c9-c35f-4f0a-b35e-e1f3ddb67154" d="M346.85533,420.95977c-.27748,2.44686-1.55136,4.93156-3.82164,7.4541-3.53155,4.01083-8.47572,6.01625-14.83251,6.01625-5.24688,0-9.87573-1.6901-13.88656-5.0703s-6.01625-8.87933-6.01625-16.49739c0-7.13878,1.80992-12.61268,5.42976-16.42171s8.31806-5.71355,14.09467-5.71355c3.43065,0,6.52076,.64325,9.27032,1.92974s5.01985,3.31714,6.81085,6.09193c1.61442,2.44686,2.66128,5.28471,3.14056,8.51356,.27748,1.8919,.39099,4.61624,.34054,8.17302h-28.22718c.15135,4.13696,1.45046,7.03788,3.89732,8.70275,1.4883,1.03424,3.2793,1.55136,5.373,1.55136,2.21983,0,4.02345-.63063,5.41084-1.8919,.75676-.68108,1.42523-1.62704,2.00542-2.83785h11.01087Zm-10.67033-12.63791c-.17658-2.85047-1.04055-5.01354-2.59191-6.48923s-3.47479-2.21353-5.7703-2.21353c-2.49731,0-4.43336,.78199-5.80814,2.34596s-2.23875,3.6829-2.59191,6.35679h16.76225Z"/>
  <path class="uuid-feecd8c9-c35f-4f0a-b35e-e1f3ddb67154" d="M375.38521,401.77588c-4.33876,0-7.25229,1.41262-8.74059,4.23786-.83244,1.5892-1.24866,4.03606-1.24866,7.34058v19.71362h-10.85952v-41.24347h10.29195v7.18923c1.66487-2.74956,3.11533-4.62885,4.35138-5.63787,2.01803-1.6901,4.64147-2.53515,7.87031-2.53515,.2018,0,.37207,.00631,.51081,.01892s.44775,.03153,.92703,.05676v11.04871c-.68108-.07568-1.28649-.12613-1.81623-.15135s-.95856-.03784-1.28649-.03784Z"/>
  <path class="uuid-166a13ad-e5ac-4ea1-8453-226649846bca" d="M390.54566,461.79175h-4.64935v-68.86525h4.64935v7.05207h.15529c.67084-1.29122,1.53638-2.45317,2.59585-3.48741,1.05868-1.03266,2.22062-1.8856,3.48741-2.55722,1.26521-.67005,2.56905-1.18717,3.91308-1.54978,1.34325-.36104,2.66049-.54235,3.9525-.54235,3.25407,0,6.01783,.54235,8.29126,1.62704,2.27265,1.08469,4.14563,2.57141,5.61816,4.45701s2.54382,4.11962,3.21623,6.70206c.67084,2.58402,1.00744,5.34778,1.00744,8.29126,0,2.79056-.36261,5.47706-1.08548,8.0595-.72365,2.58402-1.82096,4.84327-3.2927,6.78089-1.47253,1.93762-3.3329,3.48741-5.57954,4.64935-2.24742,1.16194-4.8953,1.7437-7.94362,1.7437-2.84101,0-5.56692-.63379-8.17538-1.89821-2.60925-1.266-4.66275-3.13898-6.16051-5.61895v35.15628Zm0-48.63923c0,2.27344,.3098,4.4302,.93019,6.47031,.6196,2.04168,1.51116,3.82322,2.6731,5.34778,1.16273,1.52456,2.58323,2.73853,4.2623,3.64191,1.67828,.90338,3.57648,1.35586,5.69541,1.35586,2.37591,0,4.45622-.47771,6.23855-1.43312s3.24146-2.25925,4.37818-3.91466c1.13593-1.65226,1.96285-3.5757,2.47997-5.77188,.51554-2.19618,.72286-4.55948,.6196-7.09148,0-2.53042-.34843-4.76602-1.04606-6.70206-.69764-1.93762-1.66566-3.57727-2.90565-4.9221-1.23998-1.34167-2.68729-2.3633-4.33955-3.06015-1.65384-.69685-3.46218-1.04685-5.42503-1.04685-2.16938,0-4.107,.43987-5.81129,1.31803-1.70508,.87816-3.12637,2.07952-4.2623,3.6025-1.13672,1.52456-2.00305,3.3329-2.59585,5.42503-.59437,2.09213-.89156,4.35295-.89156,6.78089Z"/>
  <path class="uuid-166a13ad-e5ac-4ea1-8453-226649846bca" d="M451.14408,409.66511c.87816-.10248,1.92422-.25698,3.13898-.46509,1.21318-.20496,2.20801-.49032,2.9829-.85136s1.25181-.9696,1.4339-1.82253c.18052-.85136,.27117-1.63807,.27117-2.3633,0-2.37591-.76307-4.32615-2.28605-5.85071-1.52456-1.52298-4.09518-2.28605-7.71029-2.28605-1.60181,0-3.07434,.14347-4.41759,.42725-1.34404,.28379-2.51781,.7741-3.52524,1.47253-1.00744,.69685-1.83436,1.62704-2.47997,2.78898-.6464,1.16194-1.07287,2.62344-1.27861,4.37818h-4.72739c.15529-2.37591,.69764-4.4034,1.62782-6.08247,.9294-1.67906,2.13076-3.04754,3.60329-4.107s3.17682-1.83357,5.11444-2.32546c1.93684-.49032,3.99113-.73627,6.16051-.73627,2.01488,0,3.91308,.22072,5.69541,.65901,1.78233,.43987,3.33211,1.13672,4.65014,2.09213,1.31724,.95699,2.3499,2.2356,3.09957,3.83583,.74809,1.60181,1.12332,3.56466,1.12332,5.89012v21.85147c0,1.80992,.32241,2.95925,.96881,3.44957,.64561,.49189,1.94945,.37523,3.91308-.34843v3.64191c-.36183,.10405-.89077,.25698-1.58841,.46509-.69764,.20496-1.38267,.30901-2.0535,.30901-.72365,0-1.42129-.07725-2.09213-.23176-.77489-.10405-1.39528-.34843-1.85958-.73627-.46509-.38784-.84032-.85293-1.12411-1.39528-.28457-.54235-.47849-1.13514-.58097-1.78154-.10405-.6464-.15529-1.33064-.15529-2.05429-1.96364,2.16938-4.21106,3.82322-6.74148,4.95994-2.532,1.13514-5.26974,1.70429-8.21401,1.70429-1.7571,0-3.44878-.23176-5.07582-.69685-1.62782-.46509-3.06094-1.18875-4.30092-2.16938-1.23998-.98221-2.2222-2.18199-2.94506-3.60407-.72365-1.4205-1.08469-3.11218-1.08469-5.0766,0-6.81873,4.67458-10.84848,14.02609-12.08768l6.43168-.85293Zm7.82696,2.32546c-1.96364,.82613-3.9525,1.36848-5.96659,1.62704-2.01488,.25856-4.02975,.46509-6.04463,.6196-3.56466,.25856-6.3426,1.05947-8.33068,2.40272-1.98965,1.34325-2.98369,3.38335-2.98369,6.12188,0,1.2392,.24516,2.31285,.73627,3.21623,.49032,.90338,1.13593,1.65384,1.93762,2.24663,.80012,.59437,1.7303,1.03424,2.78977,1.31803,1.05789,.28379,2.13076,.42568,3.21545,.42568,1.86037,0,3.66793-.23333,5.42503-.69685,1.75553-.46509,3.31871-1.17456,4.68798-2.13154,1.36848-.95541,2.46657-2.16938,3.29349-3.64191,.82613-1.47253,1.23998-3.21623,1.23998-5.23111v-6.27639Z"/>
  <path class="uuid-166a13ad-e5ac-4ea1-8453-226649846bca" d="M504.22613,405.55811c-.82692-2.99551-2.24663-5.33359-4.26151-7.01265s-4.5721-2.51938-7.67166-2.51938c-2.37749,0-4.41759,.49189-6.12188,1.47253-1.70508,.98221-3.10035,2.28605-4.18505,3.91308-1.08469,1.62861-1.88638,3.46218-2.40193,5.50228-.51712,2.04168-.77489,4.09597-.77489,6.1613,0,2.11893,.24437,4.18426,.73627,6.19913,.49032,2.01488,1.27861,3.82322,2.3633,5.42503s2.47997,2.88042,4.18426,3.83583c1.70508,.95541,3.7704,1.43312,6.19992,1.43312,3.4606,0,6.23776-.95541,8.32989-2.86781,2.09292-1.91082,3.42198-4.5453,3.99113-7.90342h4.95915c-.41385,2.22141-1.07208,4.2489-1.97546,6.08247-.90496,1.83515-2.0669,3.41015-3.48741,4.7266-1.42129,1.31803-3.11297,2.33965-5.07582,3.06173-1.96364,.72208-4.21106,1.08469-6.74148,1.08469-3.20441,0-5.96738-.54235-8.29205-1.62704s-4.23628-2.56983-5.73404-4.45543c-1.49933-1.8856-2.60925-4.11962-3.33211-6.70364-.72444-2.58245-1.08548-5.3462-1.08548-8.29126,0-2.79056,.39966-5.46287,1.20136-8.02009,.80012-2.55722,1.97625-4.81804,3.52603-6.78089s3.47401-3.52682,5.77267-4.68876,4.94654-1.7437,7.94362-1.7437c4.64935,0,8.40793,1.11149,11.27495,3.3329s4.66117,5.68359,5.38562,10.38339h-4.72739Z"/>
  <path class="uuid-166a13ad-e5ac-4ea1-8453-226649846bca" d="M518.56281,433.06794v-55.79378h4.64935v34.71641l19.68288-19.06407h6.35443l-15.03353,14.49197,16.81586,25.64947h-5.1917l-15.03353-22.39539-7.59441,7.20657v15.18882h-4.64935Z"/>
  <path class="uuid-feecd8c9-c35f-4f0a-b35e-e1f3ddb67154" d="M357.31873,369.55691c-26.69207,0-48.40765-21.71558-48.40765-48.40765s21.71558-48.40765,48.40765-48.40765h28.73144c10.8494,0,19.67621,8.82637,19.67621,19.67621v28.73144c0,26.69207-21.71558,48.40765-48.40765,48.40765Zm0-92.29123c-24.19764,0-43.88357,19.68593-43.88357,43.88357s19.68593,43.88357,43.88357,43.88357,43.88357-19.68593,43.88357-43.88357v-28.73144c0-8.35453-6.79716-15.15213-15.15213-15.15213h-28.73144Z"/>
  <path class="uuid-feecd8c9-c35f-4f0a-b35e-e1f3ddb67154" d="M371.96821,300.16156c-.04934,.26172-.06137,.48261-.13298,.68212-1.23977,3.45422-2.47048,6.91184-3.73944,10.35536-.60872,1.65185-2.07887,2.38012-3.58181,1.83397-1.1617-.42214-1.81181-1.28165-1.85182-2.50161-.11454-3.49204-.18035-6.98567-.2662-10.47866-.0515-2.09514,2.06311-3.36598,3.72501-2.69373,2.00356,.81046,4.04729,1.50429,5.84723,2.80254Z"/>
  <path class="uuid-feecd8c9-c35f-4f0a-b35e-e1f3ddb67154" d="M345.29831,342.14861c.59055-1.66302,1.14639-3.24142,1.71156-4.81647,.68684-1.91422,1.38036-3.82606,2.0732-5.73814,.66-1.82152,1.84494-2.71441,3.27835-2.44044,1.3652,.26093,2.39726,1.37552,2.37061,3.33567-.04088,3.00533,.12832,6.01343,.20126,9.02051,.0107,.4413,.02779,.8903-.03645,1.32412-.21303,1.4386-1.59599,2.60479-2.91587,2.28661-2.37191-.57178-4.56932-1.58877-6.68265-2.97187Z"/>
  <path class="uuid-166a13ad-e5ac-4ea1-8453-226649846bca" d="M336.57723,332.63411c1.4867-1.25655,2.86908-2.4281,4.25497-3.59547,1.55842-1.31266,3.11324-2.62969,4.68229-3.92954,1.28966-1.06839,2.6122-1.12301,3.73214-.18593,1.07787,.90189,1.23311,2.28765,.44882,3.7292-1.56572,2.87782-3.12533,5.75905-4.66999,8.64819-.41303,.77251-.92653,1.39662-1.8036,1.64989-.97472,.28149-1.8923,.13705-2.5819-.5949-1.58144-1.6786-2.95458-3.5172-4.06274-5.72144Z"/>
  <path class="uuid-166a13ad-e5ac-4ea1-8453-226649846bca" d="M337.6829,307.74043c3.8389,1.38614,7.54264,2.6998,11.22677,4.06639,1.31079,.48623,1.96688,1.75986,1.73377,3.08896-.22064,1.25799-1.22302,2.19518-2.59484,2.24452-3.491,.12554-6.9839,.20483-10.47666,.27156-2.20652,.04216-3.36983-2.02985-2.66855-3.83353,.76965-1.9795,1.53693-3.9425,2.77951-5.8379Z"/>
  <path class="uuid-feecd8c9-c35f-4f0a-b35e-e1f3ddb67154" d="M347.11236,299.13826c.22039,.19364,.40388,.31796,.54132,.48107,2.39479,2.8422,4.79282,5.68183,7.16322,8.54429,.29837,.36029,.54377,.82464,.6426,1.27805,.24917,1.14347-.14388,2.10661-1.10171,2.78359-.96112,.6793-1.96074,.66812-2.99544,.09722-2.36228-1.30343-4.74007-2.57878-7.1124-3.86399-.62224-.3371-1.2565-.65293-1.86977-1.00547-1.96026-1.12683-2.21275-3.27002-.4856-4.69682,1.29258-1.0678,2.6824-2.01939,4.04651-2.99822,.34915-.25054,.76489-.4083,1.17127-.61971Z"/>
  <path class="uuid-feecd8c9-c35f-4f0a-b35e-e1f3ddb67154" d="M333.82804,320.04162c1.98116-.36544,3.89115-.72203,5.80283-1.06919,1.87318-.34017,3.74775-.67255,5.62233-1.00497,1.56663-.27781,2.8113,.37506,3.32152,1.73651,.49644,1.3247,.01454,2.57346-1.30876,3.38624-2.71687,1.66871-5.42521,3.35169-8.15899,4.99226-.55622,.3338-1.18957,.62051-1.82168,.72891-1.15435,.19796-2.42724-.46231-2.69832-1.48164-.62645-2.35554-.919-4.76323-.75892-7.28811Z"/>
  <path class="uuid-166a13ad-e5ac-4ea1-8453-226649846bca" d="M380.85256,309.79996c-.25719,.15768-.50613,.2709-.70817,.4401-2.78472,2.33202-5.56882,4.6649-8.33884,7.0143-.7169,.60803-1.49303,.95304-2.43759,.76116-1.79462-.36456-2.78744-2.27439-1.93393-3.90735,1.66119-3.17819,3.37343-6.33081,5.12522-9.46006,.84718-1.51336,2.78994-1.92502,3.97961-.80254,1.74444,1.64593,3.08211,3.62089,4.31371,5.9544Z"/>
  <path class="uuid-feecd8c9-c35f-4f0a-b35e-e1f3ddb67154" d="M370.17461,343.25816c-2.08056-2.46915-4.04631-4.80175-6.01163-7.13469-.57042-.67713-1.15923-1.33994-1.70479-2.03659-.87633-1.11901-.85429-2.50594,.02065-3.5294,.88963-1.04065,2.19516-1.26392,3.4848-.56727,2.99785,1.61942,5.9954,3.23958,8.98142,4.88065,1.97322,1.08444,2.24645,3.26228,.54114,4.69176-1.218,1.02099-2.53436,1.9266-3.82714,2.85547-.42306,.30397-.91001,.51909-1.48446,.84006Z"/>
  <path class="uuid-166a13ad-e5ac-4ea1-8453-226649846bca" d="M359.76951,296.37217c.22681,1.18858,.45734,2.35303,.67011,3.52073,.44413,2.43737,.88098,4.87609,1.31535,7.31522,.06977,.39172,.14432,.78715,.16005,1.1831,.0498,1.25434-.74492,2.3786-1.90355,2.736-1.22367,.37743-2.4629-.02713-3.13778-1.11415-1.82033-2.93197-3.64037-5.86502-5.39956-8.83376-1.20675-2.03646-.2951-3.903,2.00456-4.34605,2.04722-.3944,4.0976-.65289,6.29081-.46109Z"/>
  <path class="uuid-166a13ad-e5ac-4ea1-8453-226649846bca" d="M357.57826,345.95467c-.33333-1.78245-.66313-3.51504-.98024-5.24994-.34993-1.91451-.69071-3.8307-1.02929-5.74726-.06148-.34796-.12381-.70035-.13335-1.0521-.03356-1.23685,.79822-2.38751,1.93589-2.71317,1.24999-.35781,2.42726,.05757,3.12447,1.15581,.73493,1.15766,1.4269,2.34253,2.14398,3.51161,1.0642,1.73502,2.12759,3.47058,3.20426,5.19787,.49303,.79099,.70931,1.62982,.43873,2.53257-.27066,.90306-.83894,1.59409-1.79243,1.78271-2.21188,.43758-4.43429,.82977-6.91202,.5819Z"/>
  <circle class="uuid-feecd8c9-c35f-4f0a-b35e-e1f3ddb67154" cx="357.31873" cy="321.14925" r="4.07167"/>
</svg>