<?xml version="1.0" encoding="UTF-8"?>
<svg id="uuid-20733f90-006a-42f6-baa4-ee9311ae7254" data-name="Layer 1" xmlns="http://www.w3.org/2000/svg" viewBox="0 0 720 720">
  <defs>
    <style>
      .uuid-cad6bcde-6c20-4af0-b126-ec22b0133d3f {
        fill: #fff;
      }

      .uuid-36a4c035-a940-4d4d-8f8f-53653a69f10c {
        fill: #0fb9ff;
      }

      .uuid-d3fa4995-c8af-4689-8aa9-9c2a46c20709 {
        fill: #394c77;
      }

      .uuid-3ba07e9f-43ca-45d6-a2d0-9134fd26b61b {
        fill: #3b517b;
      }
    </style>
  </defs>
  <path class="uuid-36a4c035-a940-4d4d-8f8f-53653a69f10c" d="M127.26395,414.00938c-21.61145,0-39.19365-17.5822-39.19365-39.19365s17.5822-39.19365,39.19365-39.19365h23.26264c8.7843,0,15.931,7.14634,15.931,15.931v23.26264c0,21.61145-17.5822,39.19365-39.19365,39.19365Zm0-74.72433c-19.59181,0-35.53069,15.93887-35.53069,35.53069s15.93887,35.53069,35.53069,35.53069,35.53069-15.93887,35.53069-35.53069v-23.26264c0-6.76431-5.50338-12.26805-12.26805-12.26805h-23.26264Z"/>
  <g>
    <path class="uuid-cad6bcde-6c20-4af0-b126-ec22b0133d3f" d="M460.79935,412.65335h-3.55593v10.44726h-1.33234v-10.44726h-3.57234v-1.08628h8.46061v1.08628Z"/>
    <path class="uuid-cad6bcde-6c20-4af0-b126-ec22b0133d3f" d="M474.72326,423.10061h-6.02467v-11.53355h5.97546v1.1683h-4.63493v3.57234h4.4554v1.1683h-4.4554v4.45631h4.68414v1.1683Z"/>
    <path class="uuid-cad6bcde-6c20-4af0-b126-ec22b0133d3f" d="M490.43061,422.38068c-.90493,.62698-1.95385,.94047-3.14767,.94047-1.49273,0-2.62731-.51216-3.40466-1.53647-.77644-1.02431-1.16465-2.5061-1.16465-4.4472,0-1.87365,.37637-3.34269,1.1282-4.40163,.75183-1.06077,1.89917-1.58933,3.44111-1.58933,.5559,0,1.10633,.06926,1.65129,.21142s.98422,.32989,1.31684,.56501l-.44199,1.05348c-.76823-.43561-1.61029-.65432-2.52615-.65432-1.06259,0-1.85269,.3864-2.37032,1.15736s-.77644,1.9903-.77644,3.658c0,3.20417,1.04892,4.80625,3.14676,4.80625,.88853,0,1.79893-.27157,2.73029-.81653l.41738,1.05348Z"/>
    <path class="uuid-cad6bcde-6c20-4af0-b126-ec22b0133d3f" d="M505.08175,423.10061h-1.34054v-5.72303h-3.9478v5.72303h-1.34054v-11.53355h1.34054v4.63493h3.9478v-4.63493h1.34054v11.53355Z"/>
    <path class="uuid-cad6bcde-6c20-4af0-b126-ec22b0133d3f" d="M520.31431,423.10061h-1.48817l-4.13644-9.10582v9.10582h-1.34054v-11.53355h1.49637l4.15284,9.0238v-9.0238h1.31593v11.53355Z"/>
    <path class="uuid-cad6bcde-6c20-4af0-b126-ec22b0133d3f" d="M531.88431,411.34653c1.29133,0,2.27645,.51033,2.95447,1.53282,.67893,1.02067,1.01793,2.50793,1.01793,4.45813,0,1.94109-.3381,3.42288-1.01338,4.4472-.67619,1.02431-1.66223,1.53647-2.95903,1.53647-1.28677,0-2.26916-.51033-2.94718-1.53282-.67893-1.02067-1.01793-2.50428-1.01793-4.45084,0-1.94474,.3381-3.43017,1.01338-4.45449,.67619-1.02431,1.6595-1.53647,2.95173-1.53647Zm0,10.79721c1.69959,0,2.54985-1.60208,2.54985-4.80625,0-3.20964-.85025-4.81537-2.54985-4.81537-.82838,0-1.45992,.41556-1.89279,1.24667s-.64976,2.02129-.64976,3.56869c0,1.56381,.21507,2.7558,.64612,3.57598,.43014,.82018,1.06259,1.23027,1.89644,1.23027Z"/>
    <path class="uuid-cad6bcde-6c20-4af0-b126-ec22b0133d3f" d="M550.32103,423.10061h-6.27802v-11.53355h1.34054v10.36525h4.93748v1.1683Z"/>
    <path class="uuid-cad6bcde-6c20-4af0-b126-ec22b0133d3f" d="M562.02226,411.34653c1.29133,0,2.27645,.51033,2.95447,1.53282,.67893,1.02067,1.01793,2.50793,1.01793,4.45813,0,1.94109-.3381,3.42288-1.01338,4.4472-.67619,1.02431-1.66223,1.53647-2.95903,1.53647-1.28677,0-2.26916-.51033-2.94718-1.53282-.67893-1.02067-1.01793-2.50428-1.01793-4.45084,0-1.94474,.3381-3.43017,1.01338-4.45449,.67619-1.02431,1.6595-1.53647,2.95173-1.53647Zm0,10.79721c1.69959,0,2.54985-1.60208,2.54985-4.80625,0-3.20964-.85025-4.81537-2.54985-4.81537-.82838,0-1.45992,.41556-1.89279,1.24667s-.64976,2.02129-.64976,3.56869c0,1.56381,.21507,2.7558,.64612,3.57598,.43014,.82018,1.06259,1.23027,1.89644,1.23027Z"/>
    <path class="uuid-cad6bcde-6c20-4af0-b126-ec22b0133d3f" d="M580.82624,422.28408c-.94321,.69077-1.98666,1.03707-3.13126,1.03707-1.49819,0-2.6346-.50851-3.4083-1.52371-.7737-1.01702-1.16101-2.50246-1.16101-4.45995,0-1.89006,.37455-3.36274,1.12456-4.41439,.7491-1.05165,1.89735-1.57657,3.44475-1.57657,.5559,0,1.10633,.06926,1.65129,.21142s.98422,.32989,1.31684,.56501l-.44199,1.05348c-.76823-.43561-1.61029-.65432-2.52615-.65432-1.05712,0-1.8454,.38822-2.36576,1.16101-.52127,.77461-.78099,1.99212-.78099,3.65436,0,3.20417,1.04892,4.80625,3.14676,4.80625,.79011,0,1.38701-.16586,1.79073-.49758v-2.84511h-2.07688v-1.16101h3.41741v4.64404Z"/>
    <path class="uuid-cad6bcde-6c20-4af0-b126-ec22b0133d3f" d="M594.74287,423.10061h-5.24004v-1.1683h1.98666v-9.19695h-1.98666v-1.1683h5.24004v1.1683h-1.91284v9.19695h1.91284v1.1683Z"/>
    <path class="uuid-cad6bcde-6c20-4af0-b126-ec22b0133d3f" d="M610.34268,423.10061h-6.02467v-11.53355h5.97546v1.1683h-4.63493v3.57234h4.4554v1.1683h-4.4554v4.45631h4.68414v1.1683Z"/>
    <path class="uuid-cad6bcde-6c20-4af0-b126-ec22b0133d3f" d="M624.7742,412.84108c-.68713-.2333-1.33872-.35177-1.95385-.35177-.69806,0-1.26581,.16039-1.70506,.47935-.43834,.31896-.65797,.77279-.65797,1.3615,0,.69624,.57504,1.31046,1.72511,1.83902,.85025,.39186,1.41253,.66526,1.68775,.81653,.27522,.1531,.55499,.3627,.83841,.63063,.28342,.2661,.51033,.58142,.68257,.94412,.17133,.36088,.25699,.76915,.25699,1.22116,0,1.12273-.37728,1.99395-1.13185,2.61182s-1.64492,.92771-2.66923,.92771c-.99151,0-1.8609-.19684-2.60726-.58871l.27795-1.1519c.87759,.39733,1.64309,.596,2.2965,.596,.76368,0,1.37517-.19684,1.83538-.59235s.69077-.93865,.69077-1.63125c0-.51216-.14945-.94594-.44928-1.30317s-.85299-.71994-1.6595-1.09175c-.82838-.38093-1.36423-.64156-1.60664-.78008s-.48299-.33172-.72358-.57595c-.23967-.24605-.42467-.52127-.5559-.82565-.13032-.3062-.19593-.63792-.19593-.99697,0-.95505,.34356-1.69868,1.02978-2.23271,.68713-.53403,1.55652-.80013,2.60817-.80013,.76823,0,1.531,.11665,2.2883,.34994l-.30164,1.14461Z"/>
  </g>
  <path class="uuid-cad6bcde-6c20-4af0-b126-ec22b0133d3f" d="M229.0707,394.87192c-4.81172,4.40345-10.96489,6.60518-18.45951,6.60518-9.2735,0-16.56398-2.97452-21.87145-8.92355-5.30747-5.9782-7.96121-14.1727-7.96121-24.58351,0-11.25651,3.01826-19.93219,9.05478-26.02703,5.24915-5.30747,11.92723-7.96121,20.03425-7.96121,10.84824,0,18.78029,3.55776,23.79614,10.67327,2.77038,3.99519,4.25764,8.00495,4.46178,12.0293h-13.47282c-.87486-3.09117-1.99759-5.42412-3.3682-6.99887-2.4496-2.79955-6.08026-4.19932-10.89198-4.19932-4.89921,0-8.76316,1.97572-11.59187,5.92716s-4.24306,9.54324-4.24306,16.77541,1.49455,12.64899,4.48365,16.25049c2.9891,3.6015,6.78744,5.40225,11.39503,5.40225,4.72423,0,8.32573-1.54558,10.8045-4.63675,1.37061-1.66223,2.50793-4.15558,3.41195-7.48004h13.34159c-1.16648,7.02803-4.141,12.74377-8.92355,17.14722Z"/>
  <path class="uuid-cad6bcde-6c20-4af0-b126-ec22b0133d3f" d="M266.64586,387.17316l9.84215-35.1693h13.2541l-16.35985,46.8924c-3.14949,9.0402-5.64284,14.64658-7.48004,16.81915s-5.51161,3.25885-11.02321,3.25885c-1.10815,0-1.99759-.00729-2.66832-.02187s-1.67681-.06561-3.01826-.1531v-9.97338l1.57474,.08749c1.2248,.05832,2.39128,.01458,3.49943-.13123s2.04134-.48117,2.79955-1.00609c.72905-.49575,1.40706-1.531,2.03405-3.10575s.88215-2.53709,.7655-2.88703l-17.49716-49.77943h13.8665l10.41081,35.1693Z"/>
  <path class="uuid-cad6bcde-6c20-4af0-b126-ec22b0133d3f" d="M322.98672,400.95218c-3.93686,0-7.10093-.78737-9.49221-2.36212-1.42893-.93318-2.97452-2.56625-4.63675-4.89921v5.99278h-12.20427v-64.38956h12.42299v22.92128c1.57474-2.21631,3.30988-3.9077,5.20541-5.07418,2.24547-1.4581,5.10334-2.18715,8.57361-2.18715,6.26982,0,11.17631,2.26005,14.71949,6.78015,3.54318,4.5201,5.31476,10.35249,5.31476,17.49716,0,7.40713-1.74972,13.54572-5.24915,18.41576-3.49943,4.87004-8.38406,7.30507-14.65387,7.30507Zm6.82389-24.40854c0-3.38278-.43743-6.18233-1.31229-8.39864-1.66223-4.19932-4.72423-6.29898-9.18601-6.29898-4.5201,0-7.62585,2.05592-9.31724,6.16775-.87486,2.18715-1.31229,5.01585-1.31229,8.48612,0,4.08267,.90402,7.46546,2.71206,10.14835s4.56384,4.02435,8.26741,4.02435c3.20781,0,5.70116-1.29771,7.48004-3.89312s2.66832-6.00736,2.66832-10.23584Z"/>
  <path class="uuid-cad6bcde-6c20-4af0-b126-ec22b0133d3f" d="M392.62543,385.68591c-.32078,2.82871-1.79346,5.70116-4.41803,8.61735-4.08267,4.63675-9.79841,6.95512-17.14722,6.95512-6.06568,0-11.4169-1.95385-16.05365-5.86155-4.63675-3.9077-6.95512-10.265-6.95512-19.07191,0-8.25283,2.09237-14.58097,6.27711-18.98442,4.18474-4.40345,9.61615-6.60518,16.29423-6.60518,3.96602,0,7.53836,.74363,10.71701,2.23089s5.80323,3.83479,7.87372,7.04261c1.86636,2.82871,3.07658,6.10943,3.63066,9.84215,.32078,2.18715,.45201,5.33663,.39369,9.44847h-32.63221c.17497,4.78256,1.67681,8.13618,4.50552,10.06087,1.72055,1.19564,3.79105,1.79346,6.21149,1.79346,2.56625,0,4.65133-.72905,6.25524-2.18715,.87486-.78737,1.64765-1.88095,2.31837-3.28072h12.72919Zm-12.3355-14.61013c-.20413-3.2953-1.20293-5.79594-2.99639-7.50191s-4.01706-2.55896-6.67079-2.55896c-2.88703,0-5.12521,.90402-6.71454,2.71206s-2.58812,4.25764-2.99639,7.34881h19.37811Z"/>
  <path class="uuid-cad6bcde-6c20-4af0-b126-ec22b0133d3f" d="M425.60759,363.50825c-5.01585,0-8.38406,1.63307-10.10461,4.89921-.96234,1.8372-1.44352,4.66591-1.44352,8.48612v22.79006h-12.55421v-47.67977h11.89807v8.31115c1.92469-3.17865,3.6015-5.35122,5.03043-6.51769,2.33296-1.95385,5.3658-2.93077,9.09852-2.93077,.2333,0,.43014,.00729,.59053,.02187s.51762,.03645,1.0717,.06561v12.77293c-.78737-.08749-1.48726-.14581-2.09966-.17497s-1.10815-.04374-1.48726-.04374Z"/>
  <path class="uuid-36a4c035-a940-4d4d-8f8f-53653a69f10c" d="M443.13391,432.88997h-5.37491v-79.61209h5.37491v8.15258h.17953c.77553-1.49273,1.77614-2.836,3.00095-4.03164,1.22389-1.19382,2.56716-2.17985,4.03164-2.95629,1.46265-.77461,2.96996-1.37243,4.52375-1.79164,1.55287-.41738,3.07567-.62698,4.56931-.62698,3.76189,0,6.95695,.62698,9.58516,1.88095,2.62731,1.25396,4.79258,2.9727,6.49491,5.15255s2.9408,4.76251,3.71815,7.74796c.77553,2.98728,1.16465,6.18233,1.16465,9.58516,0,3.22604-.4192,6.33179-1.25487,9.31724-.83658,2.98728-2.10513,5.59909-3.80654,7.83909-1.70233,2.24-3.85302,4.03164-6.45026,5.37491-2.59815,1.34327-5.65924,2.01582-9.18328,2.01582-3.28436,0-6.43568-.73269-9.4512-2.19444-3.01644-1.46356-5.3904-3.62884-7.12189-6.49582v40.64263Zm0-56.22969c0,2.62822,.35815,5.12157,1.07535,7.48004,.71629,2.36029,1.74698,4.41986,3.09025,6.18233,1.34418,1.76247,2.98636,3.16589,4.92746,4.21025,1.94018,1.04436,4.13462,1.56745,6.58422,1.56745,2.74669,0,5.15164-.55225,7.21211-1.65676s3.74731-2.61182,5.06142-4.52557c1.3132-1.91011,2.26916-4.1337,2.86698-6.67262,.596-2.53891,.83567-5.27102,.71629-8.19815,0-2.92531-.4028-5.50978-1.20931-7.74796-.80651-2.24-1.9256-4.13553-3.35909-5.69022-1.43349-1.55105-3.10666-2.73211-5.01676-3.53771-1.91193-.8056-4.00248-1.21022-6.27164-1.21022-2.50793,0-4.74793,.50851-6.71818,1.52371-1.97116,1.0152-3.61426,2.40404-4.92746,4.16469-1.31411,1.76247-2.31564,3.85302-3.00095,6.27164-.68713,2.41862-1.03069,5.03226-1.03069,7.83909Z"/>
  <path class="uuid-36a4c035-a940-4d4d-8f8f-53653a69f10c" d="M513.18909,372.62865c1.0152-.11847,2.22451-.29709,3.62884-.53767,1.40251-.23694,2.55258-.56684,3.4484-.98422s1.44716-1.12091,1.65767-2.10695c.20869-.98422,.31349-1.8937,.31349-2.73211,0-2.74669-.88215-5.00127-2.6428-6.76375-1.76247-1.76065-4.73426-2.6428-8.91353-2.6428-1.85178,0-3.55411,.16586-5.10698,.49393-1.55378,.32807-2.91073,.89491-4.07538,1.70233-1.16465,.8056-2.12062,1.88095-2.86698,3.22422-.74727,1.34327-1.24029,3.03284-1.47815,5.06142h-5.46513c.17953-2.74669,.80651-5.09058,1.88186-7.03167,1.07444-1.94109,2.46327-3.52313,4.1656-4.74793s3.67258-2.11971,5.91258-2.68837c2.23909-.56684,4.61397-.85116,7.12189-.85116,2.32931,0,4.52375,.25517,6.58422,.76186,2.06047,.50851,3.85211,1.31411,5.37582,2.41862,1.5228,1.10633,2.71662,2.58448,3.58327,4.43444,.86483,1.85178,1.29862,4.12095,1.29862,6.80931v25.26153c0,2.09237,.37273,3.42106,1.12,3.9879,.74636,.56866,2.25367,.43378,4.52375-.4028v4.21025c-.41829,.12029-1.02978,.29709-1.83629,.53767-.80651,.23694-1.59844,.35723-2.37396,.35723-.83658,0-1.64309-.08931-2.41862-.26793-.89582-.12029-1.61302-.4028-2.14978-.85116-.53767-.44836-.97146-.98604-1.29953-1.61302-.32898-.62698-.55317-1.31229-.67164-2.05956-.12029-.74727-.17953-1.53829-.17953-2.37488-2.27007,2.50793-4.86822,4.41986-7.79353,5.73397-2.92713,1.31229-6.09211,1.97025-9.49586,1.97025-2.03131,0-3.98698-.26793-5.86793-.8056-1.88186-.53767-3.53862-1.37426-4.97211-2.50793-1.43349-1.13549-2.56898-2.52251-3.40466-4.16651-.83658-1.64218-1.25396-3.59785-1.25396-5.86884,0-7.88284,5.40407-12.54146,16.21495-13.97404l7.43538-.98604Zm9.0484,2.68837c-2.27007,.95505-4.56931,1.58204-6.89771,1.88095-2.32931,.29891-4.65862,.53767-6.98793,.71629-4.12095,.29891-7.3324,1.2248-9.63073,2.77767-2.30015,1.55287-3.44931,3.91135-3.44931,7.07724,0,1.43258,.28342,2.67379,.85116,3.71815,.56684,1.04436,1.3132,1.91193,2.24,2.59724,.92498,.68713,2.00033,1.19564,3.22513,1.52371,1.22298,.32807,2.46327,.49211,3.71724,.49211,2.15069,0,4.24033-.26975,6.27164-.8056,2.02949-.53767,3.83662-1.35785,5.41956-2.46418,1.58204-1.10451,2.85149-2.50793,3.80746-4.21025,.95505-1.70233,1.43349-3.71815,1.43349-6.04746v-7.25585Z"/>
  <path class="uuid-36a4c035-a940-4d4d-8f8f-53653a69f10c" d="M574.55492,367.88072c-.95596-3.46298-2.59724-6.16593-4.92655-8.10702s-5.2856-2.91255-8.86887-2.91255c-2.74851,0-5.10698,.56866-7.07724,1.70233-1.97116,1.13549-3.58418,2.6428-4.83815,4.52375-1.25396,1.88277-2.18077,4.00248-2.77676,6.36095-.59782,2.36029-.89582,4.73517-.89582,7.1228,0,2.4496,.28251,4.83724,.85116,7.16655,.56684,2.32931,1.47815,4.41986,2.73211,6.27164s2.86698,3.32993,4.83724,4.43444c1.97116,1.10451,4.3588,1.65676,7.16746,1.65676,4.00065,0,7.2112-1.10451,9.62982-3.31535,2.41953-2.20902,3.956-5.25462,4.61397-9.1368h5.73305c-.47844,2.56807-1.23938,4.91196-2.28374,7.03167-1.04618,2.12153-2.38946,3.94233-4.03164,5.46422-1.64309,1.52371-3.59877,2.70477-5.86793,3.53953-2.27007,.83476-4.86822,1.25396-7.79353,1.25396-3.70448,0-6.89862-.62698-9.58608-1.88095s-4.89738-2.97087-6.62887-5.15073c-1.73331-2.17985-3.01644-4.76251-3.85211-7.74979-.83749-2.98545-1.25487-6.18051-1.25487-9.58516,0-3.22604,.46203-6.31538,1.38884-9.27167,.92498-2.95629,2.28466-5.56993,4.07629-7.83909s4.01615-4.0772,6.67353-5.42048,5.71847-2.01582,9.18328-2.01582c5.37491,0,9.72004,1.28495,13.03448,3.85302s5.38858,6.57055,6.22607,12.00378h-5.46513Z"/>
  <path class="uuid-36a4c035-a940-4d4d-8f8f-53653a69f10c" d="M591.12893,399.68364v-64.50074h5.37491v40.13412l22.75451-22.03914h7.34607l-17.3796,16.75353,19.44008,29.65222h-6.00189l-17.3796-25.89033-8.77957,8.3312v17.55913h-5.37491Z"/>
  <path class="uuid-36a4c035-a940-4d4d-8f8f-53653a69f10c" d="M139.12502,357.82287c-.03995,.2119-.04969,.39075-.10767,.55229-1.00379,2.79674-2.00024,5.59622-3.02767,8.3843-.49286,1.33743-1.68317,1.92708-2.90004,1.48488-.94058-.34179-1.46695-1.0377-1.49934-2.02545-.09274-2.82736-.14602-5.656-.21553-8.48413-.0417-1.69635,1.67041-2.7253,3.01599-2.181,1.6222,.6562,3.27692,1.21796,4.73426,2.2691Z"/>
  <path class="uuid-36a4c035-a940-4d4d-8f8f-53653a69f10c" d="M117.53153,391.81803c.47814-1.34648,.92819-2.62444,1.38577-3.89969,.55611-1.54986,1.11762-3.0978,1.67859-4.64593,.53437-1.47481,1.49377-2.19774,2.65434-1.97592,1.10534,.21127,1.94096,1.1137,1.91938,2.70075-.0331,2.43329,.10389,4.86882,.16295,7.30353,.00866,.3573,.0225,.72084-.02952,1.07208-.17248,1.16477-1.29221,2.10899-2.36086,1.85137-1.92044-.46295-3.69959-1.28636-5.41066-2.4062Z"/>
  <path class="uuid-3ba07e9f-43ca-45d6-a2d0-9134fd26b61b" d="M110.47043,384.11454c1.20372-1.01737,2.32298-1.96593,3.44507-2.9111,1.26179-1.06281,2.52066-2.12915,3.79105-3.18158,1.04418-.86503,2.11499-.90926,3.02176-.15054,.8727,.73022,.9984,1.85222,.36339,3.01937-1.2677,2.33005-2.53045,4.66286-3.78109,7.00208-.33442,.62547-.75018,1.13078-1.4603,1.33585-.78919,.22791-1.53211,.11097-2.09046-.48167-1.28042-1.35909-2.3922-2.84773-3.28943-4.63241Z"/>
  <path class="uuid-d3fa4995-c8af-4689-8aa9-9c2a46c20709" d="M111.36564,363.95917c3.1082,1.1223,6.10696,2.18591,9.08984,3.29238,1.06129,.39368,1.5925,1.42488,1.40376,2.501-.17864,1.01854-.99023,1.77735-2.10093,1.81729-2.82652,.10165-5.65457,.16585-8.48251,.21987-1.78653,.03413-2.72841-1.64348-2.16062-3.10385,.62315-1.60272,1.24439-3.19208,2.25045-4.7267Z"/>
  <path class="uuid-36a4c035-a940-4d4d-8f8f-53653a69f10c" d="M119.00029,356.99435c.17844,.15678,.327,.25744,.43828,.3895,1.93896,2.30121,3.88054,4.60034,5.79976,6.91795,.24157,.29171,.44027,.66767,.52028,1.03478,.20174,.92582-.1165,1.70563-.89201,2.25376-.77818,.55-1.58753,.54095-2.42528,.07871-1.91264-1.05533-3.83784-2.08793-5.75861-3.12851-.50381-.27294-1.01734-.52865-1.51387-.81409-1.58714-.91235-1.79157-2.6476-.39317-3.80282,1.04655-.86455,2.17183-1.63502,3.27629-2.42753,.28269-.20285,.6193-.33058,.94833-.50176Z"/>
  <path class="uuid-36a4c035-a940-4d4d-8f8f-53653a69f10c" d="M108.24453,373.91893c1.60406-.29588,3.1505-.5846,4.69831-.86568,1.51663-.27542,3.0344-.54453,4.55216-.81368,1.26844-.22493,2.27619,.30367,2.6893,1.40598,.40195,1.07255,.01177,2.08362-1.05965,2.74169-2.19974,1.35108-4.39256,2.71372-6.60599,4.04202-.45035,.27026-.96314,.5024-1.47494,.59016-.93463,.16028-1.96523-.37431-2.18472-1.19962-.50721-1.90718-.74408-3.85659-.61447-5.90088Z"/>
  <path class="uuid-d3fa4995-c8af-4689-8aa9-9c2a46c20709" d="M146.31831,365.62668c-.20823,.12767-.40979,.21934-.57337,.35633-2.25467,1.88814-4.50884,3.77697-6.75161,5.67918-.58044,.4923-1.20884,.77164-1.97362,.61628-1.45303-.29517-2.25688-1.84147-1.56582-3.16362,1.345-2.57325,2.73132-5.12579,4.14967-7.65942,.68593-1.2253,2.2589-1.5586,3.22212-.64978,1.4124,1.33264,2.49545,2.93168,3.49263,4.82103Z"/>
  <path class="uuid-36a4c035-a940-4d4d-8f8f-53653a69f10c" d="M137.67282,392.71638c-1.68454-1.99917-3.27613-3.88778-4.86737-5.77666-.46185-.54824-.93858-1.08489-1.38029-1.64894-.70953-.90601-.69168-2.02895,.01672-2.85761,.72029-.84257,1.77733-1.02334,2.8215-.45929,2.42724,1.31117,4.85422,2.62295,7.27188,3.95166,1.59764,.87803,1.81885,2.64133,.43814,3.79872-.98616,.82666-2.05197,1.55989-3.09867,2.31195-.34254,.24611-.7368,.42028-1.2019,.68016Z"/>
  <path class="uuid-3ba07e9f-43ca-45d6-a2d0-9134fd26b61b" d="M129.24825,354.75477c.18363,.96234,.37029,1.90515,.54256,2.85059,.35959,1.97344,.71329,3.94796,1.06499,5.92283,.05649,.31716,.11685,.63732,.12958,.95791,.04032,1.01559-.60313,1.92586-1.54122,2.21522-.99075,.30559-1.9941-.02197-2.54053-.90208-1.47385-2.3739-2.94746-4.74866-4.3718-7.15233-.97706-1.64884-.23893-3.1601,1.62301-3.51881,1.65755-.31933,3.31766-.52862,5.09341-.37333Z"/>
  <path class="uuid-d3fa4995-c8af-4689-8aa9-9c2a46c20709" d="M127.47409,394.89963c-.26988-1.44318-.53691-2.84598-.79366-4.25066-.28332-1.5501-.55924-3.10156-.83337-4.65331-.04978-.28173-.10024-.56704-.10797-.85184-.02718-1.00142,.64628-1.93307,1.56741-2.19674,1.01207-.2897,1.96525,.04662,2.52975,.93581,.59504,.93731,1.1553,1.89665,1.73589,2.84321,.86164,1.40477,1.72262,2.80998,2.59435,4.2085,.39919,.64043,.57429,1.3196,.35522,2.05051-.21914,.73117-.67925,1.29067-1.45126,1.44339-1.79086,.35429-3.59026,.67183-5.59637,.47114Z"/>
  <circle class="uuid-36a4c035-a940-4d4d-8f8f-53653a69f10c" cx="127.26395" cy="374.81573" r="3.29666"/>
</svg>